<svg width="12" height="12" viewBox="0 0 12 12" fill="none" xmlns="http://www.w3.org/2000/svg">
<path d="M11.749 0.251049C12.0838 0.58578 12.0838 1.1285 11.749 1.46323L2.03476 11.1775C1.70003 11.5122 1.15731 11.5122 0.822582 11.1775C0.48785 10.8427 0.48785 10.3001 0.822582 9.96537L10.5369 0.251049C10.8716 -0.0836829 11.4143 -0.0836829 11.749 0.251049Z" fill="white"/>
<path d="M0 0.857143C0 0.38376 0.38376 0 0.857143 0H11.1429C11.6162 0 12 0.38376 12 0.857143V11.1429C12 11.6162 11.6162 12 11.1429 12C10.6695 12 10.2857 11.6162 10.2857 11.1429V1.71429H0.857143C0.38376 1.71429 0 1.33053 0 0.857143Z" fill="white"/>
</svg>
