<svg width="12" height="12" viewBox="0 0 12 12" fill="none" xmlns="http://www.w3.org/2000/svg">
<path d="M11.7498 0.251049C12.0845 0.58578 12.0845 1.1285 11.7498 1.46323L2.0355 11.1775C1.70077 11.5122 1.15805 11.5122 0.823314 11.1775C0.488583 10.8427 0.488583 10.3001 0.823314 9.96537L10.5376 0.251049C10.8724 -0.0836829 11.415 -0.0836829 11.7498 0.251049Z" fill="black"/>
<path d="M0 0.857143C0 0.38376 0.38376 0 0.857143 0H11.1429C11.6162 0 12 0.38376 12 0.857143V11.1429C12 11.6162 11.6162 12 11.1429 12C10.6695 12 10.2857 11.6162 10.2857 11.1429V1.71429H0.857143C0.38376 1.71429 0 1.33053 0 0.857143Z" fill="black"/>
</svg>
