<svg width="172" height="40" viewBox="0 0 172 40" fill="none" xmlns="http://www.w3.org/2000/svg">
<g clip-path="url(#clip0_392_4413)">
<path d="M49.0371 29.0002H60.3898V25.7675H52.4989V10.6729H49.0371V29.0002Z" fill="white" fill-opacity="0.5"/>
<path d="M67.2108 29.3817C68.5854 29.3817 69.7945 29.0762 70.8381 28.4653C71.8902 27.8459 72.709 26.9932 73.2945 25.9072C73.8884 24.8126 74.1854 23.5526 74.1854 22.1272C74.1854 20.7102 73.8926 19.4587 73.3072 18.3726C72.7217 17.2781 71.9029 16.4211 70.8508 15.8017C69.8072 15.1823 68.5939 14.8726 67.2108 14.8726C65.8532 14.8726 64.6526 15.1781 63.609 15.789C62.5654 16.3999 61.7466 17.2526 61.1526 18.3472C60.5587 19.4332 60.2617 20.6932 60.2617 22.1272C60.2617 23.5441 60.5502 24.7999 61.1272 25.8944C61.7126 26.9805 62.5272 27.8332 63.5708 28.4526C64.6145 29.072 65.8278 29.3817 67.2108 29.3817ZM67.2108 26.149C66.1332 26.149 65.3145 25.7884 64.7545 25.0672C64.2029 24.3375 63.9272 23.3575 63.9272 22.1272C63.9272 20.9308 64.1902 19.9635 64.7163 19.2253C65.2508 18.4787 66.0823 18.1053 67.2108 18.1053C68.3054 18.1053 69.1284 18.4702 69.6799 19.1999C70.2399 19.9296 70.5199 20.9053 70.5199 22.1272C70.5199 23.3066 70.2442 24.2738 69.6926 25.029C69.1496 25.7756 68.3223 26.149 67.2108 26.149Z" fill="white" fill-opacity="0.5"/>
<path d="M81.0315 29.3817C81.6764 29.3817 82.2703 29.3053 82.8134 29.1526C83.3649 28.9999 83.8655 28.7835 84.3152 28.5035V29.8908C84.3322 30.3999 84.2006 30.8241 83.9206 31.1635C83.6491 31.5114 83.2843 31.7702 82.8261 31.9399C82.3679 32.1181 81.88 32.2072 81.3625 32.2072C80.8788 32.2072 80.4291 32.1011 80.0134 31.889C79.6061 31.6769 79.2921 31.3672 79.0715 30.9599L75.8643 32.5126C76.3903 33.4035 77.1412 34.1205 78.117 34.6635C79.0928 35.215 80.1661 35.4908 81.337 35.4908C82.3467 35.4908 83.2843 35.355 84.1497 35.0835C85.0152 34.8205 85.7449 34.4175 86.3388 33.8744C86.9412 33.3314 87.3528 32.6399 87.5734 31.7999C87.6497 31.5029 87.7006 31.2017 87.7261 30.8962C87.76 30.5993 87.777 30.2811 87.777 29.9417V15.2544H84.7479V16.0181C84.2812 15.6532 83.7509 15.3732 83.157 15.1781C82.5715 14.9744 81.9225 14.8726 81.2097 14.8726C79.8946 14.8726 78.7491 15.1866 77.7734 15.8144C76.7976 16.4423 76.0382 17.3035 75.4952 18.3981C74.9606 19.4841 74.6934 20.7272 74.6934 22.1272C74.6934 23.5017 74.9564 24.7362 75.4825 25.8308C76.017 26.9253 76.7594 27.7908 77.7097 28.4272C78.66 29.0635 79.7673 29.3817 81.0315 29.3817ZM81.5915 26.3017C80.8449 26.3017 80.234 26.115 79.7588 25.7417C79.2837 25.3684 78.9315 24.8678 78.7025 24.2399C78.4734 23.6035 78.3588 22.8993 78.3588 22.1272C78.3588 21.3635 78.4776 20.6678 78.7152 20.0399C78.9528 19.4035 79.3176 18.8987 79.8097 18.5253C80.3103 18.1435 80.9467 17.9526 81.7188 17.9526C82.8049 17.9526 83.5812 18.3387 84.0479 19.1108C84.5146 19.8744 84.7479 20.8799 84.7479 22.1272C84.7479 23.3744 84.5103 24.3841 84.0352 25.1562C83.5685 25.9199 82.754 26.3017 81.5915 26.3017Z" fill="white" fill-opacity="0.5"/>
<path d="M95.9999 29.3817C97.3745 29.3817 98.5836 29.0762 99.6272 28.4653C100.679 27.8459 101.498 26.9932 102.083 25.9072C102.677 24.8126 102.974 23.5526 102.974 22.1272C102.974 20.7102 102.682 19.4587 102.096 18.3726C101.511 17.2781 100.692 16.4211 99.6399 15.8017C98.5963 15.1823 97.3829 14.8726 95.9999 14.8726C94.6423 14.8726 93.4417 15.1781 92.3981 15.789C91.3545 16.3999 90.5357 17.2526 89.9417 18.3472C89.3478 19.4332 89.0508 20.6932 89.0508 22.1272C89.0508 23.5441 89.3393 24.7999 89.9163 25.8944C90.5017 26.9805 91.3163 27.8332 92.3599 28.4526C93.4036 29.072 94.6169 29.3817 95.9999 29.3817ZM95.9999 26.149C94.9223 26.149 94.1035 25.7884 93.5435 25.0672C92.992 24.3375 92.7163 23.3575 92.7163 22.1272C92.7163 20.9308 92.9793 19.9635 93.5054 19.2253C94.0399 18.4787 94.8714 18.1053 95.9999 18.1053C97.0945 18.1053 97.9175 18.4702 98.469 19.1999C99.029 19.9296 99.309 20.9053 99.309 22.1272C99.309 23.3066 99.0332 24.2738 98.4817 25.029C97.9387 25.7756 97.1114 26.149 95.9999 26.149Z" fill="white" fill-opacity="0.5"/>
<path d="M104.5 13.3455H107.962V10.291H104.5V13.3455ZM104.5 29.0001H107.962V15.2546H104.5V29.0001Z" fill="white" fill-opacity="0.5"/>
<path d="M110.225 35.109H113.712V28.5035C114.162 28.7835 114.658 28.9999 115.201 29.1526C115.753 29.3053 116.351 29.3817 116.996 29.3817C118.26 29.3817 119.368 29.0635 120.318 28.4272C121.268 27.7908 122.006 26.9253 122.532 25.8308C123.067 24.7362 123.334 23.5017 123.334 22.1272C123.334 20.7272 123.063 19.4841 122.52 18.3981C121.985 17.3035 121.23 16.4423 120.254 15.8144C119.278 15.1866 118.133 14.8726 116.818 14.8726C116.105 14.8726 115.452 14.9744 114.858 15.1781C114.272 15.3732 113.746 15.6532 113.28 16.0181V15.2544H110.225V35.109ZM116.436 26.3017C115.282 26.3017 114.468 25.9199 113.992 25.1562C113.517 24.3841 113.28 23.3744 113.28 22.1272C113.28 20.8799 113.513 19.8744 113.98 19.1108C114.455 18.3387 115.231 17.9526 116.309 17.9526C117.081 17.9526 117.713 18.1435 118.205 18.5253C118.706 18.8987 119.075 19.4035 119.312 20.0399C119.55 20.6678 119.669 21.3635 119.669 22.1272C119.669 22.8993 119.554 23.6035 119.325 24.2399C119.096 24.8678 118.744 25.3684 118.269 25.7417C117.794 26.115 117.183 26.3017 116.436 26.3017Z" fill="white" fill-opacity="0.5"/>
<path d="M129.606 29.3817C131.404 29.3817 132.813 28.9787 133.831 28.1726C134.849 27.3665 135.358 26.2593 135.358 24.8508C135.358 23.7817 135.027 22.9375 134.366 22.3181C133.712 21.6987 132.601 21.1853 131.031 20.7781C129.962 20.5065 129.164 20.2859 128.638 20.1162C128.121 19.9466 127.777 19.7811 127.607 19.6199C127.446 19.4587 127.366 19.2593 127.366 19.0217C127.366 18.6229 127.556 18.3175 127.938 18.1053C128.329 17.8932 128.842 17.8084 129.478 17.8508C130.827 17.9526 131.566 18.5296 131.693 19.5817L135.231 18.9453C135.053 17.6981 134.442 16.7096 133.398 15.9799C132.355 15.2417 131.023 14.8726 129.402 14.8726C127.739 14.8726 126.411 15.2629 125.418 16.0435C124.426 16.8241 123.929 17.8762 123.929 19.1999C123.929 20.252 124.273 21.0835 124.96 21.6944C125.647 22.2969 126.831 22.8144 128.511 23.2472C129.504 23.5102 130.233 23.7223 130.7 23.8835C131.175 24.0447 131.481 24.2102 131.616 24.3799C131.752 24.5411 131.82 24.7575 131.82 25.029C131.82 25.4617 131.65 25.8011 131.311 26.0472C130.972 26.2847 130.488 26.4035 129.86 26.4035C129.096 26.4035 128.464 26.2211 127.964 25.8562C127.472 25.4914 127.153 24.9866 127.009 24.3417L123.471 24.8762C123.7 26.3102 124.345 27.4217 125.406 28.2108C126.475 28.9914 127.875 29.3817 129.606 29.3817Z" fill="white" fill-opacity="0.5"/>
<path d="M141.744 29.4072C142.737 29.4072 143.602 29.2417 144.341 28.9108C145.079 28.5799 145.698 28.1387 146.199 27.5872V28.9999H149.253V15.2544H145.766V22.229C145.766 23.0775 145.668 23.7647 145.473 24.2908C145.287 24.8084 145.045 25.2029 144.748 25.4744C144.451 25.7375 144.133 25.9156 143.793 26.009C143.454 26.1023 143.136 26.149 142.839 26.149C142.101 26.149 141.528 25.9835 141.121 25.6526C140.722 25.3217 140.433 24.9102 140.255 24.4181C140.077 23.9259 139.971 23.4381 139.937 22.9544C139.903 22.4623 139.886 22.0593 139.886 21.7453V15.2544H136.373V22.9672C136.373 23.1962 136.39 23.5611 136.424 24.0617C136.458 24.5623 136.556 25.1181 136.717 25.729C136.878 26.3314 137.145 26.9126 137.519 27.4726C137.901 28.0326 138.431 28.495 139.11 28.8599C139.788 29.2247 140.667 29.4072 141.744 29.4072Z" fill="white" fill-opacity="0.5"/>
<path d="M151.258 29.0002H154.745V20.6765C154.745 19.8875 154.961 19.2469 155.394 18.7547C155.835 18.2541 156.416 18.0038 157.138 18.0038C157.893 18.0038 158.483 18.2584 158.907 18.7675C159.339 19.2681 159.556 19.9723 159.556 20.8802V29.0002H163.018V20.6765C163.018 19.8875 163.234 19.2469 163.667 18.7547C164.108 18.2541 164.689 18.0038 165.41 18.0038C166.166 18.0038 166.755 18.2584 167.179 18.7675C167.612 19.2681 167.829 19.9723 167.829 20.8802V29.0002H171.29V19.9638C171.29 18.462 170.887 17.2487 170.081 16.3238C169.284 15.3905 168.1 14.9238 166.53 14.9238C165.648 14.9238 164.838 15.1147 164.099 15.4965C163.361 15.8784 162.772 16.4002 162.33 17.062C161.974 16.4172 161.465 15.8996 160.803 15.5093C160.141 15.119 159.318 14.9238 158.334 14.9238C157.502 14.9238 156.739 15.0893 156.043 15.4202C155.347 15.7426 154.77 16.1881 154.312 16.7565V15.2547H151.258V29.0002Z" fill="white" fill-opacity="0.5"/>
<path d="M20 0C8.9543 0 0 8.9543 0 20C11.0457 20 20 11.0457 20 0Z" fill="white" fill-opacity="0.5"/>
<path d="M20 40C31.0457 40 40 31.0457 40 20C28.9543 20 20 28.9543 20 40Z" fill="white" fill-opacity="0.5"/>
<path d="M20 0C31.0457 0 40 8.9543 40 20C28.9543 20 20 11.0457 20 0Z" fill="white" fill-opacity="0.5"/>
<path d="M20 40C8.9543 40 -9.65645e-07 31.0457 0 20C11.0457 20 20 28.9543 20 40Z" fill="white" fill-opacity="0.5"/>
</g>
<defs>
<clipPath id="clip0_392_4413">
<rect width="172" height="40" fill="white"/>
</clipPath>
</defs>
</svg>
