<svg width="164" height="40" viewBox="0 0 164 40" fill="none" xmlns="http://www.w3.org/2000/svg">
<g clip-path="url(#clip0_362_53)">
<path d="M47.7578 28.0911H59.4951V24.5789H51.9295V11.3496H47.7578V28.0911Z" fill="white" fill-opacity="0.5"/>
<path d="M66.448 25.75C64.7746 25.75 63.9025 24.2983 63.9025 22.1208C63.9025 19.9432 64.7746 18.4681 66.448 18.4681C68.1214 18.4681 69.017 19.9432 69.017 22.1208C69.017 24.2983 68.1214 25.75 66.448 25.75ZM66.4715 28.4661C70.3604 28.4661 72.9058 25.7266 72.9058 22.1208C72.9058 18.5149 70.3604 15.7754 66.4715 15.7754C62.6062 15.7754 60.0137 18.5149 60.0137 22.1208C60.0137 25.7266 62.6062 28.4661 66.4715 28.4661Z" fill="white" fill-opacity="0.5"/>
<path d="M79.6378 32.2359C81.429 32.2359 83.0081 31.8378 84.0687 30.9012C85.0351 30.0349 85.6714 28.7237 85.6714 26.9207V16.1032H81.9947V17.391H81.9475C81.2405 16.3841 80.1563 15.752 78.5536 15.752C75.5604 15.752 73.4863 18.2339 73.4863 21.7461C73.4863 25.4222 76.0082 27.4359 78.7186 27.4359C80.1799 27.4359 81.0991 26.8505 81.8061 26.0544H81.9004V27.2485C81.9004 28.7002 81.2169 29.5432 79.5907 29.5432C78.3179 29.5432 77.6816 29.0046 77.4695 28.3724H73.7456C74.1227 30.8778 76.3146 32.2359 79.6378 32.2359ZM79.6142 24.6027C78.1765 24.6027 77.2338 23.432 77.2338 21.629C77.2338 19.8027 78.1765 18.632 79.6142 18.632C81.2169 18.632 82.0654 19.99 82.0654 21.6056C82.0654 23.2915 81.2876 24.6027 79.6142 24.6027Z" fill="white" fill-opacity="0.5"/>
<path d="M93.2312 25.7498C91.5578 25.7498 90.6857 24.2981 90.6857 22.1205C90.6857 19.943 91.5578 18.4678 93.2312 18.4678C94.9046 18.4678 95.8002 19.943 95.8002 22.1205C95.8002 24.2981 94.9046 25.7498 93.2312 25.7498ZM93.2547 28.4659C97.1436 28.4659 99.6893 25.7264 99.6893 22.1205C99.6893 18.5147 97.1436 15.7751 93.2547 15.7751C89.3895 15.7751 86.7969 18.5147 86.7969 22.1205C86.7969 25.7264 89.3895 28.4659 93.2547 28.4659Z" fill="white" fill-opacity="0.5"/>
<path d="M100.811 28.0911H104.652V16.1028H100.811V28.0911ZM100.811 14.4403H104.652V11.3496H100.811V14.4403Z" fill="white" fill-opacity="0.5"/>
<path d="M106.318 32.0485H110.16V26.8505H110.207C110.961 27.8573 112.069 28.4661 113.625 28.4661C116.783 28.4661 118.881 25.9841 118.881 22.0973C118.881 18.4915 116.924 15.752 113.719 15.752C112.069 15.752 110.891 16.4778 110.066 17.5549H109.995V16.1032H106.318V32.0485ZM112.635 25.5159C110.985 25.5159 110.042 24.1812 110.042 22.2378C110.042 20.2944 110.891 18.8193 112.564 18.8193C114.214 18.8193 114.992 20.1773 114.992 22.2378C114.992 24.2749 114.096 25.5159 112.635 25.5159Z" fill="white" fill-opacity="0.5"/>
<path d="M125.136 28.4661C128.294 28.4661 130.628 27.1081 130.628 24.4856C130.628 21.4183 128.129 20.8798 126.008 20.5285C124.476 20.2476 123.109 20.1305 123.109 19.2876C123.109 18.5383 123.84 18.1871 124.783 18.1871C125.843 18.1871 126.574 18.5149 126.715 19.592H130.251C130.062 17.2271 128.224 15.752 124.806 15.752C121.954 15.752 119.598 17.0632 119.598 19.592C119.598 22.4017 121.837 22.9637 123.934 23.3149C125.537 23.5959 126.998 23.7129 126.998 24.79C126.998 25.5627 126.268 25.9841 125.113 25.9841C123.84 25.9841 123.039 25.3988 122.897 24.2046H119.268C119.385 26.8505 121.601 28.4661 125.136 28.4661Z" fill="white" fill-opacity="0.5"/>
<path d="M135.846 28.4425C137.519 28.4425 138.58 27.7869 139.452 26.6162H139.523V28.0913H143.199V16.103H139.358V22.7996C139.358 24.2279 138.556 25.2113 137.236 25.2113C136.011 25.2113 135.422 24.4855 135.422 23.1742V16.103H131.604V23.9703C131.604 26.6396 133.065 28.4425 135.846 28.4425Z" fill="white" fill-opacity="0.5"/>
<path d="M144.871 28.0912H148.713V21.3712C148.713 19.9429 149.42 18.9361 150.622 18.9361C151.777 18.9361 152.319 19.6854 152.319 20.9732V28.0912H156.161V21.3712C156.161 19.9429 156.844 18.9361 158.07 18.9361C159.225 18.9361 159.767 19.6854 159.767 20.9732V28.0912H163.608V20.2941C163.608 17.6015 162.241 15.7517 159.507 15.7517C157.952 15.7517 156.656 16.4073 155.713 17.859H155.666C155.053 16.5712 153.851 15.7517 152.272 15.7517C150.528 15.7517 149.373 16.5712 148.619 17.8122H148.548V16.1029H144.871V28.0912Z" fill="white" fill-opacity="0.5"/>
<path fill-rule="evenodd" clip-rule="evenodd" d="M8.4987 3.79649C7.09374 4.77245 5.82328 5.92635 4.7204 7.2253C9.22726 6.80962 14.9531 7.48837 21.6007 10.7905C28.6994 14.3165 34.4156 14.4357 38.3939 13.6734C38.0329 12.5876 37.5784 11.5441 37.0401 10.5521C32.4861 11.0293 26.6479 10.3977 19.844 7.01806C15.5234 4.87191 11.7149 3.98785 8.4987 3.79649ZM34.3799 6.79042C30.7836 2.79857 25.5573 0.286377 19.7403 0.286377C18.032 0.286377 16.3746 0.503067 14.7945 0.91026C16.9345 1.49036 19.2079 2.33905 21.6007 3.52761C26.5821 6.00201 30.8829 6.79872 34.3799 6.79042ZM39.2444 17.4845C34.4383 18.4273 27.8016 18.2337 19.844 14.2809C12.4045 10.5855 6.48327 10.632 2.48979 11.5137C2.28366 11.5591 2.08238 11.6069 1.88596 11.6567C1.36312 12.7864 0.945765 13.9743 0.646311 15.2078C0.966144 15.1229 1.29664 15.0423 1.63763 14.9669C6.48242 13.8974 13.3277 13.9438 21.6007 18.0533C29.0403 21.7487 34.9614 21.7022 38.955 20.8205C39.0918 20.7904 39.2266 20.7591 39.3592 20.7269C39.3737 20.4193 39.381 20.1098 39.381 19.7985C39.381 19.0156 39.3347 18.2434 39.2444 17.4845ZM38.7179 24.8447C33.9585 25.6713 27.5151 25.3541 19.844 21.5437C12.4045 17.8483 6.48327 17.8948 2.48979 18.7765C1.60335 18.9721 0.805928 19.2105 0.102487 19.4621C0.100569 19.574 0.0996094 19.6862 0.0996094 19.7985C0.0996094 30.5748 8.89304 39.3107 19.7403 39.3107C28.8311 39.3107 36.4794 33.175 38.7179 24.8447Z" fill="white" fill-opacity="0.5"/>
</g>
<defs>
<clipPath id="clip0_362_53">
<rect width="164" height="40" fill="white"/>
</clipPath>
</defs>
</svg>
