<svg width="120" height="120" viewBox="0 0 120 120" fill="none" xmlns="http://www.w3.org/2000/svg">
<circle cx="60" cy="60" r="60" fill="url(#paint0_linear_392_3287)"/>
<path d="M63.9733 18.156C62.8741 18.0419 62.035 17.6478 61.4557 16.9737C60.8774 16.2911 60.6476 15.3804 60.7663 14.2415L60.988 12.1155C61.1067 10.9766 61.5191 10.1368 62.225 9.5961C62.9317 9.04695 63.8347 8.82943 64.9338 8.94353C66.0245 9.05675 66.8345 9.44357 67.3639 10.104C67.9026 10.7568 68.1179 11.6021 68.0097 12.6398L68.0018 12.7157L66.3531 12.5446L66.3663 12.418C66.4208 11.895 66.3177 11.4493 66.057 11.0812C65.8047 10.7139 65.3784 10.4991 64.7781 10.4368C64.1863 10.3753 63.7024 10.5084 63.3263 10.8361C62.9503 11.1637 62.7298 11.6397 62.6647 12.264L62.4377 14.4406C62.3735 15.0564 62.4912 15.5675 62.7907 15.9738C63.091 16.3717 63.5371 16.6013 64.129 16.6628C64.7292 16.7251 65.1907 16.6024 65.5134 16.2948C65.8453 15.9797 66.0382 15.5648 66.0918 15.0501L66.1156 14.8224L67.7643 14.9935L67.7458 15.1707C67.6376 16.2084 67.2521 16.9955 66.5894 17.5322C65.936 18.0613 65.0639 18.2692 63.9733 18.156Z" fill="white"/>
<path d="M72.3074 19.8659C71.708 19.6755 71.2081 19.3831 70.8076 18.9888C70.4071 18.5945 70.1426 18.1233 70.0142 17.5751C69.8859 17.0269 69.9249 16.4295 70.1312 15.783L70.1931 15.589C70.3994 14.9424 70.7138 14.4326 71.1362 14.0594C71.5586 13.6862 72.0474 13.4543 72.6027 13.3637C73.158 13.2731 73.7353 13.323 74.3347 13.5135C74.934 13.7039 75.434 13.9963 75.8345 14.3906C76.235 14.7849 76.4994 15.2561 76.6278 15.8043C76.7562 16.3525 76.7172 16.9498 76.5109 17.5964L76.449 17.7904C76.2426 18.4369 75.9282 18.9468 75.5058 19.32C75.0834 19.6931 74.5946 19.925 74.0393 20.0157C73.4841 20.1063 72.9068 20.0564 72.3074 19.8659ZM72.7407 18.5081C73.2105 18.6574 73.647 18.6314 74.0502 18.4302C74.456 18.2209 74.7492 17.8333 74.9297 17.2676L74.9684 17.1464C75.149 16.5806 75.133 16.0993 74.9207 15.7025C74.719 15.3002 74.3792 15.0231 73.9014 14.8712C73.4316 14.722 72.9938 14.752 72.588 14.9613C72.1848 15.1626 71.8929 15.546 71.7123 16.1118L71.6736 16.233C71.4931 16.7988 71.5077 17.2841 71.7175 17.689C71.9298 18.0858 72.2709 18.3589 72.7407 18.5081Z" fill="white"/>
<path d="M77.6051 21.5974L80.6732 16.0792L82.0557 16.8446L81.6537 17.5677L81.8544 17.6788C82.0508 17.5354 82.3191 17.4462 82.6592 17.4114C83.0035 17.3692 83.4246 17.486 83.9226 17.7616C84.3538 18.0003 84.6735 18.3082 84.8817 18.6854C85.1016 19.0593 85.2038 19.4699 85.1884 19.9173C85.1771 20.3572 85.0436 20.8071 84.7879 21.267L82.9569 24.5601L81.5521 23.7824L83.3212 20.6005C83.5521 20.1852 83.6212 19.816 83.5286 19.4932C83.4434 19.1744 83.2112 18.9101 82.8321 18.7002C82.401 18.4616 81.9861 18.421 81.5874 18.5786C81.1928 18.7288 80.8533 19.0598 80.5687 19.5715L79.0099 22.3751L77.6051 21.5974Z" fill="white"/>
<path d="M86.6119 27.3518C86.2876 27.091 86.1029 26.779 86.0577 26.4159C86.0246 26.0515 86.144 25.7009 86.4161 25.3641L88.6567 22.5906L87.4257 21.6005L88.2579 20.5704L89.4889 21.5604L90.7212 20.035L91.972 21.0411L90.7397 22.5665L92.0898 23.6524L91.2576 24.6825L89.9075 23.5966L87.843 26.1522C87.6829 26.3503 87.6955 26.5239 87.8809 26.673L88.8339 27.4395L88.0016 28.4696L86.6119 27.3518Z" fill="white"/>
<path d="M90.8669 31.565C90.5675 31.2291 90.3564 30.8774 90.2334 30.5097C90.1168 30.1364 90.0991 29.7719 90.1802 29.4162C90.2732 29.0611 90.4817 28.7399 90.8057 28.4524C91.1296 28.1649 91.4673 28.0014 91.8189 27.9619C92.1824 27.923 92.5396 27.9919 92.8905 28.1686C93.2534 28.346 93.5931 28.6122 93.9094 28.9671L95.0619 30.26L95.3286 30.0233C95.5509 29.826 95.6698 29.5956 95.6853 29.3322C95.7071 29.0631 95.5824 28.7764 95.3112 28.4722C95.0457 28.1744 94.7781 28.0145 94.5085 27.9928C94.2451 27.9654 93.9857 28.0253 93.7302 28.1726L93.1188 26.7401C93.428 26.6019 93.7545 26.5279 94.0982 26.5179C94.454 26.5087 94.8165 26.5899 95.1858 26.7617C95.567 26.9341 95.9384 27.2232 96.3 27.6288C96.8536 28.2499 97.1358 28.8792 97.1466 29.5166C97.1574 30.1541 96.8674 30.735 96.2767 31.2592L94.5141 32.8234C94.3236 32.9925 94.3074 33.1658 94.4655 33.3433L94.8045 33.7235L93.8136 34.6029L93.1018 33.8043C92.8928 33.5698 92.7777 33.3258 92.7564 33.0722C92.7352 32.8187 92.8198 32.6073 93.0104 32.4382L93.0199 32.4298L92.8589 32.2491C92.7601 32.2914 92.6076 32.3246 92.4015 32.3486C92.2017 32.367 91.9695 32.3233 91.7047 32.2178C91.44 32.1122 91.1607 31.8946 90.8669 31.565ZM92.0252 30.9118C92.3246 31.2477 92.6596 31.4384 93.0302 31.4841C93.4128 31.5305 93.7598 31.4156 94.071 31.1394L94.1663 31.0548L93.0901 29.8475C92.8924 29.6257 92.6894 29.4936 92.4811 29.4514C92.2729 29.4092 92.083 29.4642 91.9115 29.6164C91.74 29.7686 91.6596 29.9592 91.6702 30.1881C91.6809 30.417 91.7992 30.6582 92.0252 30.9118Z" fill="white"/>
<path d="M96.1467 38.5795C95.8307 38.0565 95.6526 37.515 95.6121 36.955C95.576 36.4023 95.6909 35.8777 95.9567 35.3812C96.2225 34.8846 96.6503 34.459 97.24 34.1044L97.3929 34.0125C97.9827 33.6579 98.5596 33.4793 99.1238 33.4767C99.6879 33.4742 100.206 33.6179 100.679 33.9079C101.157 34.2052 101.553 34.6154 101.869 35.1384C102.181 35.6542 102.357 36.1521 102.399 36.632C102.441 37.112 102.37 37.5608 102.185 37.9787C102.013 38.3994 101.748 38.7665 101.391 39.0799L100.305 37.9212C100.505 37.7608 100.662 37.5773 100.776 37.3705C100.889 37.1637 100.94 36.9352 100.928 36.6851C100.92 36.4421 100.833 36.1827 100.666 35.9066C100.499 35.6306 100.286 35.4171 100.026 35.2664C99.7779 35.1185 99.4942 35.0514 99.175 35.0651C98.8674 35.0817 98.5425 35.1929 98.2003 35.3986L98.0911 35.4643C97.749 35.6701 97.495 35.9069 97.3294 36.1749C97.1754 36.4458 97.1023 36.7274 97.1101 37.0198C97.1297 37.315 97.2228 37.6007 97.3895 37.8767C97.6396 38.2908 97.9339 38.5397 98.2722 38.6234C98.6223 38.71 98.9896 38.6773 99.3742 38.5253L99.8604 40.0451C99.4175 40.1827 98.9656 40.2316 98.5049 40.1918C98.0558 40.1548 97.6284 40.0058 97.2226 39.7448C96.8168 39.4837 96.4582 39.0953 96.1467 38.5795Z" fill="white"/>
<path d="M99.583 45.1846C99.4315 44.7974 99.4267 44.4351 99.5684 44.0977C99.7212 43.765 99.9995 43.5201 100.403 43.3628L103.729 42.0675L103.154 40.5978L104.39 40.1167L104.964 41.5864L106.794 40.8739L107.378 42.3673L105.549 43.0797L106.179 44.6916L104.944 45.1727L104.313 43.5608L101.249 44.7543C101.011 44.8469 100.936 45.0037 101.022 45.225L101.467 46.3628L100.232 46.8439L99.583 45.1846Z" fill="white"/>
<path d="M102.022 56.109C101.949 55.3832 102.018 54.7455 102.227 54.196C102.446 53.6542 102.787 53.2194 103.25 52.8919C103.722 52.5719 104.296 52.3781 104.972 52.3104L110.732 51.7344L110.9 53.4054L105.09 53.9865C104.548 54.0407 104.136 54.2353 103.854 54.5704C103.572 54.914 103.461 55.3769 103.519 55.9592C103.578 56.5416 103.779 56.969 104.122 57.2415C104.467 57.5225 104.909 57.6359 105.451 57.5818L111.261 57.0007L111.429 58.6717L105.669 59.2477C104.993 59.3154 104.391 59.235 103.864 59.0064C103.346 58.7853 102.926 58.4267 102.602 57.9306C102.289 57.442 102.095 56.8348 102.022 56.109Z" fill="white"/>
<path d="M102.064 64.5507C102.141 63.7315 102.381 63.0767 102.786 62.5864C103.191 62.096 103.728 61.8268 104.399 61.7786L104.641 63.2836C104.34 63.3151 104.098 63.3905 103.916 63.5098C103.733 63.6375 103.594 63.7992 103.499 63.9947C103.411 64.1995 103.356 64.4244 103.333 64.6693C103.298 65.0409 103.336 65.3212 103.446 65.5105C103.565 65.7004 103.722 65.8045 103.917 65.8227C104.111 65.8409 104.267 65.7703 104.385 65.6109C104.511 65.4523 104.625 65.1903 104.727 64.8251L104.824 64.4763C104.95 64.0451 105.102 63.6546 105.28 63.3049C105.466 62.956 105.701 62.6841 105.984 62.489C106.267 62.294 106.616 62.2158 107.03 62.2546C107.657 62.3131 108.113 62.5858 108.401 63.0726C108.696 63.5603 108.809 64.1757 108.74 64.9188C108.674 65.6198 108.463 66.1878 108.106 66.623C107.749 67.0583 107.31 67.3239 106.789 67.42L106.471 65.8953C106.799 65.8578 107.041 65.7398 107.196 65.5413C107.35 65.3513 107.442 65.1042 107.47 64.8002C107.499 64.4962 107.466 64.2588 107.371 64.0881C107.284 63.9182 107.148 63.8245 106.962 63.8071C106.758 63.7881 106.598 63.8583 106.481 64.0177C106.372 64.1779 106.278 64.3992 106.201 64.6816L106.104 65.0304C105.975 65.4954 105.821 65.9112 105.641 66.2778C105.469 66.6536 105.242 66.939 104.959 67.1341C104.684 67.3384 104.326 67.4199 103.886 67.3788C103.226 67.3171 102.736 67.0286 102.417 66.5133C102.106 66.0071 101.988 65.3529 102.064 64.5507Z" fill="white"/>
<path d="M106.033 74.5345L106.919 74.8603L106.575 75.7914L106.101 76.5936L106.235 76.7105L106.99 76.1748L107.903 75.7648L108.295 76.6145L107.39 77.0408L106.492 77.2661L106.494 77.4432L107.413 77.605L108.346 77.9484L108.019 78.8318L107.086 78.4884L106.282 78.0162L106.165 78.1494L106.702 78.9029L107.113 79.8135L106.261 80.2053L105.834 79.3023L105.608 78.4055L105.431 78.408L105.269 79.3247L104.924 80.2557L104.039 79.93L104.383 78.9989L104.856 78.1967L104.723 78.0798L103.968 78.6155L103.055 79.0254L102.663 78.1758L103.568 77.7495L104.466 77.5242L104.464 77.347L103.545 77.1852L102.612 76.8418L102.939 75.9585L103.872 76.3019L104.676 76.7741L104.793 76.6409L104.256 75.8873L103.845 74.9767L104.697 74.585L105.124 75.488L105.35 76.3847L105.527 76.3823L105.689 75.4656L106.033 74.5345Z" fill="white"/>
<path d="M94.0729 85.6267C94.7247 84.7363 95.4882 84.2109 96.3635 84.0506C97.2457 83.8952 98.1501 84.1552 99.0768 84.8306L100.807 86.0912C101.733 86.7666 102.253 87.5447 102.366 88.4254C102.487 89.3112 102.221 90.1993 101.569 91.0897C100.922 91.9733 100.18 92.4772 99.3413 92.6015C98.5048 92.7376 97.6644 92.498 96.8201 91.8827L96.7583 91.8376L97.7359 90.502L97.8389 90.577C98.2645 90.8872 98.7023 91.0225 99.1524 90.9828C99.5974 90.9501 99.9979 90.6905 100.354 90.2042C100.705 89.7248 100.833 89.2405 100.738 88.7514C100.644 88.2623 100.342 87.8326 99.8345 87.4624L98.0635 86.1717C97.5624 85.8065 97.0605 85.6509 96.558 85.7047C96.0622 85.7636 95.6389 86.0328 95.288 86.5122C94.932 86.9985 94.8061 87.4582 94.9102 87.8912C95.0161 88.336 95.2785 88.711 95.6972 89.0162L95.8825 89.1513L94.9049 90.4869L94.7607 90.3818C93.9164 89.7665 93.4285 89.0381 93.2971 88.1966C93.1676 87.3669 93.4262 86.5103 94.0729 85.6267Z" fill="white"/>
<path d="M88.3982 91.9642C88.864 91.5423 89.3682 91.2573 89.9109 91.1094C90.4537 90.9614 90.9949 90.9695 91.5346 91.1336C92.0742 91.2977 92.5726 91.631 93.0297 92.1334L93.1668 92.2841C93.6239 92.7865 93.9083 93.3136 94.02 93.8654C94.1317 94.4172 94.0876 94.9555 93.8877 95.4802C93.6878 96.005 93.3549 96.4783 92.8892 96.9002C92.4235 97.3221 91.9192 97.607 91.3765 97.755C90.8337 97.903 90.2925 97.8949 89.7529 97.7308C89.2132 97.5667 88.7148 97.2334 88.2577 96.731L88.1206 96.5803C87.6635 96.0779 87.3791 95.5508 87.2674 94.999C87.1557 94.4472 87.1998 93.9089 87.3997 93.3841C87.5997 92.8594 87.9325 92.386 88.3982 91.9642ZM89.3581 93.0192C88.9931 93.3499 88.7967 93.7397 88.7689 94.1887C88.7469 94.644 88.9359 95.0914 89.3358 95.531L89.4215 95.6252C89.8215 96.0648 90.2467 96.2925 90.6973 96.3082C91.1473 96.3359 91.558 96.1816 91.9293 95.8452C92.2943 95.5145 92.4879 95.1215 92.5099 94.6663C92.5377 94.2172 92.3516 93.7729 91.9516 93.3333L91.8659 93.2391C91.4659 92.7995 91.0378 92.5688 90.5815 92.5468C90.131 92.531 89.7232 92.6885 89.3581 93.0192Z" fill="white"/>
<path d="M84.2397 95.6719L87.4944 101.083L86.1387 101.895L85.7122 101.185L85.5154 101.303C85.5417 101.545 85.4849 101.821 85.345 102.132C85.2095 102.451 84.8975 102.757 84.4092 103.049C83.9865 103.302 83.5594 103.424 83.1278 103.416C82.6934 103.419 82.2859 103.302 81.9054 103.065C81.5293 102.835 81.2056 102.495 80.9344 102.044L78.9921 98.8147L80.3696 97.9897L82.2463 101.11C82.4912 101.517 82.777 101.761 83.1036 101.843C83.4228 101.928 83.7683 101.86 84.14 101.637C84.5628 101.384 84.8054 101.046 84.8681 100.623C84.9351 100.207 84.8176 99.7477 84.5158 99.2459L82.8622 96.4969L84.2397 95.6719Z" fill="white"/>
<path d="M74.7355 100.577C75.1242 100.427 75.4873 100.424 75.8249 100.567C76.1575 100.721 76.4018 101 76.5575 101.404L77.8403 104.728L79.3158 104.161L79.7923 105.396L78.3168 105.963L79.0223 107.791L77.523 108.367L76.8175 106.539L75.1992 107.161L74.7227 105.926L76.341 105.304L75.159 102.241C75.0674 102.003 74.9105 101.927 74.6884 102.013L73.5461 102.452L73.0696 101.217L74.7355 100.577Z" fill="white"/>
<path d="M68.9257 102.139C69.3673 102.05 69.7782 102.045 70.1585 102.124C70.5404 102.212 70.865 102.38 71.1322 102.629C71.3929 102.888 71.5661 103.229 71.652 103.653C71.7379 104.077 71.7095 104.451 71.5668 104.774C71.4175 105.107 71.178 105.38 70.8484 105.594C70.5121 105.817 70.1106 105.976 69.6441 106.07L67.9443 106.413L68.0151 106.762C68.074 107.053 68.2137 107.272 68.4341 107.418C68.6561 107.572 68.9671 107.609 69.367 107.528C69.7586 107.449 70.0317 107.299 70.1863 107.077C70.3425 106.864 70.4212 106.61 70.4223 106.316L71.9705 106.51C71.9346 106.846 71.8344 107.164 71.67 107.466C71.4989 107.777 71.2461 108.049 70.9115 108.281C70.5702 108.523 70.133 108.698 69.5997 108.805C68.7832 108.97 68.0962 108.896 67.5388 108.585C66.9813 108.273 66.6243 107.731 66.4676 106.958L66.0002 104.651C65.9497 104.401 65.8078 104.3 65.5745 104.347L65.0745 104.448L64.8118 103.151L65.8616 102.939C66.1699 102.877 66.4392 102.901 66.6694 103.01C66.8997 103.119 67.0401 103.299 67.0907 103.548L67.0932 103.56L67.3307 103.513C67.3438 103.406 67.3918 103.258 67.4748 103.068C67.5594 102.887 67.7141 102.708 67.9388 102.533C68.1635 102.358 68.4924 102.227 68.9257 102.139ZM68.9084 103.467C68.4669 103.556 68.133 103.749 67.9069 104.045C67.6742 104.352 67.599 104.709 67.6816 105.116L67.7068 105.241L69.2941 104.921C69.5857 104.862 69.8022 104.753 69.9436 104.595C70.0849 104.437 70.1329 104.245 70.0874 104.021C70.0419 103.796 69.9174 103.631 69.7138 103.525C69.5102 103.419 69.2417 103.4 68.9084 103.467Z" fill="white"/>
<path d="M60.1965 103.159C60.8085 103.15 61.3671 103.268 61.8725 103.515C62.3693 103.762 62.7659 104.125 63.0622 104.604C63.3585 105.083 63.5119 105.666 63.5223 106.353L63.525 106.531C63.5354 107.218 63.3998 107.806 63.1182 108.294C62.8365 108.781 62.4511 109.156 61.962 109.418C61.4644 109.68 60.9096 109.816 60.2977 109.825C59.6942 109.834 59.1741 109.736 58.7374 109.53C58.3008 109.325 57.9478 109.038 57.6787 108.668C57.4012 108.308 57.2164 107.895 57.1243 107.43L58.6747 107.076C58.7126 107.329 58.7925 107.557 58.9146 107.759C59.0367 107.961 59.2091 108.119 59.4319 108.235C59.6462 108.35 59.9148 108.406 60.2378 108.401C60.5608 108.396 60.8529 108.319 61.1142 108.171C61.3671 108.032 61.568 107.821 61.7167 107.539C61.8571 107.265 61.9243 106.929 61.9182 106.53L61.9163 106.403C61.9102 106.004 61.8328 105.666 61.6841 105.389C61.527 105.12 61.3199 104.915 61.0627 104.775C60.7971 104.643 60.5029 104.579 60.1799 104.584C59.6954 104.592 59.3318 104.72 59.0891 104.97C58.8379 105.228 58.6815 105.561 58.6197 105.969L57.0587 105.624C57.1623 105.173 57.3473 104.759 57.6137 104.381C57.8716 104.013 58.2157 103.719 58.646 103.5C59.0762 103.282 59.5931 103.168 60.1965 103.159Z" fill="white"/>
<path d="M52.707 102.801C53.1186 102.865 53.4351 103.043 53.6564 103.334C53.868 103.633 53.9405 103.996 53.8741 104.424L53.3267 107.944L54.8891 108.186L54.6858 109.494L53.1234 109.252L52.8224 111.188L51.2348 110.942L51.5358 109.006L49.8222 108.741L50.0255 107.433L51.7391 107.698L52.2435 104.455C52.2826 104.203 52.1845 104.059 51.9493 104.023L50.7397 103.836L50.943 102.528L52.707 102.801Z" fill="white"/>
<path d="M42.0055 99.4185C42.671 99.7204 43.1891 100.1 43.5598 100.557C43.9193 101.018 44.1246 101.531 44.1759 102.094C44.216 102.662 44.0953 103.255 43.8138 103.873L41.418 109.131L39.8858 108.436L42.3028 103.131C42.5279 102.637 42.5663 102.184 42.4179 101.772C42.2618 101.356 41.9167 101.027 41.3828 100.785C40.8489 100.543 40.3775 100.502 39.9688 100.661C39.5523 100.817 39.2315 101.142 39.0063 101.636L36.5893 106.94L35.0572 106.245L37.453 100.987C37.7345 100.369 38.1067 99.8906 38.5696 99.5509C39.0213 99.2154 39.5433 99.0329 40.1357 99.0035C40.7167 98.9783 41.34 99.1166 42.0055 99.4185Z" fill="white"/>
<path d="M34.7445 95.2503C35.4153 95.7286 35.8613 96.2656 36.0825 96.8612C36.3037 97.4568 36.2665 98.0558 35.9709 98.6582L34.5451 98.1106C34.6697 97.8345 34.7261 97.5881 34.7143 97.3711C34.6956 97.1493 34.6255 96.9481 34.504 96.7676C34.3706 96.5891 34.2036 96.4284 34.0031 96.2854C33.6988 96.0684 33.4369 95.9598 33.2176 95.9598C32.9933 95.9666 32.8243 96.0494 32.7106 96.2081C32.5969 96.3669 32.5796 96.5369 32.6586 96.7184C32.7327 96.9067 32.9021 97.137 33.1668 97.4092L33.4202 97.6681C33.7304 97.9935 33.9922 98.321 34.2056 98.6503C34.414 98.9866 34.5315 99.3258 34.5581 99.668C34.5847 100.01 34.4769 100.35 34.2347 100.688C33.8689 101.199 33.403 101.456 32.8367 101.459C32.2656 101.468 31.6757 101.256 31.0671 100.822C30.4931 100.413 30.1073 99.9449 29.9098 99.4183C29.7123 98.8918 29.7031 98.3795 29.8821 97.8817L31.3627 98.3745C31.2302 98.6762 31.2109 98.9439 31.3047 99.1776C31.3916 99.4064 31.5595 99.6095 31.8085 99.7871C32.0575 99.9646 32.2798 100.055 32.4754 100.059C32.6661 100.07 32.8159 99.9998 32.9246 99.848C33.0432 99.6824 33.063 99.5089 32.984 99.3274C32.9001 99.1529 32.7554 98.9611 32.5499 98.752L32.2965 98.4931C31.9586 98.1479 31.6761 97.8057 31.4489 97.4664C31.2098 97.1292 31.077 96.7895 31.0504 96.4473C31.012 96.1071 31.1213 95.7576 31.3783 95.3988C31.7638 94.8605 32.2599 94.5836 32.8666 94.568C33.4615 94.5543 34.0875 94.7817 34.7445 95.2503Z" fill="white"/>
<path d="M24.0985 93.6536L23.3723 94.2547L22.7373 93.491L22.2787 92.6803L22.1104 92.737L22.1965 93.6576L22.0947 94.651L21.1611 94.5643L21.2449 93.5691L21.4999 92.6803L21.345 92.5936L20.7443 93.3058L19.9789 93.9394L19.3764 93.2148L20.1419 92.5812L20.9543 92.1236L20.8975 91.9557L19.9749 92.0416L18.9793 91.94L19.0662 91.0085L20.0635 91.0921L20.9543 91.3465L21.0412 91.192L20.3275 90.5926L19.6925 89.8288L20.4186 89.2277L21.0537 89.9914L21.5122 90.8021L21.6805 90.7454L21.5944 89.8248L21.6962 88.8314L22.6298 88.9181L22.546 89.9133L22.291 90.8021L22.4459 90.8888L23.0466 90.1766L23.812 89.543L24.4145 90.2676L23.649 90.9012L22.8367 91.3588L22.8934 91.5267L23.816 91.4408L24.8116 91.5423L24.7247 92.4739L23.7274 92.3903L22.8366 92.1358L22.7497 92.2904L23.4634 92.8898L24.0985 93.6536Z" fill="white"/>
<path d="M20.4578 77.7606C20.9038 78.7694 20.9772 79.692 20.6779 80.5282C20.3709 81.3679 19.6924 82.0188 18.6425 82.4809L16.6825 83.3436C15.6326 83.8057 14.6973 83.8651 13.8766 83.5217C13.0481 83.1818 12.4109 82.5074 11.9649 81.4986C11.5223 80.4975 11.4571 79.6038 11.7692 78.8175C12.07 78.0269 12.6987 77.4211 13.6554 77.0001L13.7254 76.9693L14.3943 78.4825L14.2777 78.5339C13.7955 78.7461 13.4588 79.0565 13.2678 79.465C13.0734 79.8658 13.0979 80.3417 13.3415 80.8927C13.5816 81.4359 13.9375 81.7892 14.4092 81.9524C14.8808 82.1156 15.4044 82.0706 15.98 81.8173L17.9865 80.9341C18.5543 80.6842 18.9407 80.3288 19.1456 79.8677C19.3428 79.4101 19.3214 78.9097 19.0812 78.3665C18.8377 77.8155 18.502 77.4765 18.0743 77.3496C17.6353 77.2183 17.1786 77.2571 16.7042 77.4659L16.4942 77.5583L15.8253 76.045L15.9886 75.9731C16.9452 75.5521 17.8214 75.4956 18.6172 75.8035C19.4017 76.1071 20.0153 76.7595 20.4578 77.7606Z" fill="white"/>
<path d="M17.811 69.6747C17.942 70.2886 17.9351 70.8668 17.7901 71.4092C17.6452 71.9517 17.3659 72.4143 16.9522 72.7971C16.5385 73.1798 15.9991 73.4419 15.3339 73.5832L15.1344 73.6256C14.4693 73.767 13.8697 73.747 13.3356 73.5657C12.8015 73.3843 12.3575 73.0754 12.0036 72.639C11.6497 72.2025 11.4072 71.6774 11.2762 71.0635C11.1452 70.4496 11.1521 69.8714 11.2971 69.3289C11.442 68.7865 11.7213 68.3239 12.135 67.9411C12.5487 67.5583 13.0881 67.2963 13.7532 67.1549L13.9528 67.1125C14.6179 66.9712 15.2175 66.9912 15.7516 67.1725C16.2857 67.3539 16.7297 67.6628 17.0836 68.0992C17.4375 68.5356 17.6799 69.0608 17.811 69.6747ZM16.4142 69.9715C16.3115 69.4904 16.0727 69.1249 15.6978 68.875C15.3146 68.6269 14.832 68.5647 14.25 68.6884L14.1253 68.7149C13.5433 68.8386 13.1322 69.0907 12.8919 69.4713C12.6414 69.8454 12.5685 70.2772 12.673 70.7666C12.7757 71.2478 13.0186 71.6124 13.4018 71.8605C13.7767 72.1104 14.2552 72.1735 14.8372 72.0498L14.9619 72.0233C15.5438 71.8996 15.9592 71.6466 16.2078 71.2642C16.4481 70.8836 16.5169 70.4527 16.4142 69.9715Z" fill="white"/>
<path d="M16.6953 64.2221L10.3715 64.3063L10.3504 62.7288L11.1792 62.7177L11.1761 62.4888C10.9538 62.3899 10.743 62.2019 10.5437 61.9246C10.336 61.6474 10.2283 61.2247 10.2207 60.6565C10.2142 60.1646 10.3232 59.7348 10.5478 59.367C10.7638 58.9909 11.0702 58.6984 11.467 58.4896C11.8552 58.2808 12.3128 58.1729 12.8398 58.1659L16.6137 58.1157L16.6351 59.7187L12.9887 59.7672C12.5128 59.7735 12.1574 59.897 11.9225 60.1376C11.6876 60.3698 11.573 60.7021 11.5788 61.1347C11.5854 61.6266 11.7562 62.006 12.0914 62.273C12.418 62.5401 12.8745 62.6697 13.461 62.6619L16.6739 62.6192L16.6953 64.2221Z" fill="white"/>
<path d="M17.2253 53.5197C17.1595 53.9301 16.98 54.2451 16.6866 54.4645C16.3861 54.6743 16.0218 54.7451 15.5937 54.6768L12.0683 54.1145L11.8187 55.6724L10.5093 55.4635L10.7588 53.9057L8.81986 53.5964L9.07343 52.0135L11.0124 52.3227L11.2861 50.6141L12.5956 50.8229L12.3219 52.5315L15.5703 53.0496C15.8221 53.0898 15.9668 52.9926 16.0044 52.7581L16.1976 51.552L17.507 51.7608L17.2253 53.5197Z" fill="white"/>
<path d="M18.7823 47.7353C18.638 48.1611 18.4362 48.5184 18.1769 48.8069C17.9096 49.0928 17.601 49.2886 17.2511 49.3944C16.8958 49.4895 16.5129 49.4677 16.1022 49.3292C15.6915 49.1906 15.3819 48.9787 15.1735 48.6935C14.9597 48.3976 14.8429 48.0537 14.8231 47.662C14.7979 47.2596 14.8616 46.8334 15.014 46.3834L15.5695 44.7443L15.2312 44.6302C14.9494 44.5351 14.6899 44.5461 14.4529 44.6631C14.2078 44.7774 14.0199 45.0274 13.8892 45.413C13.7612 45.7907 13.7545 46.1018 13.8691 46.3464C13.9756 46.5882 14.1562 46.7835 14.4109 46.9321L13.4661 48.1712C13.1928 47.9716 12.9667 47.7252 12.7878 47.4321C12.6037 47.1282 12.495 46.7737 12.4618 46.3685C12.4232 45.9526 12.4911 45.4875 12.6653 44.9733C12.9321 44.1859 13.3404 43.6297 13.8902 43.3048C14.44 42.9799 15.0893 42.9438 15.8382 43.1965L18.0728 43.9503C18.3144 44.0318 18.4733 43.9601 18.5495 43.7351L18.7129 43.253L19.9691 43.6768L19.626 44.6892C19.5253 44.9865 19.3698 45.2071 19.1595 45.3511C18.9492 45.495 18.7233 45.5262 18.4817 45.4447L18.4696 45.4407L18.392 45.6697C18.4778 45.7344 18.5821 45.8502 18.705 46.017C18.8199 46.1811 18.8969 46.4041 18.936 46.6859C18.9751 46.9677 18.9239 47.3175 18.7823 47.7353ZM17.6401 47.0545C17.7844 46.6286 17.7847 46.2437 17.641 45.8998C17.492 45.5451 17.2202 45.3012 16.8257 45.1681L16.7049 45.1273L16.1862 46.658C16.0909 46.9392 16.0765 47.1806 16.1428 47.382C16.2091 47.5835 16.351 47.7209 16.5684 47.7942C16.7859 47.8676 16.9916 47.843 17.1857 47.7204C17.3797 47.5979 17.5312 47.3759 17.6401 47.0545Z" fill="white"/>
<path d="M22.2835 39.6918C21.9836 40.2241 21.5996 40.6461 21.1316 40.9577C20.6677 41.2618 20.1537 41.4211 19.5898 41.4356C19.0258 41.4501 18.4437 41.289 17.8435 40.9524L17.6878 40.8651C17.0876 40.5285 16.6472 40.116 16.3664 39.6277C16.0856 39.1394 15.9549 38.6185 15.9742 38.065C15.9976 37.5041 16.1593 36.9574 16.4592 36.4251C16.7549 35.9001 17.1016 35.501 17.4993 35.2279C17.897 34.9547 18.3234 34.7949 18.7786 34.7486C19.2305 34.6907 19.6811 34.7391 20.1303 34.8937L19.657 36.4089C19.4181 36.3138 19.1805 36.2681 18.9443 36.2719C18.7082 36.2756 18.4841 36.3445 18.2721 36.4786C18.0642 36.6053 17.8811 36.8091 17.7228 37.09C17.5646 37.371 17.4838 37.6614 17.4807 37.9613C17.4743 38.2496 17.5559 38.5289 17.7254 38.7991C17.8917 39.0578 18.149 39.2848 18.4973 39.4801L18.6085 39.5425C18.9567 39.7378 19.2885 39.8412 19.6039 39.8527C19.916 39.8526 20.1975 39.777 20.4484 39.6258C20.6961 39.4631 20.8991 39.2413 21.0573 38.9603C21.2948 38.5388 21.3664 38.1606 21.2723 37.8257C21.175 37.4792 20.9651 37.1766 20.6428 36.918L21.7273 35.7457C22.0659 36.0621 22.3316 36.43 22.5243 36.8495C22.7139 37.2574 22.795 37.7019 22.7678 38.1829C22.7407 38.6639 22.5792 39.1668 22.2835 39.6918Z" fill="white"/>
<path d="M26.3366 33.4536C26.0743 33.7764 25.7612 33.9599 25.3971 34.0039C25.0318 34.036 24.6808 33.9158 24.344 33.6434L21.5707 31.4001L20.575 32.6256L19.5449 31.7924L20.5405 30.5669L19.0152 29.3331L20.0269 28.0878L21.5522 29.3216L22.6442 27.9774L23.6743 28.8107L22.5824 30.1548L25.1378 32.2219C25.3359 32.3821 25.5099 32.37 25.6598 32.1855L26.4306 31.2367L27.4607 32.0699L26.3366 33.4536Z" fill="white"/>
<path d="M34.649 25.9086C34.0539 26.3322 33.4653 26.5897 32.8832 26.6811C32.3031 26.7606 31.7557 26.6814 31.241 26.4435C30.7283 26.1937 30.2745 25.7927 29.8795 25.2403L26.5176 20.5381L27.8877 19.5627L31.2793 24.3064C31.5952 24.7483 31.9691 25.0083 32.4009 25.0864C32.8396 25.1596 33.2977 25.0263 33.7752 24.6864C34.2526 24.3465 34.5246 23.9602 34.5911 23.5274C34.6644 23.0896 34.5431 22.6498 34.2272 22.2079L30.8356 17.4643L32.2058 16.4889L35.5677 21.1911C35.9627 21.7435 36.1916 22.3047 36.2545 22.8746C36.3194 23.4327 36.2163 23.9749 35.9453 24.5013C35.6762 25.0158 35.2441 25.4849 34.649 25.9086Z" fill="white"/>
<path d="M41.8992 21.7222C41.1483 22.0621 40.4591 22.1785 39.8317 22.0713C39.2043 21.9641 38.7033 21.6321 38.3287 21.0751L39.5177 20.1178C39.6948 20.3637 39.8803 20.5358 40.0744 20.6342C40.2763 20.7291 40.4859 20.7693 40.7033 20.7547C40.9249 20.7289 41.148 20.6652 41.3725 20.5636C41.7131 20.4094 41.9383 20.2376 42.0482 20.0481C42.1546 19.851 42.1674 19.6635 42.0866 19.4859C42.0058 19.3082 41.867 19.2081 41.67 19.1855C41.4695 19.1552 41.185 19.1862 40.8162 19.2786L40.4648 19.3678C40.0271 19.4728 39.612 19.5349 39.2194 19.5543C38.8234 19.5659 38.4703 19.4976 38.1601 19.3492C37.85 19.2009 37.6089 18.9375 37.4368 18.559C37.177 17.9874 37.1876 17.4563 37.4686 16.9659C37.7462 16.4677 38.2256 16.0644 38.9068 15.7561C39.5493 15.4652 40.1484 15.3664 40.7041 15.4594C41.2598 15.5525 41.7088 15.801 42.0511 16.2049L40.8822 17.2369C40.6868 16.9715 40.4642 16.8207 40.2145 16.7847C39.9725 16.7452 39.7122 16.7886 39.4335 16.9147C39.1549 17.0409 38.9648 17.1874 38.8634 17.3544C38.7584 17.5137 38.7446 17.6783 38.8218 17.8482C38.9061 18.0336 39.0467 18.1376 39.2437 18.1602C39.4372 18.1751 39.676 18.1461 39.9603 18.0733L40.3118 17.9841C40.7804 17.8651 41.2187 17.7925 41.6268 17.7661C42.039 17.7285 42.4003 17.7839 42.7104 17.9322C43.0247 18.0693 43.2732 18.3387 43.4558 18.7404C43.7298 19.3429 43.7216 19.9101 43.4313 20.4419C43.1453 20.9626 42.6346 21.3893 41.8992 21.7222Z" fill="white"/>
<path d="M48.6277 13.3318L48.4725 12.4031L49.4535 12.2399L50.3863 12.2524L50.422 12.0788L49.5814 11.6898L48.7722 11.1021L49.3171 10.3407L50.1368 10.9138L50.7783 11.5809L50.9313 11.491L50.6168 10.6146L50.4532 9.63576L51.3839 9.48091L51.5475 10.4598L51.535 11.3905L51.709 11.4261L52.0988 10.5873L52.6878 9.77991L53.4508 10.3237L52.8765 11.1415L52.2079 11.7816L52.2981 11.9343L53.1763 11.6205L54.1573 11.4573L54.3125 12.3859L53.3315 12.5492L52.3987 12.5367L52.3631 12.7103L53.2037 13.0993L54.0129 13.687L53.4679 14.4483L52.6483 13.8753L52.0068 13.2081L51.8538 13.2981L52.1683 14.1744L52.3318 15.1533L51.4011 15.3081L51.2376 14.3293L51.2501 13.3985L51.0761 13.363L50.6862 14.2017L50.0973 15.0091L49.3342 14.4654L49.9085 13.6475L50.5772 13.0074L50.487 12.8548L49.6087 13.1686L48.6277 13.3318Z" fill="white"/>
<circle cx="60.0006" cy="60.0006" r="34.2857" fill="white"/>
<path d="M63.1094 48.6583V40.2852L46.2852 57.1612V79.7127H54.4782V78.506H53.2881V77.3004H48.6643V58.1678L60.7303 46.0666V56.7903H63.1094V51.636L72.1907 58.2814V77.3004H67.5669V78.506H66.3768V68.8559V59.2036H63.9977V68.8559V77.3015H61.6176V68.8559V59.2036H59.2374V68.8559V77.3015H56.8583V68.8559V59.2036H54.4782V68.8559V78.5071H55.6682V79.7137H65.1867V78.5071H66.3768V79.7127H74.5709V57.0487L63.1094 48.6583Z" fill="url(#paint1_linear_392_3287)"/>
<defs>
<linearGradient id="paint0_linear_392_3287" x1="0" y1="60" x2="120" y2="60" gradientUnits="userSpaceOnUse">
<stop stop-color="#BDAD7B"/>
<stop offset="1" stop-color="#615328"/>
</linearGradient>
<linearGradient id="paint1_linear_392_3287" x1="46.2852" y1="59.9994" x2="74.5709" y2="59.9994" gradientUnits="userSpaceOnUse">
<stop stop-color="#BDAD7B"/>
<stop offset="1" stop-color="#615328"/>
</linearGradient>
</defs>
</svg>
