<svg width="14" height="14" viewBox="0 0 14 14" fill="none" xmlns="http://www.w3.org/2000/svg">
<g clip-path="url(#clip0_503_16)">
<mask id="mask0_503_16" style="mask-type:luminance" maskUnits="userSpaceOnUse" x="0" y="0" width="14" height="14">
<path d="M14 0H0V14H14V0Z" fill="white"/>
</mask>
<g mask="url(#mask0_503_16)">
<path d="M11.728 12.1391L10.2263 13.1935C9.97206 13.3719 9.62167 13.3112 9.44534 13.0555C8.72957 12.0175 7.89555 10.7004 6.94497 9.07043C6.08688 10.742 5.306 12.0622 4.60398 13.0645C4.4269 13.3173 4.07824 13.3755 3.82561 13.1982L2.30597 12.1312C2.04131 11.9454 1.99021 11.5731 2.19261 11.3209C3.57102 9.6033 4.59394 8.49683 5.21924 7.91907C3.65592 7.59821 2.17266 7.27536 0.769456 6.91706C0.457774 6.83748 0.280312 6.50967 0.378785 6.20343L0.961683 4.39069C1.05889 4.0884 1.38925 3.92831 1.68768 4.03682C3.59948 4.73194 4.99095 5.30082 5.8997 5.82855C5.68551 3.76941 5.54085 2.27515 5.49564 1.28455C5.48115 0.966937 5.73685 0.703125 6.05479 0.703125H7.87426C8.19508 0.703125 8.4512 0.97073 8.43338 1.29105C8.36347 2.54758 8.2152 4.07109 7.99023 5.82855C9.262 5.16936 10.7016 4.59408 12.3126 4.02716C12.609 3.92288 12.9336 4.08522 13.0297 4.3843L13.6245 6.23401C13.7193 6.52859 13.5576 6.84815 13.262 6.93962C11.7149 7.41833 10.172 7.73114 8.67069 7.91907C9.43299 8.58696 10.501 9.73279 11.8335 11.3193C12.0447 11.5708 11.9968 11.9504 11.728 12.1391Z" fill="url(#paint0_linear_503_16)"/>
</g>
</g>
<defs>
<linearGradient id="paint0_linear_503_16" x1="0.351562" y1="7.00184" x2="13.6516" y2="7.00184" gradientUnits="userSpaceOnUse">
<stop stop-color="#ED1A3B"/>
<stop offset="1" stop-color="#1B4176"/>
</linearGradient>
<clipPath id="clip0_503_16">
<rect width="14" height="14" fill="white"/>
</clipPath>
</defs>
</svg>
