<svg width="150" height="150" viewBox="0 0 150 150" fill="none" xmlns="http://www.w3.org/2000/svg">
<g clip-path="url(#clip0_493_9)">
<path d="M75 150C116.421 150 150 116.421 150 75C150 33.5786 116.421 0 75 0C33.5786 0 0 33.5786 0 75C0 116.421 33.5786 150 75 150Z" fill="url(#paint0_linear_493_9)"/>
<path d="M80.2763 21.3637C79.3809 21.2745 78.6142 20.9814 77.9762 20.4846C77.3381 19.9878 76.8613 19.3375 76.5458 18.5337C76.2303 17.7299 76.1232 16.8197 76.2244 15.8032C76.3257 14.7866 76.6098 13.9201 77.0768 13.2037C77.5447 12.478 78.1498 11.9355 78.892 11.5762C79.6435 11.2178 80.4809 11.0846 81.4042 11.1766C82.4394 11.2797 83.3041 11.6296 83.9981 12.2262C84.7025 12.8144 85.1728 13.5771 85.4091 14.5142L83.6396 14.9737C83.4911 14.3844 83.2089 13.9089 82.7928 13.5472C82.386 13.1864 81.8656 12.9744 81.2314 12.9112C80.6532 12.8536 80.1314 12.9382 79.6661 13.165C79.2102 13.3927 78.8405 13.7468 78.5572 14.2272C78.2841 14.6992 78.1128 15.2849 78.0431 15.9844C77.9734 16.6838 78.0254 17.2965 78.199 17.8224C78.382 18.3493 78.6745 18.7693 79.0766 19.0825C79.488 19.3966 79.9828 19.5825 80.561 19.6401C80.8594 19.6699 81.1714 19.6586 81.4968 19.6062C81.8223 19.5539 82.1258 19.4381 82.4074 19.2589C82.6992 19.0714 82.943 18.799 83.1387 18.4417C83.3437 18.0854 83.4751 17.6181 83.5327 17.0399L83.5884 16.4803L83.8687 17.7798L81.0708 17.501L81.2325 15.8783L85.2334 16.2769L84.7052 21.5789L83.1104 21.42L83.0161 19.8141L83.3002 20.0826C83.0979 20.4109 82.8406 20.6773 82.5283 20.8816C82.2159 21.086 81.8677 21.2255 81.4835 21.3003C81.1077 21.3853 80.7053 21.4064 80.2763 21.3637Z" fill="white"/>
<path d="M89.592 23.0452C89.0142 22.8841 88.5441 22.6509 88.1816 22.3456C87.8192 22.0402 87.5466 21.6918 87.3638 21.3003C87.1926 20.9023 87.1004 20.4826 87.0872 20.0411C87.0766 19.5905 87.1342 19.1396 87.26 18.6882C87.3808 18.2548 87.5623 17.8481 87.8045 17.468C88.0466 17.088 88.3406 16.7661 88.6865 16.5026C89.0324 16.239 89.4317 16.0632 89.8843 15.9753C90.3485 15.8809 90.8604 15.9117 91.4202 16.0678C91.9438 16.2137 92.3746 16.4311 92.7124 16.7199C93.0528 16.9996 93.3054 17.3327 93.4701 17.7192C93.6373 18.0966 93.7263 18.5106 93.7369 18.9611C93.7566 19.4142 93.701 19.8754 93.5701 20.3449C93.5525 20.4081 93.5228 20.4971 93.4811 20.612C93.4509 20.7203 93.4091 20.8351 93.3558 20.9565L88.7921 19.6844C88.7038 20.1755 88.7792 20.5857 89.0182 20.915C89.2663 21.2468 89.625 21.4782 90.0945 21.6091C90.4376 21.7047 90.788 21.7391 91.1457 21.7123C91.5059 21.6765 91.8439 21.581 92.1596 21.4258L92.6822 22.7974C92.2982 22.9531 91.9449 23.0686 91.6223 23.1441C91.2996 23.2196 90.976 23.2461 90.6514 23.2238C90.3334 23.2129 89.9802 23.1534 89.592 23.0452ZM91.9648 19.6639C92.003 19.5967 92.0367 19.5283 92.0658 19.4585C92.104 19.3914 92.1319 19.3262 92.1495 19.263C92.2024 19.0734 92.2153 18.8873 92.1884 18.7046C92.164 18.5129 92.1062 18.3363 92.015 18.1747C91.9239 18.013 91.7968 17.8755 91.6339 17.7619C91.4825 17.6419 91.2939 17.5504 91.0682 17.4875C90.7342 17.3944 90.4354 17.3841 90.172 17.4566C89.9085 17.5291 89.6879 17.6573 89.5101 17.8413C89.3439 18.0188 89.2158 18.2166 89.1258 18.4347L92.6468 19.4162L91.9648 19.6639Z" fill="white"/>
<path d="M96.488 25.5067C96.1416 25.3634 95.848 25.1659 95.6073 24.9142C95.3666 24.6625 95.2162 24.3518 95.1561 23.9821C95.1048 23.6159 95.1812 23.1861 95.3854 22.6924L97.8736 16.6776L99.8706 16.4844L97.205 22.9279C97.0509 23.3003 96.9821 23.6014 96.9985 23.8314C97.0236 24.0649 97.1834 24.2426 97.4779 24.3644C97.5645 24.4002 97.6633 24.431 97.7744 24.4566C97.8942 24.4859 98.0262 24.5101 98.1704 24.5292L97.6599 25.7633C97.4493 25.7574 97.2478 25.7298 97.0551 25.6805C96.8589 25.6399 96.6699 25.582 96.488 25.5067ZM95.5651 18.948L96.0864 17.6879L100.283 19.4238L99.7612 20.6839L95.5651 18.948Z" fill="white"/>
<path d="M105.955 30.6519L106.412 29.7066L108.25 26.9275C108.477 26.5835 108.536 26.2571 108.426 25.9481C108.328 25.6366 108.096 25.3593 107.728 25.1163C107.424 24.9147 107.07 24.7704 106.666 24.6835C106.276 24.5939 105.887 24.5785 105.5 24.6371L105.421 23.1518C106.044 23.0923 106.614 23.1318 107.129 23.2703C107.657 23.4061 108.168 23.6369 108.66 23.9626C109.457 24.49 109.947 25.1003 110.129 25.7937C110.311 26.4871 110.169 27.1856 109.704 27.8891L107.292 31.536L105.955 30.6519ZM104.13 29.6136C103.708 29.3344 103.381 29.0055 103.148 28.6268C102.923 28.2533 102.809 27.8573 102.805 27.4388C102.808 27.0255 102.934 26.6312 103.182 26.256C103.405 25.9198 103.66 25.6785 103.948 25.5318C104.249 25.3825 104.554 25.3203 104.863 25.3452C105.136 25.3572 105.406 25.4173 105.671 25.5255C105.945 25.6388 106.218 25.786 106.492 25.967L108.286 27.1535L107.572 28.2323L105.989 27.1854C105.864 27.1026 105.731 27.0316 105.591 26.9724C105.463 26.9105 105.333 26.8862 105.201 26.8997C105.086 26.9027 104.981 26.9343 104.885 26.9945C104.794 27.0468 104.715 27.1238 104.648 27.2254C104.503 27.4443 104.473 27.677 104.557 27.9237C104.641 28.1703 104.828 28.3893 105.117 28.5806C105.375 28.7512 105.646 28.8516 105.929 28.8817C106.226 28.9092 106.501 28.8666 106.755 28.7539C107.023 28.6386 107.242 28.4519 107.412 28.1939L107.287 29.2238C106.917 29.563 106.541 29.7919 106.159 29.9103C105.79 30.026 105.434 30.0546 105.091 29.9961C104.748 29.9376 104.428 29.8101 104.13 29.6136Z" fill="white"/>
<path d="M111.766 35.2904L118.793 28.4609L123.359 33.1588L122.19 34.2954L118.888 30.898L117.214 32.5246L120.085 35.4784L118.926 36.6052L116.055 33.6514L113.03 36.5909L111.766 35.2904Z" fill="white"/>
<path d="M116.953 40.9039L122.477 36.7188L123.538 38.1194L122.037 39.257L121.853 39.0611C122.191 38.8402 122.549 38.7222 122.925 38.7072C123.302 38.6923 123.651 38.7571 123.972 38.9018C124.307 39.0483 124.573 39.2522 124.771 39.5137C124.913 39.7005 125.019 39.8959 125.092 40.0998C125.177 40.3056 125.232 40.5406 125.255 40.8048L123.491 41.0832C123.473 40.9671 123.435 40.8314 123.376 40.6761C123.318 40.5208 123.24 40.3796 123.144 40.2526C123.031 40.1032 122.894 39.9773 122.734 39.875C122.58 39.7802 122.405 39.7191 122.208 39.692C122.016 39.6723 121.802 39.6996 121.564 39.7738C121.437 39.8232 121.283 39.8989 121.101 40.001C120.933 40.1049 120.696 40.2729 120.389 40.5049L118.014 42.3046L116.953 40.9039Z" fill="white"/>
<path d="M121.744 48.1776C121.444 47.6581 121.272 47.1624 121.227 46.6906C121.182 46.2189 121.231 45.7792 121.374 45.3717C121.531 44.9676 121.759 44.6034 122.058 44.2789C122.366 43.9497 122.723 43.668 123.129 43.4338C123.519 43.2089 123.933 43.0455 124.372 42.9436C124.811 42.8418 125.246 42.8178 125.678 42.8717C126.109 42.9257 126.517 43.0797 126.902 43.3338C127.3 43.5913 127.644 43.9717 127.934 44.475C128.206 44.9458 128.361 45.4025 128.4 45.8453C128.448 46.2834 128.395 46.698 128.242 47.0893C128.097 47.4759 127.871 47.8337 127.563 48.1629C127.26 48.5002 126.897 48.7906 126.475 49.0343C126.418 49.0671 126.335 49.1098 126.224 49.1626C126.127 49.2189 126.017 49.2716 125.894 49.321L123.525 45.2177C123.119 45.5066 122.885 45.8523 122.825 46.2548C122.77 46.6654 122.865 47.0817 123.108 47.5038C123.286 47.8123 123.512 48.0822 123.786 48.3135C124.069 48.5401 124.377 48.7085 124.711 48.8187L124.124 50.1639C123.741 50.0063 123.408 49.8415 123.124 49.6695C122.841 49.4975 122.592 49.2899 122.375 49.0467C122.156 48.8164 121.945 48.5266 121.744 48.1776ZM125.805 47.4242C125.88 47.4029 125.952 47.3776 126.021 47.3482C126.096 47.327 126.161 47.3 126.218 47.2672C126.388 47.1688 126.528 47.045 126.637 46.8957C126.753 46.7417 126.836 46.5751 126.884 46.3959C126.932 46.2167 126.938 46.0295 126.901 45.8343C126.877 45.6426 126.806 45.4453 126.689 45.2424C126.515 44.942 126.309 44.7255 126.07 44.5929C125.832 44.4602 125.584 44.3973 125.329 44.4043C125.086 44.4146 124.856 44.4662 124.639 44.559L126.466 47.7247L125.805 47.4242Z" fill="white"/>
<path d="M125.172 55.3339C124.952 54.7759 124.854 54.2603 124.879 53.787C124.904 53.3137 125.017 52.8861 125.219 52.5042C125.434 52.1276 125.713 51.8009 126.057 51.524C126.41 51.2438 126.804 51.0177 127.24 50.8458C127.659 50.6807 128.093 50.5801 128.542 50.544C128.991 50.5079 129.425 50.5482 129.844 50.6651C130.263 50.782 130.644 50.9944 130.987 51.3024C131.342 51.6157 131.626 52.0426 131.84 52.5831C132.039 53.0888 132.126 53.5635 132.099 54.0072C132.081 54.4474 131.968 54.8498 131.759 55.2143C131.559 55.5753 131.282 55.896 130.929 56.1762C130.58 56.4652 130.179 56.6991 129.725 56.8779C129.664 56.902 129.575 56.932 129.458 56.968C129.354 57.0093 129.237 57.0452 129.108 57.0759L127.37 52.6686C126.925 52.8945 126.643 53.202 126.525 53.5913C126.41 53.9893 126.442 54.415 126.62 54.8684C126.751 55.1997 126.935 55.4999 127.172 55.7691C127.418 56.0348 127.698 56.2468 128.012 56.4049L127.234 57.6491C126.878 57.4368 126.572 57.2247 126.318 57.0129C126.063 56.8011 125.846 56.559 125.668 56.2866C125.485 56.0264 125.32 55.7088 125.172 55.3339ZM129.3 55.1868C129.377 55.1767 129.452 55.1623 129.525 55.1435C129.601 55.1334 129.67 55.1163 129.731 55.0922C129.914 55.02 130.071 54.9181 130.2 54.7864C130.338 54.6514 130.444 54.4987 130.518 54.3285C130.592 54.1583 130.625 53.974 130.617 53.7755C130.622 53.5824 130.581 53.3768 130.495 53.1588C130.368 52.8362 130.196 52.5917 129.979 52.4254C129.762 52.259 129.527 52.1604 129.273 52.1296C129.031 52.104 128.796 52.1212 128.568 52.181L129.909 55.5813L129.3 55.1868Z" fill="white"/>
<path d="M128.332 68.0008C128.207 67.0813 128.311 66.2398 128.643 65.4761C128.976 64.7217 129.497 64.098 130.206 63.6049C130.915 63.1118 131.775 62.7968 132.788 62.6599C133.8 62.523 134.709 62.5987 135.514 62.8871C136.328 63.1742 136.996 63.6371 137.517 64.2759C138.04 64.924 138.364 65.7078 138.488 66.6273C138.627 67.6583 138.487 68.5804 138.068 69.3938C137.659 70.2152 137.026 70.8494 136.169 71.2963L135.312 69.6814C135.851 69.4004 136.248 69.0157 136.503 68.5272C136.76 68.0479 136.846 67.4925 136.76 66.861C136.683 66.2851 136.479 65.7971 136.151 65.397C135.824 65.0062 135.394 64.7286 134.861 64.5643C134.339 64.4079 133.729 64.3768 133.032 64.4711C132.336 64.5653 131.752 64.7577 131.28 65.0485C130.81 65.3485 130.469 65.7303 130.258 66.194C130.048 66.667 129.981 67.1914 130.059 67.7672C130.145 68.3988 130.375 68.9115 130.75 69.3053C131.126 69.7084 131.611 69.9738 132.205 70.1015L131.822 71.8841C130.877 71.6809 130.094 71.2383 129.472 70.5563C128.851 69.8836 128.471 69.0318 128.332 68.0008Z" fill="white"/>
<path d="M128.824 77.1475C128.851 76.4733 129.029 75.88 129.359 75.3678C129.689 74.8556 130.132 74.4558 130.687 74.1682C131.252 73.8905 131.88 73.7653 132.573 73.7928C133.276 73.8206 133.888 73.9949 134.41 74.3158C134.941 74.637 135.351 75.0659 135.639 75.6026C135.927 76.1487 136.058 76.7589 136.031 77.4331C136.005 78.0981 135.826 78.6866 135.497 79.1988C135.167 79.711 134.724 80.1062 134.169 80.3843C133.624 80.6629 133 80.7882 132.297 80.7604C131.604 80.7329 130.992 80.5586 130.461 80.2374C129.929 79.9162 129.515 79.487 129.217 78.95C128.929 78.4133 128.798 77.8125 128.824 77.1475ZM130.356 77.2082C130.342 77.5641 130.414 77.8718 130.572 78.1313C130.731 78.4002 130.962 78.6064 131.265 78.7497C131.569 78.9025 131.936 78.9874 132.367 79.0044C132.807 79.0219 133.18 78.9663 133.485 78.8377C133.799 78.7188 134.041 78.5314 134.211 78.2755C134.389 78.0294 134.486 77.7283 134.5 77.3725C134.514 77.0072 134.442 76.6902 134.284 76.4213C134.135 76.1527 133.909 75.9421 133.606 75.7894C133.312 75.637 132.944 75.5521 132.504 75.5347C132.074 75.5176 131.701 75.5732 131.386 75.7014C131.072 75.8296 130.825 76.0215 130.646 76.2771C130.467 76.5326 130.37 76.843 130.356 77.2082Z" fill="white"/>
<path d="M128.576 82.4375L135.38 83.7589L135.044 85.484L133.499 85.1838L133.525 84.9024C133.916 85.1024 134.213 85.3416 134.417 85.6198C134.62 85.8981 134.748 86.1998 134.799 86.5248C134.86 86.8517 134.859 87.1761 134.796 87.4981C134.646 88.2709 134.309 88.8307 133.783 89.1773C133.265 89.535 132.61 89.637 131.819 89.4833L127.375 88.6202L127.71 86.8951L131.519 87.6349C132.089 87.7457 132.523 87.7249 132.82 87.5725C133.126 87.4219 133.321 87.1304 133.405 86.698C133.469 86.3668 133.445 86.0756 133.331 85.8244C133.225 85.5842 133.022 85.3776 132.721 85.2047C132.421 85.0317 132.013 84.8952 131.498 84.7951L128.241 84.1625L128.576 82.4375Z" fill="white"/>
<path d="M125.948 92.5409C126.115 92.0535 126.333 91.6526 126.6 91.3381C126.866 91.0236 127.151 90.7744 127.452 90.5907C127.75 90.4158 128.022 90.2866 128.269 90.2031L128.864 91.6717C128.564 91.7369 128.26 91.8702 127.953 92.0717C127.651 92.2851 127.429 92.6 127.285 93.0165C127.173 93.3444 127.148 93.6183 127.211 93.8383C127.28 94.0702 127.411 94.2197 127.606 94.2868C127.766 94.3417 127.914 94.3284 128.051 94.2467C128.197 94.1681 128.335 94.042 128.464 93.8685C128.602 93.6979 128.743 93.5037 128.888 93.2858C129.044 93.0621 129.212 92.8325 129.393 92.5972C129.573 92.3618 129.772 92.1578 129.99 91.9851C130.217 91.8154 130.47 91.6994 130.749 91.6369C131.025 91.5833 131.336 91.616 131.682 91.735C132.258 91.9334 132.645 92.3196 132.844 92.8936C133.052 93.4706 133.028 94.1314 132.771 94.8757C132.591 95.3986 132.322 95.8361 131.962 96.1882C131.612 96.5434 131.199 96.7779 130.724 96.8918L130.266 95.589C130.577 95.518 130.841 95.3709 131.057 95.1478C131.278 94.9366 131.439 94.6848 131.54 94.3923C131.629 94.1353 131.653 93.9059 131.614 93.7039C131.571 93.5108 131.465 93.3853 131.297 93.3273C131.182 93.2877 131.072 93.2895 130.968 93.333C130.861 93.3853 130.747 93.4849 130.627 93.6319C130.513 93.7909 130.372 93.9999 130.203 94.2591C130.05 94.5036 129.88 94.7523 129.693 95.0054C129.507 95.2585 129.296 95.4831 129.06 95.6794C128.824 95.8756 128.556 96.0064 128.256 96.0716C127.956 96.1368 127.615 96.1038 127.234 95.9726C126.8 95.8231 126.453 95.5795 126.192 95.242C125.94 94.9076 125.79 94.5089 125.741 94.0461C125.693 93.5832 125.761 93.0815 125.948 92.5409Z" fill="white"/>
<path d="M123.264 98.9644C123.519 98.4632 123.834 98.0924 124.209 97.8519C124.58 97.6198 124.991 97.5137 125.444 97.5336C125.892 97.5619 126.362 97.7015 126.855 97.9522L130.715 99.9159L129.924 101.47L126.453 99.7036C126.169 99.5591 125.897 99.4628 125.638 99.4149C125.387 99.3712 125.152 99.3989 124.933 99.498C124.719 99.6096 124.535 99.8158 124.382 100.117C124.195 100.484 124.159 100.813 124.274 101.103C124.385 101.401 124.608 101.678 124.941 101.931C125.279 102.198 125.699 102.459 126.2 102.714L128.656 103.963L127.865 105.517L121.688 102.374L122.479 100.82L123.819 101.502L123.585 101.652C123.202 101.225 122.998 100.78 122.972 100.314C122.946 99.8487 123.043 99.3987 123.264 98.9644Z" fill="white"/>
<path d="M119.698 105.104C119.96 104.704 120.297 104.454 120.709 104.354C121.122 104.255 121.591 104.377 122.116 104.721L128.914 109.173L127.967 110.619L121.451 106.353C121.286 106.245 121.143 106.207 121.021 106.239C120.907 106.276 120.809 106.358 120.727 106.483C120.686 106.546 120.646 106.615 120.608 106.691C120.577 106.772 120.548 106.859 120.52 106.953L119.273 106.137C119.319 105.931 119.383 105.738 119.468 105.558C119.539 105.38 119.616 105.229 119.698 105.104Z" fill="white"/>
<path d="M116.848 108.969C117.078 108.673 117.347 108.443 117.654 108.278C117.96 108.112 118.3 108.05 118.672 108.09C119.039 108.138 119.433 108.326 119.854 108.654L124.991 112.652L124.646 114.629L119.144 110.346C118.826 110.098 118.554 109.952 118.327 109.907C118.096 109.869 117.882 109.975 117.686 110.227C117.629 110.301 117.573 110.388 117.518 110.488C117.458 110.596 117.4 110.717 117.343 110.851L116.289 110.03C116.351 109.829 116.431 109.642 116.53 109.469C116.621 109.291 116.727 109.124 116.848 108.969ZM123.416 109.823L124.492 110.661L121.703 114.244L120.627 113.407L123.416 109.823Z" fill="white"/>
<path d="M112.254 114.173L113.092 114.806L115.457 117.152C115.75 117.443 116.059 117.564 116.383 117.516C116.708 117.482 117.025 117.308 117.336 116.995C117.593 116.736 117.804 116.417 117.968 116.038C118.132 115.673 118.223 115.295 118.242 114.904L119.714 115.117C119.65 115.74 119.5 116.291 119.263 116.769C119.027 117.26 118.7 117.715 118.285 118.135C117.611 118.813 116.917 119.174 116.201 119.217C115.486 119.259 114.829 118.984 114.23 118.39L111.125 115.311L112.254 114.173ZM113.629 112.587C113.986 112.227 114.372 111.971 114.789 111.816C115.2 111.669 115.61 111.634 116.022 111.712C116.426 111.797 116.788 111.997 117.108 112.314C117.394 112.598 117.581 112.895 117.668 113.206C117.755 113.531 117.757 113.842 117.672 114.141C117.607 114.406 117.495 114.659 117.337 114.898C117.172 115.144 116.974 115.383 116.743 115.616L115.229 117.143L114.31 116.232L115.647 114.885C115.752 114.778 115.848 114.662 115.934 114.536C116.019 114.423 116.069 114.3 116.081 114.167C116.101 114.054 116.09 113.945 116.05 113.839C116.017 113.74 115.957 113.648 115.87 113.562C115.684 113.377 115.461 113.302 115.203 113.336C114.945 113.37 114.694 113.51 114.449 113.756C114.232 113.976 114.08 114.222 113.995 114.494C113.91 114.779 113.898 115.058 113.959 115.329C114.02 115.614 114.16 115.865 114.379 116.083L113.394 115.759C113.134 115.329 112.983 114.916 112.941 114.518C112.9 114.134 112.942 113.779 113.066 113.454C113.191 113.129 113.379 112.84 113.629 112.587Z" fill="white"/>
<path d="M107.522 118.01C107.816 117.778 108.131 117.617 108.468 117.53C108.805 117.442 109.15 117.462 109.502 117.59C109.847 117.724 110.185 118 110.517 118.419L114.557 123.522L113.752 125.36L109.424 119.893C109.174 119.577 108.945 119.37 108.736 119.272C108.52 119.181 108.287 119.233 108.037 119.431C107.963 119.489 107.888 119.561 107.812 119.645C107.728 119.736 107.643 119.839 107.556 119.956L106.727 118.909C106.834 118.728 106.957 118.565 107.094 118.421C107.225 118.269 107.367 118.132 107.522 118.01ZM113.699 120.4L114.545 121.469L110.985 124.288L110.138 123.219L113.699 120.4Z" fill="white"/>
<path d="M105.658 119.523L109.525 125.275L108.078 126.248L104.211 120.496L105.658 119.523ZM110.167 126.131L111.171 127.624L109.62 128.667L108.616 127.174L110.167 126.131Z" fill="white"/>
<path d="M99.9174 122.834C100.515 122.521 101.118 122.379 101.726 122.41C102.335 122.44 102.902 122.624 103.428 122.962C103.95 123.313 104.373 123.795 104.694 124.41C105.021 125.032 105.175 125.65 105.157 126.262C105.144 126.883 104.976 127.452 104.655 127.97C104.325 128.492 103.862 128.909 103.264 129.222C102.674 129.531 102.075 129.67 101.467 129.64C100.859 129.61 100.295 129.423 99.7779 129.081C99.2643 128.747 98.8444 128.268 98.5182 127.646C98.1963 127.031 98.0421 126.414 98.0555 125.793C98.0689 125.173 98.2341 124.599 98.5511 124.073C98.8725 123.556 99.3279 123.143 99.9174 122.834ZM100.628 124.191C100.313 124.357 100.082 124.573 99.9365 124.839C99.7823 125.111 99.7189 125.414 99.7462 125.749C99.7652 126.088 99.8748 126.448 100.074 126.83C100.279 127.22 100.513 127.516 100.777 127.716C101.036 127.929 101.319 128.045 101.626 128.065C101.928 128.097 102.237 128.03 102.553 127.865C102.876 127.695 103.115 127.475 103.27 127.204C103.428 126.941 103.498 126.64 103.479 126.3C103.464 125.969 103.355 125.609 103.15 125.219C102.95 124.837 102.716 124.542 102.448 124.333C102.18 124.124 101.891 124.006 101.58 123.978C101.269 123.951 100.952 124.022 100.628 124.191Z" fill="white"/>
<path d="M95.1952 125.266L97.4335 131.826L95.7704 132.394L95.2619 130.903L95.5189 130.786C95.5398 131.224 95.4802 131.601 95.3402 131.916C95.2001 132.232 95.0019 132.492 94.7455 132.699C94.4922 132.914 94.2102 133.074 93.8998 133.18C93.1547 133.435 92.501 133.42 91.9389 133.136C91.3708 132.865 90.9567 132.348 90.6964 131.585L89.2344 127.3L90.8976 126.733L92.1507 130.405C92.3383 130.955 92.5721 131.321 92.852 131.503C93.1349 131.693 93.4848 131.718 93.9017 131.575C94.2211 131.466 94.4615 131.3 94.6229 131.077C94.7785 130.865 94.8565 130.586 94.857 130.239C94.8575 129.893 94.773 129.471 94.6035 128.974L93.532 125.834L95.1952 125.266Z" fill="white"/>
<path d="M83.4764 133.883L84.38 134.404L83.312 135.903L85.1574 136.033L84.97 137.106L83.196 136.542L83.6532 138.325L82.5936 138.462L82.5825 136.621L81.0102 137.618L80.5703 136.626L82.3081 136.033L80.8943 134.854L81.6499 134.119L82.765 135.619L83.4764 133.883Z" fill="white"/>
<path d="M69.6781 128.644C70.5737 128.729 71.3415 129.02 71.9814 129.514C72.6213 130.009 73.1004 130.657 73.4189 131.46C73.7373 132.263 73.8477 133.172 73.7502 134.189C73.6526 135.206 73.3716 136.074 72.9073 136.792C72.4421 137.519 71.839 138.064 71.0981 138.426C70.3479 138.787 69.5109 138.923 68.5873 138.835C67.5517 138.735 66.6858 138.389 65.9896 137.795C65.2831 137.209 64.81 136.448 64.5703 135.512L66.3381 135.046C66.4887 135.635 66.7727 136.109 67.1901 136.469C67.5982 136.828 68.1194 137.039 68.7538 137.099C69.3322 137.155 69.8537 137.068 70.3181 136.84C70.7733 136.611 71.1416 136.255 71.4232 135.774C71.6945 135.301 71.8638 134.714 71.9309 134.015C71.998 133.315 71.9438 132.702 71.7683 132.177C71.5834 131.651 71.2893 131.232 70.8861 130.92C70.4736 130.608 69.9781 130.424 69.3997 130.368C69.1011 130.339 68.7892 130.352 68.4639 130.405C68.1387 130.459 67.8356 130.576 67.5547 130.756C67.2635 130.945 67.0207 131.218 66.8263 131.576C66.6226 131.933 66.493 132.401 66.4375 132.979L66.3838 133.539L66.0988 132.24L68.8976 132.509L68.7419 134.132L64.7395 133.748L65.2484 128.445L66.8438 128.598L66.9439 130.203L66.6589 129.936C66.8599 129.607 67.1163 129.339 67.4278 129.134C67.7394 128.928 68.0872 128.787 68.4711 128.711C68.8466 128.625 69.2489 128.602 69.6781 128.644Z" fill="white"/>
<path d="M60.3608 127.002C60.9392 127.161 61.4102 127.392 61.7738 127.696C62.1373 128 62.4112 128.348 62.5955 128.738C62.7682 129.136 62.8619 129.555 62.8767 129.997C62.889 130.447 62.8331 130.898 62.7089 131.35C62.5897 131.784 62.4097 132.191 62.169 132.572C61.9282 132.953 61.6354 133.276 61.2905 133.541C60.9456 133.806 60.547 133.983 60.0947 134.073C59.6309 134.169 59.1188 134.14 58.5585 133.986C58.0343 133.842 57.6028 133.626 57.2638 133.339C56.9224 133.06 56.6686 132.728 56.5024 132.342C56.3338 131.965 56.2434 131.552 56.2311 131.101C56.2097 130.648 56.2636 130.187 56.3927 129.717C56.4101 129.654 56.4395 129.564 56.4808 129.449C56.5106 129.341 56.5519 129.226 56.6047 129.104L61.1732 130.36C61.2596 129.868 61.1827 129.458 60.9425 129.13C60.6932 128.799 60.3336 128.569 59.8636 128.44C59.5202 128.345 59.1697 128.312 58.8121 128.34C58.4519 128.378 58.1143 128.474 57.7992 128.631L57.2716 127.261C57.6549 127.104 58.0078 126.987 58.3302 126.91C58.6526 126.834 58.9761 126.806 59.3007 126.827C59.6188 126.837 59.9722 126.895 60.3608 127.002ZM58.0006 130.392C57.9626 130.459 57.9292 130.528 57.9003 130.598C57.8623 130.665 57.8347 130.73 57.8173 130.794C57.7652 130.983 57.7529 131.169 57.7805 131.352C57.8056 131.544 57.8641 131.72 57.9558 131.881C58.0476 132.043 58.1751 132.18 58.3385 132.293C58.4904 132.412 58.6793 132.503 58.9052 132.565C59.2396 132.657 59.5384 132.666 59.8015 132.593C60.0647 132.519 60.2849 132.39 60.4619 132.205C60.6275 132.027 60.7549 131.829 60.8441 131.611L57.3194 130.642L58.0006 130.392Z" fill="white"/>
<path d="M53.4519 124.565C53.7988 124.707 54.0931 124.903 54.3347 125.154C54.5764 125.405 54.7279 125.715 54.7893 126.084C54.842 126.45 54.7672 126.881 54.5648 127.375L52.0985 133.399L50.1023 133.599L52.7444 127.146C52.8971 126.773 52.9648 126.473 52.9475 126.243C52.9215 126.009 52.7611 125.831 52.4662 125.711C52.3795 125.675 52.2805 125.645 52.1693 125.619C52.0494 125.591 51.9174 125.568 51.7731 125.549L52.2791 124.312C52.4896 124.319 52.6913 124.345 52.8841 124.394C53.0805 124.434 53.2697 124.49 53.4519 124.565ZM54.3987 131.12L53.882 132.382L49.6797 130.661L50.1964 129.399L54.3987 131.12Z" fill="white"/>
<path d="M43.9692 119.457L43.5161 120.404L41.6882 123.19C41.462 123.535 41.4046 123.861 41.516 124.17C41.6145 124.481 41.8479 124.758 42.2162 124.999C42.5218 125.2 42.8763 125.343 43.2799 125.428C43.6705 125.516 44.0592 125.53 44.4461 125.47L44.531 126.955C43.9076 127.017 43.338 126.98 42.8223 126.843C42.2937 126.709 41.7825 126.48 41.2888 126.156C40.4895 125.632 39.9976 125.023 39.8132 124.331C39.6288 123.638 39.7679 122.939 40.2307 122.234L42.6293 118.578L43.9692 119.457ZM45.7978 120.489C46.2209 120.767 46.5495 121.094 46.7837 121.472C47.01 121.845 47.1259 122.24 47.1316 122.659C47.1294 123.072 47.0049 123.467 46.7581 123.843C46.537 124.18 46.2828 124.422 45.9953 124.57C45.6949 124.72 45.3899 124.784 45.0804 124.76C44.8073 124.749 44.5379 124.69 44.2719 124.583C43.9981 124.47 43.7241 124.324 43.4499 124.144L41.6515 122.964L42.361 121.883L43.9478 122.924C44.0732 123.006 44.2063 123.077 44.3471 123.135C44.4749 123.197 44.6051 123.221 44.7376 123.207C44.8519 123.203 44.957 123.171 45.0527 123.111C45.1433 123.058 45.222 122.981 45.2889 122.879C45.4328 122.66 45.4623 122.427 45.3773 122.18C45.2923 121.934 45.1049 121.716 44.8149 121.525C44.5563 121.356 44.2853 121.256 44.0017 121.227C43.7052 121.201 43.4299 121.244 43.176 121.358C42.9091 121.474 42.6908 121.662 42.5212 121.92L42.6423 120.89C43.0115 120.55 43.3868 120.319 43.768 120.2C44.1363 120.083 44.4922 120.053 44.8358 120.11C45.1793 120.167 45.5 120.293 45.7978 120.489Z" fill="white"/>
<path d="M38.1475 114.835L31.1456 121.69L26.5625 117.009L27.7278 115.868L31.0422 119.254L32.7098 117.621L29.8281 114.678L30.9833 113.547L33.865 116.49L36.8787 113.539L38.1475 114.835Z" fill="white"/>
<path d="M32.9351 109.248L27.4258 113.454L26.3595 112.057L27.857 110.914L28.0414 111.109C27.704 111.331 27.347 111.451 26.9703 111.467C26.5937 111.483 26.2445 111.42 25.9227 111.276C25.5878 111.131 25.3208 110.928 25.1218 110.667C24.9796 110.481 24.872 110.286 24.7991 110.082C24.713 109.877 24.6576 109.642 24.6328 109.378L26.3963 109.093C26.4141 109.209 26.4527 109.345 26.5122 109.5C26.5716 109.655 26.6497 109.796 26.7463 109.922C26.8601 110.071 26.997 110.197 27.1572 110.298C27.3117 110.393 27.4875 110.453 27.6846 110.48C27.8759 110.499 28.0903 110.47 28.3278 110.395C28.4548 110.346 28.6088 110.269 28.7898 110.166C28.9576 110.062 29.1942 109.893 29.4997 109.66L31.8688 107.852L32.9351 109.248Z" fill="white"/>
<path d="M28.1188 101.986C28.4205 102.504 28.5948 102.999 28.6416 103.471C28.6884 103.943 28.6407 104.382 28.4987 104.79C28.3438 105.195 28.1171 105.56 27.8186 105.886C27.512 106.216 27.1562 106.499 26.7512 106.735C26.3624 106.961 25.9487 107.126 25.5101 107.229C25.0714 107.333 24.6363 107.358 24.2046 107.306C23.7728 107.254 23.3641 107.101 22.9785 106.849C22.58 106.592 22.2346 106.213 21.9423 105.711C21.6688 105.241 21.5117 104.785 21.471 104.343C21.4222 103.905 21.4735 103.49 21.625 103.098C21.7684 102.711 21.9934 102.352 22.3 102.022C22.6019 101.683 22.9634 101.392 23.3846 101.147C23.4413 101.114 23.5247 101.07 23.6347 101.017C23.7319 100.961 23.8419 100.907 23.9647 100.858L26.3481 104.952C26.7538 104.662 26.9859 104.315 27.0443 103.913C27.098 103.502 27.0022 103.086 26.7571 102.665C26.5779 102.357 26.3508 102.088 26.0758 101.857C25.7926 101.632 25.4838 101.465 25.1493 101.356L25.7314 100.008C26.1151 100.164 26.4489 100.328 26.7328 100.499C27.0167 100.67 27.2671 100.877 27.4841 101.119C27.7045 101.349 27.9161 101.638 28.1188 101.986ZM24.0601 102.754C23.9859 102.776 23.914 102.801 23.8445 102.831C23.7702 102.852 23.7048 102.88 23.6481 102.913C23.478 103.012 23.3389 103.136 23.2308 103.286C23.1146 103.44 23.0328 103.607 22.9854 103.786C22.938 103.966 22.9331 104.153 22.9707 104.348C22.9955 104.54 23.0668 104.737 23.1847 104.939C23.3592 105.239 23.5661 105.455 23.8054 105.586C24.0448 105.718 24.2924 105.78 24.548 105.772C24.7909 105.761 25.0207 105.709 25.2373 105.615L23.3986 102.456L24.0601 102.754Z" fill="white"/>
<path d="M24.6608 94.8388C24.8829 95.396 24.9824 95.9113 24.9592 96.3847C24.936 96.858 24.8242 97.286 24.6236 97.6686C24.4108 98.046 24.1328 98.3739 23.7896 98.652C23.4377 98.9335 23.0441 99.1609 22.6088 99.3345C22.1909 99.5011 21.7575 99.6033 21.3084 99.6411C20.8593 99.6789 20.4251 99.6401 20.0058 99.5247C19.5865 99.4094 19.2047 99.1982 18.8605 98.8915C18.5041 98.5796 18.2183 98.1538 18.0031 97.614C17.8018 97.1091 17.7136 96.6346 17.7385 96.1908C17.7546 95.7505 17.8665 95.3479 18.074 94.9826C18.2728 94.6208 18.5482 94.2991 18.9001 94.0175C19.2485 93.7273 19.6491 93.492 20.1018 93.3116C20.1627 93.2873 20.2515 93.2569 20.3682 93.2205C20.4727 93.1788 20.5893 93.1424 20.7181 93.1113L22.4726 97.5122C22.9167 97.2847 23.1972 96.976 23.3143 96.5863C23.4279 96.1879 23.3944 95.7624 23.214 95.3097C23.0821 94.9789 22.8971 94.6792 22.6589 94.4109C22.4121 94.1461 22.1313 93.9352 21.8164 93.7782L22.5906 92.5312C22.9472 92.7422 23.2532 92.9532 23.5088 93.1641C23.7644 93.375 23.9817 93.6163 24.1607 93.888C24.3448 94.1475 24.5115 94.4645 24.6608 94.8388ZM20.5332 95.0011C20.4566 95.0115 20.3818 95.0261 20.3086 95.0452C20.232 95.0555 20.1633 95.0729 20.1023 95.0972C19.9195 95.1701 19.7636 95.2725 19.6347 95.4046C19.497 95.5402 19.3916 95.6934 19.3183 95.8638C19.245 96.0343 19.2126 96.2188 19.221 96.4172C19.2173 96.6104 19.2589 96.8157 19.3456 97.0333C19.474 97.3555 19.6469 97.5994 19.8643 97.765C20.0816 97.9306 20.3174 98.0283 20.5714 98.0582C20.8133 98.0829 21.0483 98.0649 21.2764 98.0042L19.9228 94.6087L20.5332 95.0011Z" fill="white"/>
<path d="M21.4561 82.1908C21.5838 83.1099 21.4832 83.9518 21.1542 84.7167C20.8239 85.4722 20.3052 86.0979 19.5982 86.5935C18.8911 87.0892 18.0317 87.4073 17.0198 87.5479C16.0079 87.6885 15.0989 87.6161 14.2928 87.3307C13.4774 87.0466 12.8078 86.5861 12.2841 85.9491C11.759 85.303 11.4326 84.5203 11.3049 83.6013C11.1617 82.5709 11.2985 81.6482 11.7152 80.8333C12.1213 80.0104 12.752 79.374 13.6073 78.9239L14.47 80.5357C13.9321 80.8186 13.5363 81.2048 13.2825 81.6942C13.0275 82.1744 12.9439 82.7301 13.0316 83.3614C13.1116 83.9369 13.3165 84.4242 13.6463 84.8231C13.9749 85.2127 14.4059 85.4887 14.9395 85.6512C15.4624 85.8056 16.072 85.8344 16.7683 85.7377C17.4645 85.641 18.0478 85.4464 18.5181 85.1539C18.9872 84.8522 19.3267 84.4691 19.5365 84.0047C19.7451 83.5309 19.8094 83.0063 19.7295 82.4307C19.6417 81.7995 19.4098 81.2876 19.0335 80.8952C18.656 80.4934 18.1699 80.2298 17.5752 80.1042L17.9519 78.3203C18.8975 78.5201 19.6825 78.9598 20.3068 79.6395C20.9298 80.31 21.313 81.1604 21.4561 82.1908Z" fill="white"/>
<path d="M20.9368 73.0485C20.9126 73.7229 20.7365 74.3168 20.4085 74.8302C20.0805 75.3436 19.6394 75.7451 19.085 76.0347C18.5216 76.3145 17.8934 76.442 17.2003 76.417C16.4978 76.3918 15.885 76.2197 15.3619 75.9007C14.8294 75.5815 14.4181 75.154 14.1279 74.6184C13.838 74.0734 13.7052 73.4636 13.7294 72.7892C13.7533 72.1242 13.9293 71.5351 14.2572 71.0217C14.5852 70.5083 15.0262 70.1114 15.5802 69.8312C16.1249 69.5507 16.7484 69.4232 17.4509 69.4485C18.144 69.4734 18.7568 69.6455 19.2893 69.9648C19.8218 70.284 20.2378 70.7116 20.5374 71.2476C20.8276 71.7832 20.9607 72.3835 20.9368 73.0485ZM19.4054 72.9935C19.4182 72.6376 19.3449 72.3301 19.1854 72.0712C19.0262 71.8029 18.7945 71.5976 18.4901 71.4553C18.186 71.3037 17.8186 71.2202 17.3877 71.2047C16.9475 71.1888 16.575 71.2458 16.2703 71.3755C15.9564 71.4955 15.7152 71.6838 15.5466 71.9403C15.3689 72.1871 15.2736 72.4885 15.2608 72.8444C15.2477 73.2097 15.3207 73.5265 15.4798 73.7948C15.6296 74.0628 15.8566 74.2726 16.1606 74.4242C16.4553 74.5755 16.8227 74.6591 17.2629 74.6749C17.6938 74.6904 18.0663 74.6334 18.3804 74.5041C18.6946 74.3747 18.9406 74.1819 19.1187 73.9257C19.2967 73.6695 19.3923 73.3588 19.4054 72.9935Z" fill="white"/>
<path d="M21.1601 67.7493L14.3516 66.4525L14.6804 64.7262L16.2272 65.0208L16.2022 65.3023C15.8107 65.1037 15.5126 64.8656 15.3078 64.5881C15.1031 64.3106 14.9744 64.0094 14.9218 63.6845C14.86 63.3579 14.8597 63.0335 14.9211 62.7112C15.0684 61.9379 15.4042 61.3769 15.9286 61.0283C16.4455 60.6688 17.0998 60.5645 17.8916 60.7153L22.3386 61.5623L22.0098 63.2886L18.1981 62.5626C17.6273 62.4539 17.1937 62.4762 16.8973 62.6297C16.5917 62.7814 16.3977 63.0736 16.3153 63.5063C16.2522 63.8378 16.2778 64.1289 16.3923 64.3797C16.4992 64.6195 16.7033 64.8253 17.0045 64.9972C17.3057 65.169 17.7141 65.3041 18.2297 65.4023L21.489 66.023L21.1601 67.7493Z" fill="white"/>
<path d="M23.7513 57.6379C23.5853 58.126 23.3694 58.5277 23.1037 58.8432C22.8379 59.1587 22.5548 59.4089 22.2543 59.5937C21.9569 59.7697 21.6849 59.8999 21.4383 59.9843L20.8383 58.518C21.1381 58.4516 21.4412 58.3172 21.7478 58.1146C22.0485 57.9001 22.2697 57.5843 22.4116 57.1673C22.5233 56.839 22.5472 56.565 22.4834 56.3453C22.4137 56.1136 22.2812 55.9646 22.086 55.8982C21.9263 55.8439 21.778 55.8578 21.6412 55.9399C21.4955 56.019 21.3584 56.1456 21.2298 56.3197C21.0924 56.4908 20.9519 56.6855 20.8083 56.9039C20.6528 57.1282 20.4854 57.3584 20.3061 57.5944C20.1268 57.8304 19.9284 58.0351 19.711 58.2087C19.4847 58.3792 19.232 58.4962 18.953 58.5596C18.6771 58.6142 18.3661 58.5827 18.02 58.4649C17.4433 58.2687 17.0544 57.884 16.8535 57.3107C16.6436 56.7344 16.6655 56.0736 16.9191 55.3283C17.0972 54.8048 17.3652 54.3663 17.723 54.0129C18.072 53.6564 18.484 53.4203 18.9589 53.3047L19.4221 54.6058C19.1105 54.6779 18.8472 54.826 18.6324 55.0499C18.4118 55.2619 18.2517 55.5144 18.1521 55.8072C18.0645 56.0645 18.0409 56.294 18.0811 56.4958C18.1244 56.6888 18.2303 56.8139 18.3989 56.8712C18.5142 56.9105 18.6239 56.9082 18.7279 56.8644C18.8349 56.8117 18.9482 56.7116 19.0677 56.5642C19.1813 56.4048 19.3219 56.1953 19.4895 55.9355C19.6421 55.6904 19.8111 55.441 19.9965 55.1873C20.1818 54.9335 20.3921 54.7081 20.6275 54.511C20.8629 54.3139 21.1304 54.1821 21.4302 54.1158C21.73 54.0495 22.0706 54.0813 22.4522 54.2111C22.8869 54.359 23.2352 54.6012 23.4969 54.9378C23.7497 55.2713 23.9014 55.6694 23.9518 56.1321C24.0023 56.5947 23.9355 57.0967 23.7513 57.6379Z" fill="white"/>
<path d="M26.4067 51.2072C26.1535 51.7094 25.84 52.0814 25.4662 52.3232C25.0965 52.5567 24.6854 52.6643 24.2328 52.646C23.7844 52.6194 23.3133 52.4816 22.8195 52.2326L18.9531 50.2832L19.738 48.7266L23.2152 50.4798C23.4998 50.6233 23.7719 50.7185 24.0316 50.7655C24.283 50.8082 24.5178 50.7797 24.7361 50.6798C24.9502 50.5673 25.1332 50.3605 25.2852 50.0592C25.4708 49.691 25.5055 49.3621 25.3891 49.0725C25.2769 48.7745 25.0536 48.4992 24.7191 48.2466C24.3805 47.9814 23.9601 47.7222 23.458 47.469L20.9975 46.2285L21.7824 44.6719L27.9711 47.7922L27.1863 49.3488L25.8431 48.6716L26.0762 48.5215C26.4604 48.9461 26.6664 49.3911 26.6942 49.8564C26.722 50.3218 26.6261 50.7721 26.4067 51.2072Z" fill="white"/>
<path d="M29.9576 45.0482C29.6972 45.449 29.3609 45.6999 28.9488 45.801C28.5367 45.9021 28.0673 45.7816 27.5407 45.4395L20.7266 41.0125L21.6687 39.5625L28.1998 43.8056C28.3649 43.9128 28.5083 43.9501 28.6301 43.9175C28.744 43.8797 28.8419 43.798 28.9236 43.6722C28.9644 43.6094 29.0039 43.54 29.042 43.4642C29.0722 43.3832 29.1011 43.2958 29.1286 43.2019L30.3782 44.0137C30.3338 44.2196 30.2698 44.4128 30.1862 44.5931C30.1155 44.7707 30.0393 44.9224 29.9576 45.0482Z" fill="white"/>
<path d="M32.789 41.1782C32.5598 41.4749 32.2922 41.7064 31.9861 41.8726C31.68 42.0388 31.3408 42.1024 30.9683 42.0634C30.6015 42.0169 30.2067 41.8304 29.7839 41.5038L24.6328 37.5245L24.9703 35.5469L30.4886 39.8098C30.8075 40.0561 31.0801 40.2015 31.3063 40.246C31.5382 40.2831 31.7516 40.1755 31.9464 39.9233C32.0037 39.8491 32.0593 39.7618 32.1132 39.6614C32.1729 39.5535 32.2308 39.4324 32.2871 39.2983L33.344 40.1148C33.2831 40.3163 33.2035 40.5036 33.1055 40.6766C33.0148 40.8552 32.9093 41.0225 32.789 41.1782ZM26.2179 40.3479L25.1387 39.5142L27.9147 35.9206L28.9939 36.7543L26.2179 40.3479Z" fill="white"/>
<path d="M37.3692 35.9561L36.5293 35.3264L34.1551 32.9886C33.8613 32.6993 33.5522 32.5791 33.2278 32.628C32.9034 32.6636 32.5867 32.8384 32.2776 33.1522C32.0212 33.4127 31.8115 33.7324 31.6488 34.1115C31.4859 34.4772 31.396 34.8557 31.3792 35.2468L29.9062 35.0395C29.9677 34.416 30.1158 33.8648 30.3507 33.3858C30.5855 32.8936 30.9101 32.4371 31.3244 32.0164C31.9952 31.3352 32.6883 30.9719 33.4037 30.9267C34.1191 30.8814 34.7773 31.1546 35.3784 31.7465L38.4937 34.8142L37.3692 35.9561ZM35.9997 37.5474C35.6446 37.908 35.2589 38.1661 34.8426 38.3218C34.4328 38.4707 34.0222 38.507 33.6107 38.4307C33.2058 38.3477 32.8431 38.1483 32.5225 37.8327C32.2353 37.5499 32.0474 37.2531 31.9588 36.9423C31.8702 36.6183 31.8679 36.3068 31.9517 36.0079C32.0159 35.7423 32.1266 35.4896 32.2838 35.2498C32.4475 35.0033 32.6446 34.7632 32.8748 34.5295L34.384 32.9968L35.3056 33.9043L33.9738 35.2566C33.8686 35.3635 33.7734 35.4802 33.6882 35.6068C33.603 35.7201 33.5543 35.8431 33.5421 35.9757C33.5231 36.0886 33.5338 36.1978 33.5744 36.3035C33.6083 36.4027 33.6686 36.495 33.7554 36.5805C33.9424 36.7646 34.1651 36.8391 34.4233 36.804C34.6815 36.7689 34.9322 36.6278 35.1756 36.3807C35.3926 36.1603 35.5431 35.9139 35.6271 35.6415C35.7111 35.3559 35.7221 35.0775 35.6604 34.8062C35.5985 34.5217 35.4575 34.2709 35.2371 34.0539L36.2237 34.3744C36.4855 34.8032 36.6379 35.2162 36.6807 35.6135C36.7234 35.9976 36.683 36.3525 36.5596 36.6782C36.4362 37.0039 36.2496 37.2936 35.9997 37.5474Z" fill="white"/>
<path d="M42.0862 32.1087C41.7931 32.3424 41.4781 32.5036 41.1413 32.5924C40.8045 32.6811 40.4599 32.6623 40.1073 32.5359C39.7621 32.4037 39.4229 32.1288 39.0898 31.7111L35.0312 26.6222L35.8289 24.7812L40.1767 30.2329C40.4279 30.548 40.6582 30.754 40.8673 30.8509C41.0838 30.942 41.3166 30.8882 41.5658 30.6895C41.6391 30.6311 41.7138 30.5595 41.7901 30.4747C41.8736 30.3841 41.9587 30.2802 42.0452 30.1632L42.878 31.2075C42.7708 31.3888 42.6491 31.5518 42.5127 31.6966C42.3822 31.8486 42.2401 31.986 42.0862 32.1087ZM35.9004 29.7411L35.0501 28.6751L38.6003 25.8438L39.4506 26.9099L35.9004 29.7411Z" fill="white"/>
<path d="M43.9411 30.5827L40.0536 24.8447L41.4968 23.8669L45.3844 29.6049L43.9411 30.5827ZM39.4077 23.9917L38.3984 22.5019L39.9464 21.4531L40.9557 22.9429L39.4077 23.9917Z" fill="white"/>
<path d="M49.6679 27.257C49.0713 27.5723 48.4687 27.7159 47.8602 27.6878C47.2516 27.6596 46.6836 27.4775 46.1561 27.1415C45.6326 26.7927 45.2087 26.3118 44.8846 25.6986C44.5561 25.0772 44.3996 24.4602 44.4151 23.8478C44.4262 23.227 44.5915 22.6573 44.9109 22.1386C45.2387 21.6155 45.7009 21.1962 46.2975 20.8809C46.8858 20.5699 47.4842 20.4285 48.0928 20.4566C48.7013 20.4848 49.2652 20.6691 49.7844 21.0095C50.2992 21.3417 50.7209 21.8185 51.0494 22.4399C51.3735 23.0531 51.53 23.67 51.5189 24.2908C51.5078 24.9115 51.3447 25.4854 51.0296 26.0124C50.7101 26.5311 50.2562 26.946 49.6679 27.257ZM48.9518 25.9022C49.2666 25.7358 49.4965 25.5188 49.6414 25.2514C49.7946 24.9796 49.8569 24.6764 49.8283 24.3416C49.8081 24.0025 49.6972 23.6423 49.4957 23.2612C49.2899 22.8717 49.0547 22.5773 48.7903 22.3778C48.5297 22.1657 48.2462 22.0505 47.9398 22.0323C47.6372 22.0014 47.3285 22.0692 47.0136 22.2356C46.6905 22.4065 46.4523 22.6278 46.2991 22.8996C46.1416 23.1631 46.0729 23.4644 46.0932 23.8035C46.1091 24.1344 46.2199 24.4945 46.4258 24.884C46.6273 25.2651 46.8624 25.5596 47.1313 25.7673C47.4001 25.975 47.6899 26.0922 48.0008 26.1187C48.3116 26.1452 48.6286 26.073 48.9518 25.9022Z" fill="white"/>
<path d="M54.3796 24.8057L52.1172 18.2545L53.7783 17.6808L54.2922 19.1692L54.0356 19.2875C54.0131 18.8491 54.0713 18.472 54.2102 18.1564C54.3491 17.8407 54.5463 17.5792 54.802 17.3719C55.0545 17.1558 55.3359 16.9942 55.6459 16.8871C56.3901 16.6301 57.0438 16.6424 57.607 16.9238C58.176 17.1933 58.5921 17.709 58.8552 18.4709L60.3329 22.7498L58.6718 23.3235L57.4052 19.6558C57.2155 19.1066 56.9804 18.7416 56.6999 18.5608C56.4162 18.3712 56.0662 18.3483 55.6499 18.4921C55.3309 18.6022 55.0912 18.7693 54.9306 18.9933C54.7758 19.2055 54.6987 19.4849 54.6995 19.8317C54.7003 20.1785 54.7863 20.5999 54.9577 21.096L56.0407 24.2321L54.3796 24.8057Z" fill="white"/>
<path d="M66.0717 16.1449L65.1661 15.627L66.2287 14.1244L64.3828 14.0009L64.5663 12.927L66.3423 13.4852L65.8787 11.7032L66.9378 11.5625L66.9555 13.4038L68.5242 12.4012L68.9678 13.3917L67.2321 13.9911L68.6502 15.1641L67.8973 15.9024L66.7767 14.4061L66.0717 16.1449Z" fill="white"/>
<path d="M74.5123 101.298C89.3056 101.298 101.298 89.3056 101.298 74.5123C101.298 59.7189 89.3056 47.7266 74.5123 47.7266C59.7189 47.7266 47.7266 59.7189 47.7266 74.5123C47.7266 89.3056 59.7189 101.298 74.5123 101.298Z" fill="white"/>
<path d="M70.9098 78.8605C69.3484 77.942 68.1765 76.4834 67.6146 74.7596C67.6134 74.6965 67.5769 74.6392 67.5625 74.5763C66.9113 72.2304 67.5501 69.7139 69.2418 67.9662L81.6339 55.0206C82.7334 56.4123 83.2353 58.184 83.0289 59.9469C82.821 61.3884 82.1397 62.7202 81.0932 63.7309L73.052 71.4942C72.3389 72.1765 71.7652 72.9925 71.3649 73.8961L71.288 74.0867C70.6954 75.6062 70.5645 77.2661 70.9098 78.8605Z" fill="#1B4176"/>
<path d="M80.71 73.7849C82.2728 74.6946 83.4451 76.1452 84.0037 77.8594C84.0048 77.9221 84.0414 77.9801 84.0557 78.0426C84.7045 80.3742 84.0656 82.8734 82.3763 84.6126L69.9829 97.4806C68.8797 96.0905 68.378 94.3205 68.5874 92.5622C68.7964 91.1275 69.4776 89.8027 70.5239 88.796L78.5623 81.0833C79.2773 80.4051 79.8507 79.5919 80.249 78.6919L80.327 78.5064C80.9156 77.0043 81.0488 75.3626 80.71 73.7849Z" fill="#1B4176"/>
<path d="M73.5549 72.7518L74.7476 72.7306C75.1748 72.723 75.5264 73.0633 75.534 73.4894L75.5552 74.6822C75.5628 75.1094 75.2235 75.462 74.7964 75.4696L73.6037 75.4908C73.1764 75.4984 72.8239 75.1582 72.8163 74.731L72.795 73.5382C72.7874 73.112 73.1277 72.7595 73.5549 72.7518Z" fill="#ED1A3B"/>
<path d="M77.0148 72.6894L78.2085 72.6681C78.6347 72.6605 78.9873 73.0008 78.9948 73.4269L79.0161 74.6197C79.0237 75.0469 78.6835 75.3995 78.2573 75.4071L77.0636 75.4283C76.6374 75.4359 76.2848 75.0957 76.2772 74.6685L76.2559 73.4757C76.2484 73.0495 76.5886 72.697 77.0148 72.6894Z" fill="#ED1A3B"/>
<path d="M73.6174 76.0722L74.8101 76.0509C75.2373 76.0433 75.5889 76.3827 75.5965 76.8101L75.6177 78.0032C75.6253 78.4306 75.286 78.7823 74.8589 78.7899L73.6662 78.8111C73.2389 78.8187 72.8864 78.4794 72.8788 78.052L72.8575 76.8588C72.8499 76.4315 73.1902 76.0798 73.6174 76.0722Z" fill="#ED1A3B"/>
<path d="M77.0773 76.0097L78.271 75.9884C78.6972 75.9808 79.0497 76.3202 79.0574 76.7476L79.0786 77.9407C79.0862 78.3681 78.746 78.7198 78.3198 78.7274L77.1261 78.7486C76.6999 78.7562 76.3473 78.4169 76.3397 77.9895L76.3185 76.7963C76.3108 76.369 76.6511 76.0173 77.0773 76.0097Z" fill="#ED1A3B"/>
</g>
<defs>
<linearGradient id="paint0_linear_493_9" x1="0" y1="75" x2="150" y2="75" gradientUnits="userSpaceOnUse">
<stop stop-color="#ED1A3B"/>
<stop offset="1" stop-color="#1B4176"/>
</linearGradient>
<clipPath id="clip0_493_9">
<rect width="150" height="150" fill="white"/>
</clipPath>
</defs>
</svg>
