<svg width="140" height="140" viewBox="0 0 140 140" fill="none" xmlns="http://www.w3.org/2000/svg">
<circle cx="70" cy="70" r="70" fill="url(#paint0_linear_525_5690)"/>
<path d="M74.9268 19.9424C74.0912 19.8592 73.3756 19.5857 72.7801 19.122C72.1846 18.6583 71.7395 18.0513 71.4451 17.3011C71.1506 16.5509 71.0506 15.7014 71.1451 14.7527C71.2397 13.8039 71.5049 12.9951 71.9407 12.3265C72.3774 11.6492 72.9421 11.1428 73.6348 10.8074C74.3363 10.4729 75.1179 10.3486 75.9796 10.4345C76.9458 10.5307 77.7528 10.8573 78.4006 11.4141C79.058 11.9631 79.4969 12.675 79.7175 13.5496L78.066 13.9785C77.9274 13.4284 77.6639 12.9846 77.2756 12.647C76.896 12.3103 76.4102 12.1125 75.8183 12.0535C75.2786 11.9997 74.7917 12.0787 74.3574 12.2904C73.9318 12.5029 73.5868 12.8334 73.3224 13.2817C73.0675 13.7222 72.9076 14.2689 72.8425 14.9218C72.7775 15.5746 72.826 16.1464 72.9881 16.6373C73.1589 17.129 73.4319 17.521 73.8071 17.8134C74.1911 18.1066 74.6529 18.28 75.1926 18.3338C75.4711 18.3616 75.7623 18.351 76.0661 18.3022C76.3698 18.2533 76.6531 18.1453 76.9159 17.978C77.1883 17.803 77.4158 17.5487 77.5985 17.2153C77.7898 16.8827 77.9124 16.4466 77.9662 15.9069L78.0182 15.3847L78.2798 16.5975L75.6684 16.3373L75.8193 14.8227L79.5535 15.1948L79.0605 20.1433L77.5721 19.995L77.484 18.4962L77.7492 18.7468C77.5604 19.0532 77.3203 19.3018 77.0287 19.4925C76.7372 19.6833 76.4122 19.8135 76.0536 19.8833C75.7028 19.9626 75.3272 19.9823 74.9268 19.9424Z" fill="white"/>
<path d="M83.6168 21.5082C83.0775 21.3579 82.6387 21.1402 82.3004 20.8552C81.9621 20.5702 81.7077 20.245 81.5371 19.8796C81.3773 19.5082 81.2913 19.1164 81.279 18.7043C81.2691 18.2838 81.3228 17.8629 81.4403 17.4416C81.553 17.0371 81.7224 16.6575 81.9484 16.3028C82.1744 15.9481 82.4489 15.6477 82.7717 15.4017C83.0945 15.1557 83.4672 14.9917 83.8896 14.9096C84.3228 14.8215 84.8006 14.8503 85.3231 14.9959C85.8118 15.1321 86.2138 15.335 86.5292 15.6045C86.8469 15.8656 87.0826 16.1765 87.2364 16.5372C87.3924 16.8895 87.4754 17.2759 87.4854 17.6964C87.5037 18.1192 87.4518 18.5497 87.3297 18.9879C87.3132 19.0469 87.2855 19.13 87.2466 19.2372C87.2184 19.3383 87.1794 19.4455 87.1297 19.5587L82.8702 18.3714C82.7878 18.8298 82.8582 19.2126 83.0813 19.52C83.3128 19.8297 83.6476 20.0456 84.0858 20.1678C84.406 20.257 84.733 20.2892 85.0669 20.2642C85.4031 20.2308 85.7186 20.1416 86.0132 19.9967L86.5009 21.2769C86.1426 21.4222 85.8129 21.5301 85.5117 21.6005C85.2106 21.6709 84.9085 21.6957 84.6056 21.6748C84.3087 21.6647 83.9791 21.6092 83.6168 21.5082ZM85.8314 18.3523C85.867 18.2896 85.8985 18.2257 85.9257 18.1606C85.9613 18.0979 85.9874 18.0371 86.0038 17.9781C86.0531 17.8011 86.0652 17.6274 86.0401 17.457C86.0173 17.2781 85.9634 17.1132 85.8783 16.9624C85.7932 16.8115 85.6746 16.6831 85.5225 16.5771C85.3812 16.4651 85.2052 16.3797 84.9946 16.321C84.6828 16.2341 84.404 16.2245 84.1581 16.2922C83.9122 16.3598 83.7063 16.4795 83.5404 16.6512C83.3852 16.8168 83.2657 17.0015 83.1817 17.2051L86.468 18.1211L85.8314 18.3523Z" fill="white"/>
<path d="M90.0569 23.8051C89.7336 23.6713 89.4596 23.487 89.2349 23.252C89.0102 23.0171 88.8699 22.7271 88.8138 22.382C88.7659 22.0403 88.8372 21.6391 89.0278 21.1784L91.3501 15.5646L93.2139 15.3842L90.726 21.3981C90.5823 21.7457 90.518 22.0268 90.5334 22.2414C90.5568 22.4594 90.7059 22.6252 90.9808 22.7389C91.0616 22.7723 91.1539 22.801 91.2576 22.825C91.3693 22.8523 91.4925 22.8749 91.6271 22.8927L91.1506 24.0445C90.9541 24.039 90.766 24.0132 90.5862 23.9673C90.4031 23.9294 90.2267 23.8753 90.0569 23.8051ZM89.1955 17.6836L89.6821 16.5075L93.5984 18.1276L93.1119 19.3037L89.1955 17.6836Z" fill="white"/>
<path d="M98.8887 28.6083L99.3149 27.7261L101.03 25.1323C101.243 24.8112 101.297 24.5066 101.194 24.2182C101.104 23.9274 100.887 23.6686 100.544 23.4418C100.259 23.2536 99.9288 23.119 99.5524 23.0379C99.1882 22.9543 98.8254 22.9399 98.4641 22.9946L98.3899 21.6083C98.972 21.5528 99.5034 21.5896 99.9843 21.7189C100.477 21.8456 100.954 22.061 101.413 22.365C102.157 22.8572 102.614 23.4269 102.784 24.0741C102.954 24.7212 102.822 25.3731 102.387 26.0298L100.136 29.4335L98.8887 28.6083ZM97.1857 27.6393C96.7917 27.3787 96.486 27.0717 96.2688 26.7183C96.0589 26.3697 95.952 26.0001 95.9481 25.6095C95.9515 25.2237 96.0691 24.8558 96.3007 24.5055C96.5082 24.1918 96.7463 23.9665 97.0151 23.8296C97.2961 23.6903 97.5809 23.6323 97.8697 23.6555C98.1245 23.6666 98.3758 23.7227 98.6237 23.8237C98.8788 23.9295 99.1341 24.0669 99.3894 24.2358L101.064 25.3432L100.398 26.3501L98.9205 25.3729C98.8038 25.2957 98.6798 25.2295 98.5486 25.1742C98.4295 25.1164 98.3081 25.0938 98.1844 25.1064C98.0777 25.1092 97.9795 25.1386 97.8899 25.1948C97.8052 25.2436 97.7315 25.3155 97.6687 25.4103C97.5336 25.6146 97.5053 25.8318 97.5838 26.062C97.6623 26.2922 97.8365 26.4966 98.1065 26.6752C98.3472 26.8344 98.5999 26.9281 98.8645 26.9562C99.1411 26.9819 99.3982 26.9421 99.6355 26.8369C99.885 26.7293 100.089 26.555 100.249 26.3143L100.132 27.2755C99.7863 27.5921 99.4353 27.8057 99.0791 27.9162C98.735 28.0242 98.4027 28.0509 98.0822 27.9963C97.7618 27.9417 97.4629 27.8227 97.1857 27.6393Z" fill="white"/>
<path d="M104.312 32.9367L110.871 26.5625L115.132 30.9472L114.041 32.0081L110.959 28.8371L109.397 30.3553L112.076 33.1122L110.994 34.1639L108.315 31.407L105.492 34.1505L104.312 32.9367Z" fill="white"/>
<path d="M109.158 38.1749L114.314 34.2687L115.304 35.5761L113.903 36.6378L113.731 36.4549C114.047 36.2487 114.381 36.1386 114.732 36.1247C115.084 36.1107 115.41 36.1713 115.709 36.3063C116.021 36.443 116.27 36.6334 116.455 36.8774C116.587 37.0517 116.687 37.2341 116.754 37.4245C116.834 37.6165 116.885 37.8358 116.907 38.0824L115.26 38.3423C115.244 38.2339 115.208 38.1072 115.153 37.9623C115.098 37.8173 115.026 37.6856 114.936 37.5671C114.83 37.4276 114.703 37.3101 114.554 37.2146C114.41 37.1261 114.246 37.0691 114.062 37.0438C113.884 37.0254 113.683 37.0509 113.462 37.1202C113.343 37.1662 113.199 37.2369 113.03 37.3322C112.873 37.4292 112.651 37.586 112.365 37.8025L110.148 39.4823L109.158 38.1749Z" fill="white"/>
<path d="M113.626 44.9682C113.346 44.4833 113.185 44.0207 113.143 43.5804C113.101 43.14 113.147 42.7297 113.281 42.3494C113.427 41.9722 113.64 41.6323 113.919 41.3294C114.207 41.0222 114.54 40.7593 114.918 40.5406C115.282 40.3307 115.669 40.1782 116.079 40.0832C116.488 39.9881 116.895 39.9657 117.297 40.0161C117.7 40.0664 118.081 40.2101 118.44 40.4473C118.811 40.6876 119.132 41.0427 119.403 41.5124C119.657 41.9518 119.802 42.3782 119.838 42.7914C119.883 43.2002 119.833 43.5873 119.69 43.9524C119.555 44.3133 119.344 44.6473 119.057 44.9545C118.774 45.2693 118.435 45.5404 118.041 45.7678C117.988 45.7984 117.911 45.8383 117.808 45.8876C117.717 45.94 117.614 45.9893 117.499 46.0354L115.289 42.2056C114.909 42.4753 114.691 42.7979 114.635 43.1736C114.584 43.5568 114.672 43.9454 114.899 44.3394C115.065 44.6272 115.276 44.8791 115.532 45.095C115.796 45.3066 116.083 45.4637 116.395 45.5665L115.847 46.8221C115.49 46.675 115.179 46.5212 114.914 46.3607C114.65 46.2001 114.417 46.0064 114.215 45.7794C114.01 45.5644 113.814 45.294 113.626 44.9682ZM117.417 44.265C117.486 44.2452 117.553 44.2215 117.618 44.1941C117.687 44.1743 117.749 44.1491 117.802 44.1185C117.961 44.0267 118.091 43.9111 118.192 43.7718C118.301 43.6281 118.378 43.4726 118.423 43.3053C118.468 43.138 118.473 42.9633 118.439 42.7812C118.416 42.6022 118.35 42.4181 118.241 42.2287C118.079 41.9483 117.887 41.7463 117.664 41.6225C117.441 41.4986 117.21 41.44 116.971 41.4464C116.745 41.4561 116.53 41.5042 116.328 41.5908L118.033 44.5455L117.417 44.265Z" fill="white"/>
<path d="M116.827 51.6488C116.622 51.128 116.531 50.6467 116.554 50.205C116.577 49.7633 116.683 49.3642 116.871 49.0077C117.071 48.6562 117.332 48.3512 117.653 48.0929C117.983 47.8313 118.351 47.6203 118.758 47.4598C119.148 47.3058 119.553 47.2119 119.972 47.1781C120.392 47.1444 120.797 47.1821 121.188 47.2912C121.579 47.4003 121.934 47.5986 122.254 47.886C122.586 48.1784 122.851 48.5768 123.05 49.0814C123.236 49.5533 123.317 49.9964 123.292 50.4105C123.276 50.8214 123.17 51.1969 122.975 51.5371C122.788 51.8741 122.53 52.1733 122.201 52.4349C121.875 52.7046 121.5 52.9229 121.077 53.0898C121.02 53.1123 120.937 53.1403 120.828 53.1739C120.73 53.2124 120.621 53.246 120.501 53.2747L118.878 49.1611C118.463 49.3719 118.2 49.659 118.09 50.0223C117.982 50.3938 118.012 50.7911 118.179 51.2143C118.301 51.5235 118.473 51.8037 118.694 52.0549C118.923 52.303 119.185 52.5008 119.478 52.6484L118.751 53.8096C118.419 53.6114 118.134 53.4135 117.896 53.2158C117.659 53.0181 117.457 52.7921 117.291 52.5379C117.12 52.2951 116.965 51.9987 116.827 51.6488ZM120.68 51.5114C120.751 51.502 120.821 51.4885 120.89 51.471C120.961 51.4616 121.025 51.4457 121.082 51.4232C121.253 51.3558 121.399 51.2607 121.52 51.1378C121.649 51.0117 121.748 50.8692 121.817 50.7104C121.886 50.5515 121.917 50.3795 121.909 50.1943C121.914 50.014 121.876 49.8221 121.795 49.6187C121.677 49.3176 121.516 49.0894 121.314 48.9341C121.111 48.7788 120.892 48.6868 120.655 48.658C120.429 48.6342 120.21 48.6502 119.997 48.706L121.248 51.8796L120.68 51.5114Z" fill="white"/>
<path d="M119.773 63.4648C119.657 62.6066 119.754 61.8211 120.064 61.1084C120.375 60.4043 120.861 59.8222 121.522 59.3619C122.184 58.9017 122.987 58.6077 123.932 58.4799C124.877 58.3522 125.725 58.4228 126.477 58.692C127.237 58.9599 127.86 59.392 128.347 59.9882C128.835 60.5931 129.137 61.3246 129.253 62.1828C129.383 63.1451 129.252 64.0058 128.86 64.7649C128.479 65.5315 127.888 66.1234 127.088 66.5405L126.288 65.0333C126.791 64.7711 127.162 64.412 127.4 63.956C127.64 63.5088 127.72 62.9904 127.64 62.4009C127.568 61.8634 127.378 61.408 127.071 61.0346C126.766 60.6698 126.365 60.4107 125.867 60.2573C125.38 60.1114 124.811 60.0824 124.161 60.1703C123.511 60.2583 122.966 60.4379 122.526 60.7093C122.087 60.9893 121.769 61.3457 121.571 61.7784C121.375 62.2198 121.313 62.7093 121.386 63.2467C121.466 63.8362 121.68 64.3147 122.03 64.6823C122.381 65.0585 122.834 65.3063 123.389 65.4255L123.031 67.0892C122.149 66.8995 121.418 66.4864 120.837 65.8499C120.258 65.2221 119.904 64.427 119.773 63.4648Z" fill="white"/>
<path d="M120.233 72.002C120.257 71.3727 120.424 70.819 120.732 70.3409C121.04 69.8629 121.453 69.4897 121.971 69.2213C122.498 68.9621 123.085 68.8453 123.731 68.8709C124.387 68.8969 124.958 69.0596 125.445 69.359C125.941 69.6588 126.324 70.0592 126.593 70.5601C126.862 71.0697 126.983 71.6392 126.959 72.2686C126.934 72.8892 126.768 73.4385 126.46 73.9165C126.152 74.3946 125.739 74.7634 125.221 75.023C124.712 75.283 124.129 75.4 123.474 75.374C122.827 75.3483 122.256 75.1856 121.76 74.8858C121.264 74.586 120.877 74.1855 120.599 73.6843C120.33 73.1833 120.208 72.6226 120.233 72.002ZM121.662 72.0586C121.648 72.3908 121.716 72.678 121.864 72.9202C122.011 73.1712 122.227 73.3636 122.511 73.4974C122.794 73.6399 123.137 73.7192 123.539 73.7351C123.949 73.7514 124.297 73.6995 124.582 73.5795C124.876 73.4685 125.101 73.2936 125.26 73.0548C125.426 72.825 125.516 72.5441 125.529 72.2119C125.543 71.871 125.476 71.5751 125.328 71.3241C125.189 71.0735 124.978 70.8769 124.695 70.7344C124.42 70.5922 124.078 70.5129 123.667 70.4967C123.265 70.4807 122.917 70.5326 122.623 70.6523C122.33 70.772 122.099 70.951 121.932 71.1896C121.765 71.4281 121.675 71.7178 121.662 72.0586Z" fill="white"/>
<path d="M120.007 76.9428L126.357 78.1762L126.044 79.7862L124.602 79.506L124.626 79.2434C124.991 79.4301 125.268 79.6533 125.458 79.913C125.648 80.1727 125.768 80.4543 125.816 80.7577C125.872 81.0627 125.871 81.3655 125.813 81.6661C125.673 82.3874 125.357 82.9098 124.867 83.2334C124.383 83.5672 123.772 83.6623 123.034 83.5189L118.886 82.7133L119.199 81.1033L122.754 81.7937C123.286 81.8971 123.691 81.8777 123.968 81.7355C124.254 81.595 124.436 81.3229 124.514 80.9193C124.574 80.6102 124.551 80.3384 124.445 80.1039C124.346 79.8797 124.157 79.6869 123.876 79.5255C123.596 79.3641 123.215 79.2367 122.734 79.1433L119.694 78.5529L120.007 76.9428Z" fill="white"/>
<path d="M117.551 86.3715C117.708 85.9166 117.91 85.5424 118.16 85.2489C118.409 84.9553 118.674 84.7228 118.955 84.5513C119.233 84.3881 119.487 84.2675 119.718 84.1895L120.273 85.5602C119.993 85.6211 119.709 85.7455 119.423 85.9336C119.141 86.1327 118.934 86.4267 118.8 86.8154C118.694 87.1214 118.671 87.3771 118.73 87.5824C118.794 87.7988 118.917 87.9383 119.099 88.001C119.248 88.0523 119.387 88.0398 119.515 87.9636C119.651 87.8902 119.779 87.7726 119.9 87.6105C120.029 87.4514 120.16 87.2701 120.295 87.0667C120.441 86.8579 120.598 86.6437 120.766 86.424C120.935 86.2044 121.12 86.0139 121.324 85.8527C121.536 85.6944 121.772 85.5861 122.033 85.5278C122.29 85.4778 122.58 85.5083 122.903 85.6194C123.441 85.8045 123.802 86.1649 123.988 86.7006C124.182 87.2392 124.159 87.8559 123.92 88.5507C123.752 89.0387 123.5 89.447 123.165 89.7756C122.838 90.1071 122.453 90.326 122.009 90.4323L121.581 89.2164C121.872 89.1501 122.118 89.0129 122.32 88.8046C122.526 88.6075 122.677 88.3724 122.771 88.0995C122.853 87.8596 122.876 87.6454 122.839 87.457C122.8 87.2768 122.701 87.1596 122.544 87.1055C122.436 87.0685 122.334 87.0702 122.237 87.1108C122.137 87.1596 122.031 87.2526 121.919 87.3898C121.812 87.5381 121.68 87.7332 121.523 87.9751C121.38 88.2033 121.221 88.4355 121.047 88.6717C120.873 88.9079 120.676 89.1176 120.456 89.3007C120.235 89.4839 119.985 89.6059 119.705 89.6668C119.425 89.7277 119.107 89.6968 118.752 89.5744C118.346 89.4348 118.022 89.2076 117.779 88.8926C117.544 88.5804 117.404 88.2083 117.359 87.7763C117.313 87.3443 117.377 86.8761 117.551 86.3715Z" fill="white"/>
<path d="M115.049 92.3639C115.288 91.8961 115.581 91.55 115.931 91.3255C116.277 91.1089 116.661 91.0099 117.083 91.0285C117.502 91.0549 117.941 91.1851 118.401 91.4192L122.003 93.252L121.265 94.7021L118.026 93.0538C117.761 92.9189 117.507 92.8291 117.265 92.7844C117.03 92.7436 116.811 92.7694 116.607 92.8619C116.407 92.9661 116.235 93.1585 116.092 93.4392C115.918 93.7822 115.884 94.0891 115.992 94.3598C116.096 94.6383 116.303 94.896 116.614 95.1329C116.93 95.3816 117.321 95.625 117.789 95.863L120.081 97.0293L119.343 98.4794L113.578 95.5458L114.316 94.0957L115.567 94.7324L115.349 94.8717C114.992 94.474 114.801 94.058 114.777 93.6236C114.752 93.1892 114.843 92.7693 115.049 92.3639Z" fill="white"/>
<path d="M111.719 98.0965C111.963 97.7233 112.278 97.4903 112.663 97.3973C113.048 97.3044 113.486 97.4185 113.976 97.7396L120.321 101.895L119.437 103.245L113.355 99.2623C113.202 99.1616 113.068 99.1263 112.954 99.1564C112.848 99.1912 112.756 99.2672 112.679 99.3843C112.641 99.4428 112.604 99.5074 112.568 99.5781C112.54 99.6535 112.512 99.735 112.486 99.8226L111.323 99.0606C111.365 98.8686 111.425 98.6885 111.504 98.5205C111.571 98.3549 111.642 98.2136 111.719 98.0965Z" fill="white"/>
<path d="M109.058 101.704C109.273 101.428 109.524 101.213 109.81 101.059C110.096 100.905 110.413 100.846 110.761 100.884C111.103 100.929 111.471 101.104 111.864 101.41L116.658 105.142L116.337 106.987L111.201 102.989C110.904 102.758 110.65 102.621 110.439 102.579C110.223 102.544 110.023 102.644 109.84 102.878C109.787 102.947 109.735 103.029 109.684 103.122C109.628 103.223 109.573 103.335 109.52 103.46L108.537 102.695C108.594 102.507 108.669 102.332 108.761 102.171C108.846 102.005 108.945 101.849 109.058 101.704ZM115.188 102.501L116.193 103.283L113.59 106.628L112.585 105.846L115.188 102.501Z" fill="white"/>
<path d="M104.768 106.564L105.549 107.155L107.757 109.344C108.031 109.616 108.319 109.729 108.622 109.684C108.925 109.652 109.221 109.49 109.51 109.198C109.751 108.956 109.947 108.658 110.101 108.305C110.254 107.964 110.339 107.611 110.356 107.246L111.73 107.445C111.671 108.026 111.53 108.54 111.31 108.987C111.089 109.445 110.784 109.87 110.396 110.262C109.768 110.895 109.12 111.232 108.452 111.272C107.784 111.311 107.171 111.054 106.612 110.5L103.714 107.626L104.768 106.564ZM106.051 105.083C106.384 104.748 106.745 104.508 107.134 104.365C107.517 104.227 107.9 104.194 108.284 104.267C108.662 104.346 109 104.533 109.298 104.829C109.565 105.094 109.739 105.371 109.821 105.662C109.902 105.965 109.904 106.255 109.824 106.534C109.763 106.782 109.659 107.017 109.512 107.24C109.358 107.47 109.173 107.693 108.958 107.911L107.544 109.336L106.687 108.486L107.934 107.228C108.033 107.129 108.122 107.02 108.202 106.902C108.282 106.797 108.328 106.682 108.34 106.559C108.358 106.453 108.348 106.351 108.311 106.253C108.279 106.16 108.223 106.074 108.143 105.993C107.969 105.821 107.761 105.751 107.52 105.783C107.279 105.814 107.045 105.945 106.817 106.175C106.613 106.38 106.472 106.61 106.393 106.863C106.313 107.13 106.302 107.39 106.359 107.643C106.415 107.909 106.546 108.143 106.751 108.347L105.831 108.044C105.589 107.643 105.448 107.257 105.409 106.886C105.371 106.527 105.409 106.196 105.526 105.893C105.642 105.589 105.817 105.319 106.051 105.083Z" fill="white"/>
<path d="M100.355 110.141C100.629 109.924 100.923 109.775 101.238 109.693C101.553 109.611 101.874 109.63 102.203 109.749C102.525 109.874 102.84 110.131 103.15 110.522L106.921 115.286L106.17 117.001L102.13 111.898C101.897 111.603 101.683 111.41 101.488 111.319C101.286 111.233 101.069 111.283 100.836 111.467C100.767 111.522 100.697 111.588 100.625 111.667C100.547 111.751 100.467 111.848 100.386 111.957L99.6126 110.98C99.7132 110.811 99.8273 110.659 99.9551 110.524C100.077 110.383 100.211 110.255 100.355 110.141ZM106.12 112.372L106.91 113.37L103.587 116L102.797 115.002L106.12 112.372Z" fill="white"/>
<path d="M98.6153 111.556L102.224 116.925L100.874 117.833L97.265 112.464L98.6153 111.556ZM102.824 117.723L103.761 119.117L102.313 120.091L101.376 118.697L102.824 117.723Z" fill="white"/>
<path d="M93.2594 114.644C93.8173 114.351 94.3802 114.219 94.9481 114.248C95.516 114.276 96.0455 114.448 96.5366 114.763C97.0241 115.091 97.4181 115.541 97.7185 116.114C98.0229 116.696 98.1669 117.272 98.1503 117.843C98.1378 118.423 97.9816 118.954 97.6817 119.437C97.374 119.924 96.9412 120.314 96.3833 120.606C95.8331 120.894 95.2741 121.024 94.7062 120.996C94.1383 120.968 93.6127 120.794 93.1293 120.474C92.6499 120.162 92.258 119.716 91.9535 119.135C91.6531 118.561 91.5092 117.985 91.5217 117.406C91.5342 116.826 91.6884 116.291 91.9843 115.8C92.2842 115.317 92.7093 114.932 93.2594 114.644ZM93.9232 115.91C93.6287 116.065 93.4134 116.266 93.2773 116.515C93.1334 116.769 93.0742 117.051 93.0997 117.364C93.1174 117.681 93.2197 118.017 93.4064 118.374C93.5972 118.738 93.8157 119.013 94.0618 119.2C94.3042 119.399 94.5684 119.508 94.8544 119.526C95.1367 119.556 95.4251 119.493 95.7195 119.339C96.0217 119.181 96.2447 118.975 96.3886 118.722C96.5366 118.477 96.6017 118.196 96.584 117.879C96.5703 117.57 96.468 117.234 96.2772 116.869C96.0905 116.513 95.872 116.237 95.6218 116.043C95.3716 115.848 95.1015 115.737 94.8115 115.712C94.5215 115.686 94.2253 115.752 93.9232 115.91Z" fill="white"/>
<path d="M88.85 116.914L90.9391 123.036L89.3868 123.566L88.9122 122.175L89.1521 122.065C89.1716 122.475 89.116 122.826 88.9853 123.12C88.8546 123.415 88.6696 123.658 88.4303 123.85C88.1938 124.051 87.9307 124.201 87.6409 124.3C86.9455 124.537 86.3354 124.524 85.8107 124.259C85.2806 124.006 84.894 123.523 84.6511 122.811L83.2866 118.812L84.8389 118.282L86.0084 121.71C86.1836 122.223 86.4018 122.565 86.663 122.734C86.9271 122.912 87.2536 122.935 87.6427 122.802C87.9408 122.7 88.1651 122.545 88.3158 122.337C88.461 122.139 88.5339 121.879 88.5343 121.555C88.5348 121.231 88.4559 120.838 88.2977 120.374L87.2977 117.443L88.85 116.914Z" fill="white"/>
<path d="M77.9103 124.954L78.7537 125.44L77.7569 126.839L79.4793 126.961L79.3044 127.962L77.6486 127.435L78.0753 129.1L77.0863 129.228L77.076 127.509L75.6086 128.44L75.1979 127.514L76.8199 126.96L75.5004 125.861L76.2056 125.174L77.2464 126.574L77.9103 124.954Z" fill="white"/>
<path d="M65.0347 120.07C65.8706 120.15 66.5872 120.421 67.1844 120.882C67.7817 121.344 68.2289 121.949 68.5261 122.698C68.8233 123.447 68.9264 124.297 68.8353 125.246C68.7442 126.195 68.482 127.004 68.0486 127.675C67.6144 128.354 67.0515 128.862 66.36 129.2C65.6598 129.537 64.8787 129.664 64.0166 129.581C63.0501 129.489 62.2419 129.165 61.5921 128.611C60.9327 128.064 60.4912 127.354 60.2675 126.48L61.9173 126.045C62.0579 126.595 62.323 127.037 62.7126 127.374C63.0934 127.709 63.5799 127.905 64.172 127.962C64.7119 128.014 65.1986 127.933 65.6321 127.72C66.0569 127.506 66.4006 127.174 66.6634 126.725C66.9167 126.283 67.0747 125.736 67.1373 125.083C67.2 124.43 67.1494 123.858 66.9855 123.368C66.8129 122.877 66.5385 122.486 66.1622 122.195C65.7771 121.903 65.3147 121.731 64.7748 121.679C64.4962 121.653 64.2051 121.664 63.9015 121.714C63.5979 121.764 63.315 121.873 63.0528 122.041C62.7811 122.217 62.5545 122.472 62.3731 122.807C62.1829 123.14 62.0619 123.576 62.0101 124.116L61.96 124.639L61.694 123.427L64.3063 123.677L64.1609 125.193L60.4254 124.834L60.9003 119.884L62.3893 120.027L62.4828 121.525L62.2168 121.276C62.4044 120.969 62.6437 120.719 62.9345 120.527C63.2253 120.335 63.5499 120.204 63.9082 120.133C64.2587 120.052 64.6342 120.031 65.0347 120.07Z" fill="white"/>
<path d="M56.3397 118.538C56.8795 118.686 57.3191 118.902 57.6584 119.186C57.9978 119.469 58.2534 119.794 58.4254 120.158C58.5865 120.529 58.674 120.921 58.6878 121.333C58.6993 121.753 58.6471 122.174 58.5312 122.596C58.42 123.001 58.252 123.381 58.0273 123.737C57.8026 124.092 57.5293 124.394 57.2074 124.641C56.8854 124.888 56.5134 125.053 56.0913 125.137C55.6584 125.227 55.1805 125.2 54.6575 125.056C54.1683 124.922 53.7655 124.72 53.4491 124.452C53.1305 124.192 52.8936 123.882 52.7385 123.522C52.5812 123.17 52.4967 122.784 52.4852 122.364C52.4653 121.941 52.5156 121.51 52.6361 121.072C52.6524 121.013 52.6798 120.929 52.7183 120.822C52.7461 120.721 52.7847 120.613 52.834 120.5L57.0979 121.672C57.1786 121.213 57.1068 120.83 56.8826 120.524C56.6499 120.215 56.3143 120 55.8757 119.88C55.5551 119.792 55.228 119.761 54.8942 119.787C54.5581 119.822 54.243 119.912 53.9488 120.058L53.4564 118.78C53.8142 118.633 54.1435 118.524 54.4444 118.452C54.7453 118.381 55.0473 118.355 55.3503 118.375C55.6472 118.384 55.977 118.438 56.3397 118.538ZM54.1368 121.702C54.1014 121.764 54.0702 121.828 54.0432 121.894C54.0078 121.956 53.982 122.017 53.9657 122.076C53.9171 122.254 53.9056 122.427 53.9314 122.598C53.9548 122.777 54.0094 122.941 54.095 123.092C54.1807 123.242 54.2997 123.37 54.4522 123.476C54.5939 123.587 54.7702 123.672 54.9811 123.73C55.2932 123.816 55.5721 123.824 55.8177 123.756C56.0633 123.687 56.2688 123.567 56.4341 123.394C56.5886 123.228 56.7075 123.043 56.7907 122.839L53.5011 121.935L54.1368 121.702Z" fill="white"/>
<path d="M49.8893 116.263C50.2131 116.396 50.4878 116.579 50.7133 116.813C50.9389 117.047 51.0803 117.337 51.1376 117.682C51.1868 118.023 51.117 118.425 50.928 118.886L48.6262 124.509L46.7631 124.696L49.229 118.673C49.3715 118.325 49.4347 118.043 49.4186 117.829C49.3943 117.611 49.2446 117.446 48.9694 117.333C48.8884 117.3 48.796 117.271 48.6923 117.248C48.5804 117.221 48.4571 117.199 48.3224 117.181L48.7947 116.028C48.9913 116.033 49.1795 116.058 49.3594 116.103C49.5427 116.14 49.7193 116.194 49.8893 116.263ZM50.7731 122.382L50.2908 123.559L46.3686 121.954L46.8508 120.776L50.7731 122.382Z" fill="white"/>
<path d="M41.0406 111.493L40.6176 112.377L38.9116 114.977C38.7005 115.299 38.6469 115.604 38.7509 115.892C38.8428 116.182 39.0606 116.44 39.4044 116.666C39.6896 116.853 40.0205 116.987 40.3972 117.066C40.7617 117.149 41.1245 117.162 41.4856 117.106L41.5649 118.492C40.9831 118.549 40.4515 118.514 39.9701 118.387C39.4767 118.262 38.9996 118.048 38.5388 117.746C37.7928 117.256 37.3338 116.688 37.1616 116.042C36.9895 115.395 37.1194 114.743 37.5513 114.085L39.7899 110.673L41.0406 111.493ZM42.7472 112.456C43.1421 112.715 43.4489 113.021 43.6674 113.374C43.8786 113.722 43.9868 114.091 43.9921 114.482C43.9901 114.867 43.8739 115.236 43.6436 115.587C43.4372 115.901 43.1999 116.127 42.9316 116.265C42.6512 116.406 42.3665 116.465 42.0776 116.443C41.8228 116.432 41.5713 116.377 41.3231 116.277C41.0676 116.172 40.8118 116.036 40.5558 115.868L38.8773 114.766L39.5396 113.757L41.0206 114.729C41.1376 114.806 41.2618 114.872 41.3933 114.926C41.5126 114.984 41.634 115.006 41.7577 114.993C41.8644 114.99 41.9624 114.96 42.0518 114.903C42.1364 114.854 42.2098 114.782 42.2722 114.687C42.4066 114.482 42.4341 114.265 42.3548 114.035C42.2755 113.805 42.1005 113.601 41.8299 113.424C41.5885 113.265 41.3355 113.173 41.0709 113.145C40.7941 113.121 40.5372 113.162 40.3002 113.268C40.0511 113.376 39.8474 113.551 39.689 113.792L39.8021 112.831C40.1467 112.513 40.4969 112.298 40.8528 112.186C41.1965 112.077 41.5287 112.049 41.8493 112.103C42.17 112.156 42.4693 112.274 42.7472 112.456Z" fill="white"/>
<path d="M35.6017 107.182L29.0667 113.58L24.789 109.211L25.8767 108.146L28.9701 111.306L30.5265 109.782L27.837 107.035L28.9152 105.979L31.6048 108.726L34.4176 105.973L35.6017 107.182Z" fill="white"/>
<path d="M30.7382 101.964L25.5962 105.889L24.6011 104.585L25.9987 103.519L26.1708 103.701C25.8559 103.908 25.5227 104.019 25.1711 104.035C24.8196 104.05 24.4937 103.991 24.1933 103.857C23.8808 103.721 23.6316 103.532 23.4458 103.288C23.3131 103.114 23.2127 102.932 23.1446 102.742C23.0643 102.551 23.0126 102.331 22.9895 102.085L24.6353 101.819C24.652 101.927 24.6881 102.054 24.7435 102.199C24.799 102.343 24.8718 102.475 24.9621 102.593C25.0682 102.732 25.1961 102.849 25.3456 102.944C25.4898 103.032 25.6539 103.088 25.8378 103.113C26.0164 103.131 26.2165 103.105 26.4381 103.035C26.5567 102.988 26.7004 102.917 26.8693 102.821C27.0259 102.723 27.2468 102.566 27.5319 102.348L29.743 100.66L30.7382 101.964Z" fill="white"/>
<path d="M26.2448 95.1843C26.5264 95.6682 26.6891 96.1302 26.7327 96.5703C26.7764 97.0105 26.7319 97.421 26.5993 97.8018C26.4548 98.1795 26.2432 98.5203 25.9646 98.8241C25.6785 99.1324 25.3464 99.3965 24.9684 99.6166C24.6055 99.8278 24.2194 99.9817 23.81 100.078C23.4006 100.175 22.9944 100.199 22.5915 100.15C22.1886 100.101 21.8071 99.9586 21.4472 99.7228C21.0753 99.4838 20.7529 99.1299 20.4801 98.6612C20.2248 98.2227 20.0782 97.7969 20.0402 97.3838C19.9946 96.9751 20.0425 96.5879 20.1839 96.2222C20.3177 95.8609 20.5277 95.5262 20.8139 95.2179C21.0957 94.9021 21.4331 94.6297 21.8262 94.4009C21.8792 94.3701 21.957 94.3299 22.0596 94.2802C22.1504 94.2274 22.253 94.1778 22.3677 94.1313L24.5921 97.953C24.9708 97.6819 25.1874 97.3585 25.2419 96.9826C25.292 96.5992 25.2027 96.2109 24.9739 95.8178C24.8066 95.5305 24.5947 95.2794 24.338 95.0644C24.0737 94.8539 23.7855 94.6978 23.4733 94.5961L24.0166 93.3385C24.3747 93.4843 24.6863 93.637 24.9512 93.7966C25.2161 93.9561 25.4499 94.149 25.6524 94.3753C25.8581 94.5895 26.0556 94.8592 26.2448 95.1843ZM22.4567 95.9014C22.3874 95.9215 22.3203 95.9453 22.2554 95.973C22.1862 95.9931 22.1251 96.0185 22.0721 96.0493C21.9134 96.1417 21.7835 96.2578 21.6827 96.3975C21.5742 96.5415 21.4979 96.6973 21.4537 96.8648C21.4094 97.0322 21.4049 97.2069 21.4399 97.3889C21.4631 97.5678 21.5296 97.7517 21.6397 97.9407C21.8025 98.2204 21.9956 98.4218 22.219 98.5448C22.4424 98.6678 22.6734 98.7256 22.9121 98.7183C23.1388 98.7078 23.3532 98.6589 23.5554 98.5716L21.8392 95.6231L22.4567 95.9014Z" fill="white"/>
<path d="M23.0185 88.5143C23.2258 89.0343 23.3187 89.5152 23.2971 89.957C23.2754 90.3988 23.171 90.7983 22.9838 91.1555C22.7852 91.5077 22.5258 91.8136 22.2054 92.0732C21.877 92.3359 21.5097 92.5483 21.1034 92.7103C20.7133 92.8658 20.3088 92.9611 19.8896 92.9964C19.4705 93.0316 19.0652 92.9954 18.6739 92.8878C18.2825 92.7801 17.9262 92.5831 17.6049 92.2969C17.2723 92.0057 17.0055 91.6082 16.8047 91.1044C16.6168 90.6332 16.5345 90.1904 16.5577 89.7762C16.5728 89.3653 16.6772 88.9893 16.8709 88.6484C17.0564 88.3108 17.3134 88.0106 17.6419 87.7478C17.9671 87.4769 18.3409 87.2572 18.7635 87.0888C18.8203 87.0661 18.9032 87.0378 19.0121 87.0038C19.1096 86.9649 19.2185 86.9309 19.3387 86.9018L20.9762 91.0094C21.3907 90.7971 21.6525 90.509 21.7618 90.1453C21.8678 89.7735 21.8366 89.3763 21.6681 88.9537C21.545 88.6449 21.3724 88.3653 21.1501 88.1149C20.9198 87.8678 20.6576 87.6709 20.3638 87.5244L21.0864 86.3605C21.4191 86.5575 21.7048 86.7543 21.9434 86.9512C22.1819 87.148 22.3847 87.3732 22.5517 87.6268C22.7236 87.869 22.8792 88.1649 23.0185 88.5143ZM19.1661 88.6657C19.0946 88.6754 19.0248 88.6891 18.9565 88.7069C18.885 88.7166 18.8208 88.7327 18.764 88.7554C18.5933 88.8234 18.4478 88.9191 18.3275 89.0424C18.199 89.169 18.1006 89.3118 18.0322 89.4709C17.9638 89.63 17.9335 89.8022 17.9414 89.9874C17.938 90.1677 17.9767 90.3594 18.0577 90.5625C18.1776 90.8632 18.3389 91.0908 18.5418 91.2453C18.7447 91.3999 18.9647 91.4911 19.2018 91.519C19.4275 91.542 19.6469 91.5252 19.8597 91.4686L18.5964 88.2996L19.1661 88.6657Z" fill="white"/>
<path d="M20.0288 76.7099C20.148 77.5677 20.054 78.3535 19.747 79.0674C19.4387 79.7726 18.9546 80.3565 18.2947 80.8191C17.6348 81.2817 16.8326 81.5786 15.8882 81.7099C14.9438 81.8411 14.0954 81.7735 13.343 81.5071C12.582 81.2419 11.957 80.8121 11.4682 80.2177C10.9781 79.6146 10.6735 78.8841 10.5543 78.0263C10.4207 77.0646 10.5483 76.2035 10.9372 75.4429C11.3162 74.6749 11.9049 74.0808 12.7032 73.6608L13.5084 75.1651C13.0063 75.4292 12.6369 75.7896 12.4001 76.2464C12.1621 76.6946 12.084 77.2133 12.1659 77.8024C12.2405 78.3396 12.4318 78.7944 12.7396 79.1667C13.0463 79.5303 13.4486 79.7879 13.9466 79.9395C14.4347 80.0837 15.0036 80.1106 15.6535 80.0203C16.3033 79.93 16.8477 79.7484 17.2867 79.4755C17.7244 79.1938 18.0413 78.8363 18.2372 78.4028C18.4318 77.9607 18.4919 77.471 18.4172 76.9338C18.3354 76.3446 18.1188 75.8669 17.7677 75.5006C17.4153 75.1257 16.9616 74.8796 16.4066 74.7624L16.7581 73.0974C17.6407 73.2839 18.3734 73.6943 18.9561 74.3287C19.5376 74.9544 19.8952 75.7482 20.0288 76.7099Z" fill="white"/>
<path d="M19.5387 68.1761C19.5161 68.8055 19.3517 69.3598 19.0456 69.839C18.7395 70.3181 18.3278 70.6928 17.8104 70.9631C17.2845 71.2243 16.6981 71.3432 16.0512 71.32C15.3956 71.2964 14.8237 71.1358 14.3354 70.8381C13.8385 70.5401 13.4545 70.1412 13.1837 69.6412C12.9131 69.1326 12.7891 68.5635 12.8118 67.9341C12.8341 67.3134 12.9983 66.7635 13.3044 66.2843C13.6105 65.8052 14.0221 65.4348 14.5392 65.1733C15.0475 64.9115 15.6295 64.7924 16.2852 64.816C16.9321 64.8392 17.504 64.9999 18.001 65.2978C18.498 65.5958 18.8863 65.9949 19.1659 66.4952C19.4368 66.9951 19.561 67.5554 19.5387 68.1761ZM18.1094 68.1247C18.1213 67.7925 18.0529 67.5055 17.904 67.2638C17.7555 67.0134 17.5392 66.8218 17.2551 66.689C16.9713 66.5475 16.6284 66.4695 16.2262 66.4551C15.8154 66.4403 15.4677 66.4934 15.1832 66.6145C14.8904 66.7265 14.6652 66.9022 14.5078 67.1417C14.3419 67.372 14.253 67.6533 14.2411 67.9855C14.2288 68.3265 14.297 68.6221 14.4455 68.8726C14.5853 69.1227 14.7971 69.3185 15.0809 69.46C15.3559 69.6012 15.6989 69.6792 16.1097 69.694C16.5119 69.7084 16.8595 69.6553 17.1527 69.5345C17.4459 69.4138 17.6756 69.2339 17.8418 68.9947C18.0079 68.7556 18.0971 68.4656 18.1094 68.1247Z" fill="white"/>
<path d="M19.7469 63.231L13.3923 62.0206L13.6992 60.4094L15.1428 60.6844L15.1195 60.9471C14.7541 60.7617 14.4759 60.5396 14.2848 60.2805C14.0937 60.0215 13.9736 59.7404 13.9245 59.4372C13.8668 59.1323 13.8666 58.8295 13.9238 58.5288C14.0613 57.807 14.3748 57.2834 14.8642 56.9581C15.3466 56.6225 15.9573 56.5251 16.6963 56.6659L20.8468 57.4564L20.5399 59.0676L16.9824 58.39C16.4496 58.2886 16.0449 58.3094 15.7683 58.4526C15.4831 58.5942 15.302 58.867 15.2251 59.2708C15.1662 59.5802 15.1901 59.8519 15.2969 60.086C15.3968 60.3098 15.5872 60.5019 15.8684 60.6623C16.1495 60.8227 16.5306 60.9487 17.0119 61.0404L20.0538 61.6198L19.7469 63.231Z" fill="white"/>
<path d="M22.1681 53.799C22.0131 54.2545 21.8117 54.6294 21.5636 54.9239C21.3156 55.2184 21.0514 55.4519 20.7709 55.6244C20.4933 55.7886 20.2394 55.9102 20.0093 55.989L19.4493 54.6203C19.7291 54.5585 20.012 54.433 20.2981 54.2439C20.5787 54.0437 20.7853 53.7489 20.9177 53.3597C21.022 53.0533 21.0443 52.7976 20.9847 52.5925C20.9196 52.3763 20.796 52.2372 20.6138 52.1752C20.4648 52.1245 20.3264 52.1375 20.1986 52.2142C20.0626 52.288 19.9347 52.4062 19.8147 52.5686C19.6865 52.7283 19.5553 52.9101 19.4213 53.1139C19.2761 53.3233 19.1199 53.5381 18.9526 53.7583C18.7852 53.9786 18.6001 54.1697 18.3971 54.3317C18.1859 54.4908 17.9501 54.6 17.6897 54.6592C17.4321 54.7102 17.1418 54.6808 16.8189 54.5709C16.2806 54.3877 15.9177 54.0286 15.7301 53.4936C15.5342 52.9557 15.5547 52.3389 15.7913 51.6433C15.9576 51.1547 16.2077 50.7455 16.5417 50.4156C16.8674 50.0829 17.2519 49.8626 17.6952 49.7547L18.1275 50.969C17.8366 51.0363 17.5909 51.1745 17.3905 51.3835C17.1845 51.5814 17.0351 51.817 16.9421 52.0903C16.8604 52.3304 16.8383 52.5447 16.8759 52.733C16.9163 52.9131 17.0151 53.0299 17.1725 53.0834C17.2801 53.12 17.3825 53.1179 17.4796 53.077C17.5795 53.0278 17.6852 52.9344 17.7967 52.7968C17.9027 52.6481 18.0339 52.4525 18.1903 52.21C18.3328 51.9813 18.4906 51.7485 18.6636 51.5117C18.8365 51.2749 19.0329 51.0645 19.2525 50.8805C19.4722 50.6965 19.7219 50.5736 20.0017 50.5117C20.2815 50.4498 20.5994 50.4794 20.9555 50.6006C21.3613 50.7386 21.6863 50.9647 21.9306 51.2788C22.1666 51.5901 22.3081 51.9617 22.3552 52.3935C22.4024 52.8253 22.34 53.2938 22.1681 53.799Z" fill="white"/>
<path d="M24.6473 47.7961C24.411 48.2647 24.1184 48.6119 23.7695 48.8376C23.4245 49.0556 23.0408 49.156 22.6183 49.1389C22.1998 49.114 21.7602 48.9854 21.2993 48.7531L17.6907 46.9336L18.4232 45.4808L21.6686 47.1171C21.9342 47.251 22.1882 47.3399 22.4306 47.3837C22.6652 47.4236 22.8843 47.397 23.0881 47.3038C23.2879 47.1988 23.4588 47.0058 23.6005 46.7246C23.7738 46.3809 23.8062 46.0739 23.6975 45.8036C23.5928 45.5255 23.3844 45.2686 23.0722 45.0328C22.7562 44.7853 22.3638 44.5434 21.8952 44.3071L19.5988 43.1492L20.3313 41.6964L26.1075 44.6087L25.3749 46.0616L24.1213 45.4295L24.3389 45.2894C24.6975 45.6857 24.8897 46.101 24.9156 46.5353C24.9416 46.9697 24.8521 47.3899 24.6473 47.7961Z" fill="white"/>
<path d="M27.9569 42.0478C27.7139 42.422 27.4 42.6562 27.0154 42.7505C26.6307 42.8448 26.1926 42.7324 25.7012 42.4131L19.3413 38.2812L20.2206 36.9279L26.3163 40.8881C26.4704 40.9882 26.6042 41.023 26.7179 40.9925C26.8243 40.9573 26.9156 40.881 26.9918 40.7636C27.0299 40.705 27.0668 40.6402 27.1023 40.5694C27.1305 40.4939 27.1575 40.4123 27.1831 40.3246L28.3495 41.0824C28.3081 41.2745 28.2483 41.4548 28.1703 41.6231C28.1043 41.7889 28.0332 41.9305 27.9569 42.0478Z" fill="white"/>
<path d="M30.6039 38.4329C30.39 38.7098 30.1402 38.9258 29.8545 39.081C29.5689 39.2362 29.2522 39.2955 28.9045 39.2591C28.5622 39.2157 28.1937 39.0416 27.7991 38.7368L22.9914 35.0228L23.3064 33.177L28.4568 37.1557C28.7545 37.3856 29.0089 37.5213 29.22 37.5628C29.4365 37.5974 29.6356 37.497 29.8174 37.2617C29.8709 37.1924 29.9228 37.1109 29.9731 37.0172C30.0288 36.9165 30.0829 36.8035 30.1354 36.6783L31.1219 37.4403C31.065 37.6285 30.9908 37.8033 30.8992 37.9647C30.8146 38.1315 30.7162 38.2875 30.6039 38.4329ZM24.4708 37.6579L23.4636 36.8798L26.0546 33.5258L27.0618 34.3039L24.4708 37.6579Z" fill="white"/>
<path d="M34.8776 33.5581L34.0937 32.9703L31.8779 30.7884C31.6036 30.5184 31.3151 30.4062 31.0124 30.4518C30.7095 30.4851 30.4139 30.6482 30.1254 30.9411C29.886 31.1842 29.6904 31.4827 29.5385 31.8364C29.3865 32.1778 29.3026 32.531 29.2869 32.8961L27.9122 32.7026C27.9695 32.1207 28.1078 31.6062 28.327 31.1591C28.5462 30.6997 28.8491 30.2737 29.2358 29.881C29.8618 29.2452 30.5087 28.9062 31.1764 28.8639C31.8441 28.8217 32.4585 29.0767 33.0194 29.6291L35.9272 32.4923L34.8776 33.5581ZM33.5994 35.0433C33.268 35.3798 32.908 35.6208 32.5194 35.766C32.1369 35.9051 31.7537 35.939 31.3696 35.8677C30.9917 35.7902 30.6531 35.6041 30.354 35.3095C30.0859 35.0456 29.9106 34.7686 29.828 34.4785C29.7452 34.1761 29.743 33.8854 29.8212 33.6064C29.8812 33.3585 29.9845 33.1227 30.1312 32.8989C30.2841 32.6688 30.4679 32.4447 30.6827 32.2266L32.0913 30.7961L32.9515 31.6431L31.7086 32.9052C31.6104 33.005 31.5216 33.1139 31.4421 33.232C31.3625 33.3378 31.317 33.4526 31.3055 33.5764C31.2878 33.6817 31.2979 33.7837 31.3357 33.8824C31.3674 33.9749 31.4237 34.0611 31.5048 34.1409C31.6793 34.3127 31.887 34.3822 32.128 34.3494C32.369 34.3167 32.603 34.185 32.8301 33.9543C33.0327 33.7486 33.1732 33.5187 33.2516 33.2645C33.33 32.9979 33.3403 32.738 33.2827 32.4848C33.225 32.2193 33.0933 31.9853 32.8876 31.7827L33.8085 32.0818C34.0528 32.482 34.195 32.8675 34.2349 33.2383C34.2748 33.5968 34.2372 33.928 34.122 34.232C34.0068 34.536 33.8326 34.8064 33.5994 35.0433Z" fill="white"/>
<path d="M39.2774 29.9663C39.0039 30.1844 38.7099 30.3349 38.3956 30.4178C38.0812 30.5007 37.7595 30.4831 37.4305 30.3651C37.1082 30.2417 36.7917 29.985 36.4808 29.5952L32.6928 24.8455L33.4373 23.1274L37.4952 28.2156C37.7297 28.5097 37.9446 28.7019 38.1398 28.7924C38.3419 28.8774 38.5592 28.8272 38.7917 28.6417C38.8601 28.5872 38.9299 28.5204 39.001 28.4412C39.079 28.3566 39.1584 28.2598 39.2392 28.1506L40.0164 29.1252C39.9164 29.2944 39.8028 29.4466 39.6756 29.5816C39.5538 29.7235 39.421 29.8517 39.2774 29.9663ZM33.504 27.7566L32.7104 26.7616L36.0239 24.119L36.8175 25.1141L33.504 27.7566Z" fill="white"/>
<path d="M41.0111 28.5421L37.3827 23.1866L38.7297 22.274L42.3581 27.6295L41.0111 28.5421ZM36.7799 22.3905L35.8379 21L37.2827 20.0212L38.2247 21.4116L36.7799 22.3905Z" fill="white"/>
<path d="M46.3558 25.4378C45.7989 25.7321 45.2365 25.8662 44.6686 25.8399C44.1006 25.8136 43.5704 25.6436 43.0781 25.33C42.5894 25.0045 42.1938 24.5557 41.8913 23.9834C41.5847 23.4033 41.4387 22.8275 41.4531 22.2559C41.4635 21.6765 41.6178 21.1448 41.9159 20.6606C42.2218 20.1724 42.6532 19.7811 43.21 19.4868C43.7591 19.1965 44.3177 19.0646 44.8856 19.0908C45.4536 19.1171 45.9799 19.2891 46.4645 19.6069C46.945 19.9169 47.3385 20.3619 47.6451 20.9419C47.9476 21.5142 48.0937 22.09 48.0833 22.6694C48.073 23.2487 47.9207 23.7843 47.6267 24.2762C47.3285 24.7603 46.9048 25.1475 46.3558 25.4378ZM45.6874 24.1733C45.9812 24.018 46.1958 23.8155 46.331 23.566C46.474 23.3123 46.5321 23.0292 46.5055 22.7168C46.4866 22.4003 46.3831 22.0641 46.1951 21.7084C46.0029 21.3449 45.7835 21.0701 45.5366 20.8839C45.2935 20.686 45.0289 20.5785 44.7428 20.5615C44.4604 20.5326 44.1723 20.5959 43.8784 20.7512C43.5768 20.9107 43.3545 21.1172 43.2116 21.3709C43.0645 21.6168 43.0005 21.8981 43.0194 22.2146C43.0342 22.5234 43.1376 22.8595 43.3298 23.223C43.5178 23.5787 43.7373 23.8536 43.9882 24.0474C44.2391 24.2413 44.5096 24.3506 44.7998 24.3754C45.0899 24.4001 45.3858 24.3328 45.6874 24.1733Z" fill="white"/>
<path d="M50.7574 23.1506L48.6459 17.0361L50.1962 16.5007L50.6759 17.8898L50.4364 18.0003C50.4154 17.5911 50.4697 17.2392 50.5993 16.9446C50.7289 16.6499 50.913 16.4059 51.1516 16.2124C51.3874 16.0107 51.6499 15.8599 51.9393 15.7599C52.6339 15.5201 53.244 15.5315 53.7697 15.7942C54.3008 16.0457 54.6891 16.5271 54.9347 17.2381L56.3138 21.2318L54.7635 21.7672L53.5814 18.3441C53.4043 17.8314 53.1849 17.4907 52.923 17.322C52.6583 17.1451 52.3316 17.1237 51.943 17.2579C51.6454 17.3607 51.4216 17.5166 51.2717 17.7257C51.1272 17.9237 51.0553 18.1845 51.056 18.5082C51.0567 18.8318 51.1371 19.2252 51.297 19.6882L52.3078 22.6152L50.7574 23.1506Z" fill="white"/>
<path d="M61.6675 15.0707L60.8223 14.5873L61.814 13.1848L60.0912 13.0696L60.2625 12.0673L61.9201 12.5883L61.4874 10.9251L62.4759 10.7937L62.4924 12.5123L63.9565 11.5765L64.3705 12.5011L62.7506 13.0604L64.0741 14.1553L63.3714 14.8443L62.3255 13.4478L61.6675 15.0707Z" fill="white"/>
<circle cx="69.5454" cy="69.5449" r="25" fill="white"/>
<path d="M72.0362 60.9158V54.5449L59.5454 67.3854V84.5441H65.6281V83.626H64.7446V82.7087H61.3117V68.1513L70.2699 58.9438V67.1032H72.0362V63.1815L78.7783 68.2377V82.7087H75.3455V83.626H74.4619V76.2835V68.9394H72.6957V76.2835V82.7095H70.9286V76.2835V68.9394H69.1615V76.2835V82.7095H67.3952V76.2835V68.9394H65.6281V76.2835V83.6268H66.5116V84.5449H73.5784V83.6268H74.4619V84.5441H80.5454V67.2998L72.0362 60.9158Z" fill="url(#paint1_linear_525_5690)"/>
<defs>
<linearGradient id="paint0_linear_525_5690" x1="0" y1="70" x2="140" y2="70" gradientUnits="userSpaceOnUse">
<stop stop-color="#BDAD7B"/>
<stop offset="1" stop-color="#615328"/>
</linearGradient>
<linearGradient id="paint1_linear_525_5690" x1="59.5454" y1="69.5449" x2="80.5454" y2="69.5449" gradientUnits="userSpaceOnUse">
<stop stop-color="#BDAD7B"/>
<stop offset="1" stop-color="#615328"/>
</linearGradient>
</defs>
</svg>
