<svg width="40" height="40" viewBox="0 0 40 40" fill="none" xmlns="http://www.w3.org/2000/svg">
<path d="M20 28.6284V31.5141" stroke="white" stroke-width="1.5" stroke-linecap="round" stroke-linejoin="round"/>
<path d="M20 14.314V16.9997" stroke="white" stroke-width="1.5" stroke-linecap="round" stroke-linejoin="round"/>
<path d="M19.9998 38.5428C29.9998 38.5428 37.1426 34.9999 37.1426 27.1142C37.1426 18.5428 32.8569 12.8285 24.2855 8.54277L27.6569 4.19992C27.8282 3.91498 27.9211 3.58982 27.9262 3.2574C27.9313 2.92498 27.8485 2.59712 27.686 2.30705C27.5236 2.01698 27.2873 1.77501 27.0013 1.60567C26.7152 1.43633 26.3894 1.34563 26.0569 1.34277H13.9426C13.6102 1.34563 13.2844 1.43633 12.9983 1.60567C12.7122 1.77501 12.476 2.01698 12.3136 2.30705C12.1511 2.59712 12.0682 2.92498 12.0734 3.2574C12.0785 3.58982 12.1714 3.91498 12.3426 4.19992L15.7141 8.57134C7.14265 12.8856 2.85693 18.5999 2.85693 27.1713C2.85693 34.9999 9.99979 38.5428 19.9998 38.5428Z" stroke="white" stroke-width="1.5" stroke-linecap="round" stroke-linejoin="round"/>
<path d="M17.1425 27.3141C17.4911 27.7279 17.9299 28.0564 18.4251 28.2743C18.9204 28.4922 19.459 28.5938 19.9996 28.5712C20.8259 28.6275 21.6419 28.3613 22.2759 27.8285C22.91 27.2957 23.3128 26.5377 23.3996 25.7141C23.3128 24.8904 22.91 24.1325 22.2759 23.5997C21.6419 23.0668 20.8259 22.8006 19.9996 22.8569C19.1733 22.9133 18.3573 22.647 17.7233 22.1142C17.0892 21.5814 16.6864 20.8235 16.5996 19.9998C16.6795 19.1732 17.0803 18.411 17.716 17.8768C18.3518 17.3425 19.1717 17.079 19.9996 17.1427C20.5307 17.1102 21.0624 17.1958 21.5564 17.3934C22.0505 17.591 22.4946 17.8957 22.8568 18.2855" stroke="white" stroke-width="1.5" stroke-linecap="round" stroke-linejoin="round"/>
</svg>
