<svg width="50" height="50" viewBox="0 0 50 50" fill="none" xmlns="http://www.w3.org/2000/svg">
<path d="M30.3566 17.8572C32.329 17.8572 33.928 16.2582 33.928 14.2858C33.928 12.3133 32.329 10.7144 30.3566 10.7144C28.3841 10.7144 26.7852 12.3133 26.7852 14.2858C26.7852 16.2582 28.3841 17.8572 30.3566 17.8572Z" stroke="url(#paint0_linear_465_25342)" stroke-width="1.5" stroke-linecap="round" stroke-linejoin="round"/>
<path d="M16.0709 35.7144C17.0571 35.7144 17.8566 34.9149 17.8566 33.9287C17.8566 32.9424 17.0571 32.1429 16.0709 32.1429C15.0846 32.1429 14.2852 32.9424 14.2852 33.9287C14.2852 34.9149 15.0846 35.7144 16.0709 35.7144Z" stroke="url(#paint1_linear_465_25342)" stroke-width="1.5" stroke-linecap="round" stroke-linejoin="round"/>
<path d="M16.0714 23.2144C18.0439 23.2144 19.6429 21.6154 19.6429 19.643C19.6429 17.6705 18.0439 16.0715 16.0714 16.0715C14.099 16.0715 12.5 17.6705 12.5 19.643C12.5 21.6154 14.099 23.2144 16.0714 23.2144Z" stroke="url(#paint2_linear_465_25342)" stroke-width="1.5" stroke-linecap="round" stroke-linejoin="round"/>
<path d="M33.9993 43.8572C33.9595 43.1645 33.7188 42.4983 33.3065 41.9402C32.8943 41.382 32.3283 40.9561 31.6779 40.7143C30.0626 40.1834 28.6896 39.0937 27.8059 37.641C26.9221 36.1884 26.5856 34.4681 26.8567 32.7895C27.1279 31.1109 27.989 29.5841 29.2851 28.4836C30.5813 27.3831 32.2276 26.7811 33.9279 26.7858H40.6065C41.7519 26.789 42.8814 26.5166 43.8995 25.9917C44.9176 25.4668 45.7946 24.7048 46.4564 23.7698C47.1182 22.8349 47.5455 21.7545 47.7021 20.6198C47.8588 19.4851 47.7402 18.3293 47.3565 17.2501C45.936 13.2392 43.4405 9.69596 40.1426 7.00737C36.8447 4.31877 32.8713 2.58828 28.6566 2.00496C24.4418 1.42164 20.1478 2.00793 16.2436 3.69977C12.3395 5.39161 8.97547 8.12392 6.51904 11.5982C4.06261 15.0725 2.6083 19.155 2.31499 23.3998C2.02169 27.6447 2.90067 31.8884 4.85591 35.6675C6.81116 39.4466 9.76744 42.6157 13.4018 44.8284C17.0361 47.0411 21.2087 48.2124 25.4636 48.2143C27.5649 48.2202 29.6567 47.9317 31.6779 47.3572C32.4203 47.1492 33.0632 46.6813 33.4893 46.0388C33.9155 45.3963 34.0965 44.622 33.9993 43.8572V43.8572Z" stroke="url(#paint3_linear_465_25342)" stroke-width="1.5" stroke-linecap="round" stroke-linejoin="round"/>
<defs>
<linearGradient id="paint0_linear_465_25342" x1="26.7852" y1="14.2858" x2="33.928" y2="14.2858" gradientUnits="userSpaceOnUse">
<stop stop-color="#BDAD7B"/>
<stop offset="1" stop-color="#615328"/>
</linearGradient>
<linearGradient id="paint1_linear_465_25342" x1="14.2852" y1="33.9287" x2="17.8566" y2="33.9287" gradientUnits="userSpaceOnUse">
<stop stop-color="#BDAD7B"/>
<stop offset="1" stop-color="#615328"/>
</linearGradient>
<linearGradient id="paint2_linear_465_25342" x1="12.5" y1="19.643" x2="19.6429" y2="19.643" gradientUnits="userSpaceOnUse">
<stop stop-color="#BDAD7B"/>
<stop offset="1" stop-color="#615328"/>
</linearGradient>
<linearGradient id="paint3_linear_465_25342" x1="2.25977" y1="25.0001" x2="47.7692" y2="25.0001" gradientUnits="userSpaceOnUse">
<stop stop-color="#BDAD7B"/>
<stop offset="1" stop-color="#615328"/>
</linearGradient>
</defs>
</svg>
