<svg width="40" height="40" viewBox="0 0 40 40" fill="none" xmlns="http://www.w3.org/2000/svg">
<path d="M5.32584 32.5735C3.24719 30.1471 2 27.5 2 23.0882C2 15.3676 7.19663 8.52941 14.4719 5L16.3427 7.86765C9.48315 11.8382 8.02809 16.9118 7.61236 20.2206C8.65169 19.5588 10.1067 19.3382 11.5618 19.5588C15.3034 20 18.2135 23.0882 18.2135 27.2794C18.2135 29.2647 17.382 31.25 16.1348 32.7941C14.6798 34.3382 13.0169 35 10.9382 35C8.65169 35 6.57303 33.8971 5.32584 32.5735ZM26.1124 32.5735C24.0337 30.1471 22.7865 27.5 22.7865 23.0882C22.7865 15.3676 27.9831 8.52941 35.2584 5L37.1292 7.86765C30.2697 11.8382 28.8146 16.9118 28.3989 20.2206C29.4382 19.5588 30.8933 19.3382 32.3483 19.5588C36.0899 20 39 23.0882 39 27.2794C39 29.2647 38.1685 31.25 36.9213 32.7941C35.6742 34.3382 33.8034 35 31.7247 35C29.4382 35 27.3596 33.8971 26.1124 32.5735Z" fill="url(#paint0_linear_1052_2276)"/>
<defs>
<linearGradient id="paint0_linear_1052_2276" x1="2" y1="20" x2="39" y2="20" gradientUnits="userSpaceOnUse">
<stop stop-color="#BDAD7B"/>
<stop offset="1" stop-color="#615328"/>
</linearGradient>
</defs>
</svg>
