<svg width="40" height="40" viewBox="0 0 40 40" fill="none" xmlns="http://www.w3.org/2000/svg">
<path d="M36.8859 15.7143H3.11447C1.51447 15.7143 0.828758 13.9715 2.0859 13.1429L18.9716 2.08577C19.2834 1.90237 19.6385 1.80566 20.0002 1.80566C20.3619 1.80566 20.717 1.90237 21.0288 2.08577L37.9145 13.1429C39.1716 13.9715 38.4859 15.7143 36.8859 15.7143Z" stroke="white" stroke-width="1.5" stroke-linecap="round" stroke-linejoin="round"/>
<path d="M37.143 31.4287H2.85728C2.0683 31.4287 1.42871 32.0683 1.42871 32.8573V37.143C1.42871 37.932 2.0683 38.5716 2.85728 38.5716H37.143C37.932 38.5716 38.5716 37.932 38.5716 37.143V32.8573C38.5716 32.0683 37.932 31.4287 37.143 31.4287Z" stroke="white" stroke-width="1.5" stroke-linecap="round" stroke-linejoin="round"/>
<path d="M5.71436 15.7144V31.4286" stroke="white" stroke-width="1.5" stroke-linecap="round" stroke-linejoin="round"/>
<path d="M12.8574 15.7144V31.4286" stroke="white" stroke-width="1.5" stroke-linecap="round" stroke-linejoin="round"/>
<path d="M20 15.7144V31.4286" stroke="white" stroke-width="1.5" stroke-linecap="round" stroke-linejoin="round"/>
<path d="M27.1431 15.7144V31.4286" stroke="white" stroke-width="1.5" stroke-linecap="round" stroke-linejoin="round"/>
<path d="M34.2856 15.7144V31.4286" stroke="white" stroke-width="1.5" stroke-linecap="round" stroke-linejoin="round"/>
</svg>
