<svg width="14" height="14" viewBox="0 0 14 14" fill="none" xmlns="http://www.w3.org/2000/svg">
<g clip-path="url(#clip0_392_5805)">
<path d="M11.726 12.1371L10.2243 13.1915C9.97011 13.3699 9.61972 13.3092 9.44339 13.0535C8.72762 12.0155 7.8936 10.6984 6.94302 9.06848C6.08493 10.74 5.30405 12.0602 4.60203 13.0625C4.42495 13.3153 4.07629 13.3735 3.82366 13.1962L2.30402 12.1292C2.03936 11.9434 1.98826 11.5711 2.19066 11.3189C3.56907 9.60135 4.59199 8.49488 5.21729 7.91712C3.65397 7.59626 2.17071 7.27341 0.767503 6.91511C0.455821 6.83553 0.278359 6.50772 0.376832 6.20148L0.95973 4.38874C1.05694 4.08645 1.3873 3.92636 1.68573 4.03487C3.59753 4.72999 4.989 5.29887 5.89775 5.8266C5.68356 3.76746 5.5389 2.2732 5.49369 1.2826C5.4792 0.964984 5.7349 0.701172 6.05284 0.701172H7.87231C8.19313 0.701172 8.44925 0.968777 8.43143 1.2891C8.36152 2.54563 8.21325 4.06914 7.98828 5.8266C9.26005 5.16741 10.6996 4.59213 12.3106 4.02521C12.607 3.92093 12.9316 4.08327 13.0277 4.38235L13.6225 6.23206C13.7173 6.52664 13.5556 6.8462 13.26 6.93767C11.7129 7.41638 10.17 7.72919 8.66874 7.91712C9.43104 8.58501 10.499 9.73084 11.8315 11.3173C12.0427 11.5688 11.9948 11.9484 11.726 12.1371Z" fill="url(#paint0_linear_392_5805)"/>
</g>
<defs>
<linearGradient id="paint0_linear_392_5805" x1="0.349609" y1="6.99989" x2="13.6496" y2="6.99989" gradientUnits="userSpaceOnUse">
<stop stop-color="#BDAD7B"/>
<stop offset="1" stop-color="#615328"/>
</linearGradient>
<clipPath id="clip0_392_5805">
<rect width="14" height="14" fill="white"/>
</clipPath>
</defs>
</svg>
