<svg width="24" height="24" viewBox="0 0 24 24" fill="none" xmlns="http://www.w3.org/2000/svg">
<g clip-path="url(#clip0_211_28)">
<path d="M5.14289 23.1437C7.50983 23.1437 9.42861 21.2249 9.42861 18.858C9.42861 16.491 7.50983 14.5723 5.14289 14.5723C2.77596 14.5723 0.857178 16.491 0.857178 18.858C0.857178 21.2249 2.77596 23.1437 5.14289 23.1437Z" stroke="white" stroke-width="1.5" stroke-linecap="round" stroke-linejoin="round"/>
<path d="M9.42859 5.14342V2.57199C9.42859 2.11733 9.24797 1.6813 8.92648 1.35981C8.60499 1.03832 8.16896 0.857706 7.7143 0.857706H5.69144C5.28797 0.850368 4.89484 0.985601 4.58126 1.2396C4.26768 1.4936 4.05376 1.85007 3.97716 2.24628L0.942871 18.0006" stroke="white" stroke-width="1.5" stroke-linecap="round" stroke-linejoin="round"/>
<path d="M7.71436 9.42969H16.2858" stroke="white" stroke-width="1.5" stroke-linecap="round" stroke-linejoin="round"/>
<path d="M9.42871 13.7148V18.8577" stroke="white" stroke-width="1.5" stroke-linecap="round" stroke-linejoin="round"/>
<path d="M18.8572 23.1437C21.2242 23.1437 23.143 21.2249 23.143 18.858C23.143 16.491 21.2242 14.5723 18.8572 14.5723C16.4903 14.5723 14.5715 16.491 14.5715 18.858C14.5715 21.2249 16.4903 23.1437 18.8572 23.1437Z" stroke="white" stroke-width="1.5" stroke-linecap="round" stroke-linejoin="round"/>
<path d="M14.5715 5.14342V2.57199C14.5715 2.11733 14.7521 1.6813 15.0736 1.35981C15.3951 1.03832 15.8312 0.857706 16.2858 0.857706H18.3087C18.7122 0.850368 19.1053 0.985601 19.4189 1.2396C19.7324 1.4936 19.9464 1.85007 20.023 2.24628L23.0915 18.0006" stroke="white" stroke-width="1.5" stroke-linecap="round" stroke-linejoin="round"/>
<path d="M14.5715 13.7148V18.8577" stroke="white" stroke-width="1.5" stroke-linecap="round" stroke-linejoin="round"/>
</g>
<defs>
<clipPath id="clip0_211_28">
<rect width="24" height="24" fill="white"/>
</clipPath>
</defs>
</svg>
