<svg width="20" height="20" viewBox="0 0 20 20" fill="none" xmlns="http://www.w3.org/2000/svg">
<path d="M10 19.1292C10.938 19.1292 11.8668 18.9445 12.7335 18.5855C13.6001 18.2266 14.3875 17.7004 15.0508 17.0371C15.714 16.3739 16.2402 15.5864 16.5991 14.7198C16.9581 13.8532 17.1429 12.9244 17.1429 11.9864V8.01496C17.143 6.26022 16.4971 4.56685 15.3286 3.25781" stroke="white" stroke-width="1.5" stroke-linecap="round" stroke-linejoin="round"/>
<path d="M2.85693 9.59766V11.9834C2.85646 13.3895 3.27101 14.7645 4.04864 15.936C4.82627 17.1076 5.93239 18.0235 7.22836 18.5691" stroke="white" stroke-width="1.5" stroke-linecap="round" stroke-linejoin="round"/>
<path d="M13.5714 1.82804C11.9309 0.880881 9.98124 0.624205 8.15144 1.11448C6.32163 1.60475 4.76152 2.8018 3.81429 4.44233C3.42425 5.11594 3.14907 5.84978 3 6.61375" stroke="white" stroke-width="1.5" stroke-linecap="round" stroke-linejoin="round"/>
<path d="M9.25684 5.01236C9.78226 4.90328 10.3255 4.91352 10.8464 5.04233C11.3673 5.17114 11.8527 5.41524 12.2668 5.75662C12.6808 6.09799 13.013 6.52795 13.2387 7.01479C13.4645 7.50162 13.578 8.03292 13.5711 8.5695V10.8695" stroke="white" stroke-width="1.5" stroke-linecap="round" stroke-linejoin="round"/>
<path d="M12.6568 13.8692C12.1707 14.4106 11.5308 14.7907 10.8229 14.9585C10.1149 15.1263 9.37252 15.0739 8.69515 14.8082C8.01778 14.5425 7.43771 14.0763 7.03258 13.4719C6.62745 12.8676 6.41658 12.1539 6.42819 11.4263V8.5692C6.42547 8.07855 6.52269 7.59249 6.7139 7.14062" stroke="white" stroke-width="1.5" stroke-linecap="round" stroke-linejoin="round"/>
<path d="M10 8.72656V11.1123" stroke="white" stroke-width="1.5" stroke-linecap="round" stroke-linejoin="round"/>
</svg>
