<svg width="20" height="20" viewBox="0 0 20 20" fill="none" xmlns="http://www.w3.org/2000/svg">
<g clip-path="url(#clip0_236_278)">
<path d="M9.81431 13.572C13.3647 13.572 16.2429 10.6938 16.2429 7.14341C16.2429 3.59301 13.3647 0.714844 9.81431 0.714844C6.26391 0.714844 3.38574 3.59301 3.38574 7.14341C3.38574 10.6938 6.26391 13.572 9.81431 13.572Z" stroke="white" stroke-width="1.5" stroke-linecap="round" stroke-linejoin="round"/>
<path d="M9.81417 9.99944C11.3921 9.99944 12.6713 8.72026 12.6713 7.1423C12.6713 5.56434 11.3921 4.28516 9.81417 4.28516C8.23622 4.28516 6.95703 5.56434 6.95703 7.1423C6.95703 8.72026 8.23622 9.99944 9.81417 9.99944Z" stroke="white" stroke-width="1.5" stroke-linecap="round" stroke-linejoin="round"/>
<path d="M8.57135 13.4583L7.31421 18.744C7.28933 18.8444 7.24333 18.9384 7.17929 19.0197C7.11525 19.101 7.03462 19.1677 6.94278 19.2154C6.84585 19.2575 6.7413 19.2792 6.63563 19.2792C6.52997 19.2792 6.42542 19.2575 6.32849 19.2154L1.58564 17.144C1.48615 17.0969 1.39861 17.028 1.32959 16.9423C1.26057 16.8566 1.21186 16.7564 1.18711 16.6491C1.16237 16.5419 1.16224 16.4305 1.18672 16.3232C1.21121 16.2159 1.25968 16.1156 1.32849 16.0297L4.99992 11.4297" stroke="white" stroke-width="1.5" stroke-linecap="round" stroke-linejoin="round"/>
<path d="M11.4285 13.3848L12.7142 18.742C12.7397 18.8441 12.7876 18.9394 12.8543 19.0209C12.9209 19.1024 13.0048 19.1681 13.0999 19.2134C13.1942 19.256 13.2964 19.278 13.3999 19.278C13.5034 19.278 13.6056 19.256 13.6999 19.2134L18.4142 17.142C18.5152 17.0955 18.6039 17.0261 18.6733 16.9393C18.7428 16.8525 18.791 16.7507 18.8142 16.642C18.8413 16.5356 18.8424 16.4243 18.8176 16.3174C18.7927 16.2105 18.7426 16.1112 18.6713 16.0277L14.8428 11.1562" stroke="white" stroke-width="1.5" stroke-linecap="round" stroke-linejoin="round"/>
</g>
<defs>
<clipPath id="clip0_236_278">
<rect width="20" height="20" fill="white"/>
</clipPath>
</defs>
</svg>
