<svg width="50" height="50" viewBox="0 0 50 50" fill="none" xmlns="http://www.w3.org/2000/svg">
<path d="M11.6076 21.4286C17.0318 21.4286 21.429 17.0314 21.429 11.6071C21.429 6.18291 17.0318 1.78571 11.6076 1.78571C6.18334 1.78571 1.78613 6.18291 1.78613 11.6071C1.78613 17.0314 6.18334 21.4286 11.6076 21.4286Z" stroke="url(#paint0_linear_465_10700)" stroke-width="1.5" stroke-linecap="round" stroke-linejoin="round"/>
<path d="M38.3937 21.4286C43.8179 21.4286 48.2151 17.0314 48.2151 11.6071C48.2151 6.18291 43.8179 1.78571 38.3937 1.78571C32.9695 1.78571 28.5723 6.18291 28.5723 11.6071C28.5723 17.0314 32.9695 21.4286 38.3937 21.4286Z" stroke="url(#paint1_linear_465_10700)" stroke-width="1.5" stroke-linecap="round" stroke-linejoin="round"/>
<path d="M11.6076 48.2143C17.0318 48.2143 21.429 43.8171 21.429 38.3928C21.429 32.9686 17.0318 28.5714 11.6076 28.5714C6.18334 28.5714 1.78613 32.9686 1.78613 38.3928C1.78613 43.8171 6.18334 48.2143 11.6076 48.2143Z" stroke="url(#paint2_linear_465_10700)" stroke-width="1.5" stroke-linecap="round" stroke-linejoin="round"/>
<path d="M38.3937 48.2143C43.8179 48.2143 48.2151 43.8171 48.2151 38.3928C48.2151 32.9686 43.8179 28.5714 38.3937 28.5714C32.9695 28.5714 28.5723 32.9686 28.5723 38.3928C28.5723 43.8171 32.9695 48.2143 38.3937 48.2143Z" stroke="url(#paint3_linear_465_10700)" stroke-width="1.5" stroke-linecap="round" stroke-linejoin="round"/>
<defs>
<linearGradient id="paint0_linear_465_10700" x1="1.78613" y1="11.6071" x2="21.429" y2="11.6071" gradientUnits="userSpaceOnUse">
<stop stop-color="#BDAD7B"/>
<stop offset="1" stop-color="#615328"/>
</linearGradient>
<linearGradient id="paint1_linear_465_10700" x1="28.5723" y1="11.6071" x2="48.2151" y2="11.6071" gradientUnits="userSpaceOnUse">
<stop stop-color="#BDAD7B"/>
<stop offset="1" stop-color="#615328"/>
</linearGradient>
<linearGradient id="paint2_linear_465_10700" x1="1.78613" y1="38.3928" x2="21.429" y2="38.3928" gradientUnits="userSpaceOnUse">
<stop stop-color="#BDAD7B"/>
<stop offset="1" stop-color="#615328"/>
</linearGradient>
<linearGradient id="paint3_linear_465_10700" x1="28.5723" y1="38.3928" x2="48.2151" y2="38.3928" gradientUnits="userSpaceOnUse">
<stop stop-color="#BDAD7B"/>
<stop offset="1" stop-color="#615328"/>
</linearGradient>
</defs>
</svg>
