<svg width="40" height="40" viewBox="0 0 40 40" fill="none" xmlns="http://www.w3.org/2000/svg">
<g clip-path="url(#clip0_503_2)">
<mask id="mask0_503_2" style="mask-type:luminance" maskUnits="userSpaceOnUse" x="0" y="0" width="40" height="40">
<path d="M40 0H0V40H40V0Z" fill="white"/>
</mask>
<g mask="url(#mask0_503_2)">
<path d="M31.6148 24.7774C30.7959 23.9247 29.8082 23.4688 28.7613 23.4688C27.7229 23.4688 26.7267 23.9163 25.8741 24.7689L23.2063 27.4283C22.9868 27.3101 22.7673 27.2003 22.5563 27.0906C22.2523 26.9386 21.9653 26.7951 21.7205 26.6431C19.2216 25.056 16.9506 22.9876 14.7725 20.3114C13.7172 18.9775 13.008 17.8547 12.4931 16.715C13.1853 16.0818 13.8269 15.4233 14.4517 14.7902C14.6881 14.5538 14.9244 14.309 15.1608 14.0726C16.9337 12.2997 16.9337 10.0034 15.1608 8.23053L12.8561 5.92579C12.5944 5.66408 12.3242 5.39393 12.0709 5.12378C11.5644 4.60036 11.0325 4.06005 10.4838 3.55351C9.66485 2.74306 8.68555 2.3125 7.65559 2.3125C6.62563 2.3125 5.62944 2.74306 4.78522 3.55351C4.77677 3.56196 4.77677 3.56196 4.76833 3.5704L1.89796 6.4661C0.817351 7.54671 0.201065 8.8637 0.0659887 10.3917C-0.136626 12.8569 0.58941 15.1532 1.1466 16.6559C2.51425 20.3452 4.55728 23.7643 7.60494 27.4283C11.3027 31.8436 15.7518 35.3302 20.834 37.7869C22.7758 38.7071 25.3675 39.7962 28.2632 39.9819C28.4405 39.9904 28.6262 39.9988 28.7951 39.9988C30.7453 39.9988 32.3831 39.2981 33.6663 37.9051C33.6747 37.8882 33.6916 37.8798 33.7001 37.8629C34.1391 37.331 34.6456 36.8498 35.1775 36.3349C35.5405 35.9887 35.9119 35.6257 36.2749 35.2458C37.1107 34.3762 37.5497 33.3632 37.5497 32.3248C37.5497 31.2779 37.1023 30.2733 36.2496 29.4291L31.6148 24.7774ZM34.6371 33.6671C34.6287 33.6755 34.6287 33.6671 34.6371 33.6671C34.3079 34.0217 33.9702 34.3425 33.6072 34.6971C33.0584 35.2205 32.5013 35.7692 31.9778 36.3855C31.1252 37.2973 30.1205 37.7278 28.8035 37.7278C28.6769 37.7278 28.5418 37.7278 28.4152 37.7194C25.9078 37.559 23.5778 36.5797 21.8302 35.7439C17.0519 33.4307 12.8561 30.1467 9.36937 25.9846C6.49056 22.5149 4.56572 19.3068 3.29093 15.8623C2.5058 13.7602 2.21877 12.1224 2.3454 10.5775C2.42982 9.58974 2.80972 8.77084 3.51043 8.07013L6.38925 5.19132C6.80292 4.80297 7.24192 4.59191 7.67247 4.59191C8.20434 4.59191 8.63489 4.91272 8.90505 5.18287C8.91349 5.19132 8.92193 5.19976 8.93037 5.2082C9.44535 5.68941 9.935 6.1875 10.45 6.71937C10.7117 6.98952 10.9819 7.25967 11.252 7.53827L13.5568 9.84301C14.4517 10.7379 14.4517 11.5652 13.5568 12.4601C13.312 12.7049 13.0756 12.9498 12.8308 13.1861C12.1216 13.9122 11.4462 14.5876 10.7117 15.2461C10.6949 15.2629 10.678 15.2714 10.6695 15.2883C9.94345 16.0143 10.0786 16.7235 10.2305 17.2047C10.239 17.23 10.2474 17.2553 10.2559 17.2806C10.8553 18.7327 11.6995 20.1004 12.9827 21.7297L12.9912 21.7382C15.3212 24.6085 17.7779 26.8457 20.4879 28.5595C20.834 28.779 21.1886 28.9563 21.5263 29.1252C21.8302 29.2771 22.1173 29.4206 22.3621 29.5726C22.3958 29.5895 22.4296 29.6148 22.4634 29.6317C22.7504 29.7752 23.0206 29.8427 23.2992 29.8427C23.9999 29.8427 24.4389 29.4037 24.5824 29.2602L27.4697 26.373C27.7567 26.0859 28.2126 25.7398 28.7444 25.7398C29.2679 25.7398 29.6984 26.069 29.9601 26.3561C29.9686 26.3645 29.9686 26.3645 29.977 26.373L34.6287 31.0247C35.4983 31.8858 35.4983 32.7722 34.6371 33.6671Z" fill="url(#paint0_linear_503_2)"/>
<path d="M21.6178 9.51481C23.8297 9.88627 25.839 10.9331 27.443 12.5371C29.047 14.1411 30.0854 16.1504 30.4653 18.3623C30.5582 18.9195 31.0394 19.3078 31.5881 19.3078C31.6557 19.3078 31.7148 19.2994 31.7823 19.2909C32.407 19.1896 32.8207 18.5986 32.7194 17.9739C32.2635 15.2977 30.9972 12.8579 29.0639 10.9246C27.1306 8.99139 24.6908 7.72505 22.0146 7.26917C21.3899 7.16786 20.8074 7.58153 20.6976 8.19782C20.5879 8.8141 20.9931 9.4135 21.6178 9.51481Z" fill="url(#paint1_linear_503_2)"/>
<path d="M39.9591 17.6448C39.2078 13.2379 37.1309 9.2279 33.9398 6.03672C30.7486 2.84554 26.7385 0.768737 22.3316 0.0173754C21.7154 -0.0923741 21.1328 0.329739 21.0231 0.946025C20.9218 1.57076 21.3355 2.15327 21.9602 2.26302C25.8943 2.92996 29.4822 4.7957 32.3357 7.64075C35.1892 10.4942 37.0465 14.0822 37.7135 18.0163C37.8063 18.5734 38.2875 18.9618 38.8363 18.9618C38.9038 18.9618 38.9629 18.9533 39.0305 18.9449C39.6467 18.852 40.0689 18.2611 39.9591 17.6448Z" fill="url(#paint2_linear_503_2)"/>
</g>
</g>
<defs>
<linearGradient id="paint0_linear_503_2" x1="0.03125" y1="21.1556" x2="37.5497" y2="21.1556" gradientUnits="userSpaceOnUse">
<stop stop-color="#ED1A3B"/>
<stop offset="1" stop-color="#1B4176"/>
</linearGradient>
<linearGradient id="paint1_linear_503_2" x1="20.6797" y1="13.2808" x2="32.7347" y2="13.2808" gradientUnits="userSpaceOnUse">
<stop stop-color="#ED1A3B"/>
<stop offset="1" stop-color="#1B4176"/>
</linearGradient>
<linearGradient id="paint2_linear_503_2" x1="21.0078" y1="9.48092" x2="39.9765" y2="9.48092" gradientUnits="userSpaceOnUse">
<stop stop-color="#ED1A3B"/>
<stop offset="1" stop-color="#1B4176"/>
</linearGradient>
<clipPath id="clip0_503_2">
<rect width="40" height="40" fill="white"/>
</clipPath>
</defs>
</svg>
