<svg width="18" height="18" viewBox="0 0 18 18" fill="none" xmlns="http://www.w3.org/2000/svg">
<g clip-path="url(#clip0_493_3)">
<mask id="mask0_493_3" style="mask-type:luminance" maskUnits="userSpaceOnUse" x="0" y="0" width="18" height="18">
<path d="M18 0H0V18H18V0Z" fill="white"/>
</mask>
<g mask="url(#mask0_493_3)">
<path d="M15.08 15.6018L13.1492 16.9574C12.8223 17.1869 12.3718 17.1087 12.1451 16.78C11.2248 15.4454 10.1525 13.752 8.93037 11.6564C7.82711 13.8055 6.82312 15.5029 5.92053 16.7915C5.69286 17.1166 5.24457 17.1915 4.91977 16.9635L2.96594 15.5917C2.62566 15.3528 2.55997 14.874 2.8202 14.5498C4.59243 12.3415 5.90762 10.9189 6.71158 10.1761C4.70159 9.76354 2.79455 9.34846 0.990417 8.88779C0.589682 8.78546 0.361517 8.36399 0.488126 7.97026L1.23757 5.6396C1.36255 5.25093 1.7873 5.04511 2.17099 5.18462C4.62903 6.07834 6.41806 6.80976 7.58645 7.48827C7.31107 4.84081 7.12508 2.91962 7.06695 1.64598C7.04831 1.23762 7.37707 0.898438 7.78586 0.898438H10.1252C10.5376 0.898438 10.8669 1.2425 10.844 1.65434C10.7541 3.26988 10.5635 5.22868 10.2743 7.48827C11.9094 6.64074 13.7602 5.90109 15.8315 5.1722C16.2126 5.03812 16.6299 5.24685 16.7536 5.63138L17.5183 8.00957C17.6401 8.38833 17.4323 8.79919 17.0522 8.91679C15.063 9.53227 13.0793 9.93445 11.1491 10.1761C12.1292 11.0348 13.5024 12.508 15.2156 14.5478C15.4871 14.8711 15.4255 15.3592 15.08 15.6018Z" fill="url(#paint0_linear_493_3)"/>
</g>
</g>
<defs>
<linearGradient id="paint0_linear_493_3" x1="0.453125" y1="8.99679" x2="17.5531" y2="8.99679" gradientUnits="userSpaceOnUse">
<stop stop-color="#ED1A3B"/>
<stop offset="1" stop-color="#1B4176"/>
</linearGradient>
<clipPath id="clip0_493_3">
<rect width="18" height="18" fill="white"/>
</clipPath>
</defs>
</svg>
