<svg width="50" height="50" viewBox="0 0 50 50" fill="none" xmlns="http://www.w3.org/2000/svg">
<path d="M5.35707 21.4277H8.9285C9.4021 21.4277 9.85631 21.6159 10.1912 21.9508C10.5261 22.2856 10.7142 22.7398 10.7142 23.2134V32.142C10.7142 32.6156 10.5261 33.0698 10.1912 33.4047C9.85631 33.7396 9.4021 33.9277 8.9285 33.9277H5.35707C4.40987 33.9277 3.50146 33.5515 2.83169 32.8817C2.16192 32.2119 1.78564 31.3035 1.78564 30.3563V24.9992C1.78564 24.052 2.16192 23.1436 2.83169 22.4738C3.50146 21.804 4.40987 21.4277 5.35707 21.4277V21.4277Z" stroke="white" stroke-width="1.5" stroke-linecap="round" stroke-linejoin="round"/>
<path d="M44.6427 33.9277H41.0713C40.5977 33.9277 40.1434 33.7396 39.8086 33.4047C39.4737 33.0698 39.2855 32.6156 39.2855 32.142V23.2134C39.2855 22.7398 39.4737 22.2856 39.8086 21.9508C40.1434 21.6159 40.5977 21.4277 41.0713 21.4277H44.6427C45.5899 21.4277 46.4983 21.804 47.1681 22.4738C47.8378 23.1436 48.2141 24.052 48.2141 24.9992V30.3563C48.2141 31.3035 47.8378 32.2119 47.1681 32.8817C46.4983 33.5515 45.5899 33.9277 44.6427 33.9277V33.9277Z" stroke="white" stroke-width="1.5" stroke-linecap="round" stroke-linejoin="round"/>
<path d="M33.9285 43.7492C35.8229 43.7492 37.6397 42.9966 38.9792 41.6571C40.3188 40.3175 41.0713 38.5007 41.0713 36.6063V33.9277" stroke="white" stroke-width="1.5" stroke-linecap="round" stroke-linejoin="round"/>
<path d="M29.4643 39.2852C30.6483 39.2852 31.7838 39.7555 32.621 40.5927C33.4582 41.4299 33.9285 42.5654 33.9285 43.7494C33.9285 44.9334 33.4582 46.069 32.621 46.9062C31.7838 47.7434 30.6483 48.2137 29.4643 48.2137H24.1071C22.9231 48.2137 21.7876 47.7434 20.9504 46.9062C20.1132 46.069 19.6428 44.9334 19.6428 43.7494C19.6428 42.5654 20.1132 41.4299 20.9504 40.5927C21.7876 39.7555 22.9231 39.2852 24.1071 39.2852H29.4643Z" stroke="white" stroke-width="1.5" stroke-linecap="round" stroke-linejoin="round"/>
<path d="M8.92847 21.428V17.8566C8.92847 13.5942 10.6217 9.50635 13.6357 6.49237C16.6497 3.47839 20.7375 1.78516 24.9999 1.78516C29.2623 1.78516 33.3501 3.47839 36.3641 6.49237C39.3781 9.50635 41.0713 13.5942 41.0713 17.8566V21.428" stroke="white" stroke-width="1.5" stroke-linecap="round" stroke-linejoin="round"/>
<path d="M19.6428 14.2852V19.6423" stroke="white" stroke-width="1.5" stroke-linecap="round" stroke-linejoin="round"/>
<path d="M30.3572 14.2852V19.6423" stroke="white" stroke-width="1.5" stroke-linecap="round" stroke-linejoin="round"/>
<path d="M19.6428 26.7852C19.6428 31.5352 30.3571 31.5352 30.3571 26.7852" stroke="white" stroke-width="1.5" stroke-linecap="round" stroke-linejoin="round"/>
</svg>
