<svg width="50" height="50" viewBox="0 0 50 50" fill="none" xmlns="http://www.w3.org/2000/svg">
<path d="M18.6782 8.03577L20.2139 4.07148C20.4729 3.40028 20.9286 2.82295 21.5212 2.4151C22.1139 2.00724 22.8159 1.78789 23.5353 1.78577H26.4639C27.1833 1.78789 27.8853 2.00724 28.478 2.4151C29.0707 2.82295 29.5263 3.40028 29.7853 4.07148L31.321 8.03577L36.5353 11.0358L40.7496 10.3929C41.4513 10.2977 42.1655 10.4132 42.8015 10.7248C43.4374 11.0364 43.9663 11.53 44.321 12.1429L45.7496 14.6429C46.1157 15.2656 46.2843 15.9846 46.2333 16.7051C46.1823 17.4256 45.914 18.1137 45.4639 18.6786L42.8568 22.0001V28.0001L45.5353 31.3215C45.9855 31.8864 46.2537 32.5745 46.3048 33.295C46.3558 34.0155 46.1871 34.7345 45.821 35.3572L44.3925 37.8572C44.0377 38.4701 43.5088 38.9637 42.8729 39.2753C42.237 39.5869 41.5228 39.7024 40.821 39.6072L36.6068 38.9643L31.3925 41.9643L29.8568 45.9286C29.5978 46.5998 29.1421 47.1772 28.5494 47.585C27.9568 47.9929 27.2548 48.2122 26.5353 48.2143H23.5353C22.8159 48.2122 22.1139 47.9929 21.5212 47.585C20.9286 47.1772 20.4729 46.5998 20.2139 45.9286L18.6782 41.9643L13.4639 38.9643L9.24961 39.6072C8.54788 39.7024 7.83368 39.5869 7.19776 39.2753C6.56184 38.9637 6.03291 38.4701 5.67818 37.8572L4.24961 35.3572C3.88354 34.7345 3.71489 34.0155 3.76589 33.295C3.8169 32.5745 4.08518 31.8864 4.53532 31.3215L7.14247 28.0001V22.0001L4.46389 18.6786C4.01375 18.1137 3.74547 17.4256 3.69447 16.7051C3.64346 15.9846 3.81211 15.2656 4.17818 14.6429L5.60675 12.1429C5.96148 11.53 6.49041 11.0364 7.12633 10.7248C7.76225 10.4132 8.47645 10.2977 9.17818 10.3929L13.3925 11.0358L18.6782 8.03577Z" stroke="url(#paint0_linear_465_10723)" stroke-width="1.5" stroke-linecap="round" stroke-linejoin="round"/>
<path d="M24.9994 35.7143C30.9168 35.7143 35.7137 30.9174 35.7137 25.0001C35.7137 19.0827 30.9168 14.2858 24.9994 14.2858C19.0821 14.2858 14.2852 19.0827 14.2852 25.0001C14.2852 30.9174 19.0821 35.7143 24.9994 35.7143Z" stroke="url(#paint1_linear_465_10723)" stroke-width="1.5" stroke-linecap="round" stroke-linejoin="round"/>
<path d="M25 14.2858V25.0001H35.7143" stroke="url(#paint2_linear_465_10723)" stroke-width="1.5" stroke-linecap="round" stroke-linejoin="round"/>
<path d="M24.9992 25L17.4277 32.5714" stroke="url(#paint3_linear_465_10723)" stroke-width="1.5" stroke-linecap="round" stroke-linejoin="round"/>
<defs>
<linearGradient id="paint0_linear_465_10723" x1="3.68555" y1="25.0001" x2="46.3137" y2="25.0001" gradientUnits="userSpaceOnUse">
<stop stop-color="#BDAD7B"/>
<stop offset="1" stop-color="#615328"/>
</linearGradient>
<linearGradient id="paint1_linear_465_10723" x1="14.2852" y1="25.0001" x2="35.7137" y2="25.0001" gradientUnits="userSpaceOnUse">
<stop stop-color="#BDAD7B"/>
<stop offset="1" stop-color="#615328"/>
</linearGradient>
<linearGradient id="paint2_linear_465_10723" x1="25" y1="19.6429" x2="35.7143" y2="19.6429" gradientUnits="userSpaceOnUse">
<stop stop-color="#BDAD7B"/>
<stop offset="1" stop-color="#615328"/>
</linearGradient>
<linearGradient id="paint3_linear_465_10723" x1="17.4277" y1="28.7857" x2="24.9992" y2="28.7857" gradientUnits="userSpaceOnUse">
<stop stop-color="#BDAD7B"/>
<stop offset="1" stop-color="#615328"/>
</linearGradient>
</defs>
</svg>
