<svg width="18" height="18" viewBox="0 0 18 18" fill="none" xmlns="http://www.w3.org/2000/svg">
<g clip-path="url(#clip0_392_4347)">
<path d="M15.0761 15.6052L13.1453 16.9608C12.8184 17.1903 12.3679 17.1121 12.1412 16.7834C11.2209 15.4488 10.1486 13.7554 8.92646 11.6598C7.8232 13.8089 6.81921 15.5063 5.91662 16.7949C5.68895 17.12 5.24066 17.1949 4.91586 16.9669L2.96203 15.5951C2.62175 15.3562 2.55606 14.8774 2.81629 14.5532C4.58852 12.3449 5.90371 10.9223 6.70767 10.1795C4.69768 9.76696 2.79064 9.35188 0.986511 8.89121C0.585776 8.78888 0.357611 8.36741 0.48422 7.97368L1.23366 5.64302C1.35864 5.25435 1.78339 5.04853 2.16708 5.18804C4.62512 6.08176 6.41415 6.81318 7.58254 7.49169C7.30716 4.84423 7.12117 2.92304 7.06304 1.6494C7.0444 1.24104 7.37316 0.901855 7.78195 0.901855H10.1213C10.5337 0.901855 10.863 1.24592 10.8401 1.65776C10.7502 3.2733 10.5596 5.2321 10.2704 7.49169C11.9055 6.64416 13.7563 5.90451 15.8276 5.17562C16.2087 5.04154 16.626 5.25027 16.7497 5.6348L17.5144 8.01299C17.6362 8.39175 17.4284 8.80261 17.0483 8.92021C15.0591 9.53569 13.0754 9.93787 11.1452 10.1795C12.1253 11.0382 13.4985 12.5114 15.2117 14.5512C15.4832 14.8745 15.4216 15.3626 15.0761 15.6052Z" fill="url(#paint0_linear_392_4347)"/>
</g>
<defs>
<linearGradient id="paint0_linear_392_4347" x1="0.449219" y1="9.00021" x2="17.5492" y2="9.00021" gradientUnits="userSpaceOnUse">
<stop stop-color="#BDAD7B"/>
<stop offset="1" stop-color="#615328"/>
</linearGradient>
<clipPath id="clip0_392_4347">
<rect width="18" height="18" fill="white"/>
</clipPath>
</defs>
</svg>
