<svg width="50" height="50" viewBox="0 0 50 50" fill="none" xmlns="http://www.w3.org/2000/svg">
<path d="M24.9994 48.2142C37.8203 48.2142 48.2137 37.8208 48.2137 24.9999C48.2137 12.179 37.8203 1.78564 24.9994 1.78564C12.1785 1.78564 1.78516 12.179 1.78516 24.9999C1.78516 37.8208 12.1785 48.2142 24.9994 48.2142Z" stroke="url(#paint0_linear_392_5430)" stroke-width="1.5" stroke-linecap="round" stroke-linejoin="round"/>
<path d="M24.9989 33.9284C29.93 33.9284 33.9275 29.931 33.9275 24.9999C33.9275 20.0687 29.93 16.0713 24.9989 16.0713C20.0678 16.0713 16.0703 20.0687 16.0703 24.9999C16.0703 29.931 20.0678 33.9284 24.9989 33.9284Z" stroke="url(#paint1_linear_392_5430)" stroke-width="1.5" stroke-linecap="round" stroke-linejoin="round"/>
<path d="M16.0703 24.9999V3.57129" stroke="url(#paint2_linear_392_5430)" stroke-width="1.5" stroke-linecap="round" stroke-linejoin="round"/>
<path d="M25 16.0713H46.4286" stroke="url(#paint3_linear_392_5430)" stroke-width="1.5" stroke-linecap="round" stroke-linejoin="round"/>
<path d="M33.9277 25V46.4286" stroke="url(#paint4_linear_392_5430)" stroke-width="1.5" stroke-linecap="round" stroke-linejoin="round"/>
<path d="M24.9989 33.9287H3.57031" stroke="url(#paint5_linear_392_5430)" stroke-width="1.5" stroke-linecap="round" stroke-linejoin="round"/>
<defs>
<linearGradient id="paint0_linear_392_5430" x1="1.78516" y1="24.9999" x2="48.2137" y2="24.9999" gradientUnits="userSpaceOnUse">
<stop stop-color="#BDAD7B"/>
<stop offset="1" stop-color="#615328"/>
</linearGradient>
<linearGradient id="paint1_linear_392_5430" x1="16.0703" y1="24.9999" x2="33.9275" y2="24.9999" gradientUnits="userSpaceOnUse">
<stop stop-color="#BDAD7B"/>
<stop offset="1" stop-color="#615328"/>
</linearGradient>
<linearGradient id="paint2_linear_392_5430" x1="16.0703" y1="14.2856" x2="17.0703" y2="14.2856" gradientUnits="userSpaceOnUse">
<stop stop-color="#BDAD7B"/>
<stop offset="1" stop-color="#615328"/>
</linearGradient>
<linearGradient id="paint3_linear_392_5430" x1="25" y1="16.5713" x2="46.4286" y2="16.5713" gradientUnits="userSpaceOnUse">
<stop stop-color="#BDAD7B"/>
<stop offset="1" stop-color="#615328"/>
</linearGradient>
<linearGradient id="paint4_linear_392_5430" x1="33.9277" y1="35.7143" x2="34.9277" y2="35.7143" gradientUnits="userSpaceOnUse">
<stop stop-color="#BDAD7B"/>
<stop offset="1" stop-color="#615328"/>
</linearGradient>
<linearGradient id="paint5_linear_392_5430" x1="3.57031" y1="34.4287" x2="24.9989" y2="34.4287" gradientUnits="userSpaceOnUse">
<stop stop-color="#BDAD7B"/>
<stop offset="1" stop-color="#615328"/>
</linearGradient>
</defs>
</svg>
