<svg width="40" height="40" viewBox="0 0 40 40" fill="none" xmlns="http://www.w3.org/2000/svg">
<path d="M12.8573 37.1423C19.1691 37.1423 24.2859 32.0256 24.2859 25.7137C24.2859 19.4019 19.1691 14.2852 12.8573 14.2852C6.54546 14.2852 1.42871 19.4019 1.42871 25.7137C1.42871 32.0256 6.54546 37.1423 12.8573 37.1423Z" stroke="white" stroke-width="1.5" stroke-linecap="round" stroke-linejoin="round"/>
<path d="M27.1429 37.1423C33.4548 37.1423 38.5715 32.0256 38.5715 25.7137C38.5715 19.4019 33.4548 14.2852 27.1429 14.2852C20.8311 14.2852 15.7144 19.4019 15.7144 25.7137C15.7144 32.0256 20.8311 37.1423 27.1429 37.1423Z" stroke="white" stroke-width="1.5" stroke-linecap="round" stroke-linejoin="round"/>
<path d="M20.0003 25.7146C26.3122 25.7146 31.4289 20.5978 31.4289 14.286C31.4289 7.97417 26.3122 2.85742 20.0003 2.85742C13.6885 2.85742 8.57178 7.97417 8.57178 14.286C8.57178 20.5978 13.6885 25.7146 20.0003 25.7146Z" stroke="white" stroke-width="1.5" stroke-linecap="round" stroke-linejoin="round"/>
</svg>
