<svg width="50" height="50" viewBox="0 0 50 50" fill="none" xmlns="http://www.w3.org/2000/svg">
<path d="M25 35.7858V39.3929" stroke="url(#paint0_linear_465_8931)" stroke-width="1.5" stroke-linecap="round" stroke-linejoin="round"/>
<path d="M25 17.8929V21.25" stroke="url(#paint1_linear_465_8931)" stroke-width="1.5" stroke-linecap="round" stroke-linejoin="round"/>
<path d="M24.9999 48.1786C37.4999 48.1786 46.4284 43.75 46.4284 33.8929C46.4284 23.1786 41.0713 16.0357 30.357 10.6786L34.5713 5.25002C34.7854 4.89384 34.9015 4.48739 34.9079 4.07187C34.9143 3.65635 34.8107 3.24653 34.6077 2.88394C34.4046 2.52135 34.1093 2.21889 33.7517 2.00721C33.3941 1.79553 32.9868 1.68216 32.5713 1.67859H17.4284C17.0129 1.68216 16.6057 1.79553 16.248 2.00721C15.8904 2.21889 15.5951 2.52135 15.3921 2.88394C15.189 3.24653 15.0854 3.65635 15.0918 4.07187C15.0982 4.48739 15.2143 4.89384 15.4284 5.25002L19.6427 10.7143C8.92843 16.1072 3.57129 23.25 3.57129 33.9643C3.57129 43.75 12.4999 48.1786 24.9999 48.1786Z" stroke="url(#paint2_linear_465_8931)" stroke-width="1.5" stroke-linecap="round" stroke-linejoin="round"/>
<path d="M21.4286 34.1429C21.8643 34.6602 22.4128 35.0708 23.0319 35.3431C23.651 35.6155 24.3242 35.7425 25 35.7143C26.0329 35.7847 27.0528 35.4519 27.8454 34.7859C28.638 34.1199 29.1415 33.1725 29.25 32.1429C29.1415 31.1133 28.638 30.1659 27.8454 29.4999C27.0528 28.8339 26.0329 28.5011 25 28.5715C23.9671 28.6419 22.9472 28.3091 22.1546 27.6431C21.362 26.977 20.8585 26.0296 20.75 25C20.8498 23.9669 21.3509 23.014 22.1455 22.3463C22.9402 21.6785 23.9651 21.349 25 21.4286C25.6639 21.388 26.3285 21.4951 26.946 21.7421C27.5636 21.9891 28.1187 22.3699 28.5714 22.8572" stroke="url(#paint3_linear_465_8931)" stroke-width="1.5" stroke-linecap="round" stroke-linejoin="round"/>
<defs>
<linearGradient id="paint0_linear_465_8931" x1="25" y1="37.5893" x2="26" y2="37.5893" gradientUnits="userSpaceOnUse">
<stop stop-color="#BDAD7B"/>
<stop offset="1" stop-color="#615328"/>
</linearGradient>
<linearGradient id="paint1_linear_465_8931" x1="25" y1="19.5715" x2="26" y2="19.5715" gradientUnits="userSpaceOnUse">
<stop stop-color="#BDAD7B"/>
<stop offset="1" stop-color="#615328"/>
</linearGradient>
<linearGradient id="paint2_linear_465_8931" x1="3.57129" y1="24.9286" x2="46.4284" y2="24.9286" gradientUnits="userSpaceOnUse">
<stop stop-color="#BDAD7B"/>
<stop offset="1" stop-color="#615328"/>
</linearGradient>
<linearGradient id="paint3_linear_465_8931" x1="20.75" y1="28.5703" x2="29.25" y2="28.5703" gradientUnits="userSpaceOnUse">
<stop stop-color="#BDAD7B"/>
<stop offset="1" stop-color="#615328"/>
</linearGradient>
</defs>
</svg>
