<svg width="20" height="20" viewBox="0 0 20 20" fill="none" xmlns="http://www.w3.org/2000/svg">
<g clip-path="url(#clip0_236_271)">
<path d="M12.1429 7.1423C12.9319 7.1423 13.5715 6.50271 13.5715 5.71373C13.5715 4.92475 12.9319 4.28516 12.1429 4.28516C11.3539 4.28516 10.7144 4.92475 10.7144 5.71373C10.7144 6.50271 11.3539 7.1423 12.1429 7.1423Z" stroke="white" stroke-width="1.5" stroke-linecap="round" stroke-linejoin="round"/>
<path d="M6.42864 14.2879C6.82313 14.2879 7.14293 13.9681 7.14293 13.5737C7.14293 13.1792 6.82313 12.8594 6.42864 12.8594C6.03415 12.8594 5.71436 13.1792 5.71436 13.5737C5.71436 13.9681 6.03415 14.2879 6.42864 14.2879Z" stroke="white" stroke-width="1.5" stroke-linecap="round" stroke-linejoin="round"/>
<path d="M6.42857 9.28683C7.21755 9.28683 7.85714 8.64724 7.85714 7.85826C7.85714 7.06928 7.21755 6.42969 6.42857 6.42969C5.63959 6.42969 5 7.06928 5 7.85826C5 8.64724 5.63959 9.28683 6.42857 9.28683Z" stroke="white" stroke-width="1.5" stroke-linecap="round" stroke-linejoin="round"/>
<path d="M13.6001 17.5434C13.5842 17.2663 13.4879 16.9999 13.323 16.7766C13.1581 16.5533 12.9317 16.383 12.6716 16.2863C12.0254 16.0739 11.4762 15.638 11.1227 15.057C10.7692 14.4759 10.6346 13.7878 10.7431 13.1163C10.8515 12.4449 11.196 11.8342 11.7144 11.394C12.2329 10.9538 12.8914 10.713 13.5716 10.7148H16.243C16.7012 10.7161 17.1529 10.6072 17.5602 10.3972C17.9674 10.1873 18.3182 9.88244 18.583 9.50847C18.8477 9.13449 19.0186 8.70234 19.0812 8.24845C19.1439 7.79457 19.0965 7.33227 18.943 6.90056C18.3748 5.29623 17.3766 3.87892 16.0574 2.80348C14.7383 1.72805 13.1489 1.03585 11.463 0.802521C9.77711 0.569193 8.0595 0.803708 6.49785 1.48044C4.9362 2.15718 3.59058 3.25011 2.60801 4.63981C1.62544 6.02952 1.04371 7.66254 0.926388 9.36047C0.809066 11.0584 1.16066 12.7559 1.94276 14.2676C2.72485 15.7792 3.90737 17.0468 5.3611 17.9319C6.81483 18.817 8.48386 19.2855 10.1858 19.2863C11.0264 19.2886 11.8631 19.1732 12.6716 18.9434C12.9685 18.8602 13.2257 18.673 13.3961 18.416C13.5666 18.1591 13.639 17.8493 13.6001 17.5434V17.5434Z" stroke="white" stroke-width="1.5" stroke-linecap="round" stroke-linejoin="round"/>
</g>
<defs>
<clipPath id="clip0_236_271">
<rect width="20" height="20" fill="white"/>
</clipPath>
</defs>
</svg>
