<svg width="50" height="50" viewBox="0 0 50 50" fill="none" xmlns="http://www.w3.org/2000/svg">
<path d="M44.6415 5.35693L32.4629 17.5355" stroke="url(#paint0_linear_392_5657)" stroke-width="1.5" stroke-linecap="round" stroke-linejoin="round"/>
<path d="M5.35742 5.35693L17.536 17.5355" stroke="url(#paint1_linear_392_5657)" stroke-width="1.5" stroke-linecap="round" stroke-linejoin="round"/>
<path d="M5.35742 44.6429L17.536 32.4644" stroke="url(#paint2_linear_392_5657)" stroke-width="1.5" stroke-linecap="round" stroke-linejoin="round"/>
<path d="M44.6415 44.6429L32.4629 32.4644" stroke="url(#paint3_linear_392_5657)" stroke-width="1.5" stroke-linecap="round" stroke-linejoin="round"/>
<path d="M24.9994 48.2142C37.8203 48.2142 48.2137 37.8208 48.2137 24.9999C48.2137 12.179 37.8203 1.78564 24.9994 1.78564C12.1785 1.78564 1.78516 12.179 1.78516 24.9999C1.78516 37.8208 12.1785 48.2142 24.9994 48.2142Z" stroke="url(#paint4_linear_392_5657)" stroke-width="1.5" stroke-linecap="round" stroke-linejoin="round"/>
<path d="M24.9986 35.5358C30.8173 35.5358 35.5343 30.8188 35.5343 25.0001C35.5343 19.1814 30.8173 14.4644 24.9986 14.4644C19.1799 14.4644 14.4629 19.1814 14.4629 25.0001C14.4629 30.8188 19.1799 35.5358 24.9986 35.5358Z" stroke="url(#paint5_linear_392_5657)" stroke-width="1.5" stroke-linecap="round" stroke-linejoin="round"/>
<defs>
<linearGradient id="paint0_linear_392_5657" x1="32.4629" y1="11.4462" x2="44.6415" y2="11.4462" gradientUnits="userSpaceOnUse">
<stop stop-color="#BDAD7B"/>
<stop offset="1" stop-color="#615328"/>
</linearGradient>
<linearGradient id="paint1_linear_392_5657" x1="5.35742" y1="11.4462" x2="17.536" y2="11.4462" gradientUnits="userSpaceOnUse">
<stop stop-color="#BDAD7B"/>
<stop offset="1" stop-color="#615328"/>
</linearGradient>
<linearGradient id="paint2_linear_392_5657" x1="5.35742" y1="38.5536" x2="17.536" y2="38.5536" gradientUnits="userSpaceOnUse">
<stop stop-color="#BDAD7B"/>
<stop offset="1" stop-color="#615328"/>
</linearGradient>
<linearGradient id="paint3_linear_392_5657" x1="32.4629" y1="38.5536" x2="44.6415" y2="38.5536" gradientUnits="userSpaceOnUse">
<stop stop-color="#BDAD7B"/>
<stop offset="1" stop-color="#615328"/>
</linearGradient>
<linearGradient id="paint4_linear_392_5657" x1="1.78516" y1="24.9999" x2="48.2137" y2="24.9999" gradientUnits="userSpaceOnUse">
<stop stop-color="#BDAD7B"/>
<stop offset="1" stop-color="#615328"/>
</linearGradient>
<linearGradient id="paint5_linear_392_5657" x1="14.4629" y1="25.0001" x2="35.5343" y2="25.0001" gradientUnits="userSpaceOnUse">
<stop stop-color="#BDAD7B"/>
<stop offset="1" stop-color="#615328"/>
</linearGradient>
</defs>
</svg>
