<svg width="50" height="50" viewBox="0 0 50 50" fill="none" xmlns="http://www.w3.org/2000/svg">
<path d="M44.6415 5.35712L32.4629 17.5357" stroke="url(#paint0_linear_392_6159)" stroke-width="1.5" stroke-linecap="round" stroke-linejoin="round"/>
<path d="M5.35742 5.35712L17.536 17.5357" stroke="url(#paint1_linear_392_6159)" stroke-width="1.5" stroke-linecap="round" stroke-linejoin="round"/>
<path d="M5.35742 44.6429L17.536 32.4643" stroke="url(#paint2_linear_392_6159)" stroke-width="1.5" stroke-linecap="round" stroke-linejoin="round"/>
<path d="M44.6415 44.6429L32.4629 32.4643" stroke="url(#paint3_linear_392_6159)" stroke-width="1.5" stroke-linecap="round" stroke-linejoin="round"/>
<path d="M24.9994 48.2143C37.8203 48.2143 48.2137 37.8209 48.2137 25C48.2137 12.1791 37.8203 1.78571 24.9994 1.78571C12.1785 1.78571 1.78516 12.1791 1.78516 25C1.78516 37.8209 12.1785 48.2143 24.9994 48.2143Z" stroke="url(#paint4_linear_392_6159)" stroke-width="1.5" stroke-linecap="round" stroke-linejoin="round"/>
<path d="M24.9986 35.5357C30.8173 35.5357 35.5343 30.8187 35.5343 25C35.5343 19.1813 30.8173 14.4643 24.9986 14.4643C19.1799 14.4643 14.4629 19.1813 14.4629 25C14.4629 30.8187 19.1799 35.5357 24.9986 35.5357Z" stroke="url(#paint5_linear_392_6159)" stroke-width="1.5" stroke-linecap="round" stroke-linejoin="round"/>
<defs>
<linearGradient id="paint0_linear_392_6159" x1="32.4629" y1="11.4464" x2="44.6415" y2="11.4464" gradientUnits="userSpaceOnUse">
<stop stop-color="#BDAD7B"/>
<stop offset="1" stop-color="#615328"/>
</linearGradient>
<linearGradient id="paint1_linear_392_6159" x1="5.35742" y1="11.4464" x2="17.536" y2="11.4464" gradientUnits="userSpaceOnUse">
<stop stop-color="#BDAD7B"/>
<stop offset="1" stop-color="#615328"/>
</linearGradient>
<linearGradient id="paint2_linear_392_6159" x1="5.35742" y1="38.5536" x2="17.536" y2="38.5536" gradientUnits="userSpaceOnUse">
<stop stop-color="#BDAD7B"/>
<stop offset="1" stop-color="#615328"/>
</linearGradient>
<linearGradient id="paint3_linear_392_6159" x1="32.4629" y1="38.5536" x2="44.6415" y2="38.5536" gradientUnits="userSpaceOnUse">
<stop stop-color="#BDAD7B"/>
<stop offset="1" stop-color="#615328"/>
</linearGradient>
<linearGradient id="paint4_linear_392_6159" x1="1.78516" y1="25" x2="48.2137" y2="25" gradientUnits="userSpaceOnUse">
<stop stop-color="#BDAD7B"/>
<stop offset="1" stop-color="#615328"/>
</linearGradient>
<linearGradient id="paint5_linear_392_6159" x1="14.4629" y1="25" x2="35.5343" y2="25" gradientUnits="userSpaceOnUse">
<stop stop-color="#BDAD7B"/>
<stop offset="1" stop-color="#615328"/>
</linearGradient>
</defs>
</svg>
