<svg width="24" height="24" viewBox="0 0 24 24" fill="none" xmlns="http://www.w3.org/2000/svg">
<path d="M0.857178 20.1433V3.85759C0.857178 3.40293 1.03779 2.9669 1.35928 2.64541C1.68077 2.32392 2.11681 2.14331 2.57146 2.14331H8.89718C9.28878 2.1319 9.67248 2.25496 9.98439 2.49201C10.2963 2.72907 10.5176 3.0658 10.6115 3.44616L11.1429 5.57188H21.4286C21.8833 5.57188 22.3193 5.75249 22.6408 6.07398C22.9623 6.39547 23.1429 6.83151 23.1429 7.28616V20.1433C23.1429 20.598 22.9623 21.034 22.6408 21.3555C22.3193 21.677 21.8833 21.8576 21.4286 21.8576H2.57146C2.11681 21.8576 1.68077 21.677 1.35928 21.3555C1.03779 21.034 0.857178 20.598 0.857178 20.1433Z" stroke="white" stroke-width="1.5" stroke-linecap="round" stroke-linejoin="round"/>
<path d="M8.57153 15.0003L11.143 16.7146L15.4287 9.85742" stroke="white" stroke-width="1.5" stroke-linecap="round" stroke-linejoin="round"/>
</svg>
