<svg width="20" height="20" viewBox="0 0 20 20" fill="none" xmlns="http://www.w3.org/2000/svg">
<g clip-path="url(#clip0_720_1404)">
<path d="M7.47166 3.21484L8.08595 1.62913C8.18955 1.36065 8.37181 1.12972 8.60888 0.966576C8.84594 0.803435 9.12675 0.715694 9.41452 0.714844H10.5859C10.8737 0.715694 11.1545 0.803435 11.3916 0.966576C11.6287 1.12972 11.8109 1.36065 11.9145 1.62913L12.5288 3.21484L14.6145 4.41484L16.3002 4.1577C16.5809 4.1196 16.8666 4.16581 17.121 4.29045C17.3753 4.41509 17.5869 4.61254 17.7288 4.8577L18.3002 5.8577C18.4467 6.10677 18.5141 6.39439 18.4937 6.68259C18.4733 6.97079 18.366 7.24603 18.1859 7.47199L17.1431 8.80056V11.2006L18.2145 12.5291C18.3946 12.7551 18.5019 13.0303 18.5223 13.3185C18.5427 13.6067 18.4752 13.8943 18.3288 14.1434L17.7574 15.1434C17.6155 15.3886 17.4039 15.586 17.1495 15.7107C16.8952 15.8353 16.6095 15.8815 16.3288 15.8434L14.6431 15.5863L12.5574 16.7863L11.9431 18.372C11.8395 18.6405 11.6572 18.8714 11.4202 19.0345C11.1831 19.1977 10.9023 19.2854 10.6145 19.2863H9.41452C9.12675 19.2854 8.84594 19.1977 8.60888 19.0345C8.37181 18.8714 8.18955 18.6405 8.08595 18.372L7.47166 16.7863L5.38595 15.5863L3.70023 15.8434C3.41954 15.8815 3.13386 15.8353 2.87949 15.7107C2.62513 15.586 2.41355 15.3886 2.27166 15.1434L1.70023 14.1434C1.55381 13.8943 1.48634 13.6067 1.50675 13.3185C1.52715 13.0303 1.63446 12.7551 1.81452 12.5291L2.85738 11.2006V8.80056L1.78595 7.47199C1.60589 7.24603 1.49858 6.97079 1.47818 6.68259C1.45777 6.39439 1.52524 6.10677 1.67166 5.8577L2.24309 4.8577C2.38498 4.61254 2.59655 4.41509 2.85092 4.29045C3.10529 4.16581 3.39097 4.1196 3.67166 4.1577L5.35738 4.41484L7.47166 3.21484Z" stroke="white" stroke-width="1.5" stroke-linecap="round" stroke-linejoin="round"/>
<path d="M10.0003 14.2863C12.3672 14.2863 14.286 12.3675 14.286 10.0006C14.286 7.63362 12.3672 5.71484 10.0003 5.71484C7.63338 5.71484 5.7146 7.63362 5.7146 10.0006C5.7146 12.3675 7.63338 14.2863 10.0003 14.2863Z" stroke="white" stroke-width="1.5" stroke-linecap="round" stroke-linejoin="round"/>
<path d="M10.0002 5.71484V10.0006H14.286" stroke="white" stroke-width="1.5" stroke-linecap="round" stroke-linejoin="round"/>
<path d="M10.0003 10L6.97168 13.0286" stroke="white" stroke-width="1.5" stroke-linecap="round" stroke-linejoin="round"/>
</g>
<defs>
<clipPath id="clip0_720_1404">
<rect width="20" height="20" fill="white"/>
</clipPath>
</defs>
</svg>
