<svg width="50" height="50" viewBox="0 0 50 50" fill="none" xmlns="http://www.w3.org/2000/svg">
<path d="M26.6788 24.6428C26.1491 24.8729 25.5778 24.9916 25.0003 24.9916C24.4228 24.9916 23.8514 24.8729 23.3217 24.6428L2.96455 15.2143C2.63399 15.0475 2.35619 14.7923 2.1621 14.477C1.968 14.1618 1.86523 13.7988 1.86523 13.4286C1.86523 13.0583 1.968 12.6954 2.1621 12.3801C2.35619 12.0648 2.63399 11.8096 2.96455 11.6428L23.3217 2.14285C23.8514 1.91282 24.4228 1.79413 25.0003 1.79413C25.5778 1.79413 26.1491 1.91282 26.6788 2.14285L47.036 11.5714C47.3666 11.7382 47.6443 11.9934 47.8384 12.3086C48.0325 12.6239 48.1353 12.9869 48.1353 13.3571C48.1353 13.7274 48.0325 14.0903 47.8384 14.4056C47.6443 14.7209 47.3666 14.9761 47.036 15.1428L26.6788 24.6428Z" stroke="url(#paint0_linear_465_10707)" stroke-width="1.5" stroke-linecap="round" stroke-linejoin="round"/>
<path d="M48.2147 26.25L26.429 36.2857C25.9637 36.4979 25.4583 36.6078 24.9468 36.6078C24.4354 36.6078 23.93 36.4979 23.4647 36.2857L1.78613 26.25" stroke="url(#paint1_linear_465_10707)" stroke-width="1.5" stroke-linecap="round" stroke-linejoin="round"/>
<path d="M48.2147 37.8572L26.429 47.8929C25.9637 48.1051 25.4583 48.215 24.9468 48.215C24.4354 48.215 23.93 48.1051 23.4647 47.8929L1.78613 37.8572" stroke="url(#paint2_linear_465_10707)" stroke-width="1.5" stroke-linecap="round" stroke-linejoin="round"/>
<defs>
<linearGradient id="paint0_linear_465_10707" x1="1.86523" y1="13.3928" x2="48.1353" y2="13.3928" gradientUnits="userSpaceOnUse">
<stop stop-color="#BDAD7B"/>
<stop offset="1" stop-color="#615328"/>
</linearGradient>
<linearGradient id="paint1_linear_465_10707" x1="1.78613" y1="31.4289" x2="48.2147" y2="31.4289" gradientUnits="userSpaceOnUse">
<stop stop-color="#BDAD7B"/>
<stop offset="1" stop-color="#615328"/>
</linearGradient>
<linearGradient id="paint2_linear_465_10707" x1="1.78613" y1="43.0361" x2="48.2147" y2="43.0361" gradientUnits="userSpaceOnUse">
<stop stop-color="#BDAD7B"/>
<stop offset="1" stop-color="#615328"/>
</linearGradient>
</defs>
</svg>
