<svg width="146" height="50" viewBox="0 0 146 50" fill="none" xmlns="http://www.w3.org/2000/svg">
<path d="M63.716 34V15.8H67.148V30.88H75.468V34H63.716ZM82.8258 34.208C81.8205 34.208 80.9365 33.9827 80.1738 33.532C79.4285 33.064 78.8478 32.4227 78.4318 31.608C78.0158 30.7933 77.8078 29.8573 77.8078 28.8V21.104H81.0838V28.54C81.0838 29.5107 81.3178 30.2387 81.7858 30.724C82.2711 31.2093 82.9558 31.452 83.8398 31.452C84.8451 31.452 85.6251 31.1227 86.1798 30.464C86.7345 29.788 87.0118 28.852 87.0118 27.656V21.104H90.2878V34H87.0638V32.31H86.5958C86.3878 32.7433 85.9978 33.168 85.4258 33.584C84.8538 34 83.9871 34.208 82.8258 34.208ZM92.7893 34L97.4693 27.5L92.8413 21.104H96.6373L99.5753 25.394H100.043L102.981 21.104H106.777L102.149 27.5L106.829 34H102.981L100.043 29.658H99.5753L96.6373 34H92.7893ZM109.32 34V21.104H112.596V34H109.32ZM110.958 19.596C110.369 19.596 109.866 19.4053 109.45 19.024C109.051 18.6427 108.852 18.14 108.852 17.516C108.852 16.892 109.051 16.3893 109.45 16.008C109.866 15.6267 110.369 15.436 110.958 15.436C111.565 15.436 112.067 15.6267 112.466 16.008C112.865 16.3893 113.064 16.892 113.064 17.516C113.064 18.14 112.865 18.6427 112.466 19.024C112.067 19.4053 111.565 19.596 110.958 19.596ZM116.226 34V21.104H119.45V22.794H119.918C120.126 22.3433 120.516 21.9187 121.088 21.52C121.66 21.104 122.527 20.896 123.688 20.896C124.694 20.896 125.569 21.13 126.314 21.598C127.077 22.0487 127.666 22.6813 128.082 23.496C128.498 24.2933 128.706 25.2293 128.706 26.304V34H125.43V26.564C125.43 25.5933 125.188 24.8653 124.702 24.38C124.234 23.8947 123.558 23.652 122.674 23.652C121.669 23.652 120.889 23.99 120.334 24.666C119.78 25.3247 119.502 26.252 119.502 27.448V34H116.226ZM138.124 34.364C136.841 34.364 135.706 34.0953 134.718 33.558C133.747 33.0033 132.984 32.232 132.43 31.244C131.892 30.2387 131.624 29.06 131.624 27.708V27.396C131.624 26.044 131.892 24.874 132.43 23.886C132.967 22.8807 133.721 22.1093 134.692 21.572C135.662 21.0173 136.789 20.74 138.072 20.74C139.337 20.74 140.438 21.026 141.374 21.598C142.31 22.1527 143.038 22.9327 143.558 23.938C144.078 24.926 144.338 26.0787 144.338 27.396V28.514H134.952C134.986 29.398 135.316 30.1173 135.94 30.672C136.564 31.2267 137.326 31.504 138.228 31.504C139.146 31.504 139.822 31.3047 140.256 30.906C140.689 30.5073 141.018 30.0653 141.244 29.58L143.922 30.984C143.679 31.4347 143.324 31.9287 142.856 32.466C142.405 32.986 141.798 33.4367 141.036 33.818C140.273 34.182 139.302 34.364 138.124 34.364ZM134.978 26.07H141.01C140.94 25.3247 140.637 24.7267 140.1 24.276C139.58 23.8253 138.895 23.6 138.046 23.6C137.162 23.6 136.46 23.8253 135.94 24.276C135.42 24.7267 135.099 25.3247 134.978 26.07Z" fill="white"/>
<circle cx="25" cy="25" r="25" fill="url(#paint0_linear_351_3)"/>
<path d="M27.4908 16.3709V10L15 22.8405V39.9992H21.0827V39.0811H20.1991V38.1638H16.7663V23.6064L25.7244 14.3989V22.5583H27.4908V18.6365L34.2329 23.6928V38.1638H30.8001V39.0811H29.9165V31.7386V24.3945H28.1503V31.7386V38.1646H26.3831V31.7386V24.3945H24.6161V31.7386V38.1646H22.8498V31.7386V24.3945H21.0827V31.7386V39.0819H21.9662V40H29.033V39.0819H29.9165V39.9992H36V22.7549L27.4908 16.3709Z" fill="white"/>
<defs>
<linearGradient id="paint0_linear_351_3" x1="0" y1="25" x2="50" y2="25" gradientUnits="userSpaceOnUse">
<stop stop-color="#BDAD7B"/>
<stop offset="1" stop-color="#615328"/>
</linearGradient>
</defs>
</svg>
