<svg width="187" height="78" viewBox="0 0 187 78" fill="none" xmlns="http://www.w3.org/2000/svg">
<g filter="url(#filter0_d_484_110)">
<path d="M9.78179 39.1801C7.222 37.6123 5.32363 35.1613 4.44344 32.2888C4.44344 32.1842 4.38454 32.0882 4.36266 31.9836C3.35288 28.0778 4.48552 23.9275 7.33982 21.0819L28.2523 0C30.0328 2.33813 30.8121 5.28818 30.4182 8.20283C30.0312 10.5848 28.8632 12.7712 27.0995 14.4148L13.5483 27.0393C12.3466 28.1486 11.3722 29.4837 10.6822 30.9688L10.5492 31.2824C9.52262 33.7823 9.2567 36.5284 9.78179 39.1801Z" fill="#1B4176"/>
<path d="M26.1777 31.0586C28.74 32.6118 30.6394 35.0496 31.5143 37.9062C31.5143 38.0101 31.5732 38.1073 31.595 38.2112C32.6011 42.0932 31.4689 46.2149 28.6189 49.0464L7.70653 69.9998C5.91981 67.6642 5.14086 64.717 5.53959 61.8101C5.92823 59.4393 7.09581 57.2646 8.85898 55.6276L22.4041 43.0868C23.6087 41.9843 24.5828 40.654 25.2692 39.1746L25.4038 38.8696C26.4233 36.3983 26.6925 33.6824 26.1777 31.0586Z" fill="#1B4176"/>
<path d="M14.3524 29.1445H16.3291C17.037 29.1445 17.6095 29.7186 17.6095 30.4249V32.4016C17.6095 33.1096 17.037 33.6837 16.3291 33.6837H14.3524C13.6444 33.6837 13.0703 33.1096 13.0703 32.4016V30.4249C13.0703 29.7186 13.6444 29.1445 14.3524 29.1445Z" fill="#ED1A3B"/>
<path d="M20.0851 29.1445H22.0634C22.7698 29.1445 23.3438 29.7186 23.3438 30.4249V32.4016C23.3438 33.1096 22.7698 33.6837 22.0634 33.6837H20.0851C19.3788 33.6837 18.8047 33.1096 18.8047 32.4016V30.4249C18.8047 29.7186 19.3788 29.1445 20.0851 29.1445Z" fill="#ED1A3B"/>
<path d="M14.3524 34.6445H16.3291C17.037 34.6445 17.6095 35.2172 17.6095 35.9254V37.9028C17.6095 38.6111 17.037 39.1837 16.3291 39.1837H14.3524C13.6444 39.1837 13.0703 38.6111 13.0703 37.9028V35.9254C13.0703 35.2172 13.6444 34.6445 14.3524 34.6445Z" fill="#ED1A3B"/>
<path d="M20.0851 34.6445H22.0634C22.7698 34.6445 23.3438 35.2172 23.3438 35.9254V37.9028C23.3438 38.6111 22.7698 39.1837 22.0634 39.1837H20.0851C19.3788 39.1837 18.8047 38.6111 18.8047 37.9028V35.9254C18.8047 35.2172 19.3788 34.6445 20.0851 34.6445Z" fill="#ED1A3B"/>
<path d="M65.4176 36.252C65.979 36.8714 66.4193 37.5933 66.7149 38.3772C67.0147 39.1697 67.1232 40.0198 67.0339 40.8634C66.9297 41.7285 66.6298 42.5572 66.1598 43.292C65.6877 44.0118 65.0985 44.6505 64.4201 45.1802C62.942 46.3314 61.23 47.1409 59.4052 47.5532L58.6439 47.7134C56.2959 48.1662 53.8821 48.1107 51.5597 47.5532H51.4746C50.4708 47.3054 49.4967 46.9551 48.5673 46.5044C47.6422 46.0474 46.7873 45.4621 46.0259 44.7658C45.4049 44.172 44.8881 43.48 44.4925 42.7153C44.1118 41.9528 43.9055 41.1112 43.8906 40.259C43.8906 39.846 43.9381 39.4395 44.0331 39.0394C44.2756 38.0739 44.7392 37.1768 45.3879 36.4228L45.7537 36.63L47.74 37.7258C47.3955 38.5652 47.2211 39.4644 47.2211 40.3722C47.2147 41.5256 47.4997 42.664 48.0505 43.6786C48.5992 44.674 49.367 45.5305 50.2985 46.1819C51.2534 46.859 52.3508 47.3054 53.5056 47.487C53.8629 47.487 54.2202 47.5617 54.5882 47.581H55.0773C56.3576 47.5254 57.606 47.1516 58.7098 46.4938C59.7647 45.8658 60.6473 44.9837 61.2768 43.9242C61.9148 42.8541 62.2402 41.6281 62.2189 40.3807C62.2331 40.1572 62.2331 39.9336 62.2189 39.71C61.8957 38.593 61.2023 37.619 60.2517 36.9504C59.0735 36.0234 57.7953 35.231 56.4406 34.5881C55.558 34.21 54.6732 33.8811 53.797 33.5778C52.9229 33.2745 52.1892 33.0481 51.5767 32.8687L51.1917 32.7555C51.0032 32.7113 50.8153 32.6551 50.6282 32.5867C49.8179 32.3133 49.0437 31.9459 48.3228 31.4889C47.2679 30.8459 46.3619 29.983 45.6686 28.9578C44.9731 27.9176 44.5967 26.6958 44.5882 25.442C44.591 25.0348 44.6314 24.6318 44.7094 24.2331C44.954 23.0541 45.5048 21.9626 46.3087 21.0676C47.1041 20.1727 48.0633 19.4379 49.1309 18.9039C50.2049 18.3764 51.3491 18.009 52.5273 17.8168C53.8076 17.6288 55.1071 17.6288 56.3853 17.8168C57.6741 17.9919 58.9246 18.3849 60.0815 18.9808C61.2385 19.5682 62.2551 20.4012 63.0654 21.4179C63.5758 22.0673 63.9671 22.8041 64.2223 23.5902C64.4733 24.3805 64.5626 25.2135 64.486 26.0379C64.4563 26.317 64.4123 26.594 64.3542 26.8688C64.2308 26.6595 64.1174 26.4737 64.0139 26.3113C63.7502 25.8955 63.4368 25.5211 63.0739 25.1879C62.7379 24.8333 62.2721 24.6325 61.7851 24.6304C61.6596 23.2441 61.1768 21.9156 60.3835 20.775C59.6753 19.7199 58.6609 18.9125 57.4763 18.4597C56.7617 18.2874 56.0372 18.1806 55.3027 18.1393C54.2224 18.2055 53.1845 18.59 52.321 19.2436C51.4108 19.9292 50.6856 20.8284 50.2049 21.8622C49.6754 22.9836 49.4074 24.2117 49.4223 25.4527C49.418 25.9639 49.462 26.4708 49.5541 26.9735C49.8051 27.8706 50.3049 28.6758 50.994 29.2974C51.7298 29.9787 52.5614 30.5533 53.4589 30.9976C54.345 31.4418 55.2574 31.8199 56.196 32.1318C57.1381 32.4158 57.8336 32.6337 58.4354 32.7661L59.4329 32.9733L60.2325 33.1912C61.2002 33.4817 62.1317 33.8854 63.008 34.3894C63.9033 34.8807 64.7157 35.5087 65.4176 36.252Z" fill="#ED1A3B"/>
<path d="M88.3297 48.013H83.9715C83.874 48.0272 83.7765 48.0272 83.6791 48.013C82.8401 47.8963 82.1832 47.2299 82.0773 46.3873C82.0773 46.3038 82.0773 46.2196 82.0773 46.1347V33.2731C82.0392 31.5455 81.3739 30.6816 80.0814 30.6816C79.253 30.7135 78.4394 30.9257 77.7 31.3014C77.1152 31.5745 76.553 31.8872 76.0134 32.2395C75.5537 32.5218 75.3206 32.6809 75.2909 32.7085C74.8291 33.0722 74.3792 33.4478 73.9413 33.8355V45.9649C73.9243 46.5507 74.1892 47.1068 74.6553 47.4591C74.9731 47.7074 75.346 47.8814 75.7422 47.9663H75.9478H73.9413C72.2731 47.9663 71.3924 47.9663 71.2992 47.9663C70.4602 47.8496 69.8034 47.1832 69.6953 46.3406C69.6953 46.2599 69.6953 37.3912 69.6953 19.7344H70.1826C71.6446 19.7386 73.026 19.0701 73.9328 17.9219V33.2349C75.8461 31.4075 78.128 30.011 80.6238 29.1408C81.1295 29.0149 81.6423 28.9462 82.1621 28.9349C82.7871 28.9434 83.4015 29.1047 83.9524 29.404C84.6029 29.7733 85.1135 30.3484 85.4037 31.0382C85.7788 31.8171 86.0288 32.6512 86.1453 33.5066L86.2195 34.0329C86.2195 34.2855 86.2195 34.6717 86.2661 35.179V45.9564C86.2491 46.2833 86.319 46.608 86.4737 46.8945C86.6008 47.1216 86.7682 47.3233 86.9695 47.4867C87.1531 47.6268 87.3502 47.7428 87.5606 47.8348C87.7245 47.9013 87.8933 47.9543 88.067 47.9939L88.3297 48.013Z" fill="#ED1A3B"/>
<path d="M106.49 39.7606C106.426 40.2523 106.329 40.7376 106.199 41.2166C105.738 42.9382 104.81 44.5004 103.521 45.7311C102.243 46.9702 100.592 47.7588 98.8256 47.9777C97.169 48.1541 95.4998 47.8055 94.0514 46.9808C92.6073 46.1625 91.4138 44.9617 90.6046 43.5121C89.0713 40.7596 88.8674 37.4608 90.0503 34.5426C90.628 33.1249 91.5327 31.8666 92.6901 30.8655C93.8433 29.8686 95.2513 29.2161 96.757 28.9844C98.4794 28.7485 100.229 29.0779 101.746 29.926C103.277 30.7486 104.53 32.009 105.345 33.5457C105.384 33.6095 105.418 33.6754 105.447 33.7434L105.524 33.873L97.3496 38.1516L94.0812 39.8732C94.5101 40.7263 95.0106 41.5347 95.5826 42.2984C96.464 43.527 97.5747 44.5748 98.8532 45.3825C99.4075 45.7247 100.013 45.9755 100.648 46.1243C101.272 46.2752 101.93 46.2263 102.527 45.984C102.78 45.7863 103.033 45.561 103.287 45.3251C104.124 43.9775 104.394 42.3516 104.039 40.8042C104.974 40.8616 105.883 40.4748 106.49 39.7606ZM101.4 33.8922L100.994 33.3672C100.701 32.9945 100.388 32.6402 100.055 32.3044C99.4648 31.7093 98.8022 31.1928 98.0822 30.7613C97.5832 30.468 97.0459 30.247 96.4852 30.1046C95.9245 29.9579 95.3363 29.9579 94.7756 30.1046C94.285 30.2576 93.8518 30.553 93.5269 30.9505C93.2019 31.3458 92.962 31.8028 92.8218 32.2938C92.5011 33.4947 92.4735 34.7551 92.7368 35.9709C92.9938 37.2036 93.3973 38.3982 93.9389 39.5353L96.6827 38.0857C98.5247 37.1023 100.385 36.1338 102.264 35.1802L102.075 34.8529L101.896 34.5893C101.715 34.3683 101.55 34.1359 101.4 33.8922Z" fill="#ED1A3B"/>
<path d="M121.763 29.7593C121.829 29.8464 121.886 29.9398 121.932 30.0396C121.975 30.1351 122.006 30.2341 122.026 30.3367C121.75 30.2229 121.451 30.1765 121.152 30.1976C120.922 30.2201 120.703 30.2819 120.497 30.383C120.289 30.4996 120.105 30.6457 119.944 30.8213C119.594 30.4504 119.127 30.206 118.621 30.1323C118.173 30.0733 117.719 30.0965 117.278 30.1976C116.955 30.2608 116.642 30.3598 116.341 30.4947C115.575 30.954 114.85 31.4703 114.166 32.0434C113.903 32.2562 113.632 32.4817 113.377 32.705V45.7543C113.367 46.062 113.439 46.3675 113.585 46.6393C113.706 46.869 113.875 47.0692 114.081 47.2272C114.263 47.3663 114.461 47.4815 114.673 47.5728C114.903 47.6641 115.141 47.7322 115.385 47.7772H111.013C110.917 47.7856 110.82 47.7856 110.723 47.7772C109.883 47.6571 109.23 46.9912 109.128 46.1547C109.124 46.0746 109.124 45.9938 109.128 45.9124V30.6717C109.507 30.7068 109.886 30.7068 110.265 30.6717C110.649 30.6113 111.024 30.5122 111.388 30.3746C112.173 30.0691 112.862 29.5655 113.388 28.9102V32.1741C114.403 31.2511 115.531 30.461 116.744 29.8141C117.357 29.4875 118.01 29.2431 118.686 29.0871C119.348 28.9291 120.041 28.9481 120.694 29.144C121.004 29.2262 121.294 29.3737 121.547 29.5718L121.763 29.7593Z" fill="#ED1A3B"/>
<path d="M138.271 39.7601C138.215 40.2532 138.121 40.7385 137.989 41.216C137.524 42.9397 136.595 44.4997 135.305 45.7303C134.025 46.9694 132.376 47.7579 130.611 47.9768C128.956 48.1553 127.288 47.8068 125.843 46.98C124.393 46.1681 123.201 44.9651 122.396 43.5114C121.635 42.1511 121.189 40.6379 121.091 39.0821C120.992 37.5306 121.248 35.9769 121.843 34.5423C122.418 33.1247 123.317 31.8664 124.472 30.8654C125.626 29.8686 127.037 29.2161 128.546 28.9844C130.261 28.7485 132.007 29.0779 133.52 29.926C135.05 30.7485 136.302 32.0088 137.115 33.5455C137.153 33.6092 137.188 33.6751 137.219 33.7431L137.293 33.8728L129.136 38.1512L125.889 39.8812C126.318 40.7342 126.819 41.5426 127.392 42.3063C128.27 43.5369 129.38 44.5826 130.657 45.3902C131.216 45.726 131.825 45.9705 132.459 46.115C133.085 46.2659 133.741 46.217 134.337 45.9747C134.604 45.7707 134.858 45.551 135.097 45.3158C135.933 43.9662 136.204 42.3403 135.848 40.793C136.771 40.8419 137.667 40.4593 138.271 39.7601ZM133.172 33.8919C133.043 33.712 132.909 33.537 132.769 33.367C132.476 32.9943 132.163 32.6401 131.831 32.3043C131.241 31.7113 130.583 31.1948 129.868 30.7612C129.367 30.4701 128.826 30.249 128.264 30.1045C127.706 29.9578 127.122 29.9578 126.564 30.1045C126.072 30.2554 125.635 30.5508 125.306 30.9504C124.987 31.3478 124.748 31.8048 124.603 32.2936C124.287 33.4966 124.262 34.7569 124.527 35.9705C124.777 37.1863 125.174 38.368 125.711 39.4859L128.451 38.0385C130.291 37.0552 132.15 36.0867 134.027 35.1331C133.971 35.0198 133.908 34.91 133.841 34.8037C133.783 34.7102 133.717 34.6252 133.662 34.5423C133.485 34.3354 133.322 34.1186 133.172 33.8919Z" fill="#ED1A3B"/>
<path d="M160.009 48.023H155.448H155.363C154.529 47.9008 153.877 47.2296 153.771 46.3804C153.767 46.296 153.767 46.211 153.771 46.1252V33.1108C153.854 32.3195 153.593 31.5304 153.06 30.9471C152.687 30.6554 152.228 30.5032 151.758 30.5118H151.394C150.702 30.6168 150.026 30.8206 149.389 31.1186C148.545 31.4918 147.742 31.9528 146.993 32.4932C146.534 32.8642 146.055 33.2523 145.645 33.6426V45.8872C145.626 46.479 145.892 47.0409 146.356 47.3969C146.68 47.6413 147.048 47.815 147.442 47.9094L147.647 47.9565C144.641 47.9565 143.096 47.9565 142.967 47.9565C142.131 47.8343 141.479 47.1631 141.375 46.3161C141.375 46.2331 141.375 40.9836 141.375 30.5675H141.767C143.27 30.5675 144.688 29.8685 145.615 28.6719V33.0336C147.529 31.1851 149.813 29.7741 152.311 28.8992C152.821 28.7691 153.34 28.699 153.866 28.689C154.389 28.6783 154.91 28.792 155.382 29.0214C156.724 29.7362 157.539 31.1658 157.827 33.3102L157.901 33.8313C157.901 34.0865 157.901 34.4661 157.948 34.9893V45.8786C157.931 46.464 158.193 47.0216 158.65 47.3775C158.972 47.6349 159.347 47.8129 159.747 47.8986L160.009 48.023Z" fill="#ED1A3B"/>
<path d="M177.924 39.7606C177.868 40.2537 177.774 40.739 177.64 41.2166C177.171 42.9403 176.228 44.5025 174.916 45.7311C173.616 46.9702 171.945 47.7588 170.153 47.9777C168.474 48.1541 166.781 47.8055 165.315 46.9808C163.847 46.1647 162.636 44.9638 161.818 43.5121C160.264 40.7596 160.057 37.4608 161.256 34.5426C161.844 33.1249 162.759 31.8666 163.933 30.8655C165.102 29.8686 166.532 29.2161 168.058 28.9844C169.802 28.7485 171.577 29.0779 173.114 29.926C174.664 30.7507 175.935 32.0111 176.764 33.5457C176.802 33.6095 176.837 33.6754 176.867 33.7434C176.867 33.7986 176.925 33.8454 176.934 33.873L168.657 38.1516L165.371 39.8818C165.803 40.7376 166.311 41.546 166.895 42.3069C167.787 43.5397 168.913 44.5876 170.209 45.391C170.769 45.7332 171.381 45.984 172.02 46.1349C172.653 46.2837 173.319 46.2327 173.924 45.9946C174.182 45.797 174.438 45.5695 174.697 45.3357C175.541 43.986 175.812 42.3601 175.448 40.8127C176.396 40.8659 177.313 40.4748 177.924 39.7606ZM172.752 33.8922C172.622 33.7122 172.485 33.5372 172.343 33.3672C172.049 32.9931 171.732 32.6388 171.391 32.3044C170.789 31.7114 170.117 31.1949 169.391 30.7613C168.885 30.468 168.34 30.247 167.772 30.1046C167.203 29.9579 166.607 29.9579 166.039 30.1046C165.541 30.2555 165.1 30.5509 164.77 30.9505C164.439 31.3437 164.195 31.8007 164.058 32.2938C163.732 33.4947 163.702 34.7551 163.971 35.9709C164.228 37.1866 164.632 38.3684 165.182 39.4864L167.961 38.039C169.829 37.0556 171.712 36.0871 173.611 35.1334C173.562 35.0314 173.495 34.9273 173.428 34.804L173.258 34.5426C173.049 34.3066 172.897 34.109 172.752 33.8922Z" fill="#ED1A3B"/>
<path d="M57.2811 57.6292H59.1777V58.0446H58.9399C58.8613 58.0261 58.7827 58.0261 58.7041 58.0446C58.6598 58.0716 58.6277 58.1092 58.6077 58.1575C58.5977 58.2555 58.5977 58.3528 58.6077 58.4494V59.8832C58.3091 60.0636 57.9933 60.2077 57.6604 60.3157C57.3504 60.4009 57.0347 60.4421 56.7132 60.4392C55.9588 60.4691 55.2259 60.1772 54.703 59.6382C54.1693 59.0502 53.8886 58.2789 53.925 57.4885C53.9036 56.794 54.1136 56.1101 54.5229 55.5477C55.063 54.8319 55.9267 54.4292 56.8268 54.4718C57.1468 54.4718 57.4626 54.5102 57.774 54.5869C58.0783 54.6593 58.3662 54.7722 58.6377 54.9256V56.2167H58.0483V55.944C58.059 55.7629 58.0269 55.5818 57.954 55.4156C57.849 55.2835 57.7076 55.1855 57.5468 55.1323C57.294 55.03 57.0239 54.981 56.7496 54.9917C56.2117 54.9746 55.6909 55.1877 55.318 55.5754C54.8701 56.0974 54.643 56.7749 54.6837 57.4609C54.643 58.1149 54.853 58.7626 55.2709 59.2696C55.6395 59.6872 56.1731 59.9215 56.7325 59.9109C56.9311 59.9123 57.1268 59.8875 57.3197 59.8363C57.5283 59.7866 57.7304 59.717 57.9262 59.6275V58.3556C57.9347 58.264 57.9069 58.1724 57.8512 58.1021C57.7526 58.0446 57.639 58.0212 57.5276 58.0361H57.2811V57.6292Z" fill="#1B4176"/>
<path d="M60.6172 54.7031H64.8224V55.9799H64.2781V55.5622C64.2925 55.4847 64.2925 55.4079 64.2781 55.3318C64.2421 55.2873 64.1975 55.2557 64.1442 55.2371C64.029 55.227 63.9138 55.227 63.7986 55.2371H61.8893V57.2373H63.3602C63.4725 57.2524 63.587 57.2287 63.6842 57.1706C63.7468 57.0844 63.7749 56.9811 63.7619 56.8756V56.6861H64.2284V58.3332H63.7619V58.0749C63.7619 57.9414 63.7331 57.856 63.6755 57.8186C63.5675 57.7605 63.4444 57.7368 63.3213 57.7519H61.8893V59.933H63.9995C64.1053 59.9459 64.2112 59.9201 64.2954 59.8576C64.3602 59.7586 64.3861 59.6402 64.3732 59.5239V59.1708H64.9174V60.4368H60.6172V60.0277H60.8181C60.9714 60.0277 61.0664 60.0277 61.1053 59.961C61.1679 59.8619 61.196 59.7457 61.1809 59.6272V55.4761C61.1939 55.3749 61.1658 55.2715 61.1053 55.1897C61.1053 55.1424 60.9714 55.123 60.8181 55.123H60.6172V54.7031Z" fill="#1B4176"/>
<path d="M66.3516 55.1051V54.7081H68.6739C69.1129 54.679 69.552 54.7787 69.9308 54.9949C70.3268 55.2652 70.5485 55.7121 70.5205 56.1798C70.527 56.5082 70.4258 56.8283 70.2364 57.1006C70.0298 57.3626 69.7371 57.5496 69.4078 57.6328L70.3591 59.2874C70.443 59.4454 70.5636 59.5805 70.7121 59.6845C70.852 59.7676 71.0134 59.8092 71.1791 59.8029H71.3685V60.1979H70.0922L68.6653 57.7242H67.6365V59.435C67.6236 59.541 67.6515 59.6491 67.7118 59.7385C67.8108 59.7946 67.9249 59.8175 68.0368 59.8029H68.209V60.1979H66.3903V59.8029H66.5603C66.7519 59.8029 66.8746 59.8029 66.9219 59.7011C66.9477 59.5888 66.9477 59.4759 66.9219 59.3623V55.4543C66.9348 55.3442 66.909 55.234 66.8466 55.1404C66.7497 55.0843 66.6357 55.0615 66.5237 55.076L66.3516 55.1051ZM67.6365 57.294H68.4823C68.8547 57.3272 69.227 57.2295 69.5305 57.0175C69.7565 56.8283 69.877 56.5456 69.8533 56.2546C69.8748 55.9574 69.7608 55.6643 69.5391 55.4543C69.2679 55.2548 68.93 55.1571 68.5878 55.1799H67.6365V57.294Z" fill="#1B4176"/>
<path d="M72.5625 54.7031H74.1983L75.8067 59.6334L77.4426 54.7031H79.0129V55.1156H78.8459C78.7276 55.1005 78.6071 55.1307 78.5099 55.1998C78.469 55.3078 78.4535 55.4194 78.4634 55.5346V59.6334C78.4486 59.7414 78.4676 59.8515 78.5183 59.9487C78.6177 60.0092 78.7318 60.0351 78.8459 60.0243H79.0129V60.4368H77.2291V60.0243H77.3961C77.5842 60.0243 77.6962 60.0243 77.7321 59.9487C77.7828 59.8192 77.8019 59.6853 77.7892 59.5471V55.1156L76.0307 60.4368H75.3587L73.6108 55.1437V59.6334C73.5981 59.7479 73.6235 59.8624 73.6848 59.9574C73.7778 60.0157 73.8855 60.0394 73.9933 60.0243H74.1624V60.4368H72.5625V60.0243H72.7506C72.8584 60.0373 72.9683 60.0114 73.0592 59.9487C73.1043 59.9027 73.1261 59.7846 73.1247 59.5946V55.5346C73.1374 55.4115 73.112 55.2884 73.0486 55.1826C73.0486 55.1329 72.9091 55.1156 72.7506 55.1156H72.5625V54.7031Z" fill="#1B4176"/>
<path d="M82.632 54.7031H83.3067L85.0087 59.4709C85.0538 59.6467 85.1419 59.8077 85.2665 59.9391C85.3503 59.9941 85.4513 60.0174 85.5502 60.0047H85.7135V60.4093H83.8117V60.0047H84.0202C84.1727 60.0047 84.2673 60.0047 84.2974 59.9581C84.3361 59.9242 84.3576 59.8713 84.3533 59.8183C84.3404 59.6983 84.3117 59.5825 84.2673 59.4709L83.9536 58.6004H81.7681L81.4436 59.5366C81.4007 59.6284 81.3756 59.7251 81.3684 59.8268C81.3641 59.8903 81.3921 59.9496 81.4436 59.9878C81.4436 59.9878 81.5683 60.0344 81.7101 60.0344H81.9379V60.4368H80.2188V60.0344H80.3713C80.4809 60.0407 80.5905 60.0111 80.6851 59.9496C80.7768 59.8451 80.8426 59.7265 80.8828 59.5938L82.632 54.7031ZM81.968 58.1133H83.8031L82.8512 55.5546L81.968 58.1133Z" fill="#1B4176"/>
<path d="M86.9462 54.7031H88.6092L91.2404 59.2964V55.4023C91.2491 55.317 91.2187 55.2317 91.1536 55.1763C91.0494 55.1166 90.9278 55.0932 90.8084 55.1102H90.6629V54.7031H92.3932V55.1102H92.2108C92.0958 55.0932 91.9807 55.1166 91.883 55.1763C91.8244 55.2808 91.8005 55.4044 91.8157 55.5238V60.4368H91.0667L88.099 55.2509V59.5309C88.0729 59.6418 88.0729 59.7519 88.099 59.8613C88.1967 59.938 88.3226 59.9721 88.4464 59.9551H88.6092V60.3622H86.8984V59.9551H87.1112C87.2632 59.9551 87.3609 59.9551 87.4086 59.8805C87.4564 59.8059 87.4759 59.71 87.4759 59.5032V55.4683C87.4759 55.3063 87.4759 55.2125 87.4086 55.1657C87.35 55.1166 87.274 55.0932 87.1959 55.0996H86.8984L86.9462 54.7031Z" fill="#1B4176"/>
<path d="M96.2742 56.4678L97.5301 56.3828V58.8722C97.5084 59.1122 97.5517 59.3522 97.6535 59.5689C97.7921 59.7707 98.0281 59.8854 98.2771 59.8684C98.4474 59.8698 98.6098 59.8358 98.7643 59.7664C98.9007 59.707 99.0198 59.6177 99.1107 59.503C99.2002 59.3883 99.2608 59.2602 99.2926 59.1186C99.333 58.9572 99.3554 58.7936 99.3597 58.6279V57.173C99.3706 57.0774 99.3511 56.9818 99.3013 56.9011C99.2428 56.8544 99.1649 56.8331 99.0912 56.8437H98.7838V56.4678L100.009 56.3828V59.4839C99.9848 59.5901 99.9848 59.6963 100.009 59.8025C100.057 59.8471 100.12 59.8684 100.183 59.8599H100.527V60.2167L99.3879 60.3399C99.3388 60.1417 99.3128 59.9406 99.3099 59.7367C99.193 59.9597 99.009 60.1445 98.7838 60.2635C98.5629 60.3888 98.3117 60.4504 98.0562 60.4419C97.6708 60.4652 97.2984 60.3081 97.0494 60.0192C96.8545 59.7239 96.7636 59.3735 96.7917 59.023V57.1454C96.8018 57.0491 96.7859 56.9577 96.7441 56.8714C96.6791 56.8267 96.6012 56.8076 96.5232 56.8161H96.2266L96.2742 56.4678Z" fill="#1B4176"/>
<path d="M101.723 55.1175V54.7051H104.069C104.429 54.6922 104.789 54.7418 105.134 54.8498C105.397 54.9512 105.615 55.1369 105.759 55.3744C106.059 55.8839 106.084 56.5056 105.827 57.0367C105.726 57.2374 105.58 57.4145 105.399 57.5526C105.227 57.6714 105.03 57.7534 104.822 57.7901C104.573 57.8333 104.322 57.8592 104.069 57.8678H103.004V59.6618C102.991 59.7676 103.02 59.8734 103.082 59.9575C103.203 60.018 103.338 60.0417 103.473 60.0245H103.658V60.4368H101.703V60.0245H101.851C101.979 60.0396 102.11 60.0115 102.222 59.9489C102.275 59.8453 102.295 59.7287 102.28 59.6143V55.4802C102.295 55.3701 102.271 55.2578 102.211 55.165C102.101 55.1067 101.975 55.0829 101.851 55.098L101.723 55.1175ZM103.002 57.3713H103.844C104.23 57.4058 104.617 57.3065 104.937 57.0928C105.169 56.8963 105.293 56.6027 105.269 56.3005C105.286 56.0026 105.176 55.709 104.966 55.4888C104.692 55.2751 104.341 55.1714 103.989 55.2038H103.013L103.002 57.3713Z" fill="#1B4176"/>
<path d="M107.203 54.7031H109.101V55.1089H108.912C108.76 55.1089 108.666 55.1089 108.627 55.1556C108.582 55.1832 108.556 55.2342 108.561 55.2873C108.574 55.3865 108.599 55.4835 108.636 55.5784L110.002 59.449L111.368 55.691C111.414 55.5862 111.443 55.4764 111.454 55.3617C111.458 55.2937 111.43 55.2278 111.379 55.1832C111.286 55.1379 111.188 55.1188 111.085 55.1259H110.933V54.7223H112.698V55.1259H112.526C112.43 55.1237 112.333 55.1493 112.252 55.2024C112.153 55.3185 112.083 55.4502 112.042 55.5975L110.296 60.4368H109.622L107.915 55.6633C107.871 55.4891 107.792 55.3319 107.679 55.1917C107.591 55.1365 107.486 55.1153 107.383 55.1259H107.214L107.203 54.7031Z" fill="#1B4176"/>
<path d="M118.168 54.942V56.2171H117.591C117.606 55.9541 117.582 55.6961 117.519 55.4431C117.432 55.313 117.306 55.2128 117.161 55.1595C116.894 55.0443 116.609 54.9868 116.319 54.9889C115.787 54.9783 115.281 55.2128 114.937 55.6307C114.542 56.1403 114.346 56.7821 114.389 57.4325C114.352 58.0722 114.551 58.7033 114.948 59.1959C115.287 59.6074 115.785 59.8419 116.311 59.8377C116.646 59.8334 116.977 59.7673 117.289 59.6394C117.626 59.5285 117.936 59.3494 118.203 59.1127V59.8014C117.932 60.021 117.622 60.1852 117.289 60.2812C116.946 60.3864 116.595 60.4397 116.236 60.4411C115.765 60.4475 115.299 60.3196 114.892 60.0744C114.493 59.8227 114.174 59.4539 113.978 59.0167C113.765 58.5413 113.657 58.0231 113.665 57.4986C113.647 56.7992 113.845 56.1105 114.234 55.5369C114.722 54.8354 115.518 54.4367 116.356 54.4708C116.687 54.4736 117.013 54.5148 117.335 54.5944C117.628 54.6712 117.906 54.7871 118.168 54.942Z" fill="#1B4176"/>
<path d="M122.5 54.7031H124.352V55.1102H124.092C123.981 55.1102 123.908 55.1102 123.87 55.1571C123.833 55.1891 123.812 55.2381 123.814 55.2893C123.817 55.3887 123.832 55.4861 123.86 55.5813L124.86 59.3519L126.073 54.7223H126.73L127.923 59.3519L128.904 55.7028C128.943 55.5905 128.965 55.4747 128.969 55.3554C128.973 55.2893 128.946 55.2253 128.896 55.1848C128.806 55.1358 128.701 55.1145 128.599 55.1273H128.433V54.7223H130.145V55.1273H130.034C129.906 55.1209 129.779 55.1571 129.672 55.2317C129.557 55.3724 129.482 55.5408 129.45 55.722L128.174 60.4368H127.517L126.322 55.7987L125.119 60.4368H124.435L123.203 55.722C123.172 55.5429 123.096 55.3745 122.981 55.2317C122.891 55.1657 122.778 55.1358 122.667 55.1465H122.519L122.5 54.7031Z" fill="#1B4176"/>
<path d="M131.578 54.7031H133.489V55.1156H133.341C133.208 55.0983 133.073 55.1286 132.96 55.1998C132.905 55.3229 132.883 55.459 132.9 55.5929V59.6723C132.9 59.8148 132.9 59.9099 132.969 59.9487C133.082 60.0114 133.213 60.0394 133.341 60.0243H133.489V60.4368H131.578V60.0243H131.755C131.941 60.0243 132.048 60.0243 132.096 59.9574C132.151 59.835 132.171 59.7076 132.156 59.5751V55.392C132.167 55.31 132.138 55.2279 132.079 55.1717C131.975 55.1228 131.868 55.1041 131.755 55.1156H131.578V54.7031Z" fill="#1B4176"/>
<path d="M134.914 54.7031H136.595L139.244 59.2964V55.4023C139.252 55.3191 139.224 55.236 139.167 55.1763C139.059 55.1188 138.939 55.0953 138.818 55.1102H138.671V54.7031H140.409V55.1102H140.224C140.06 55.1102 139.944 55.1102 139.904 55.1763C139.845 55.2808 139.821 55.4044 139.836 55.5238V60.4368H139.119L136.108 55.2509V59.5309C136.095 59.6439 136.114 59.759 136.167 59.8613C136.215 59.9252 136.332 59.9565 136.516 59.9551H136.681V60.3622H134.954V59.9551H135.166C135.322 59.9551 135.419 59.9551 135.469 59.8805C135.522 59.7597 135.541 59.6339 135.526 59.5032V55.4683C135.539 55.3639 135.518 55.2594 135.469 55.1657C135.41 55.1166 135.333 55.0932 135.254 55.0996H134.954L134.914 54.7031Z" fill="#1B4176"/>
<path d="M141.844 54.7073H144.257C144.788 54.6815 145.319 54.7762 145.808 54.985C146.214 55.1938 146.543 55.5254 146.749 55.9366C146.989 56.4339 147.108 56.9829 147.095 57.5362C147.14 58.3909 146.828 59.2241 146.231 59.8312C145.742 60.2575 145.109 60.4728 144.465 60.4319H141.861V60.0228H142.058C142.228 60.0228 142.332 60.0228 142.379 59.9281C142.422 59.8104 142.437 59.6891 142.426 59.5642V55.4328C142.433 55.3467 142.414 55.267 142.368 55.1938C142.279 55.14 142.173 55.1163 142.069 55.1271H141.871L141.844 54.7073ZM143.121 55.2218V59.9173H144.259C144.458 59.913 144.654 59.8936 144.85 59.8592C145.041 59.8362 145.22 59.776 145.387 59.6784C145.581 59.5599 145.746 59.4006 145.876 59.2112C146.025 59.0002 146.133 58.7612 146.195 58.5072C146.274 58.1943 146.311 57.8771 146.307 57.5556C146.326 57.0755 146.229 56.5975 146.025 56.1648C145.87 55.8397 145.606 55.5814 145.283 55.4307C144.918 55.2778 144.523 55.2068 144.128 55.2218H143.121Z" fill="#1B4176"/>
<path d="M148.544 57.4946C148.497 56.6776 148.776 55.8734 149.32 55.2591C150.422 54.2053 152.165 54.2053 153.267 55.2591C154.289 56.5347 154.289 58.3436 153.267 59.6192C152.755 60.161 152.032 60.4597 151.284 60.4405C150.57 60.4533 149.882 60.1674 149.387 59.6555C148.823 59.0816 148.516 58.3009 148.544 57.4946ZM149.32 57.4285C149.269 58.0855 149.462 58.7361 149.863 59.2608C150.225 59.6619 150.75 59.8837 151.295 59.8645C151.828 59.8752 152.341 59.6469 152.688 59.2416C153.091 58.6977 153.286 58.0279 153.237 57.3538C153.284 56.7203 153.091 56.091 152.697 55.5897C151.966 54.8068 150.735 54.7642 149.951 55.4916C149.916 55.5229 149.883 55.5556 149.852 55.5897C149.453 56.1166 149.267 56.7736 149.331 57.4285H149.32Z" fill="#1B4176"/>
<path d="M154.984 54.7031H156.903V55.1102H156.643C156.528 55.1102 156.452 55.1102 156.413 55.1571C156.374 55.1891 156.353 55.2381 156.357 55.2893C156.348 55.3859 156.348 55.4832 156.357 55.5813L157.391 59.3519L158.657 54.7223H159.33L160.568 59.3519L161.593 55.7028C161.626 55.5891 161.645 55.4733 161.65 55.3554C161.658 55.2914 161.632 55.2275 161.585 55.1848C161.488 55.1365 161.385 55.1173 161.277 55.1273H161.095V54.7223H162.868V55.1273H162.753C162.621 55.1209 162.489 55.1571 162.38 55.2317C162.259 55.3724 162.181 55.5408 162.15 55.722L160.834 60.4368H160.145L158.918 55.7987L157.66 60.4368H156.96L155.676 55.722C155.641 55.5429 155.563 55.3745 155.444 55.2317C155.351 55.1657 155.234 55.1358 155.119 55.1465H154.984V54.7031Z" fill="#1B4176"/>
<path d="M167.45 54.8272V56.0826H166.901V55.8545C166.914 55.6783 166.892 55.5057 166.836 55.3366C166.75 55.2215 166.634 55.132 166.499 55.083C166.304 54.9977 166.091 54.9572 165.877 54.9594C165.61 54.9423 165.347 55.0297 165.143 55.2045C164.971 55.3579 164.872 55.5775 164.872 55.8077C164.87 56.0251 164.95 56.2339 165.095 56.3938C165.433 56.6879 165.812 56.9287 166.222 57.1099C166.498 57.2421 166.764 57.3927 167.021 57.5618C167.206 57.7046 167.361 57.8857 167.477 58.0903C167.593 58.3099 167.649 58.5571 167.645 58.8065C167.66 59.2498 167.481 59.6761 167.16 59.9766C166.781 60.3048 166.291 60.471 165.793 60.4369C165.48 60.4384 165.171 60.4107 164.864 60.3538C164.589 60.2998 164.322 60.2181 164.062 60.1087V58.685H164.649V58.9962C164.639 59.1816 164.679 59.367 164.761 59.5333C164.855 59.6739 164.992 59.7784 165.152 59.8338C165.362 59.9119 165.579 59.9496 165.803 59.9467C166.106 59.9638 166.407 59.8636 166.64 59.6654C166.84 59.4821 166.951 59.2199 166.947 58.9471C166.951 58.7191 166.88 58.4974 166.741 58.3162C166.472 58.0541 166.157 57.8431 165.812 57.6939C165.492 57.5333 165.182 57.3543 164.882 57.1568C164.676 57.0076 164.504 56.8137 164.38 56.592C164.262 56.3916 164.201 56.1636 164.203 55.9313C164.203 55.6776 164.273 55.4283 164.407 55.2151C164.554 54.9743 164.767 54.7846 165.021 54.6674C165.311 54.531 165.631 54.4628 165.951 54.4692C166.213 54.4748 166.471 54.5097 166.724 54.5736C166.977 54.6247 167.218 54.7093 167.45 54.8272Z" fill="#1B4176"/>
<path d="M175.727 24.4387H175.055V24.125H176.727V24.4387H176.055V26.2751H175.727V24.4387Z" fill="#424143"/>
<path d="M179.187 24.6605L178.413 25.676H178.336L177.563 24.6605V26.2751H177.195V24.125H177.65L178.413 25.1324L179.158 24.125H179.584V26.2751H179.215L179.187 24.6605Z" fill="#424143"/>
<path d="M177.327 28.9099C175.282 28.9099 173.625 27.2525 173.625 25.2059C173.625 23.1613 175.282 21.5039 177.327 21.5039C179.374 21.5039 181.031 23.1613 181.031 25.2059C181.031 27.2525 179.374 28.9099 177.327 28.9099ZM177.327 21.7174C175.379 21.7174 173.801 23.2953 173.801 25.2435C173.801 27.1918 175.379 28.7718 177.327 28.7718C179.275 28.7718 180.855 27.1918 180.855 25.2435C180.849 23.2973 179.273 21.7215 177.327 21.7174Z" fill="#424143"/>
</g>
<defs>
<filter id="filter0_d_484_110" x="0" y="0" width="191" height="78" filterUnits="userSpaceOnUse" color-interpolation-filters="sRGB">
<feFlood flood-opacity="0" result="BackgroundImageFix"/>
<feColorMatrix in="SourceAlpha" type="matrix" values="0 0 0 0 0 0 0 0 0 0 0 0 0 0 0 0 0 0 127 0" result="hardAlpha"/>
<feOffset dy="4"/>
<feGaussianBlur stdDeviation="2"/>
<feComposite in2="hardAlpha" operator="out"/>
<feColorMatrix type="matrix" values="0 0 0 0 0 0 0 0 0 0 0 0 0 0 0 0 0 0 0.25 0"/>
<feBlend mode="normal" in2="BackgroundImageFix" result="effect1_dropShadow_484_110"/>
<feBlend mode="normal" in="SourceGraphic" in2="effect1_dropShadow_484_110" result="shape"/>
</filter>
</defs>
</svg>
