<svg width="50" height="50" viewBox="0 0 50 50" fill="none" xmlns="http://www.w3.org/2000/svg">
<g clip-path="url(#clip0_392_4824)">
<path d="M17.459 23.0766H10.7422C9.9425 23.0766 9.26267 22.7963 8.70288 22.2353C8.14341 21.6743 7.8633 20.9933 7.8633 20.1918V19.2307C7.8633 17.1071 8.61308 15.2944 10.1125 13.7918C11.6119 12.2897 13.4212 11.5384 15.5401 11.5384H17.459C17.9786 11.5384 18.4283 11.348 18.8082 10.9675C19.188 10.5869 19.3779 10.1363 19.3779 9.61546V5.76895C19.3779 5.2482 19.1879 4.79723 18.8082 4.41655C18.4284 4.03641 17.9788 3.8457 17.459 3.8457H15.5401C13.4609 3.8457 11.4772 4.25174 9.58793 5.06265C7.69883 5.87409 6.06484 6.97096 4.68533 8.35336C3.30592 9.73512 2.21166 11.3726 1.40202 13.2659C0.592374 15.1589 0.1875 17.1472 0.1875 19.2306V40.3839C0.1875 41.9873 0.746972 43.3488 1.86644 44.471C2.98602 45.5926 4.34568 46.1533 5.9448 46.1533H17.4597C19.0587 46.1533 20.418 45.5926 21.5377 44.471C22.6569 43.3488 23.2167 41.9873 23.2167 40.3839V28.846C23.2167 27.2429 22.6569 25.8814 21.5369 24.7591C20.4178 23.6376 19.058 23.0766 17.459 23.0766Z" fill="black" fill-opacity="0.08"/>
<path d="M48.4046 24.7591C47.2855 23.6376 45.9261 23.0766 44.3267 23.0766H37.61C36.8107 23.0766 36.1303 22.7963 35.5714 22.2353C35.0114 21.6743 34.7319 20.9933 34.7319 20.1918V19.2307C34.7319 17.1071 35.4816 15.2944 36.9804 13.7918C38.4792 12.2897 40.2883 11.5384 42.4083 11.5384H44.3268C44.8466 11.5384 45.2965 11.348 45.6762 10.9675C46.0556 10.5869 46.2462 10.1363 46.2462 9.61546V5.76895C46.2462 5.2482 46.0557 4.79723 45.6762 4.41655C45.2966 4.03641 44.8467 3.8457 44.3268 3.8457H42.4083C40.3279 3.8457 38.3447 4.25174 36.4549 5.06265C34.5661 5.87409 32.9327 6.97096 31.5531 8.35336C30.1736 9.73512 29.0788 11.3726 28.2695 13.2659C27.4601 15.1589 27.0547 17.1472 27.0547 19.2306V40.3839C27.0547 41.9873 27.6147 43.3488 28.7338 44.471C29.8531 45.5926 31.2124 46.1533 32.8118 46.1533H44.3261C45.9255 46.1533 47.2847 45.5926 48.4039 44.471C49.5239 43.3488 50.0827 41.9873 50.0827 40.3839V28.846C50.0828 27.2428 49.5239 25.8814 48.4046 24.7591Z" fill="black" fill-opacity="0.08"/>
</g>
<defs>
<clipPath id="clip0_392_4824">
<rect width="50" height="50" fill="white"/>
</clipPath>
</defs>
</svg>
