<svg width="164" height="40" viewBox="0 0 164 40" fill="none" xmlns="http://www.w3.org/2000/svg">
<g clip-path="url(#clip0_392_4829)">
<path d="M48.5723 28.0911H60.2851V24.5789H52.7353V11.3496H48.5723V28.0911Z" fill="black"/>
<path d="M67.2236 25.75C65.5537 25.75 64.6835 24.2983 64.6835 22.1208C64.6835 19.9432 65.5537 18.4681 67.2236 18.4681C68.8935 18.4681 69.7873 19.9432 69.7873 22.1208C69.7873 24.2983 68.8935 25.75 67.2236 25.75ZM67.2471 28.4661C71.1279 28.4661 73.668 25.7266 73.668 22.1208C73.668 18.5149 71.1279 15.7754 67.2471 15.7754C63.3899 15.7754 60.8027 18.5149 60.8027 22.1208C60.8027 25.7266 63.3899 28.4661 67.2471 28.4661Z" fill="black"/>
<path d="M80.3867 32.2359C82.1742 32.2359 83.75 31.8378 84.8084 30.9012C85.7727 30.0349 86.4078 28.7237 86.4078 26.9207V16.1032H82.7387V17.391H82.6916C81.986 16.3841 80.9041 15.752 79.3048 15.752C76.3178 15.752 74.248 18.2339 74.248 21.7461C74.248 25.4222 76.7647 27.4359 79.4694 27.4359C80.9277 27.4359 81.8449 26.8505 82.5505 26.0544H82.6446V27.2485C82.6446 28.7002 81.9625 29.5432 80.3397 29.5432C79.0696 29.5432 78.4346 29.0046 78.2229 28.3724H74.5068C74.8831 30.8778 77.0704 32.2359 80.3867 32.2359ZM80.3632 24.6027C78.9285 24.6027 77.9877 23.432 77.9877 21.629C77.9877 19.8027 78.9285 18.632 80.3632 18.632C81.9625 18.632 82.8092 19.99 82.8092 21.6056C82.8092 23.2915 82.0331 24.6027 80.3632 24.6027Z" fill="black"/>
<path d="M93.9521 25.75C92.2822 25.75 91.412 24.2983 91.412 22.1208C91.412 19.9432 92.2822 18.4681 93.9521 18.4681C95.622 18.4681 96.5158 19.9432 96.5158 22.1208C96.5158 24.2983 95.622 25.75 93.9521 25.75ZM93.9757 28.4661C97.8564 28.4661 100.397 25.7266 100.397 22.1208C100.397 18.5149 97.8564 15.7754 93.9757 15.7754C90.1184 15.7754 87.5312 18.5149 87.5312 22.1208C87.5312 25.7266 90.1184 28.4661 93.9757 28.4661Z" fill="black"/>
<path d="M101.515 28.0911H105.349V16.1028H101.515V28.0911ZM101.515 14.4403H105.349V11.3496H101.515V14.4403Z" fill="black"/>
<path d="M107.012 32.0485H110.845V26.8505H110.892C111.645 27.8573 112.751 28.4661 114.303 28.4661C117.454 28.4661 119.548 25.9841 119.548 22.0973C119.548 18.4915 117.596 15.752 114.397 15.752C112.751 15.752 111.575 16.4778 110.751 17.5549H110.681V16.1032H107.012V32.0485ZM113.315 25.5159C111.669 25.5159 110.728 24.1812 110.728 22.2378C110.728 20.2944 111.575 18.8193 113.244 18.8193C114.891 18.8193 115.667 20.1773 115.667 22.2378C115.667 24.2749 114.773 25.5159 113.315 25.5159Z" fill="black"/>
<path d="M125.79 28.4661C128.942 28.4661 131.27 27.1081 131.27 24.4856C131.27 21.4183 128.777 20.8798 126.66 20.5285C125.131 20.2476 123.767 20.1305 123.767 19.2876C123.767 18.5383 124.496 18.1871 125.437 18.1871C126.496 18.1871 127.225 18.5149 127.366 19.592H130.894C130.706 17.2271 128.871 15.752 125.461 15.752C122.615 15.752 120.263 17.0632 120.263 19.592C120.263 22.4017 122.497 22.9637 124.591 23.3149C126.19 23.5959 127.648 23.7129 127.648 24.79C127.648 25.5627 126.919 25.9841 125.766 25.9841C124.496 25.9841 123.697 25.3988 123.556 24.2046H119.934C120.051 26.8505 122.262 28.4661 125.79 28.4661Z" fill="black"/>
<path d="M136.477 28.4421C138.147 28.4421 139.206 27.7864 140.076 26.6157H140.147V28.0908H143.816V16.1025H139.982V22.7991C139.982 24.2274 139.182 25.2108 137.865 25.2108C136.642 25.2108 136.054 24.485 136.054 23.1738V16.1025H132.244V23.9699C132.244 26.6391 133.702 28.4421 136.477 28.4421Z" fill="black"/>
<path d="M145.484 28.0915H149.318V21.3715C149.318 19.9432 150.024 18.9363 151.223 18.9363C152.376 18.9363 152.917 19.6856 152.917 20.9734V28.0915H156.75V21.3715C156.75 19.9432 157.432 18.9363 158.655 18.9363C159.808 18.9363 160.349 19.6856 160.349 20.9734V28.0915H164.183V20.2944C164.183 17.6017 162.818 15.752 160.09 15.752C158.538 15.752 157.244 16.4076 156.303 17.8593H156.256C155.645 16.5715 154.445 15.752 152.87 15.752C151.129 15.752 149.977 16.5715 149.224 17.8124H149.153V16.1032H145.484V28.0915Z" fill="black"/>
<path fill-rule="evenodd" clip-rule="evenodd" d="M9.39526 3.79625C7.99323 4.77221 6.72542 5.92611 5.62484 7.22506C10.1223 6.80938 15.8362 7.48813 22.4699 10.7902C29.5539 14.3163 35.2582 14.4355 39.2281 13.6731C38.8679 12.5874 38.4144 11.5439 37.8772 10.5519C33.3327 11.029 27.5067 10.3974 20.7169 7.01782C16.4054 4.87167 12.6048 3.9876 9.39526 3.79625ZM35.2225 6.79018C31.6337 2.79832 26.4183 0.286133 20.6134 0.286133C18.9087 0.286133 17.2547 0.502823 15.6779 0.910016C17.8135 1.49012 20.0822 2.3388 22.4699 3.52737C27.441 6.00177 31.7328 6.79848 35.2225 6.79018ZM40.0769 17.4843C35.2808 18.4271 28.658 18.2334 20.7169 14.2806C13.2929 10.5852 7.38403 10.6318 3.39887 11.5134C3.19317 11.5589 2.99231 11.6067 2.7963 11.6565C2.27455 12.7861 1.85806 13.974 1.55923 15.2076C1.8784 15.1227 2.20821 15.042 2.54849 14.9667C7.38319 13.8971 14.2142 13.9436 22.4699 18.053C29.894 21.7485 35.8029 21.7019 39.7881 20.8203C39.9246 20.7901 40.0592 20.7589 40.1915 20.7267C40.206 20.4191 40.2132 20.1095 40.2132 19.7983C40.2132 19.0154 40.167 18.2432 40.0769 17.4843ZM39.5515 24.8445C34.802 25.6711 28.372 25.3538 20.7169 21.5435C13.2929 17.8481 7.38403 17.8946 3.39887 18.7763C2.51428 18.9719 1.71852 19.2102 1.01654 19.4618C1.01463 19.5737 1.01367 19.6859 1.01367 19.7983C1.01367 30.5746 9.78879 39.3105 20.6134 39.3105C29.6853 39.3105 37.3177 33.1748 39.5515 24.8445Z" fill="url(#paint0_linear_392_4829)"/>
</g>
<defs>
<linearGradient id="paint0_linear_392_4829" x1="1.01367" y1="19.7983" x2="40.2132" y2="19.7983" gradientUnits="userSpaceOnUse">
<stop stop-color="#BDAD7B"/>
<stop offset="1" stop-color="#615328"/>
</linearGradient>
<clipPath id="clip0_392_4829">
<rect width="164" height="40" fill="white"/>
</clipPath>
</defs>
</svg>
