<svg width="165" height="40" viewBox="0 0 165 40" fill="none" xmlns="http://www.w3.org/2000/svg">
<g clip-path="url(#clip0_465_37215)">
<path d="M48.3984 28.2462H60.137V24.7341H52.5706V11.5048H48.3984V28.2462Z" fill="black"/>
<path d="M67.0912 25.9048C65.4177 25.9048 64.5455 24.4531 64.5455 22.2755C64.5455 20.0979 65.4177 18.6228 67.0912 18.6228C68.7648 18.6228 69.6605 20.0979 69.6605 22.2755C69.6605 24.4531 68.7648 25.9048 67.0912 25.9048ZM67.1148 28.6209C71.0041 28.6209 73.5498 25.8814 73.5498 22.2755C73.5498 18.6697 71.0041 15.9301 67.1148 15.9301C63.2491 15.9301 60.6562 18.6697 60.6562 22.2755C60.6562 25.8814 63.2491 28.6209 67.1148 28.6209Z" fill="black"/>
<path d="M80.281 32.3906C82.0725 32.3906 83.6518 31.9926 84.7125 31.056C85.6789 30.1897 86.3153 28.8784 86.3153 27.0755V16.258H82.6382V17.5458H82.5911C81.8839 16.5389 80.7996 15.9067 79.1968 15.9067C76.2032 15.9067 74.1289 18.3887 74.1289 21.9009C74.1289 25.577 76.6511 27.5906 79.3618 27.5906C80.8232 27.5906 81.7425 27.0053 82.4496 26.2092H82.5439V27.4033C82.5439 28.855 81.8603 29.6979 80.2339 29.6979C78.9611 29.6979 78.3246 29.1594 78.1125 28.5272H74.3882C74.7653 31.0326 76.9575 32.3906 80.281 32.3906ZM80.2575 24.7575C78.8196 24.7575 77.8768 23.5867 77.8768 21.7838C77.8768 19.9575 78.8196 18.7867 80.2575 18.7867C81.8603 18.7867 82.7089 20.1448 82.7089 21.7604C82.7089 23.4462 81.9311 24.7575 80.2575 24.7575Z" fill="black"/>
<path d="M93.8764 25.9048C92.2028 25.9048 91.3307 24.4531 91.3307 22.2755C91.3307 20.0979 92.2028 18.6228 93.8764 18.6228C95.55 18.6228 96.4457 20.0979 96.4457 22.2755C96.4457 24.4531 95.55 25.9048 93.8764 25.9048ZM93.9 28.6209C97.7893 28.6209 100.334 25.8814 100.334 22.2755C100.334 18.6697 97.7893 15.9301 93.9 15.9301C90.0343 15.9301 87.4414 18.6697 87.4414 22.2755C87.4414 25.8814 90.0343 28.6209 93.9 28.6209Z" fill="black"/>
<path d="M101.457 28.2462H105.299V16.258H101.457V28.2462ZM101.457 14.5955H105.299V11.5048H101.457V14.5955Z" fill="black"/>
<path d="M106.965 32.2033H110.807V27.0053H110.854C111.608 28.0121 112.716 28.6209 114.272 28.6209C117.431 28.6209 119.528 26.1389 119.528 22.2521C119.528 18.6462 117.572 15.9067 114.366 15.9067C112.716 15.9067 111.538 16.6326 110.713 17.7097H110.642V16.258H106.965V32.2033ZM113.282 25.6706C111.632 25.6706 110.689 24.336 110.689 22.3926C110.689 20.4492 111.538 18.974 113.211 18.974C114.861 18.974 115.639 20.3321 115.639 22.3926C115.639 24.4297 114.743 25.6706 113.282 25.6706Z" fill="black"/>
<path d="M125.783 28.6209C128.942 28.6209 131.275 27.2628 131.275 24.6404C131.275 21.5731 128.777 21.0345 126.655 20.6833C125.123 20.4023 123.756 20.2853 123.756 19.4423C123.756 18.6931 124.487 18.3419 125.43 18.3419C126.49 18.3419 127.221 18.6697 127.363 19.7467H130.898C130.71 17.3819 128.871 15.9067 125.453 15.9067C122.601 15.9067 120.244 17.218 120.244 19.7467C120.244 22.5565 122.483 23.1184 124.581 23.4697C126.184 23.7506 127.645 23.8677 127.645 24.9448C127.645 25.7175 126.915 26.1389 125.76 26.1389C124.487 26.1389 123.685 25.5536 123.544 24.3594H119.914C120.032 27.0053 122.248 28.6209 125.783 28.6209Z" fill="black"/>
<path d="M136.497 28.5975C138.17 28.5975 139.231 27.9419 140.103 26.7711H140.174V28.2462H143.851V16.2579H140.009V22.9545C140.009 24.3828 139.207 25.3662 137.887 25.3662C136.662 25.3662 136.072 24.6404 136.072 23.3292V16.2579H132.254V24.1253C132.254 26.7945 133.715 28.5975 136.497 28.5975Z" fill="black"/>
<path d="M145.523 28.2462H149.366V21.5262C149.366 20.098 150.073 19.0911 151.275 19.0911C152.43 19.0911 152.972 19.8404 152.972 21.1282V28.2462H156.814V21.5262C156.814 20.098 157.498 19.0911 158.723 19.0911C159.878 19.0911 160.421 19.8404 160.421 21.1282V28.2462H164.263V20.4492C164.263 17.7565 162.896 15.9067 160.161 15.9067C158.606 15.9067 157.309 16.5623 156.366 18.014H156.319C155.706 16.7262 154.504 15.9067 152.925 15.9067C151.181 15.9067 150.026 16.7262 149.271 17.9672H149.201V16.258H145.523V28.2462Z" fill="black"/>
<path d="M24.9569 1.92868L21.0942 0.90052L17.839 12.9684L14.9001 2.07344L11.0372 3.10159L14.2125 14.8728L6.30365 7.0166L3.47587 9.82556L12.1509 18.4429L1.34754 15.5674L0.3125 19.4045L12.1165 22.5463C11.9814 21.9673 11.9099 21.364 11.9099 20.7441C11.9099 16.3562 15.4907 12.7991 19.908 12.7991C24.3253 12.7991 27.9062 16.3562 27.9062 20.7441C27.9062 21.36 27.8356 21.9596 27.7021 22.5352L38.4298 25.3905L39.4648 21.5535L27.6138 18.3991L38.4179 15.5234L37.3828 11.6863L25.5324 14.8405L33.4412 6.98434L30.6134 4.17538L22.0587 12.6732L24.9569 1.92868Z" fill="url(#paint0_linear_465_37215)"/>
<path d="M27.6889 22.5799C27.3578 23.9707 26.6586 25.2202 25.6992 26.2213L33.4709 33.9414L36.2987 31.1324L27.6889 22.5799Z" fill="url(#paint1_linear_465_37215)"/>
<path d="M25.6208 26.302C24.6498 27.2871 23.4229 28.0222 22.0469 28.4011L24.8749 38.885L28.7376 37.8568L25.6208 26.302Z" fill="url(#paint2_linear_465_37215)"/>
<path d="M21.9063 28.4394C21.2679 28.6024 20.5987 28.6891 19.9092 28.6891C19.1704 28.6891 18.455 28.5896 17.7758 28.4033L14.9453 38.8968L18.8081 39.9249L21.9063 28.4394Z" fill="url(#paint3_linear_465_37215)"/>
<path d="M17.638 28.3646C16.2831 27.9669 15.0779 27.2224 14.1268 26.2345L6.33594 33.9736L9.16371 36.7825L17.638 28.3646Z" fill="url(#paint4_linear_465_37215)"/>
<path d="M14.0619 26.1661C13.1271 25.172 12.4462 23.9392 12.122 22.5699L1.35938 25.4345L2.39441 29.2716L14.0619 26.1661Z" fill="url(#paint5_linear_465_37215)"/>
</g>
<defs>
<linearGradient id="paint0_linear_465_37215" x1="0.3125" y1="13.1455" x2="39.4648" y2="13.1455" gradientUnits="userSpaceOnUse">
<stop stop-color="#BDAD7B"/>
<stop offset="1" stop-color="#615328"/>
</linearGradient>
<linearGradient id="paint1_linear_465_37215" x1="25.6992" y1="28.2606" x2="36.2987" y2="28.2606" gradientUnits="userSpaceOnUse">
<stop stop-color="#BDAD7B"/>
<stop offset="1" stop-color="#615328"/>
</linearGradient>
<linearGradient id="paint2_linear_465_37215" x1="22.0469" y1="32.5935" x2="28.7376" y2="32.5935" gradientUnits="userSpaceOnUse">
<stop stop-color="#BDAD7B"/>
<stop offset="1" stop-color="#615328"/>
</linearGradient>
<linearGradient id="paint3_linear_465_37215" x1="14.9453" y1="34.1641" x2="21.9063" y2="34.1641" gradientUnits="userSpaceOnUse">
<stop stop-color="#BDAD7B"/>
<stop offset="1" stop-color="#615328"/>
</linearGradient>
<linearGradient id="paint4_linear_465_37215" x1="6.33594" y1="31.5085" x2="17.638" y2="31.5085" gradientUnits="userSpaceOnUse">
<stop stop-color="#BDAD7B"/>
<stop offset="1" stop-color="#615328"/>
</linearGradient>
<linearGradient id="paint5_linear_465_37215" x1="1.35937" y1="25.9207" x2="14.0619" y2="25.9207" gradientUnits="userSpaceOnUse">
<stop stop-color="#BDAD7B"/>
<stop offset="1" stop-color="#615328"/>
</linearGradient>
<clipPath id="clip0_465_37215">
<rect width="165" height="40" fill="white"/>
</clipPath>
</defs>
</svg>
