<svg xmlns="http://www.w3.org/2000/svg" version="1.1" xmlns:xlink="http://www.w3.org/1999/xlink" width="512" height="512" x="0" y="0" viewBox="0 0 512 512" style="enable-background:new 0 0 512 512" xml:space="preserve" class=""><g><path d="M503.465 494.934h-8.531V25.602C494.934 11.46 483.473 0 469.332 0H42.668c-14.14 0-25.602 11.46-25.602 25.602v469.332h-8.53a8.533 8.533 0 1 0 0 17.066h494.929a8.534 8.534 0 1 0 0-17.066zM68.265 51.199h375.47v443.735H68.264zm380.47-17.066H63.264L46.2 17.066h419.602zm-414.602-5 17.066 17.066v448.735H34.133zm426.668 465.8V46.2l17.066-17.066v465.8zm0 0" fill="#ed1a3b" opacity="1" data-original="#000000" class=""></path><path d="M238.934 68.266H93.867a8.534 8.534 0 0 0-8.535 8.535v392.531a8.534 8.534 0 0 0 8.535 8.535h145.067c4.71 0 8.53-3.82 8.53-8.535V76.801a8.533 8.533 0 0 0-8.53-8.535zM230.398 460.8h-128V85.332h128zM418.133 68.266H273.066a8.533 8.533 0 0 0-8.53 8.535v392.531a8.533 8.533 0 0 0 8.53 8.535h145.067a8.534 8.534 0 0 0 8.535-8.535V76.801a8.534 8.534 0 0 0-8.535-8.535zM409.602 460.8h-128V85.332h128zm0 0" fill="#ed1a3b" opacity="1" data-original="#000000" class=""></path><path d="M309.7 287.633a8.534 8.534 0 0 0 12.066-12.066L304.699 258.5a8.53 8.53 0 0 0-11.96.105 8.53 8.53 0 0 0-.106 11.961zM190.234 287.633a8.532 8.532 0 0 0 12.067 0l17.066-17.067a8.53 8.53 0 0 0-.105-11.96 8.53 8.53 0 0 0-11.961-.106l-17.067 17.066a8.532 8.532 0 0 0 0 12.067zM119.465 128a8.53 8.53 0 0 0 6.035-2.5l17.066-17.066a8.53 8.53 0 0 0-.105-11.961 8.53 8.53 0 0 0-11.961-.106l-17.066 17.067a8.528 8.528 0 0 0-1.848 9.296 8.526 8.526 0 0 0 7.879 5.27zM119.465 170.668a8.546 8.546 0 0 0 6.035-2.5l59.734-59.734a8.53 8.53 0 0 0-.105-11.961 8.53 8.53 0 0 0-11.961-.106l-59.734 59.735a8.527 8.527 0 0 0-1.848 9.296 8.538 8.538 0 0 0 7.879 5.27zM298.668 128a8.52 8.52 0 0 0 6.031-2.5l17.067-17.066a8.534 8.534 0 0 0-12.067-12.067l-17.066 17.067A8.535 8.535 0 0 0 298.668 128zM298.668 170.668a8.537 8.537 0 0 0 6.031-2.5l59.735-59.734a8.53 8.53 0 0 0-.106-11.961 8.53 8.53 0 0 0-11.96-.106l-59.735 59.735a8.534 8.534 0 0 0 6.035 14.566zm0 0" fill="#ed1a3b" opacity="1" data-original="#000000" class=""></path></g></svg>