<svg xmlns="http://www.w3.org/2000/svg" version="1.1" xmlns:xlink="http://www.w3.org/1999/xlink" width="512" height="512" x="0" y="0" viewBox="0 0 60 60" style="enable-background:new 0 0 512 512" xml:space="preserve"><g><path fill="#ed1a3b" fill-rule="nonzero" d="M57 39a3 3 0 0 0 0-6h-3.29a11.177 11.177 0 0 0-6.151 1.625c1.8-7.478-2.152-16.668-8.424-21.386l1.411-3.748c.812-2.17.514-4.6-.8-6.508A6.875 6.875 0 0 0 34.08 0h-8.16a6.877 6.877 0 0 0-5.664 2.982 7.1 7.1 0 0 0-.8 6.511l1.411 3.746c-6.246 4.7-10.229 13.874-8.425 21.385A11.191 11.191 0 0 0 6.29 33H3a3 3 0 0 0 0 6h2v4.064A24.564 24.564 0 0 0 3 43a3 3 0 0 0 0 6c.43 0 1.014 0 1.4.014.113.164.243.36.341.507 1.918 2.89 5.081 5.32 9.671 7.429C20.56 59.78 27.9 60 30 60s9.439-.22 15.59-3.048a26.017 26.017 0 0 0 10.065-7.941C56.037 49 56.556 49 57 49a3 3 0 0 0 0-6c-.762 0-1.416 0-2 .04V39zM21.327 8.79A5 5 0 0 1 25.92 2h8.16a5 5 0 0 1 4.594 6.788L37.426 12.1a16.158 16.158 0 0 0-1.794-.911l1.161-3.1a2.99 2.99 0 0 0-.335-2.82A2.838 2.838 0 0 0 34.08 4h-8.16a2.83 2.83 0 0 0-2.37 1.258 2.991 2.991 0 0 0-.35 2.823l1.164 3.108c-.617.266-1.216.57-1.795.911zm4.926 1.729-1.18-3.148a1.018 1.018 0 0 1 .125-.979A.852.852 0 0 1 25.92 6h8.16c.296 0 .571.15.73.4.203.285.246.654.113.977l-1.176 3.14a13.776 13.776 0 0 0-7.494.002zM30 12c9.005 0 15.551 9.455 15.976 18a12.692 12.692 0 0 1-2.1 8.065C41.4 41.781 36.212 44 30 44c-6.247 0-11.434-2.216-13.89-5.953A12.634 12.634 0 0 1 14 30.43C14.218 20.8 21.729 12 30 12zM2 36a1 1 0 0 1 1-1h3.29a9.127 9.127 0 0 1 5.284 1.424 14.676 14.676 0 0 1 2.933 2.818C17.336 43.474 23.117 46 30 46c6.858 0 12.65-2.534 15.5-6.764a14.646 14.646 0 0 1 2.931-2.814A9.125 9.125 0 0 1 53.71 35H57a1 1 0 0 1 0 2h-3.29a7.169 7.169 0 0 0-4.138 1.067 14.336 14.336 0 0 0-3.312 3.481 14.253 14.253 0 0 1-5.676 4.5A27.872 27.872 0 0 1 30 48a27.866 27.866 0 0 1-10.579-1.947 14.254 14.254 0 0 1-5.679-4.5 14.325 14.325 0 0 0-3.312-3.482A7.165 7.165 0 0 0 6.29 37H3a1 1 0 0 1-1-1zm23 17.661v-4.044c1.325.196 2.66.317 4 .362v4a39.707 39.707 0 0 1-4-.318zm-12-9.838a16.1 16.1 0 0 0 4 3.223v4.489a26.284 26.284 0 0 1-4-2.219zm6 4.214c1.292.534 2.631.945 4 1.227v4.082a29.258 29.258 0 0 1-4-1.026zm12 1.942a35.437 35.437 0 0 0 4-.363v4.045a41.135 41.135 0 0 1-4 .322zm6-.716a22.169 22.169 0 0 0 4-1.226v4.284a29.215 29.215 0 0 1-4 1.025zm6-2.217a16.092 16.092 0 0 0 4-3.224v5.367a22.147 22.147 0 0 1-4 2.346zM7 39.034c.81.022 1.6.256 2.292.679.628.464 1.201.998 1.708 1.592v6.4a9.44 9.44 0 0 1-1.265-1.5A6.594 6.594 0 0 0 7 43.508zM58 46a1 1 0 0 1-1 1c-.768 0-1.561 0-1.977.044a1 1 0 0 0-.68.377 20.852 20.852 0 0 1-1.851 2.255 24.937 24.937 0 0 1-7.738 5.458C38.973 57.793 32 58 30 58s-8.973-.207-14.757-2.867C7.73 51.68 6.548 48.382 5.683 47.4a1 1 0 0 0-.565-.322A14.742 14.742 0 0 0 3 47a1 1 0 0 1 0-2c3.305 0 3.636.151 5.069 2.309 1.475 2.221 4.17 4.242 8.01 6.007C21.493 55.807 28.1 56 30 56s8.506-.193 13.918-2.683a22.011 22.011 0 0 0 8.591-6.779C53.652 45 54.1 45 57 45a1 1 0 0 1 1 1zm-7.1-.655A14.017 14.017 0 0 1 49 47.5v-6.195c.507-.595 1.08-1.13 1.71-1.594a4.648 4.648 0 0 1 2.29-.677v4.46a5.481 5.481 0 0 0-2.1 1.851z" opacity="1" data-original="#000000"></path></g></svg>