<svg xmlns="http://www.w3.org/2000/svg" version="1.1" xmlns:xlink="http://www.w3.org/1999/xlink" width="512" height="512" x="0" y="0" viewBox="0 0 512 512" style="enable-background:new 0 0 512 512" xml:space="preserve" class=""><g><path d="M497.563 254.898c11.836-23.416 6.935-51.211-12.196-69.167L457.6 159.669c-6.405-6.01-10.32-12.793-12.324-21.347l-8.687-37.076C430.606 75.7 408.984 57.557 382.786 56.1l-38.021-2.115c-8.771-.488-16.131-3.167-23.163-8.43l-30.486-22.82c-21.002-15.722-49.229-15.724-70.234 0l-30.486 22.819c-7.032 5.264-14.393 7.943-23.163 8.431L129.212 56.1c-26.197 1.457-47.819 19.6-53.803 45.146l-8.687 37.077c-2.003 8.553-5.919 15.336-12.323 21.347l-27.768 26.061C7.5 203.686 2.599 231.482 14.435 254.898l17.18 33.985c3.963 7.84 5.323 15.553 4.28 24.275l-4.52 37.812c-3.113 26.051 10.999 50.494 35.117 60.824l35.006 14.992c8.074 3.458 14.074 8.492 18.883 15.843l20.843 31.871c14.359 21.958 40.881 31.612 65.998 24.021l36.452-11.016c8.409-2.542 16.241-2.541 24.648 0l36.452 11.016a59.365 59.365 0 0 0 17.2 2.561c19.353-.001 37.706-9.62 48.798-26.582l20.844-31.871c4.808-7.351 10.808-12.386 18.882-15.844l35.006-14.992c24.118-10.33 38.231-34.773 35.117-60.824l-4.52-37.813c-1.043-8.721.317-16.435 4.28-24.274zm-31.459 26.768c-5.377 10.637-7.303 21.559-5.888 33.391l4.52 37.812c2.299 19.235-7.722 36.591-25.529 44.218l-35.006 14.992c-10.955 4.692-19.451 11.821-25.974 21.794l-20.844 31.871c-10.602 16.212-29.437 23.066-47.979 17.462l-36.452-11.016c-5.704-1.724-11.327-2.586-16.953-2.586-5.624 0-11.25.862-16.953 2.586l-36.452 11.016c-18.542 5.603-37.376-1.25-47.979-17.462l-20.843-31.871c-6.524-9.974-15.021-17.103-25.975-21.794l-35.006-14.992c-17.808-7.626-27.828-24.983-25.529-44.218l4.52-37.812c1.415-11.833-.511-22.755-5.888-33.392l-17.18-33.985c-8.738-17.289-5.259-37.025 8.866-50.283l27.768-26.061c8.689-8.155 14.234-17.76 16.952-29.364l8.687-37.077c4.418-18.861 19.771-31.744 39.113-32.819l38.021-2.115c11.899-.662 22.321-4.456 31.862-11.597l30.486-22.82c15.508-11.608 35.551-11.609 51.059 0l30.486 22.82c9.541 7.141 19.964 10.935 31.862 11.597l38.021 2.115c19.343 1.076 34.695 13.958 39.113 32.82l8.687 37.076c2.718 11.605 8.264 21.21 16.953 29.364l27.767 26.061c14.125 13.257 17.604 32.994 8.866 50.283zM256 92.454C165.82 92.454 92.454 165.82 92.454 256S165.82 419.546 256 419.546 419.546 346.18 419.546 256 346.18 92.454 256 92.454zm0 311.092c-81.357 0-147.546-66.189-147.546-147.546S174.643 108.454 256 108.454 403.546 174.643 403.546 256 337.357 403.546 256 403.546zm68.093-221.676h-.119c-7.994.031-15.491 3.173-21.108 8.848l-66.341 67.001-27.398-27.399c-5.658-5.658-13.182-8.774-21.186-8.774-8.005 0-15.528 3.116-21.187 8.775-11.681 11.682-11.681 30.69 0 42.371l48.661 48.661c5.841 5.84 13.513 8.761 21.186 8.761s15.346-2.92 21.187-8.761c18.449-18.45 37.064-37.332 55.067-55.591a18653.75 18653.75 0 0 1 32.48-32.891c11.602-11.708 11.541-30.68-.136-42.292-5.649-5.62-13.14-8.709-21.106-8.709zm9.877 39.738a19406.177 19406.177 0 0 0-32.51 32.92c-17.982 18.24-36.577 37.101-54.986 55.51-5.444 5.444-14.303 5.444-19.745 0l-48.66-48.661c-5.443-5.443-5.443-14.301 0-19.745a13.87 13.87 0 0 1 9.872-4.088c3.729 0 7.236 1.452 9.872 4.088l33.083 33.084a8.002 8.002 0 0 0 5.657 2.343h.02a8 8 0 0 0 5.665-2.371l71.998-72.715a13.768 13.768 0 0 1 9.8-4.105h.056c3.709 0 7.196 1.438 9.826 4.053 5.431 5.404 5.455 14.234.052 19.687z" fill="#ed1a3b" opacity="1" data-original="#000000"></path></g></svg>