<svg xmlns="http://www.w3.org/2000/svg" version="1.1" xmlns:xlink="http://www.w3.org/1999/xlink" width="512" height="512" x="0" y="0" viewBox="0 0 500 500" style="enable-background:new 0 0 512 512" xml:space="preserve" class=""><g><switch><g><path d="M441.722 281.054c-11.172-3.156-22.429 1.073-28.675 10.778-1.254 1.95-2.171 3.73-2.8 5.439-4.631 12.559-12.413 33.299-17.728 47.433-5.612-5.224-13.445-7.46-21.384-5.666-6.846 1.547-11.405 4.66-12.25 5.27-.036.025-.071.052-.107.079a10.895 10.895 0 0 0-.299.233l-23.575 19.298c-2.887 2.363-5.994 4.094-9.235 5.145-17.532 5.682-33.156 21.219-36.639 29.857-2.844 7.055-4.932 35.438-5.504 43.97a6.99 6.99 0 0 0 .071 1.543c-7.994 2.633-14.07 9.684-15.12 18.446l-.626 5.21c-1.458 12.165 7.253 23.248 19.418 24.705l58.104 6.963c.883.105 1.778.159 2.663.159 11.23 0 20.705-8.416 22.042-19.577l.624-5.21c.735-6.131-1.116-11.987-4.689-16.475 21.408-21.363 53.42-53.525 59.125-60.498 9.28-11.332 34.656-88.823 34.855-89.527.286-1 .4-2.108.37-3.6-.244-11.435-7.56-20.845-18.641-23.975zm-84.921 192.408-.624 5.209c-.495 4.13-3.995 7.243-8.142 7.243-.33 0-.666-.02-.997-.06l-58.104-6.963c-4.5-.54-7.723-4.64-7.184-9.138l.625-5.21c.495-4.13 3.995-7.242 8.142-7.242.33 0 .666.02.997.06l58.104 6.962c4.5.539 7.722 4.639 7.183 9.139zm57.502-84.176c-4.031 4.927-26.531 27.896-60.359 61.627a22.447 22.447 0 0 0-2.661-.49l-53.807-6.447c.004-.05.014-.1.017-.15 1.1-16.393 3.14-36.222 4.52-39.673 1.515-3.757 13.484-17.08 27.972-21.773 4.906-1.591 9.545-4.158 13.785-7.63l23.396-19.151c.535-.356 3.185-2.03 7.052-2.904 5.53-1.245 9.304 1.889 10.995 5.238a10.928 10.928 0 0 1 1.159 4.294c-.002.172-.001.344.009.515.006 2.516-.947 5.185-3.542 7.428-14.862 12.85-32.298 27.48-32.473 27.626a7 7 0 1 0 8.998 10.726c.175-.147 17.688-14.843 32.63-27.763 5.24-4.53 8.112-10.712 8.365-17.147 2.628-6.973 16.213-43.035 23.022-61.498.185-.502.585-1.38 1.438-2.706 3.443-5.354 9.021-6.028 13.095-4.881 3.998 1.13 8.316 4.56 8.449 10.796a.092.092 0 0 1 .002.024c-2.996 9.964-25.984 76.519-32.062 83.939zM77.412 178.349h46.792v97.462c0 26.053 21.196 47.248 47.249 47.248h159.831c26.053 0 47.249-21.195 47.249-47.248v-97.462h44.056a9.875 9.875 0 0 0 9.261-6.333 9.875 9.875 0 0 0-2.544-10.927L255.751 1.925a7.003 7.003 0 0 0-9.433-.027L70.739 161.048a9.871 9.871 0 0 0-2.598 10.94 9.87 9.87 0 0 0 9.271 6.36zm173.58-161.792 161.154 147.792h-40.614a7 7 0 0 0-7 7V275.81c0 18.333-14.915 33.248-33.249 33.248H171.452c-18.333 0-33.249-14.915-33.249-33.248V171.349a7 7 0 0 0-7-7H87.944z" fill="#ed1a3b" opacity="1" data-original="#000000"></path><path d="M239.604 258.896c3.108 2.236 6.741 3.418 10.505 3.418 3.648 0 7.188-1.116 10.237-3.23 10.76-7.46 30.977-22.81 45.492-41.803 24.03-31.443 18.441-54.746 9.521-68.757-7.17-11.262-17.742-17.214-30.573-17.214-14.097 0-27.698 7.228-34.43 11.443-6.812-4.582-20.851-12.625-35.457-12.625-12.209 0-22.481 5.606-29.706 16.21-9.379 13.769-15.49 36.968 8.659 69.302 14.537 19.463 34.905 35.456 45.752 43.256zm-42.84-104.675c4.626-6.792 10.559-10.093 18.135-10.093 15 0 30.777 12.486 30.926 12.605a7.014 7.014 0 0 0 8.596.146c.154-.116 15.628-11.57 30.365-11.57 8.028 0 14.166 3.512 18.764 10.734 22.973 36.083-33.366 79.186-51.179 91.537-1.415.979-3.189.96-4.592-.048-18.041-12.975-75.037-58.047-51.015-93.311zM231.525 462.878c-1.05-8.763-7.127-15.813-15.121-18.447a7.05 7.05 0 0 0 .071-1.543c-.572-8.531-2.66-36.915-5.503-43.97-3.482-8.64-19.106-24.176-36.639-29.857-3.241-1.051-6.349-2.781-9.236-5.145l-23.575-19.298-.185-.146a7.232 7.232 0 0 0-.225-.17c-.845-.607-5.409-3.721-12.247-5.266-7.938-1.793-15.771.442-21.384 5.667-5.315-14.134-13.096-34.873-17.727-47.43-.63-1.71-1.546-3.49-2.802-5.443-6.245-9.703-17.501-13.931-28.674-10.777-11.081 3.13-18.397 12.54-18.64 23.978-.031 1.482.082 2.588.365 3.582.204.719 25.592 78.222 34.859 89.54 5.7 6.965 37.71 39.128 59.122 60.493-.03.037-.064.07-.093.107a22.076 22.076 0 0 0-4.592 16.374l.624 5.209c1.337 11.16 10.813 19.576 22.042 19.577h.002c.883 0 1.779-.054 2.661-.16l58.104-6.962c12.165-1.457 20.875-12.54 19.417-24.705zm-145.83-73.593c-6.066-7.41-29.054-73.948-32.06-83.938v-.022c.132-6.24 4.451-9.67 8.448-10.798 4.073-1.151 9.651-.474 13.095 4.879.854 1.328 1.253 2.204 1.439 2.709 6.808 18.46 20.392 54.517 23.021 61.495.252 6.436 3.125 12.62 8.364 17.149 14.943 12.92 32.457 27.615 32.632 27.763a7.004 7.004 0 0 0 9.862-.864 7 7 0 0 0-.865-9.862c-.174-.146-17.61-14.776-32.473-27.626-2.592-2.242-3.546-4.908-3.541-7.423a7.01 7.01 0 0 0 .01-.523 10.926 10.926 0 0 1 1.159-4.29c1.691-3.351 5.467-6.484 10.994-5.238 3.861.872 6.507 2.54 7.05 2.903l23.398 19.153c4.242 3.472 8.88 6.038 13.787 7.629 14.486 4.694 26.456 18.017 27.971 21.773 1.379 3.449 3.419 23.278 4.519 39.673.003.05.013.099.017.15l-53.807 6.447c-.903.108-1.784.287-2.654.499-33.836-33.744-56.338-56.717-60.366-61.638zM216.55 475.81a8.165 8.165 0 0 1-5.484 3.082l-58.104 6.963c-.332.04-.667.06-.995.06h-.001c-4.147 0-7.648-3.114-8.143-7.243l-.624-5.21a8.165 8.165 0 0 1 1.699-6.056 8.163 8.163 0 0 1 5.484-3.082l58.103-6.962c.332-.04.667-.06.997-.06 4.147 0 7.647 3.113 8.142 7.242l.624 5.209a8.164 8.164 0 0 1-1.698 6.057z" fill="#ed1a3b" opacity="1" data-original="#000000"></path></g></switch></g></svg>