<svg xmlns="http://www.w3.org/2000/svg" version="1.1" xmlns:xlink="http://www.w3.org/1999/xlink" width="512" height="512" x="0" y="0" viewBox="0 0 64 64" style="enable-background:new 0 0 512 512" xml:space="preserve" class=""><g><path d="M59.818 12.629a1.052 1.052 0 0 0-.718-.9L32.27 4.207a1.381 1.381 0 0 0-.569.009l-26.83 8.4a1.157 1.157 0 0 0-.6.529 2.14 2.14 0 0 0-.1.425v45.26a1 1 0 0 0 1 1H58.83a1 1 0 0 0 1-1c.005-.036.012-46.167-.012-46.201ZM21.039 57.83l25.439-12.48 5.935 3.1L33.3 57.83ZM33 36.044V6.489l24.83 6.959v35.58Zm-20.683 9.1-.191-22.817 13.054-4.885v21.425ZM26.75 15.178a1 1 0 0 0-.92-.115L10.77 20.7a1 1 0 0 0-.65.944l.205 24.472-4.155 2.033V14.3L31 6.531v29.494l-3.82 1.865V16a1 1 0 0 0-.43-.822ZM6.17 50.375l25.815-12.6 4.709 2.463L6.17 55.215Zm0 7.068 32.722-16.061L44.28 44.2 16.5 57.83H6.17Zm31.67.387 16.772-8.23 3.218 1.683v6.547Z" fill="#ffffff" opacity="1" data-original="#000000"></path><path d="m43.314 13.02-7.043-1.982A1.006 1.006 0 0 0 35 12v19.853a1 1 0 0 0 .594.914l7.044 3.133a1.006 1.006 0 0 0 1.406-.913V13.982a1 1 0 0 0-.73-.962Zm-1.27 20.429L37 31.2V13.32l5.044 1.419ZM54.226 16.368l-7.044-2.091a1.008 1.008 0 0 0-1.285.958v20.951a1 1 0 0 0 .576.905l7.044 3.309a1.007 1.007 0 0 0 1.424-.905V17.327a1 1 0 0 0-.715-.959Zm-1.285 21.551L47.9 35.55V16.575l5.044 1.5Z" fill="#ffffff" opacity="1" data-original="#000000"></path><path d="M38.651 23.013c.483.091 2-1.316 2.4-1.54a1 1 0 1 0-1.2-1.6l-1.8 1.342a1.006 1.006 0 0 0 .6 1.798ZM39.625 23.7l-1.283.955a1.007 1.007 0 0 0 .6 1.8c.485.07 1.5-.93 1.88-1.154a1 1 0 0 0-1.197-1.601ZM49.549 26.65c.483.091 2-1.316 2.4-1.541a1 1 0 1 0-1.2-1.6l-1.8 1.342a1.007 1.007 0 0 0 .6 1.799ZM50.521 27.335l-1.282.956a1.007 1.007 0 0 0 .6 1.8c.485.07 1.5-.93 1.879-1.154a1 1 0 0 0-1.197-1.602Z" fill="#ffffff" opacity="1" data-original="#000000"></path></g></svg>