<svg version="1.2" xmlns="http://www.w3.org/2000/svg" viewBox="0 0 187 78" width="300" height="125.1336898395722">
	<style>
		.s0 { fill: #1b4176 } 
		.s1 { fill: #ed1a3b } 
		.s2 { fill: #424143 } 
	</style>
	<g>
		<path class="s0" d="m6.11 43.39c-2.71-1.66-4.71-4.25-5.64-7.28 0-0.11-0.06-0.21-0.09-0.33-1.06-4.12 0.13-8.5 3.15-11.51l22.09-22.27c1.88 2.47 2.7 5.59 2.29 8.66-0.41 2.52-1.65 4.83-3.51 6.57l-14.31 13.33c-1.27 1.17-2.3 2.58-3.03 4.15l-0.14 0.33c-1.09 2.64-1.37 5.55-0.81 8.35z"/>
		<path class="s0" d="m23.43 34.81c2.7 1.64 4.71 4.21 5.63 7.23 0 0.11 0.07 0.21 0.09 0.32 1.06 4.1-0.13 8.46-3.15 11.45l-22.09 22.13c-1.88-2.47-2.71-5.58-2.28-8.65 0.41-2.5 1.64-4.8 3.5-6.53l14.31-13.25c1.27-1.16 2.3-2.57 3.03-4.13l0.14-0.32c1.08-2.61 1.36-5.48 0.82-8.25z"/>
		<path class="s1" d="m10.93 32.79h2.09c0.75 0 1.36 0.6 1.36 1.35v2.09c0 0.74-0.61 1.35-1.36 1.35h-2.09c-0.74 0-1.35-0.61-1.35-1.35v-2.09c0-0.75 0.61-1.35 1.35-1.35z"/>
		<path class="s1" d="m16.99 32.79h2.09c0.75 0 1.35 0.6 1.35 1.35v2.09c0 0.74-0.6 1.35-1.35 1.35h-2.09c-0.75 0-1.35-0.61-1.35-1.35v-2.09c0-0.75 0.6-1.35 1.35-1.35z"/>
		<path class="s1" d="m10.93 38.6h2.09c0.75 0 1.36 0.6 1.36 1.35v2.09c0 0.75-0.61 1.35-1.36 1.35h-2.09c-0.74 0-1.35-0.6-1.35-1.35v-2.09c0-0.75 0.61-1.35 1.35-1.35z"/>
		<path class="s1" d="m16.99 38.6h2.09c0.75 0 1.35 0.6 1.35 1.35v2.09c0 0.75-0.6 1.35-1.35 1.35h-2.09c-0.75 0-1.35-0.6-1.35-1.35v-2.09c0-0.75 0.6-1.35 1.35-1.35z"/>
		<path class="s1" d="m64.88 40.29q0.89 1 1.37 2.25c0.31 0.84 0.43 1.73 0.33 2.62-0.11 0.92-0.42 1.79-0.92 2.57q-0.76 1.15-1.84 1.99c-1.56 1.22-3.37 2.08-5.3 2.51l-0.8 0.17c-2.48 0.48-5.03 0.42-7.48-0.17h-0.09q-1.6-0.39-3.07-1.11-1.48-0.73-2.69-1.83-0.99-0.95-1.62-2.17c-0.4-0.8-0.62-1.69-0.63-2.59q0-0.66 0.15-1.29c0.25-1.02 0.74-1.97 1.43-2.77l0.38 0.22 2.1 1.16q-0.54 1.34-0.55 2.8c0 1.21 0.3 2.42 0.88 3.49 0.58 1.05 1.39 1.95 2.38 2.64 1 0.72 2.16 1.19 3.38 1.38 0.38 0 0.76 0.08 1.15 0.1h0.51c1.36-0.06 2.67-0.45 3.84-1.15 1.11-0.66 2.05-1.59 2.71-2.71 0.68-1.13 1.02-2.43 1-3.75q0.02-0.35 0-0.7c-0.34-1.18-1.08-2.21-2.08-2.92q-1.87-1.47-4.03-2.49-1.4-0.6-2.79-1.07-1.38-0.47-2.34-0.75l-0.41-0.12q-0.3-0.07-0.6-0.18-1.29-0.43-2.43-1.16c-1.12-0.68-2.07-1.59-2.81-2.67-0.73-1.1-1.13-2.39-1.14-3.72q0.01-0.64 0.13-1.27c0.26-1.25 0.84-2.4 1.69-3.35 0.84-0.94 1.85-1.72 2.98-2.28q1.71-0.84 3.59-1.15 2.04-0.3 4.07 0 2.06 0.28 3.91 1.23c1.22 0.62 2.3 1.5 3.15 2.57q0.81 1.04 1.22 2.3 0.4 1.26 0.28 2.58-0.05 0.45-0.14 0.88-0.19-0.33-0.36-0.59-0.41-0.66-0.99-1.18c-0.35-0.38-0.85-0.59-1.36-0.59-0.13-1.47-0.64-2.87-1.48-4.08-0.75-1.11-1.82-1.96-3.07-2.44q-1.14-0.27-2.3-0.34c-1.14 0.07-2.24 0.48-3.15 1.17-0.96 0.72-1.73 1.67-2.23 2.76-0.56 1.19-0.85 2.49-0.83 3.8q-0.01 0.81 0.14 1.6c0.26 0.95 0.79 1.8 1.52 2.46q1.17 1.08 2.6 1.79 1.41 0.71 2.89 1.2c1 0.3 1.73 0.53 2.37 0.67l1.05 0.22 0.85 0.23q1.54 0.46 2.93 1.27 1.43 0.78 2.55 1.96z"/>
		<path class="s1" d="m89.08 52.72h-4.61q-0.15 0.02-0.3 0c-0.89-0.13-1.58-0.83-1.7-1.72q0-0.13 0-0.27v-13.58q-0.06-2.74-2.1-2.74c-0.88 0.03-1.74 0.26-2.52 0.65q-0.93 0.44-1.78 1-0.72 0.44-0.76 0.49-0.74 0.58-1.43 1.19v12.81c-0.02 0.62 0.26 1.21 0.75 1.58q0.52 0.4 1.15 0.54h0.22-2.12q-2.64 0-2.79 0c-0.89-0.13-1.58-0.83-1.7-1.72q0-0.13 0-28.1h0.52c1.54 0 3-0.71 3.96-1.92v16.18c2.02-1.93 4.43-3.41 7.07-4.33q0.8-0.2 1.62-0.22 1.01 0.02 1.89 0.5c0.69 0.39 1.23 1 1.54 1.73q0.59 1.24 0.78 2.6l0.08 0.56q-0.01 0.4 0.05 1.21v11.38q-0.03 0.53 0.22 1 0.2 0.36 0.52 0.62 0.29 0.22 0.63 0.37 0.26 0.1 0.53 0.17z"/>
		<path class="s1" d="m108.26 44q-0.1 0.78-0.31 1.54c-0.48 1.82-1.46 3.47-2.83 4.77-1.35 1.31-3.09 2.14-4.95 2.37-1.75 0.19-3.52-0.18-5.05-1.05-1.52-0.87-2.78-2.14-3.64-3.67-1.62-2.9-1.83-6.39-0.58-9.47 0.61-1.5 1.56-2.83 2.78-3.89 1.22-1.05 2.71-1.74 4.3-1.98 1.82-0.25 3.67 0.1 5.27 0.99 1.62 0.87 2.94 2.2 3.8 3.82q0.06 0.11 0.11 0.21l0.08 0.14-8.63 4.52-3.46 1.82q0.68 1.35 1.59 2.56c0.93 1.3 2.1 2.41 3.45 3.26q0.89 0.54 1.9 0.78c0.66 0.16 1.35 0.11 1.98-0.15q0.41-0.31 0.81-0.69c0.88-1.43 1.17-3.14 0.79-4.78 0.99 0.06 1.95-0.35 2.59-1.1zm-5.38-6.2l-0.42-0.55q-0.47-0.59-1-1.13-0.94-0.94-2.08-1.63-0.79-0.46-1.69-0.69-0.9-0.23-1.8 0c-0.52 0.16-0.98 0.47-1.32 0.89q-0.52 0.64-0.75 1.42c-0.34 1.27-0.36 2.6-0.09 3.89q0.41 1.95 1.27 3.76l2.9-1.53q2.92-1.56 5.9-3.07l-0.2-0.34-0.19-0.28q-0.29-0.35-0.53-0.74z"/>
		<path class="s1" d="m124.39 33.44q0.11 0.13 0.18 0.29 0.07 0.15 0.1 0.32-0.44-0.19-0.92-0.15-0.37 0.03-0.69 0.19-0.33 0.19-0.59 0.47c-0.37-0.39-0.86-0.65-1.39-0.73q-0.72-0.09-1.42 0.07-0.52 0.1-0.99 0.31-1.22 0.73-2.3 1.64-0.42 0.34-0.83 0.7v13.78q-0.02 0.5 0.22 0.94 0.19 0.36 0.52 0.62 0.29 0.22 0.62 0.36 0.37 0.15 0.76 0.22h-4.62q-0.15 0.01-0.31 0c-0.88-0.13-1.57-0.83-1.68-1.72q-0.01-0.12 0-0.25v-16.1q0.6 0.05 1.2 0 0.61-0.1 1.18-0.31c0.83-0.33 1.56-0.86 2.12-1.55v3.45q1.61-1.47 3.54-2.5 0.98-0.52 2.05-0.76c0.7-0.17 1.44-0.15 2.13 0.06q0.49 0.13 0.9 0.45z"/>
		<path class="s1" d="m141.83 44q-0.09 0.78-0.3 1.54c-0.49 1.82-1.47 3.47-2.83 4.77-1.35 1.3-3.1 2.14-4.96 2.37-1.75 0.19-3.51-0.18-5.04-1.05-1.53-0.86-2.79-2.13-3.64-3.67-0.8-1.44-1.27-3.03-1.38-4.68-0.1-1.64 0.17-3.28 0.8-4.79 0.61-1.5 1.56-2.83 2.78-3.89 1.21-1.05 2.71-1.74 4.3-1.98 1.81-0.25 3.66 0.1 5.25 0.99 1.62 0.87 2.94 2.2 3.8 3.82q0.06 0.11 0.11 0.21l0.08 0.14-8.62 4.52-3.43 1.83q0.68 1.35 1.59 2.56c0.93 1.3 2.1 2.4 3.45 3.26q0.89 0.53 1.9 0.76c0.66 0.16 1.36 0.11 1.99-0.15q0.42-0.32 0.8-0.69c0.88-1.43 1.17-3.15 0.79-4.78 0.98 0.05 1.92-0.35 2.56-1.09zm-5.38-6.2q-0.21-0.28-0.43-0.55-0.46-0.59-0.99-1.13-0.94-0.94-2.07-1.63-0.8-0.46-1.7-0.69-0.9-0.23-1.79 0c-0.52 0.16-0.99 0.47-1.33 0.89q-0.51 0.64-0.75 1.42c-0.33 1.27-0.36 2.6-0.08 3.89q0.4 1.93 1.25 3.71l2.9-1.53q2.91-1.56 5.89-3.07-0.09-0.18-0.2-0.35-0.09-0.14-0.19-0.27-0.28-0.33-0.51-0.69z"/>
		<path class="s1" d="m164.79 52.73h-4.81-0.09c-0.88-0.13-1.57-0.84-1.69-1.74q0-0.13 0-0.27v-13.74c0.09-0.84-0.18-1.67-0.75-2.29-0.39-0.31-0.88-0.47-1.37-0.46h-0.39q-1.1 0.17-2.11 0.64-1.34 0.59-2.53 1.45c-0.49 0.39-1 0.8-1.43 1.22v12.93c-0.02 0.63 0.26 1.22 0.75 1.6q0.52 0.39 1.15 0.54l0.22 0.05q-4.76 0-4.95 0c-0.88-0.13-1.57-0.84-1.68-1.74q0-0.13 0-16.63h0.41c1.59 0 3.09-0.74 4.07-2v4.6c2.02-1.95 4.43-3.44 7.07-4.36q0.81-0.21 1.65-0.23 0.84-0.01 1.6 0.36 2.12 1.13 2.58 4.53l0.08 0.55q-0.02 0.4 0.05 1.22v11.5c-0.02 0.62 0.26 1.21 0.74 1.59q0.52 0.41 1.16 0.55z"/>
		<path class="s1" d="m183.72 44q-0.09 0.78-0.3 1.54c-0.5 1.82-1.49 3.47-2.88 4.77-1.37 1.31-3.14 2.14-5.03 2.37-1.77 0.19-3.56-0.18-5.11-1.05-1.55-0.87-2.83-2.13-3.7-3.67-1.64-2.9-1.86-6.39-0.59-9.47 0.62-1.5 1.59-2.83 2.83-3.89 1.23-1.05 2.74-1.74 4.36-1.98 1.84-0.25 3.71 0.1 5.34 0.99 1.63 0.87 2.98 2.2 3.85 3.82q0.06 0.11 0.11 0.21c0 0.06 0.06 0.11 0.07 0.14l-8.74 4.52-3.47 1.83q0.68 1.35 1.61 2.56c0.94 1.3 2.13 2.41 3.5 3.26q0.89 0.54 1.91 0.78c0.67 0.16 1.37 0.11 2.01-0.15q0.41-0.31 0.82-0.69c0.89-1.43 1.18-3.14 0.79-4.78 1 0.06 1.97-0.36 2.62-1.11zm-5.47-6.2q-0.2-0.28-0.43-0.55-0.46-0.6-1-1.13-0.96-0.94-2.12-1.63-0.8-0.46-1.71-0.69-0.91-0.23-1.83 0c-0.52 0.16-0.99 0.47-1.34 0.89q-0.53 0.63-0.75 1.42c-0.34 1.27-0.37 2.6-0.09 3.89q0.41 1.93 1.28 3.71l2.93-1.53q2.96-1.56 5.97-3.07-0.08-0.16-0.19-0.35l-0.18-0.27c-0.22-0.25-0.38-0.46-0.54-0.69z"/>
		<path class="s0" d="m56.28 62.87h2v0.44h-0.25q-0.12-0.03-0.25 0-0.07 0.05-0.1 0.12-0.01 0.16 0 0.31v1.52q-0.47 0.28-1 0.45-0.49 0.14-1 0.13c-0.8 0.03-1.57-0.27-2.12-0.84-0.57-0.62-0.86-1.44-0.82-2.27-0.03-0.74 0.2-1.46 0.63-2.05 0.57-0.76 1.48-1.19 2.43-1.14q0.51 0 1 0.12 0.48 0.12 0.91 0.36v1.36h-0.62v-0.29q0.02-0.29-0.1-0.55-0.17-0.22-0.43-0.3-0.4-0.17-0.84-0.15c-0.57-0.02-1.12 0.21-1.51 0.62-0.48 0.55-0.72 1.26-0.67 1.99-0.05 0.69 0.18 1.37 0.62 1.91 0.39 0.44 0.95 0.69 1.54 0.67q0.32 0.01 0.62-0.07 0.33-0.08 0.64-0.22v-1.35q0.01-0.15-0.08-0.27-0.16-0.09-0.34-0.07h-0.26z"/>
		<path class="s0" d="m59.8 59.78h4.45v1.35h-0.58v-0.44q0.02-0.12 0-0.24-0.06-0.07-0.14-0.1-0.18-0.02-0.36 0h-2.02v2.11h1.55q0.19 0.02 0.34-0.07 0.11-0.14 0.09-0.31v-0.2h0.49v1.74h-0.49v-0.27q0-0.22-0.09-0.28-0.18-0.09-0.38-0.07h-1.51v2.31h2.23q0.17 0.02 0.31-0.08 0.1-0.16 0.08-0.35v-0.38h0.58v1.34h-4.55v-0.43h0.22c0.16 0 0.26 0 0.3-0.07q0.1-0.16 0.08-0.35v-4.39q0.02-0.17-0.08-0.3c0-0.05-0.14-0.07-0.3-0.07h-0.22z"/>
		<path class="s0" d="m65.86 60.21v-0.42h2.46c0.46-0.03 0.92 0.07 1.32 0.3 0.42 0.29 0.66 0.76 0.63 1.25q0 0.53-0.3 0.98-0.34 0.42-0.88 0.56l1.01 1.75q0.13 0.25 0.37 0.42 0.22 0.13 0.49 0.12h0.2v0.42h-1.35l-1.5-2.61h-1.09v1.8q-0.02 0.18 0.08 0.32 0.16 0.09 0.34 0.07h0.18v0.42h-1.92v-0.42h0.18c0.21 0 0.33 0 0.38-0.11q0.05-0.17 0-0.35v-4.13q0.02-0.18-0.07-0.33-0.16-0.09-0.35-0.07zm1.36 2.31h0.89c0.4 0.03 0.79-0.07 1.11-0.29 0.24-0.2 0.37-0.5 0.34-0.81 0.03-0.31-0.09-0.62-0.33-0.84-0.29-0.21-0.64-0.32-1-0.29h-1.01z"/>
		<path class="s0" d="m72.42 59.78h1.73l1.7 5.21 1.73-5.21h1.66v0.44h-0.18q-0.19-0.02-0.35 0.09-0.07 0.17-0.05 0.35v4.33q-0.03 0.18 0.05 0.33 0.17 0.1 0.35 0.08h0.18v0.44h-1.89v-0.44h0.18c0.2 0 0.32 0 0.35-0.08q0.08-0.2 0.06-0.42v-4.68l-1.85 5.62h-0.71l-1.85-5.59v4.74q-0.02 0.19 0.08 0.34 0.15 0.1 0.32 0.07h0.18v0.44h-1.69v-0.44h0.2q0.18 0.02 0.33-0.08 0.07-0.07 0.07-0.37v-4.29q0.02-0.2-0.08-0.37c0-0.05-0.15-0.07-0.32-0.07h-0.2z"/>
		<path class="s0" d="m83.06 59.78h0.71l1.8 5.04q0.07 0.28 0.27 0.49 0.14 0.09 0.3 0.07h0.17v0.43h-2v-0.43h0.22q0.24 0.02 0.29-0.05 0.06-0.05 0.06-0.14-0.02-0.19-0.09-0.37l-0.33-0.92h-2.31l-0.35 0.99q-0.06 0.14-0.08 0.31 0 0.1 0.08 0.17c0 0 0.14 0.05 0.29 0.05h0.24v0.42h-1.82v-0.42h0.16q0.18 0 0.33-0.09 0.15-0.17 0.21-0.38zm-0.7 3.6h1.94l-1.01-2.7z"/>
		<path class="s0" d="m87.62 59.78h1.75l2.78 4.86v-4.12q0.02-0.14-0.09-0.24-0.17-0.09-0.36-0.07h-0.16v-0.43h1.83v0.43h-0.19q-0.19-0.02-0.35 0.07-0.09 0.18-0.07 0.37v5.19h-0.79l-3.14-5.48v4.52q-0.04 0.18 0 0.35 0.17 0.13 0.37 0.1h0.17v0.43h-1.8v-0.43h0.22c0.16 0 0.26 0 0.32-0.08 0.05-0.08 0.07-0.18 0.07-0.4v-4.26c0-0.17 0-0.27-0.07-0.32q-0.1-0.08-0.23-0.07h-0.31z"/>
		<path class="s0" d="m97.47 61.65l1.33-0.09v2.63q-0.04 0.38 0.13 0.73c0.14 0.22 0.39 0.34 0.66 0.32q0.27 0 0.51-0.11 0.22-0.09 0.37-0.28 0.14-0.18 0.19-0.4 0.06-0.26 0.07-0.52v-1.54q0.02-0.15-0.06-0.28-0.1-0.08-0.22-0.07h-0.33v-0.39l1.3-0.09v3.27q-0.04 0.17 0 0.34 0.08 0.07 0.18 0.06h0.36v0.38l-1.2 0.13q-0.08-0.32-0.08-0.64-0.2 0.36-0.56 0.56-0.36 0.2-0.77 0.19c-0.4 0.02-0.8-0.15-1.06-0.45q-0.31-0.48-0.27-1.05v-1.99q0.01-0.15-0.05-0.29-0.11-0.07-0.24-0.05h-0.31z"/>
		<path class="s0" d="m103.23 60.22v-0.43h2.47q0.58-0.02 1.13 0.15 0.42 0.17 0.66 0.55c0.32 0.54 0.34 1.2 0.07 1.76q-0.16 0.32-0.45 0.54-0.28 0.19-0.61 0.25-0.4 0.07-0.8 0.09h-1.12v1.89q-0.02 0.18 0.08 0.31 0.2 0.1 0.41 0.07h0.2v0.44h-2.07v-0.44h0.16q0.21 0.03 0.39-0.08 0.09-0.16 0.06-0.35v-4.37q0.03-0.18-0.07-0.33-0.18-0.09-0.38-0.07zm1.35 2.38h0.89c0.41 0.04 0.82-0.07 1.16-0.29 0.24-0.21 0.37-0.52 0.35-0.84 0.01-0.31-0.1-0.62-0.32-0.86-0.29-0.22-0.66-0.33-1.04-0.3h-1.03z"/>
		<path class="s0" d="m109.01 59.78h2.01v0.43h-0.2q-0.24-0.01-0.3 0.05-0.08 0.05-0.07 0.14 0.02 0.16 0.08 0.31l1.44 4.09 1.44-3.97q0.08-0.17 0.09-0.35 0.01-0.11-0.07-0.19-0.15-0.07-0.32-0.06h-0.16v-0.43h1.87v0.43h-0.18q-0.16 0-0.29 0.08-0.16 0.19-0.22 0.42l-1.85 5.11h-0.71l-1.8-5.04q-0.07-0.28-0.25-0.5-0.15-0.09-0.32-0.07h-0.17z"/>
		<path class="s0" d="m120.6 60.04v1.34h-0.61q0.02-0.41-0.08-0.81-0.14-0.22-0.38-0.3-0.42-0.19-0.89-0.18c-0.56-0.02-1.09 0.23-1.46 0.67-0.41 0.54-0.62 1.22-0.58 1.91-0.03 0.67 0.18 1.34 0.6 1.86 0.35 0.43 0.88 0.68 1.44 0.68q0.53-0.01 1.03-0.21 0.54-0.18 0.96-0.56v0.73q-0.43 0.35-0.96 0.51-0.55 0.16-1.11 0.16-0.76 0.01-1.42-0.38c-0.43-0.27-0.76-0.66-0.97-1.12q-0.34-0.76-0.33-1.6c-0.02-0.74 0.19-1.47 0.6-2.08 0.52-0.74 1.36-1.16 2.24-1.12q0.53 0 1.04 0.13 0.46 0.12 0.88 0.37z"/>
		<path class="s0" d="m125.17 59.78h1.96v0.43h-0.28q-0.17-0.01-0.23 0.05-0.06 0.06-0.06 0.14 0.01 0.16 0.05 0.31l1.06 3.98 1.28-4.89h0.69l1.26 4.89 1.04-3.85q0.06-0.18 0.07-0.37 0-0.11-0.08-0.18-0.15-0.08-0.31-0.06h-0.18v-0.43h1.81v0.43h-0.12q-0.21-0.01-0.38 0.11-0.18 0.23-0.24 0.52l-1.34 4.98h-0.7l-1.26-4.9-1.27 4.9h-0.72l-1.3-4.98q-0.06-0.29-0.24-0.52-0.15-0.1-0.33-0.09h-0.16z"/>
		<path class="s0" d="m134.76 59.78h2.02v0.44h-0.16q-0.21-0.03-0.4 0.09-0.09 0.2-0.06 0.41v4.31c0 0.15 0 0.25 0.07 0.29q0.19 0.11 0.39 0.08h0.16v0.44h-2.02v-0.44h0.19c0.2 0 0.31 0 0.36-0.07q0.09-0.19 0.06-0.4v-4.42q0.02-0.14-0.08-0.23-0.16-0.08-0.34-0.06h-0.19z"/>
		<path class="s0" d="m138.29 59.78h1.77l2.8 4.86v-4.12q0.01-0.14-0.08-0.24-0.18-0.09-0.37-0.07h-0.16v-0.43h1.84v0.43h-0.2c-0.17 0-0.29 0-0.33 0.07q-0.1 0.18-0.07 0.37v5.19h-0.76l-3.18-5.48v4.52q-0.02 0.19 0.06 0.35 0.08 0.1 0.37 0.1h0.17v0.43h-1.82v-0.43h0.22c0.17 0 0.27 0 0.32-0.08q0.09-0.19 0.06-0.4v-4.26q0.02-0.17-0.06-0.32-0.1-0.08-0.22-0.07h-0.32z"/>
		<path class="s0" d="m145.61 59.79h2.55q0.85-0.04 1.63 0.29c0.43 0.22 0.78 0.57 1 1.01q0.38 0.8 0.36 1.69c0.05 0.9-0.28 1.78-0.91 2.42-0.52 0.45-1.18 0.68-1.87 0.64h-2.75v-0.44h0.21c0.18 0 0.29 0 0.34-0.1q0.07-0.18 0.05-0.38v-4.37q0.01-0.13-0.06-0.25-0.15-0.08-0.32-0.07h-0.21zm1.35 0.55v4.96h1.21q0.31-0.01 0.62-0.07 0.3-0.03 0.57-0.19 0.31-0.19 0.51-0.49 0.24-0.34 0.34-0.74 0.13-0.5 0.12-1.01 0.03-0.77-0.3-1.47c-0.16-0.34-0.44-0.62-0.78-0.77q-0.59-0.25-1.22-0.22z"/>
		<path class="s0" d="m152.68 62.73c-0.05-0.86 0.25-1.71 0.82-2.36 1.17-1.11 3.01-1.11 4.17 0 1.08 1.35 1.08 3.26 0 4.61-0.54 0.57-1.3 0.88-2.09 0.86-0.76 0.02-1.48-0.28-2.01-0.82-0.59-0.61-0.92-1.44-0.89-2.29zm0.82-0.07c-0.05 0.7 0.15 1.38 0.58 1.94 0.38 0.42 0.93 0.66 1.51 0.64 0.56 0.01 1.1-0.23 1.47-0.66 0.43-0.58 0.63-1.28 0.58-2 0.05-0.67-0.15-1.33-0.57-1.86-0.77-0.83-2.07-0.87-2.9-0.1q-0.06 0.05-0.1 0.1c-0.43 0.56-0.62 1.25-0.56 1.94z"/>
		<path class="s0" d="m159.49 59.78h2.02v0.43h-0.27q-0.18-0.01-0.24 0.05-0.07 0.06-0.06 0.14-0.02 0.16 0 0.31l1.09 3.98 1.34-4.89h0.71l1.3 4.89 1.09-3.85q0.05-0.18 0.06-0.37 0.01-0.1-0.07-0.18-0.16-0.07-0.33-0.06h-0.19v-0.43h1.87v0.43h-0.12q-0.21-0.01-0.39 0.11-0.19 0.23-0.24 0.52l-1.39 4.98h-0.73l-1.3-4.9-1.33 4.9h-0.74l-1.35-4.98q-0.06-0.29-0.25-0.52-0.15-0.1-0.34-0.09h-0.14z"/>
		<path class="s0" d="m172.65 59.91v1.33h-0.58v-0.24q0.02-0.28-0.06-0.55-0.14-0.18-0.36-0.26-0.31-0.14-0.66-0.14-0.43-0.02-0.77 0.26c-0.18 0.17-0.29 0.4-0.29 0.64q0 0.36 0.24 0.62 0.53 0.47 1.19 0.76 0.43 0.21 0.84 0.47 0.3 0.23 0.48 0.56 0.19 0.36 0.18 0.76c0.02 0.47-0.17 0.92-0.51 1.23-0.4 0.35-0.92 0.53-1.45 0.49q-0.49 0-0.98-0.09-0.43-0.08-0.84-0.26v-1.5h0.62v0.33q-0.02 0.3 0.11 0.57 0.16 0.22 0.42 0.31 0.33 0.13 0.68 0.12c0.32 0.02 0.64-0.09 0.89-0.29 0.21-0.2 0.33-0.48 0.32-0.76q0.01-0.37-0.21-0.67-0.44-0.42-0.99-0.66-0.5-0.25-0.98-0.56-0.33-0.25-0.53-0.6-0.19-0.32-0.19-0.7 0.01-0.41 0.22-0.76 0.24-0.38 0.65-0.57 0.47-0.22 0.98-0.21 0.42 0.01 0.82 0.11 0.4 0.08 0.76 0.26z"/>
		<path class="s2" d="m181.4 27.81h-0.71v-0.33h1.76v0.33h-0.71v1.94h-0.34z"/>
		<path class="s2" d="m185.05 28.05l-0.82 1.07h-0.08l-0.81-1.07v1.7h-0.39v-2.27h0.48l0.8 1.07 0.79-1.07h0.45v2.27h-0.39z"/>
		<path class="s2" d="m183.09 32.54c-2.16 0-3.91-1.75-3.91-3.91 0-2.16 1.75-3.92 3.91-3.92 2.16 0 3.91 1.76 3.91 3.92 0 2.16-1.75 3.91-3.91 3.91zm0-7.6c-2.06 0-3.73 1.67-3.73 3.73 0 2.05 1.67 3.72 3.73 3.72 2.06 0 3.72-1.67 3.72-3.72 0-2.06-1.67-3.73-3.72-3.73z"/>
	</g>
</svg>