<svg width="646" height="588" viewBox="0 0 646 588" fill="none" xmlns="http://www.w3.org/2000/svg">
<path d="M268.335 232.418C253.126 223.123 241.845 208.584 236.617 191.544C236.617 190.924 236.264 190.349 236.131 189.73C230.13 166.559 236.865 141.944 253.825 125.056L378.086 -3.05176e-05C388.663 13.869 393.293 31.374 390.959 48.66C388.658 62.793 381.716 75.758 371.229 85.509L290.719 160.401C283.571 166.982 277.784 174.903 273.688 183.714L272.891 185.572C266.795 200.398 265.21 216.694 268.335 232.418Z" fill="white"/>
<path d="M365.746 183.98C380.98 193.247 392.27 207.797 397.464 224.854C397.464 225.474 397.817 226.049 397.95 226.668C403.923 249.838 397.192 274.439 380.256 291.342L255.951 416.398C245.335 402.463 240.703 384.874 243.078 367.517C245.382 353.372 252.323 340.394 262.808 330.624L343.318 255.776C350.477 249.187 356.265 241.249 360.349 232.419L361.145 230.605C367.21 215.849 368.81 199.637 365.746 183.98Z" fill="white"/>
<path d="M296.075 173.762H307.886C312.113 173.762 315.539 177.188 315.539 181.415V193.226C315.539 197.453 312.113 200.879 307.886 200.879H296.075C291.848 200.879 288.422 197.453 288.422 193.226V181.415C288.422 177.188 291.848 173.762 296.075 173.762Z" fill="#ED1A3B"/>
<path d="M329.559 173.762H341.37C345.597 173.762 349.023 177.188 349.023 181.415V193.226C349.023 197.453 345.597 200.879 341.37 200.879H329.559C325.332 200.879 321.906 197.453 321.906 193.226V181.415C321.906 177.188 325.332 173.762 329.559 173.762Z" fill="#ED1A3B"/>
<path d="M296.075 205.258H307.886C312.113 205.258 315.539 208.684 315.539 212.911V224.722C315.539 228.949 312.113 232.375 307.886 232.375H296.075C291.848 232.375 288.422 228.949 288.422 224.722V212.911C288.422 208.684 291.848 205.258 296.075 205.258Z" fill="#ED1A3B"/>
<path d="M329.559 205.258H341.37C345.597 205.258 349.023 208.684 349.023 212.911V224.722C349.023 228.949 345.597 232.375 341.37 232.375H329.559C325.332 232.375 321.906 228.949 321.906 224.722V212.911C321.906 208.684 325.332 205.258 329.559 205.258Z" fill="#ED1A3B"/>
<path d="M101.213 473.331C103.854 476.237 105.925 479.613 107.318 483.284C108.727 486.99 109.242 490.976 108.822 494.918C108.325 498.97 106.919 502.856 104.708 506.287C102.483 509.664 99.718 512.653 96.524 515.135C89.573 520.519 81.524 524.309 72.946 526.238L69.363 526.99C58.332 529.11 46.976 528.854 36.053 526.238H35.655C30.938 525.086 26.357 523.44 21.986 521.328C17.64 519.191 13.619 516.451 10.042 513.188C7.121 510.412 4.684 507.167 2.831 503.589C1.033 500.017 0.0650033 496.085 3.34837e-06 492.087C-0.000996652 490.166 0.221998 488.251 0.662998 486.381C1.811 481.859 3.991 477.664 7.034 474.127L8.759 475.101L18.093 480.232C16.481 484.163 15.655 488.37 15.66 492.618C15.626 498.025 16.965 503.353 19.552 508.101C22.134 512.766 25.751 516.776 30.125 519.824C34.618 522.99 39.779 525.079 45.21 525.928C46.891 525.928 48.572 526.282 50.297 526.371H52.597C58.621 526.11 64.488 524.362 69.672 521.283C74.64 518.344 78.792 514.208 81.749 509.251C84.747 504.244 86.279 498.497 86.173 492.662C86.24 491.617 86.24 490.568 86.173 489.522C84.655 484.287 81.392 479.73 76.927 476.605C71.387 472.261 65.377 468.552 59.011 465.545C54.853 463.776 50.695 462.228 46.581 460.812C42.467 459.397 39.017 458.335 36.141 457.494L34.327 456.964C33.443 456.757 32.558 456.492 31.673 456.167C27.87 454.893 24.232 453.17 20.835 451.036C15.875 448.024 11.621 443.981 8.361 439.181C5.088 434.313 3.319 428.59 3.273 422.725C3.287 420.823 3.48 418.928 3.849 417.062C4.996 411.543 7.591 406.428 11.369 402.243C15.109 398.055 19.613 394.617 24.64 392.113C29.683 389.639 35.064 387.924 40.609 387.026C46.622 386.14 52.733 386.14 58.746 387.026C64.807 387.845 70.685 389.685 76.131 392.467C81.567 395.225 86.349 399.117 90.154 403.88C92.555 406.923 94.397 410.368 95.595 414.054C96.78 417.75 97.202 421.648 96.834 425.511C96.695 426.819 96.489 428.118 96.214 429.404C95.639 428.431 95.108 427.546 94.622 426.794C93.382 424.855 91.895 423.086 90.198 421.53C88.615 419.875 86.428 418.933 84.138 418.92C83.547 412.433 81.275 406.213 77.546 400.872C74.218 395.935 69.443 392.149 63.877 390.034C60.524 389.224 57.103 388.721 53.659 388.53C48.577 388.838 43.699 390.638 39.636 393.705C35.362 396.91 31.943 401.119 29.683 405.959C27.197 411.21 25.941 416.959 26.011 422.769C25.99 425.157 26.197 427.542 26.63 429.891C27.805 434.088 30.153 437.863 33.398 440.773C36.862 443.966 40.765 446.648 44.988 448.735C49.146 450.812 53.448 452.586 57.861 454.044C62.285 455.371 65.558 456.388 68.39 457.008L73.079 457.981L76.839 458.998C81.39 460.364 85.769 462.249 89.888 464.616C94.098 466.908 97.92 469.849 101.213 473.331Z" fill="#ED1A3B"/>
<path d="M208.973 528.447H188.403C187.948 528.512 187.487 528.512 187.032 528.447C183.07 527.899 179.969 524.761 179.467 520.794V519.6V458.996C179.29 450.856 176.15 446.786 170.045 446.786C166.134 446.944 162.302 447.94 158.809 449.706C156.053 450.99 153.392 452.468 150.846 454.13C148.679 455.457 147.573 456.209 147.44 456.341C145.258 458.052 143.135 459.821 141.07 461.65V518.803C140.985 521.554 142.238 524.176 144.432 525.837C145.94 527.011 147.695 527.827 149.564 528.226H150.537H141.07C133.196 528.226 129.038 528.226 128.595 528.226C124.634 527.678 121.533 524.54 121.031 520.573V395.207H123.331C130.227 395.226 136.75 392.079 141.026 386.669V458.819C150.054 450.206 160.825 443.629 172.611 439.532C174.985 438.935 177.418 438.609 179.866 438.559C182.819 438.602 185.719 439.361 188.315 440.77C191.386 442.51 193.797 445.216 195.171 448.467C196.94 452.138 198.119 456.064 198.666 460.102L199.02 462.579C199.02 463.773 199.02 465.587 199.241 467.976V518.759C199.152 520.295 199.489 521.826 200.214 523.183C200.813 524.252 201.608 525.197 202.559 525.97C203.418 526.627 204.353 527.177 205.346 527.607C206.121 527.92 206.92 528.172 207.735 528.359L208.973 528.447Z" fill="#ED1A3B"/>
<path d="M270.901 462.094L268.999 459.617C267.617 457.87 266.141 456.202 264.575 454.618C261.79 451.825 258.67 449.388 255.286 447.363C252.937 445.983 250.405 444.94 247.765 444.267C245.125 443.581 242.354 443.581 239.714 444.267C237.409 444.995 235.365 446.379 233.831 448.248C232.306 450.109 231.177 452.261 230.513 454.574C229.008 460.226 228.871 466.155 230.115 471.87C231.321 477.666 233.223 483.295 235.777 488.636L248.694 481.823C257.365 477.193 266.124 472.637 274.971 468.154L274.086 466.606L273.246 465.367C272.394 464.328 271.611 463.235 270.901 462.094ZM294.877 489.698C294.578 492.012 294.12 494.303 293.506 496.554C291.329 504.654 286.968 512 280.898 517.788C274.87 523.62 267.105 527.332 258.78 528.36C250.983 529.19 243.123 527.55 236.308 523.671C229.502 519.821 223.886 514.174 220.073 507.348C212.849 494.404 211.889 478.882 217.463 465.146C220.188 458.483 224.447 452.557 229.894 447.85C235.319 443.158 241.958 440.091 249.048 439.002C257.15 437.893 265.394 439.445 272.538 443.426C279.746 447.302 285.642 453.229 289.48 460.457C289.66 460.758 289.822 461.068 289.967 461.386L290.32 462.005L251.835 482.133L236.44 490.228C238.456 494.235 240.825 498.055 243.518 501.641C247.668 507.423 252.895 512.35 258.913 516.151C261.523 517.761 264.376 518.941 267.362 519.645C270.308 520.35 273.401 520.118 276.209 518.982C277.403 518.053 278.598 516.991 279.792 515.885C283.733 509.538 285.005 501.889 283.331 494.608C287.738 494.88 292.016 493.061 294.877 489.698Z" fill="#ED1A3B"/>
<path d="M366.369 442.63C366.68 443.044 366.946 443.488 367.165 443.957C367.365 444.411 367.514 444.886 367.608 445.373C366.306 444.835 364.898 444.608 363.494 444.709C362.416 444.812 361.366 445.112 360.397 445.594C359.422 446.144 358.541 446.846 357.787 447.673C356.139 445.907 353.94 444.752 351.55 444.4C349.44 444.121 347.297 444.226 345.224 444.709C343.699 445.008 342.215 445.483 340.8 446.125C337.192 448.299 333.76 450.755 330.537 453.468C329.299 454.486 328.016 455.547 326.822 456.609V518.54C326.771 520.002 327.106 521.452 327.795 522.742C328.368 523.829 329.167 524.779 330.139 525.529C330.998 526.186 331.934 526.736 332.926 527.166C334.011 527.605 335.137 527.931 336.288 528.139H315.674C315.218 528.183 314.759 528.183 314.303 528.139C310.344 527.568 307.261 524.413 306.782 520.442C306.76 520.059 306.76 519.675 306.782 519.292V446.965C308.563 447.127 310.355 447.127 312.135 446.965C313.949 446.678 315.728 446.204 317.443 445.549C321.14 444.102 324.389 441.706 326.866 438.604V454.087C331.661 449.715 336.981 445.956 342.702 442.895C345.588 441.343 348.667 440.183 351.859 439.445C354.982 438.689 358.25 438.781 361.326 439.71C362.794 440.104 364.164 440.796 365.352 441.745L366.369 442.63Z" fill="#ED1A3B"/>
<path d="M420.515 462.094C419.896 461.254 419.276 460.413 418.613 459.617C417.231 457.87 415.755 456.202 414.189 454.618C411.412 451.835 408.307 449.399 404.944 447.363C402.576 445.99 400.031 444.948 397.379 444.267C394.755 443.581 391.998 443.581 389.373 444.267C387.049 444.983 384.987 446.368 383.445 448.248C381.937 450.12 380.81 452.269 380.127 454.574C378.637 460.229 378.515 466.158 379.773 471.87C380.948 477.592 382.82 483.148 385.347 488.414L398.264 481.602C406.935 476.972 415.694 472.416 424.541 467.933C424.277 467.4 423.982 466.883 423.656 466.385C423.391 465.942 423.081 465.544 422.816 465.146C421.987 464.177 421.218 463.158 420.515 462.094ZM444.535 489.698C444.272 492.014 443.829 494.307 443.208 496.554C441.015 504.657 436.639 512.002 430.557 517.788C424.526 523.618 416.763 527.329 408.439 528.36C400.641 529.199 392.778 527.558 385.966 523.671C379.141 519.847 373.518 514.194 369.732 507.348C366.138 500.955 364.036 493.832 363.583 486.512C363.114 479.214 364.325 471.905 367.122 465.146C369.829 458.485 374.073 452.558 379.508 447.85C384.951 443.159 391.604 440.093 398.706 439.003C406.794 437.893 415.024 439.446 422.152 443.426C429.36 447.302 435.256 453.229 439.094 460.457C439.274 460.758 439.436 461.068 439.581 461.386L439.934 462.006L401.493 482.133L386.187 490.273C388.203 494.28 390.572 498.099 393.265 501.686C397.415 507.468 402.642 512.394 408.66 516.195C411.294 517.771 414.16 518.921 417.153 519.601C420.099 520.31 423.193 520.077 426 518.938C427.256 517.979 428.453 516.945 429.583 515.841C433.525 509.494 434.797 501.845 433.122 494.564C437.474 494.791 441.686 492.995 444.535 489.698Z" fill="#ED1A3B"/>
<path d="M546.453 528.449H524.91H524.512C520.568 527.883 517.489 524.749 516.992 520.796C516.969 520.398 516.969 520 516.992 519.602V458.909C517.376 455.22 516.151 451.544 513.629 448.823C511.871 447.466 509.702 446.748 507.481 446.788H505.755C502.482 447.281 499.295 448.234 496.289 449.62C492.302 451.36 488.507 453.51 484.964 456.034C482.797 457.759 480.54 459.573 478.594 461.387V518.496C478.509 521.247 479.762 523.868 481.956 525.53C483.484 526.671 485.231 527.484 487.087 527.918L488.061 528.139H465.942C461.998 527.573 458.92 524.44 458.422 520.486V447.054H460.28C467.377 447.049 474.079 443.788 478.461 438.207V458.555C487.499 449.932 498.286 443.354 510.09 439.268C512.493 438.666 514.957 438.34 517.434 438.295C519.911 438.244 522.365 438.774 524.6 439.843C530.94 443.176 534.789 449.841 536.146 459.838L536.499 462.271C536.499 463.466 536.499 465.235 536.721 467.668V518.452C536.64 521.179 537.874 523.779 540.038 525.441C541.554 526.638 543.325 527.47 545.214 527.874L546.453 528.449Z" fill="#ED1A3B"/>
<path d="M606.262 462.093C605.643 461.253 605.023 460.412 604.36 459.616C602.992 457.858 601.514 456.189 599.936 454.617C597.142 451.835 594.023 449.399 590.647 447.362C588.298 445.982 585.766 444.939 583.126 444.266C580.486 443.58 577.715 443.58 575.075 444.266C572.764 444.983 570.717 446.368 569.192 448.247C567.651 450.097 566.52 452.253 565.874 454.573C564.369 460.225 564.232 466.154 565.476 471.869C566.665 477.593 568.552 483.149 571.094 488.413L584.011 481.601C592.681 476.971 601.425 472.415 610.243 467.932C610.022 467.445 609.712 466.959 609.403 466.384L608.607 465.145C607.633 464.039 606.926 463.11 606.262 462.093ZM630.282 489.697C630.019 492.013 629.576 494.306 628.955 496.553C626.782 504.664 622.402 512.014 616.304 517.787C610.273 523.617 602.51 527.328 594.186 528.359C586.388 529.192 578.527 527.551 571.713 523.67C564.898 519.833 559.278 514.183 555.479 507.347C548.255 494.403 547.295 478.881 552.869 465.145C555.593 458.482 559.852 452.556 565.299 447.849C570.725 443.157 577.364 440.09 584.453 439.001C592.556 437.892 600.799 439.444 607.943 443.425C615.142 447.314 621.034 453.237 624.886 460.456C625.065 460.757 625.227 461.067 625.372 461.385C625.372 461.65 625.637 461.872 625.682 462.004L587.24 482.132L571.979 490.272C573.978 494.288 576.348 498.108 579.057 501.685C583.195 507.477 588.424 512.406 594.451 516.194C597.05 517.797 599.887 518.976 602.856 519.689C605.803 520.385 608.893 520.153 611.703 519.025C612.897 518.096 614.092 517.035 615.286 515.929C619.212 509.575 620.468 501.927 618.781 494.651C623.18 494.898 627.44 493.063 630.282 489.697Z" fill="#ED1A3B"/>
<path d="M63.2605 574.144H72.1075V576.09H71.0015C70.6385 576.004 70.2595 576.004 69.8955 576.09C69.6935 576.213 69.5375 576.4 69.4535 576.621C69.4035 577.077 69.4035 577.537 69.4535 577.993V584.716C68.0645 585.566 66.5795 586.249 65.0295 586.751C63.5895 587.147 62.1005 587.34 60.6065 587.326C57.0865 587.469 53.6745 586.1 51.2285 583.566C48.7355 580.815 47.4315 577.189 47.6005 573.48C47.4975 570.218 48.4775 567.014 50.3875 564.368C52.9105 561.005 56.9385 559.115 61.1375 559.325C62.6275 559.323 64.1125 559.501 65.5605 559.855C66.9715 560.193 68.3265 560.729 69.5865 561.448V567.508H66.8435V566.225C66.8905 565.376 66.7385 564.528 66.4015 563.748C65.9115 563.129 65.2495 562.667 64.4995 562.421C63.3225 561.935 62.0555 561.709 60.7835 561.758C58.2675 561.68 55.8385 562.678 54.1035 564.5C52.0085 566.955 50.9465 570.126 51.1395 573.347C50.9445 576.424 51.9255 579.46 53.8825 581.841C55.6005 583.797 58.0915 584.897 60.6945 584.849C61.6215 584.859 62.5445 584.74 63.4375 584.495C64.4105 584.264 65.3585 583.938 66.2685 583.522V577.55C66.3075 577.121 66.1815 576.694 65.9145 576.356C65.4595 576.093 64.9325 575.984 64.4105 576.046H63.2605V574.144Z" fill="white"/>
<path d="M78.7422 560.253H98.2062V566.181H95.6852V564.234C95.7542 563.884 95.7542 563.523 95.6852 563.173C95.5262 562.968 95.3102 562.814 95.0652 562.73C94.5352 562.684 94.0022 562.684 93.4732 562.73H84.6252V572.02H91.4382C91.9602 572.089 92.4892 571.979 92.9422 571.71C93.2282 571.314 93.3542 570.824 93.2962 570.339V569.454H95.4632V577.107H93.2962V575.913C93.2962 575.293 93.1632 574.895 92.8982 574.718C92.3972 574.448 91.8252 574.34 91.2612 574.409H84.6252V584.539H94.4022C94.8872 584.602 95.3782 584.475 95.7732 584.185C96.0642 583.724 96.1892 583.178 96.1272 582.637V581H98.6482V586.883H78.7422V584.981H79.6712C80.3792 584.981 80.8212 584.981 80.9982 584.672C81.2892 584.211 81.4142 583.665 81.3522 583.123V563.836C81.4032 563.365 81.2772 562.892 80.9982 562.509C80.9982 562.288 80.3792 562.199 79.6712 562.199H78.7422V560.253Z" fill="white"/>
<path d="M111.917 572.685H115.854C117.583 572.843 119.311 572.372 120.72 571.358C121.773 570.44 122.33 569.079 122.224 567.686C122.325 566.252 121.791 564.845 120.764 563.838C119.5 562.873 117.927 562.401 116.341 562.511H111.917V572.685ZM105.945 562.157V560.255H116.739C118.779 560.115 120.814 560.592 122.578 561.626C124.412 562.93 125.448 565.085 125.321 567.332C125.341 568.908 124.878 570.452 123.994 571.756C123.037 573.021 121.68 573.925 120.145 574.322L124.569 582.284C124.96 583.036 125.52 583.687 126.205 584.186C126.856 584.587 127.61 584.787 128.373 584.761H129.258V586.664H123.33L116.695 574.764H111.917V582.992C111.857 583.505 111.983 584.023 112.271 584.452C112.723 584.721 113.253 584.83 113.775 584.761H114.571V586.663H106.122V584.761H106.918C107.803 584.761 108.378 584.761 108.599 584.275C108.718 583.736 108.718 583.177 108.599 582.638V563.838C108.658 563.311 108.533 562.779 108.245 562.334C107.794 562.061 107.263 561.952 106.741 562.024L105.945 562.157Z" fill="white"/>
<path d="M134.477 560.255H142.218L149.827 583.081L157.568 560.255H165V562.157H164.204C163.642 562.09 163.075 562.231 162.611 562.555C162.42 563.048 162.345 563.577 162.39 564.104V583.081C162.325 583.583 162.417 584.094 162.656 584.541C163.122 584.82 163.664 584.943 164.204 584.895H165V586.797H156.551V584.895H157.347C158.232 584.895 158.763 584.895 158.94 584.541C159.178 583.952 159.269 583.314 159.205 582.683V562.157L150.889 586.797H147.704L139.431 562.29V583.081C139.372 583.608 139.497 584.139 139.785 584.585C140.221 584.854 140.737 584.964 141.245 584.895H142.041V586.797H134.477V584.895H135.362C135.875 584.954 136.393 584.829 136.822 584.541C137.043 584.32 137.131 583.789 137.131 582.904V564.104C137.196 563.534 137.072 562.959 136.777 562.467C136.777 562.246 136.114 562.157 135.362 562.157H134.477V560.255Z" fill="white"/>
<path d="M179.334 575.959H187.872L183.448 563.882L179.334 575.959ZM182.431 559.857H185.571L193.49 582.373C193.697 583.199 194.107 583.959 194.684 584.585C195.075 584.845 195.546 584.955 196.011 584.895H196.763V586.797H187.916V584.895H188.889C189.597 584.895 190.039 584.895 190.172 584.674C190.36 584.507 190.459 584.261 190.437 584.01C190.379 583.449 190.245 582.899 190.039 582.373L188.58 578.259H178.405L176.901 582.683C176.698 583.114 176.578 583.579 176.547 584.054C176.524 584.35 176.659 584.636 176.901 584.806C176.901 584.806 177.476 585.028 178.14 585.028H179.201V586.93H171.195V585.028H171.902C172.419 585.057 172.931 584.917 173.362 584.629C173.791 584.144 174.108 583.57 174.291 582.948L182.431 559.857Z" fill="white"/>
<path d="M202.69 560.256H210.343L222.464 581.799V563.529C222.51 563.132 222.362 562.737 222.066 562.468C221.583 562.192 221.024 562.083 220.473 562.158H219.81V560.256H227.772V562.158H226.932C226.41 562.086 225.879 562.195 225.428 562.468C225.151 562.966 225.043 563.54 225.118 564.105V587.152H221.667L207.998 562.822V582.905C207.876 583.414 207.876 583.945 207.998 584.453C208.445 584.815 209.022 584.975 209.591 584.896H210.343V586.798H202.469V584.896H203.442C204.15 584.896 204.592 584.896 204.813 584.542C205.035 584.188 205.123 583.746 205.123 582.772V563.839C205.123 563.087 205.123 562.645 204.813 562.424C204.546 562.19 204.193 562.078 203.84 562.114H202.469L202.69 560.256Z" fill="white"/>
<path d="M246.619 568.57L252.414 568.172V579.895C252.315 581.017 252.513 582.146 252.989 583.168C253.623 584.123 254.721 584.663 255.864 584.584C256.643 584.59 257.414 584.424 258.121 584.097C258.747 583.824 259.294 583.398 259.713 582.858C260.128 582.326 260.415 581.706 260.553 581.045C260.746 580.293 260.85 579.521 260.863 578.744V571.888C260.919 571.443 260.825 570.992 260.598 570.605C260.323 570.387 259.972 570.291 259.625 570.34H258.209V568.57L263.871 568.172V582.77C263.758 583.265 263.758 583.779 263.871 584.274C264.083 584.478 264.376 584.576 264.667 584.539H266.26V586.22L260.996 586.796C260.769 585.869 260.65 584.919 260.642 583.964C260.094 585.013 259.247 585.875 258.209 586.442C257.187 587.025 256.023 587.316 254.847 587.282C253.071 587.392 251.348 586.653 250.202 585.291C249.298 583.903 248.878 582.254 249.008 580.602V571.755C249.054 571.315 248.978 570.871 248.787 570.472C248.492 570.26 248.13 570.166 247.769 570.207H246.398L246.619 568.57Z" fill="white"/>
<path d="M278.422 572.597H282.226C283.977 572.758 285.728 572.304 287.181 571.314C288.234 570.396 288.791 569.035 288.685 567.643C288.756 566.255 288.261 564.899 287.313 563.882C286.065 562.886 284.48 562.411 282.89 562.555H278.466L278.422 572.597ZM272.627 562.157V560.255H283.244C284.877 560.194 286.509 560.418 288.066 560.919C289.252 561.395 290.247 562.251 290.897 563.352C292.254 565.712 292.369 568.587 291.206 571.049C290.746 571.982 290.081 572.798 289.26 573.438C288.483 573.995 287.591 574.373 286.65 574.543C285.525 574.745 284.386 574.863 283.244 574.897H278.422V583.214C278.364 583.699 278.49 584.189 278.776 584.585C279.322 584.861 279.938 584.969 280.545 584.895H281.386V586.797H272.539V584.895H273.202C273.786 584.96 274.375 584.836 274.883 584.541C275.123 584.063 275.216 583.524 275.149 582.993V563.838C275.218 563.331 275.108 562.815 274.839 562.379C274.339 562.108 273.767 562 273.202 562.069L272.627 562.157Z" fill="white"/>
<path d="M298.023 560.254H306.87V562.156H305.986C305.278 562.156 304.835 562.156 304.658 562.377C304.447 562.509 304.328 562.748 304.349 562.997C304.408 563.467 304.526 563.928 304.703 564.368L311.073 582.593L317.443 564.899C317.655 564.406 317.789 563.884 317.841 563.35C317.855 563.031 317.725 562.723 317.487 562.51C317.063 562.296 316.589 562.204 316.116 562.245H315.408V560.342H323.636V562.245H322.84C322.386 562.228 321.938 562.352 321.557 562.598C321.101 563.14 320.769 563.774 320.583 564.456L312.444 587.238H309.303L301.341 564.766C301.138 563.957 300.761 563.202 300.235 562.554C299.828 562.295 299.343 562.185 298.864 562.245H298.067L298.023 560.254Z" fill="white"/>
<path d="M349.951 561.713V567.685H347.164C347.24 566.465 347.121 565.24 346.81 564.058C346.389 563.445 345.785 562.981 345.085 562.73C343.798 562.187 342.412 561.916 341.015 561.934C338.448 561.876 335.993 562.982 334.335 564.942C332.42 567.325 331.473 570.342 331.681 573.391C331.5 576.391 332.464 579.348 334.38 581.664C336.025 583.59 338.437 584.691 340.971 584.672C342.592 584.654 344.196 584.339 345.704 583.743C347.331 583.224 348.835 582.381 350.128 581.266V584.495C348.815 585.529 347.312 586.295 345.704 586.751C344.053 587.241 342.34 587.495 340.617 587.503C338.333 587.53 336.085 586.933 334.114 585.778C332.184 584.597 330.646 582.874 329.691 580.823C328.659 578.593 328.145 576.158 328.186 573.701C328.09 570.42 329.052 567.194 330.929 564.5C333.292 561.214 337.148 559.336 341.192 559.501C342.786 559.516 344.374 559.709 345.925 560.077C347.336 560.436 348.69 560.987 349.951 561.713Z" fill="white"/>
<path d="M369.727 560.256H378.574V562.158H377.336C376.805 562.158 376.451 562.158 376.274 562.379C376.093 562.532 375.994 562.762 376.009 562.999C376.021 563.464 376.095 563.925 376.23 564.37L381.007 582.065L386.802 560.344H389.943L395.649 582.065L400.339 564.945C400.522 564.418 400.626 563.866 400.648 563.308C400.662 563.002 400.531 562.707 400.294 562.512C399.862 562.277 399.367 562.184 398.879 562.247H398.083V560.345H406.266V562.247H405.736C405.122 562.211 404.515 562.382 404.01 562.733C403.458 563.392 403.091 564.186 402.949 565.033L396.844 587.152H393.703L387.997 565.387L382.246 587.152H378.973L373.089 565.033C372.937 564.189 372.571 563.397 372.027 562.733C371.591 562.423 371.056 562.281 370.524 562.335H369.816L369.727 560.256Z" fill="white"/>
<path d="M412.727 560.255H421.353V562.157H420.69C420.086 562.081 419.474 562.222 418.964 562.555C418.714 563.125 418.622 563.751 418.699 564.369V583.258C418.699 583.921 418.699 584.364 419.009 584.541C419.517 584.836 420.106 584.96 420.69 584.895H421.353V586.797H412.727V584.895H413.523C414.364 584.895 414.85 584.895 415.072 584.585C415.314 584.029 415.406 583.418 415.337 582.816V563.44C415.387 563.064 415.256 562.686 414.983 562.422C414.532 562.195 414.025 562.102 413.523 562.157H412.727V560.255Z" fill="white"/>
<path d="M428.961 560.256H436.614L448.691 581.799V563.529C448.729 563.141 448.6 562.755 448.337 562.468C447.85 562.204 447.294 562.096 446.744 562.158H446.081V560.256H453.999V562.158H453.159C452.407 562.158 451.876 562.158 451.699 562.468C451.423 562.966 451.314 563.54 451.389 564.105V587.152H448.115L434.402 562.822V582.905C434.335 583.436 434.427 583.975 434.667 584.453C434.888 584.763 435.419 584.896 436.26 584.896H437.012V586.798H429.138V584.896H430.111C430.819 584.896 431.261 584.896 431.482 584.542C431.725 583.986 431.816 583.375 431.748 582.772V563.839C431.804 563.351 431.712 562.858 431.482 562.424C431.215 562.19 430.862 562.078 430.509 562.114H429.138L428.961 560.256Z" fill="white"/>
<path d="M466.743 562.644V584.453H472.096C473.03 584.436 473.962 584.347 474.883 584.187C475.772 584.085 476.631 583.799 477.404 583.347C478.314 582.793 479.098 582.055 479.704 581.179C480.406 580.192 480.916 579.081 481.208 577.906C481.583 576.462 481.762 574.974 481.739 573.482C481.829 571.253 481.373 569.036 480.412 567.023C479.678 565.516 478.443 564.312 476.917 563.617C475.195 562.903 473.339 562.571 471.476 562.644H466.743ZM460.727 560.255H472.096C474.594 560.136 477.087 560.574 479.395 561.538C481.301 562.506 482.85 564.056 483.818 565.962C484.953 568.271 485.515 570.821 485.455 573.393C485.666 577.363 484.187 581.235 481.385 584.054C479.081 586.029 476.098 587.028 473.069 586.841H460.815V584.939H461.744C462.54 584.939 463.027 584.939 463.248 584.497C463.448 583.96 463.523 583.386 463.469 582.816V563.617C463.505 563.229 463.412 562.841 463.204 562.511C462.778 562.258 462.281 562.15 461.788 562.202H460.859L460.727 560.255Z" fill="white"/>
<path d="M496.729 573.525C496.484 576.599 497.382 579.654 499.25 582.107C500.949 583.992 503.395 585.028 505.93 584.938C508.426 584.99 510.814 583.918 512.433 582.018C514.317 579.47 515.227 576.332 514.999 573.171C515.212 570.197 514.314 567.249 512.477 564.899C509.063 561.234 503.325 561.031 499.66 564.445C499.504 564.591 499.352 564.742 499.206 564.899C497.347 567.37 496.479 570.447 496.773 573.525H496.729ZM493.102 573.835C492.884 569.999 494.187 566.232 496.729 563.351C501.867 558.407 509.993 558.407 515.131 563.351C519.907 569.326 519.907 577.812 515.131 583.788C512.742 586.334 509.376 587.735 505.886 587.636C502.555 587.695 499.349 586.365 497.039 583.965C494.401 581.266 492.978 577.607 493.102 573.835Z" fill="white"/>
<path d="M523.32 560.256H532.167V562.158H530.973C530.442 562.158 530.088 562.158 529.911 562.379C529.73 562.532 529.632 562.762 529.646 562.999C529.608 563.455 529.608 563.914 529.646 564.37L534.423 582.065L540.263 560.344H543.359L549.066 582.065L553.799 564.945C553.951 564.412 554.04 563.862 554.065 563.308C554.097 563.008 553.981 562.712 553.755 562.512C553.319 562.288 552.827 562.196 552.339 562.247H551.499V560.345H559.683V562.247H559.152C558.538 562.211 557.931 562.382 557.426 562.733C556.874 563.392 556.507 564.186 556.365 565.033L550.304 587.152H547.119L541.457 565.387L535.662 587.152H532.433L526.505 565.033C526.353 564.189 525.987 563.397 525.444 562.733C525.007 562.423 524.473 562.281 523.94 562.335H523.32V560.256Z" fill="white"/>
<path d="M582.063 561.184V567.067H579.453V566.006C579.514 565.182 579.409 564.355 579.143 563.573C578.74 563.029 578.186 562.614 577.551 562.378C576.613 561.985 575.604 561.789 574.587 561.803C573.318 561.724 572.066 562.136 571.092 562.954C570.276 563.668 569.809 564.7 569.809 565.785C569.796 566.802 570.176 567.785 570.871 568.527C572.477 569.91 574.281 571.043 576.224 571.889C577.538 572.511 578.809 573.221 580.028 574.013C580.909 574.685 581.646 575.528 582.195 576.49C582.743 577.524 583.018 578.682 582.992 579.852C583.062 581.929 582.221 583.932 580.691 585.337C578.888 586.879 576.556 587.656 574.189 587.505C572.705 587.51 571.224 587.377 569.765 587.107C568.46 586.856 567.185 586.471 565.961 585.957V579.277H568.748V580.737C568.699 581.609 568.882 582.479 569.278 583.258C569.729 583.917 570.381 584.414 571.136 584.674C572.127 585.04 573.177 585.22 574.233 585.205C575.68 585.284 577.104 584.81 578.214 583.877C579.164 583.021 579.696 581.794 579.674 580.515C579.697 579.445 579.354 578.399 578.701 577.552C577.414 576.32 575.915 575.331 574.277 574.632C572.755 573.878 571.278 573.036 569.854 572.11C568.875 571.408 568.061 570.503 567.465 569.456C566.905 568.521 566.614 567.449 566.624 566.36C566.624 565.169 566.961 564.003 567.597 562.998C568.293 561.87 569.31 560.977 570.517 560.432C571.901 559.787 573.414 559.469 574.941 559.503C576.179 559.526 577.411 559.69 578.612 559.99C579.812 560.227 580.973 560.629 582.063 561.184Z" fill="white"/>
<path d="M620.638 417.856H617.188V416.352H625.769V417.856H622.319V426.703H620.638V417.856Z" fill="#424143"/>
<path d="M636.519 418.829L632.98 423.783H632.626L629.087 418.829V426.703H627.406V416.219H629.485L632.98 421.129L636.386 416.219H638.333V426.703H636.652L636.519 418.829Z" fill="#424143"/>
<path d="M627.757 404.808C618.45 404.808 610.903 412.354 610.903 421.662C610.903 430.97 618.45 438.516 627.757 438.516C637.065 438.516 644.611 430.97 644.611 421.662C644.587 412.364 637.056 404.832 627.757 404.808ZM627.757 439.18C617.985 439.18 610.062 431.258 610.062 421.485C610.062 411.713 617.985 403.791 627.757 403.791C637.53 403.791 645.452 411.713 645.452 421.485C645.452 431.258 637.53 439.18 627.757 439.18Z" fill="#424143"/>
</svg>
