<svg xmlns="http://www.w3.org/2000/svg" version="1.1" xmlns:xlink="http://www.w3.org/1999/xlink" width="512" height="512" x="0" y="0" viewBox="0 0 64 64" style="enable-background:new 0 0 512 512" xml:space="preserve" class=""><g><path d="M13.48 59.11h37.04c1.87 0 3.39-1.52 3.39-3.39V33h6.81c.98 0 1.82-.6 2.15-1.52.32-.92.04-1.91-.72-2.51l-9.89-7.99V7.27c0-1.31-1.07-2.38-2.38-2.38h-6.23c-1.31 0-2.38 1.07-2.38 2.38v4.83l-7.85-6.34a2.26 2.26 0 0 0-2.86 0l-28.7 23.2c-.76.61-1.05 1.6-.72 2.52A2.24 2.24 0 0 0 3.29 33h6.81v22.72c0 1.87 1.52 3.39 3.39 3.39zm15.02-2V43.97c0-1.59-.71-3.06-1.96-4.05a8.779 8.779 0 0 1-3.38-6.94c0-3.64 2.24-6.85 5.51-8.19l-1.64 5.66c-.36 1.27.14 2.64 1.23 3.33 2 1.29 4.15 1.94 6.47 1.9 1.31-.01 2.45-.88 2.83-2.17l1.64-5.66a8.804 8.804 0 0 1 1.65 5.12c0 2.73-1.23 5.26-3.38 6.95a5.107 5.107 0 0 0-1.96 4.04V57.1h-7zM43.28 7.27c0-.21.17-.38.38-.38h6.23c.21 0 .38.17.38.38v12.08l-5.1-4.11-1.88-1.52V7.27zM3.28 31c-.16 0-.23-.1-.26-.19-.04-.12-.01-.22.09-.3l28.72-23.2a.272.272 0 0 1 .34 0l9.47 7.65 2.68 2.16L60.89 30.5c.1.08.13.18.08.29-.03.08-.1.19-.26.19H52.9c-.55 0-1 .45-1 1V55.7c0 .77-.62 1.39-1.39 1.39H37.49V43.95c0-.97.44-1.87 1.2-2.47 2.63-2.07 4.14-5.17 4.14-8.52 0-2.98-1.25-5.85-3.42-7.87a.972.972 0 0 0-.95-.23c-.33.09-.6.35-.69.68l-2.15 7.39a1 1 0 0 1-.94.74c-1.9.04-3.69-.5-5.35-1.58a.991.991 0 0 1-.39-1.1l2.15-7.41c.1-.33.01-.7-.22-.95a.986.986 0 0 0-.93-.31c-5.09.98-8.79 5.46-8.79 10.64 0 3.34 1.51 6.45 4.14 8.51.76.6 1.2 1.5 1.2 2.48v13.14H13.47c-.77 0-1.39-.62-1.39-1.39V31.98c0-.55-.45-1-1-1h-7.8z" fill="#ed1a3b" opacity="1" data-original="#000000"></path></g></svg>