<svg xmlns="http://www.w3.org/2000/svg" version="1.1" xmlns:xlink="http://www.w3.org/1999/xlink" width="512" height="512" x="0" y="0" viewBox="0 0 512 512" style="enable-background:new 0 0 512 512" xml:space="preserve" class=""><g><path d="M491 15H124.47c-3.31 0-6 2.69-6 6V273.54H40.79c-14.22 0-25.79 11.57-25.79 25.79v41.49c0 14.22 11.57 25.79 25.79 25.79h14.16c7.39 21.62 7.41 42.43.05 63.37h-6.73c-6.61 0-11.98 5.37-11.98 11.98v43.06c0 6.61 5.37 11.98 11.98 11.98H491c3.31 0 6-2.69 6-6V21c0-3.31-2.69-6-6-6zM130.47 27H485v27.68H130.47zM485 445.32h-27.88V66.68H485zm-341.73-15.34h-30.58v-36.94h3.85c14.92 0 27.15-11.72 27.99-26.44H182c12.56 0 23.04-9.02 25.32-20.92h13.21c7.37 0 13.54-5.13 15.19-12h33.15c7.99 0 14.48-6.5 14.48-14.48s-6.5-14.48-14.48-14.48h-32.86c-1.02-7.64-7.56-13.56-15.48-13.56h-14.07c-3.43-10.23-13.09-17.62-24.46-17.62h-11.65V66.68h274.77v378.63H155.25v-3.35c0-6.6-5.38-11.98-11.98-11.98zm-10.78-63.37c-.8 8.09-7.65 14.44-15.95 14.44h-3.85v-14.44zm88.04-63.45c1.97 0 3.63 1.66 3.63 3.63v23.26c0 1.97-1.66 3.63-3.63 3.63h-12.74v-30.52zm15.63 13.56h32.71c1.34 0 2.48 1.14 2.48 2.48s-1.14 2.48-2.48 2.48h-32.71zM130.47 66.68h27.88v206.86h-27.88zM27 340.82v-41.49c0-7.6 6.19-13.79 13.79-13.79H176v35.18c0 3.31 2.69 6 6 6s6-2.69 6-6v-33.79c4.6 2.24 7.79 6.95 7.79 12.4v41.49c0 5.45-3.19 10.16-7.79 12.4v-12.84c0-3.31-2.69-6-6-6s-6 2.69-6 6v14.23H40.79c-7.6 0-13.79-6.19-13.79-13.79zm40.57 25.79h33.13v63.37H67.64c6.43-20.79 6.41-42.04-.07-63.37zM48.29 485.02v-25.1H63.1c3.31 0 6-2.69 6-6s-2.69-6-6-6H48.3v-5.94l94.95-.02v5.96H82.6c-3.31 0-6 2.69-6 6s2.69 6 6 6h60.66l.01 25.08zM485 485H155.25v-27.68H485zM301.89 263.04H203c-3.31 0-6-2.69-6-6s2.69-6 6-6h98.89v-151c0-3.31 2.69-6 6-6s6 2.69 6 6v151h98.89c3.31 0 6 2.69 6 6s-2.69 6-6 6h-98.89v151c0 3.31-2.69 6-6 6s-6-2.69-6-6zM198.45 134.76c-2.34-2.34-2.34-6.14 0-8.49l32.56-32.56c2.34-2.34 6.14-2.34 8.48 0s2.34 6.14 0 8.49l-32.56 32.56a5.991 5.991 0 0 1-8.48 0zm65.49-17.66c-2.34-2.34-2.34-6.14 0-8.49l2.35-2.35c2.34-2.34 6.14-2.34 8.49 0 2.34 2.34 2.34 6.14 0 8.49l-2.35 2.35a5.991 5.991 0 0 1-4.24 1.76 6.04 6.04 0 0 1-4.25-1.76zm-59.43 50.94 40.01-40.01c2.34-2.34 6.14-2.34 8.48 0s2.34 6.14 0 8.49l-40 40a5.991 5.991 0 0 1-8.48 0 5.99 5.99 0 0 1-.01-8.48zM34.5 301.72c0-3.31 2.69-6 6-6h26.83c3.31 0 6 2.69 6 6s-2.69 6-6 6H40.5c-3.31 0-6-2.69-6-6zm38.83 16.99c0 3.31-2.69 6-6 6H40.5c-3.31 0-6-2.69-6-6s2.69-6 6-6h26.83c3.31 0 6 2.69 6 6zm0 16.99c0 3.31-2.69 6-6 6H40.5c-3.31 0-6-2.69-6-6s2.69-6 6-6h26.83c3.31 0 6 2.69 6 6z" fill="#ffffff" opacity="1" data-original="#000000" class=""></path></g></svg>