<svg xmlns="http://www.w3.org/2000/svg" version="1.1" xmlns:xlink="http://www.w3.org/1999/xlink" width="512" height="512" x="0" y="0" viewBox="0 0 512 512" style="enable-background:new 0 0 512 512" xml:space="preserve" class=""><g><path fill-rule="evenodd" d="M161.55 100.236a7.176 7.176 0 0 1-.787.601l-47.113 36.027a7.176 7.176 0 0 1-.78.596l-75.439 57.688a13.658 13.658 0 0 0-5.246 9.073c-.467 3.502.391 7.178 2.687 10.18a13.662 13.662 0 0 0 9.074 5.247c3.502.467 7.178-.391 10.179-2.687L250.573 66.738a7.257 7.257 0 0 1 8.92.087L455.457 216.68c.245.162.475.337.693.522 2.94 2.116 6.479 2.898 9.857 2.448a13.667 13.667 0 0 0 8.834-4.943c.149-.219.309-.428.477-.625 2.116-2.941 2.899-6.48 2.448-9.858a13.662 13.662 0 0 0-5.246-9.073L264.876 36.362a13.513 13.513 0 0 0-4.384-2.237 13.891 13.891 0 0 0-4.976-.518 7.344 7.344 0 0 1-1.159-.006 13.875 13.875 0 0 0-4.897.524 13.538 13.538 0 0 0-4.383 2.237zm-12.069-36.179v27.14l-33.351 25.504V64.057zm-45.97-14.545V30.546h58.587v18.966zm181.558 227.07h82.24a7.273 7.273 0 0 1 7.273 7.273v82.24a7.273 7.273 0 0 1-7.273 7.273h-82.24a7.273 7.273 0 0 1-7.273-7.273v-82.24a7.273 7.273 0 0 1 7.273-7.273zm48.392 39.344h26.575v-24.798h-26.575zm-41.119 0h26.575v-24.798h-26.575zm26.574 14.545h-26.575v28.351h26.575zm41.12 0h-26.575v28.351h26.575zm-94.443 112.607H67.11v19.877h186.934a50.66 50.66 0 0 1 11.549-19.877zm-109.464-14.545h71.044V291.128h-71.044zm-57.087 0V200.884L254.977 81.639c51.959 39.733 103.8 79.982 155.935 119.585v200.758a35.795 35.795 0 0 0-16.017 1.817 35.99 35.99 0 0 0-4.298 1.838 53.203 53.203 0 0 0-14.627-12.02c-7.431-4.134-15.891-6.478-24.846-6.478-13.273 0-25.398 5.102-34.667 13.525-7.796 7.085-13.553 16.542-16.234 27.289h-.11a46.43 46.43 0 0 0-7.339.581h-51.056V283.856a7.273 7.273 0 0 0-7.273-7.273h-85.589a7.273 7.273 0 0 0-7.273 7.273v144.678H99.041zm152.759 48.968H59.837a7.273 7.273 0 0 1-7.273-7.273v-34.422a7.273 7.273 0 0 1 7.273-7.273h24.659V212.007l-21.563 16.489c-6.168 4.717-13.699 6.483-20.861 5.528-7.189-.959-14.011-4.641-18.733-10.814-4.717-6.168-6.483-13.699-5.527-20.862.958-7.188 4.641-14.011 10.814-18.732l72.959-55.792V64.057h-5.346a7.273 7.273 0 0 1-7.273-7.273V23.273A7.273 7.273 0 0 1 96.239 16h73.133a7.273 7.273 0 0 1 7.273 7.273v33.512a7.273 7.273 0 0 1-7.273 7.273h-5.345v16.017l72.245-55.246a28.065 28.065 0 0 1 9.1-4.623 28.322 28.322 0 0 1 9.606-1.122c3.2-.178 6.453.189 9.606 1.122a28.048 28.048 0 0 1 9.1 4.624l207.645 158.787c6.174 4.721 9.856 11.544 10.814 18.732.932 6.99-.727 14.329-5.191 20.412l-.052.081-.005-.002-.28.373c-4.721 6.173-11.544 9.855-18.732 10.813-6.99.932-14.329-.727-20.411-5.191l-.08-.052.002-.005a7229.308 7229.308 0 0 1-21.936-16.527v194.738a37.361 37.361 0 0 1 5.493 4.075c4.986 4.457 8.807 10.275 10.924 16.891h4.25c13.335 0 25.446 5.669 34.214 14.803 8.701 9.064 14.102 21.535 14.102 35.224a51.046 51.046 0 0 1-1.549 12.509 7.264 7.264 0 0 1-7.045 5.502v.009H260.395a7.274 7.274 0 0 1-7.148-5.929 51.014 51.014 0 0 1-1.443-12.571zm15.144-6.195a7.71 7.71 0 0 1-.071.403 37.207 37.207 0 0 0-.53 6.271c0 1.181.054 2.34.16 3.475h213.231c.105-1.135.16-2.294.16-3.475 0-9.826-3.834-18.733-10.011-25.167-6.109-6.364-14.521-10.315-23.759-10.315h-9.993v-.013a7.261 7.261 0 0 1-7.187-6.237c-.838-5.746-3.636-10.8-7.653-14.391-3.879-3.468-8.933-5.563-14.469-5.563a21.3 21.3 0 0 0-7.097 1.198 21.99 21.99 0 0 0-6.4 3.566 7.257 7.257 0 0 1-10.625-1.762c-3.503-5.443-8.237-9.929-13.775-13.009a36.474 36.474 0 0 0-17.801-4.603c-9.527 0-18.234 3.666-24.895 9.718-6.715 6.102-11.375 14.601-12.757 24.219a7.273 7.273 0 0 1-7.262 6.876h-6.098a32.108 32.108 0 0 0-5.593.491c-7.014 1.241-13.316 4.771-18.166 9.824-4.743 4.941-8.105 11.34-9.409 18.494zm3.239-300.987c3.891 3.891 6.298 9.268 6.298 15.207s-2.407 11.316-6.298 15.207-9.268 6.298-15.207 6.298-11.316-2.407-15.207-6.298-6.298-9.268-6.298-15.207 2.407-11.316 6.298-15.207 9.268-6.298 15.207-6.298 11.316 2.407 15.207 6.298zm-15.207-20.844c9.954 0 18.967 4.036 25.491 10.559 6.524 6.524 10.559 15.537 10.559 25.491s-4.035 18.967-10.559 25.491-15.537 10.559-25.491 10.559-18.967-4.035-25.491-10.559-10.559-15.537-10.559-25.491 4.036-18.967 10.559-25.491c6.524-6.524 15.537-10.559 25.491-10.559z" fill="#ffffff" opacity="1" data-original="#000000" class=""></path></g></svg>