<svg xmlns="http://www.w3.org/2000/svg" version="1.1" xmlns:xlink="http://www.w3.org/1999/xlink" width="512" height="512" x="0" y="0" viewBox="0 0 64 64" style="enable-background:new 0 0 512 512" xml:space="preserve" class=""><g><path d="m59.45 50.971-9.904-9.893a2.995 2.995 0 0 0-3.404-.575l-2.316-2.327a23 23 0 1 0-5.646 5.647l2.32 2.32a2.995 2.995 0 0 0 .574 3.407l9.892 9.905a5.999 5.999 0 1 0 8.484-8.484ZM10.15 39.85a21 21 0 1 1 29.7 0 21.024 21.024 0 0 1-29.7 0Zm31.113 1.414c.476-.476.914-.975 1.34-1.482l1.995 2.006-2.814 2.813-2-2a23.062 23.062 0 0 0 1.48-1.337Zm1.226 5.46 4.23-4.229a1 1 0 0 1 1.414 0l.708.707-5.645 5.645-.707-.709a1.002 1.002 0 0 1 0-1.413Zm15.55 11.321a4.018 4.018 0 0 1-5.658-.002L44.61 50.26l5.646-5.647 7.78 7.772a4.018 4.018 0 0 1 .004 5.658ZM25 6a19 19 0 1 0 19 19A19.022 19.022 0 0 0 25 6Zm0 36a17 17 0 1 1 17-17 17.019 17.019 0 0 1-17 17Zm12-20h-1.415a10.885 10.885 0 0 0-.981-2.36l1.002-1.004a2.009 2.009 0 0 0 0-2.828l-1.414-1.414a2 2 0 0 0-2.828 0l-1.003 1.002A10.895 10.895 0 0 0 28 14.415V13a2.002 2.002 0 0 0-2-2h-2a2.002 2.002 0 0 0-2 2v1.415a10.885 10.885 0 0 0-2.36.981l-1.004-1.002a2.047 2.047 0 0 0-2.828 0l-1.414 1.414a2.009 2.009 0 0 0 0 2.828l1.002 1.003A10.885 10.885 0 0 0 14.415 22H13a2.002 2.002 0 0 0-2 2v2a2.002 2.002 0 0 0 2 2h1.415a10.885 10.885 0 0 0 .981 2.36l-1.002 1.004a2.009 2.009 0 0 0 0 2.828l1.414 1.414a2.047 2.047 0 0 0 2.828 0l1.003-1.002a10.885 10.885 0 0 0 2.361.981V37a2.002 2.002 0 0 0 2 2h2a2.002 2.002 0 0 0 2-2v-1.415a10.895 10.895 0 0 0 2.36-.981l1.004 1.002a2 2 0 0 0 2.828 0l1.414-1.414a2.009 2.009 0 0 0 0-2.828l-1.002-1.003A10.885 10.885 0 0 0 35.585 28H37a2.002 2.002 0 0 0 2-2v-2a2.002 2.002 0 0 0-2-2Zm0 4h-2.2a1 1 0 0 0-.98.8 8.905 8.905 0 0 1-1.314 3.16 1 1 0 0 0 .127 1.259l1.56 1.56-1.415 1.413-1.56-1.559a1.002 1.002 0 0 0-1.259-.127 8.905 8.905 0 0 1-3.158 1.313 1 1 0 0 0-.801.98V37h-2v-2.2a1 1 0 0 0-.8-.98 8.905 8.905 0 0 1-3.16-1.314 1 1 0 0 0-1.259.127l-1.56 1.56-1.413-1.415 1.559-1.56a1 1 0 0 0 .127-1.259 8.905 8.905 0 0 1-1.313-3.158A1 1 0 0 0 15.2 26H13v-2h2.2a1 1 0 0 0 .98-.8 8.905 8.905 0 0 1 1.314-3.16 1 1 0 0 0-.127-1.259l-1.56-1.56 1.415-1.413 1.56 1.559a1 1 0 0 0 1.259.127 8.905 8.905 0 0 1 3.158-1.313A1 1 0 0 0 24 15.2V13h2v2.2a1 1 0 0 0 .8.98 8.905 8.905 0 0 1 3.16 1.314 1 1 0 0 0 1.259-.127l1.56-1.56 1.413 1.415-1.559 1.56a1 1 0 0 0-.127 1.259 8.905 8.905 0 0 1 1.313 3.158 1 1 0 0 0 .98.801H37Zm-12-7a6 6 0 1 0 6 6 6.007 6.007 0 0 0-6-6Zm0 10a4 4 0 1 1 4-4 4.005 4.005 0 0 1-4 4Z" fill="#ed1a3b" opacity="1" data-original="#000000" class=""></path></g></svg>