<svg xmlns="http://www.w3.org/2000/svg" version="1.1" xmlns:xlink="http://www.w3.org/1999/xlink" width="512" height="512" x="0" y="0" viewBox="0 0 64 64" style="enable-background:new 0 0 512 512" xml:space="preserve" class=""><g><path d="m2.81 35.908 4.855.94a23.43 23.43 0 0 0 2.761 6.657l-2.779 4.114a1 1 0 0 0 .122 1.267l5.466 5.466a.998.998 0 0 0 1.267.122l4.114-2.779a23.447 23.447 0 0 0 6.657 2.761l.94 4.855a1 1 0 0 0 .981.81h7.72c.479 0 .891-.34.981-.81l.94-4.855a23.443 23.443 0 0 0 6.66-2.762l.102.069 6.962 8a6.582 6.582 0 0 0 4.932 2.227c1.74 0 3.368-.673 4.604-1.909 2.536-2.536 2.537-6.672-.038-9.258l-.084-.08a2.699 2.699 0 0 0-.209-.191l-8.065-7.027-.015-.022a23.452 23.452 0 0 0 2.759-6.653l4.854-.94a1 1 0 0 0 .81-.982v-7.72a1 1 0 0 0-.81-.982l-4.854-.94a23.477 23.477 0 0 0-2.762-6.658l2.779-4.114a.999.999 0 0 0-.121-1.267l-5.466-5.465a1 1 0 0 0-1.267-.122l-4.114 2.779a23.44 23.44 0 0 0-6.658-2.761l-.94-4.855a1 1 0 0 0-.981-.81h-7.72a.998.998 0 0 0-.981.81l-.94 4.855a23.452 23.452 0 0 0-6.657 2.761L14.501 7.66a1 1 0 0 0-1.267.122l-5.466 5.465a1 1 0 0 0-.122 1.267l2.779 4.114a23.477 23.477 0 0 0-2.761 6.658l-4.855.94a1 1 0 0 0-.81.982v7.72a1 1 0 0 0 .81.982zm34.312 8.412a14.63 14.63 0 0 1-6.066 1.321c-8.037 0-14.575-6.539-14.575-14.575s6.538-14.575 14.575-14.575S45.63 23.029 45.63 31.066c0 2.082-.448 4.142-1.304 6.027l-2.357-2.05c1.513-4.175.494-8.813-2.688-11.996A11.442 11.442 0 0 0 27.09 20.44a1.002 1.002 0 0 0-.349 1.641l5.87 5.87a3.303 3.303 0 0 1 .002 4.644 3.264 3.264 0 0 1-2.325.962h-.005a3.237 3.237 0 0 1-2.312-.962l-5.872-5.872a.998.998 0 0 0-1.641.349 11.483 11.483 0 0 0 2.597 12.2 11.411 11.411 0 0 0 12.007 2.68l2.062 2.37zm21.458 7.854.102.096c1.76 1.768 1.76 4.636.002 6.395a4.482 4.482 0 0 1-3.344 1.321 4.505 4.505 0 0 1-3.272-1.541l-7.025-8.072s-.005-.011-.009-.016l-8.928-10.254a.975.975 0 0 0-.31-.23c-.032-.016-.064-.027-.098-.039a.973.973 0 0 0-.282-.06c-.022-.001-.042-.014-.065-.014-.012 0-.023.007-.035.007a.969.969 0 0 0-.364.076c-3.598 1.562-7.715.784-10.483-1.985a9.496 9.496 0 0 1-2.59-8.526l4.675 4.674a5.227 5.227 0 0 0 3.726 1.55h.008c1.413 0 2.74-.549 3.741-1.55a5.307 5.307 0 0 0-.002-7.468l-4.677-4.677a9.455 9.455 0 0 1 8.516 2.599c2.774 2.775 3.558 6.886 1.995 10.473-.174.4-.068.868.261 1.154l18.362 15.997c.033.027.064.059.097.091zM4 28.031l4.686-.907a1 1 0 0 0 .787-.773 21.512 21.512 0 0 1 2.986-7.202 1 1 0 0 0-.011-1.103l-2.683-3.97 4.3-4.299 3.97 2.682a.999.999 0 0 0 1.103.011 21.492 21.492 0 0 1 7.201-2.987.998.998 0 0 0 .772-.788l.908-4.685h6.069l.908 4.685a1 1 0 0 0 .772.788 21.471 21.471 0 0 1 7.202 2.987.999.999 0 0 0 1.103-.011l3.97-2.682 4.299 4.298-2.682 3.97a1 1 0 0 0-.012 1.103 21.475 21.475 0 0 1 2.987 7.202 1 1 0 0 0 .787.773l4.685.907v6.07l-4.685.907a1 1 0 0 0-.787.773 21.428 21.428 0 0 1-2.484 6.386l-4.266-3.714a16.598 16.598 0 0 0 1.743-7.387c0-9.139-7.436-16.575-16.574-16.575s-16.575 7.436-16.575 16.575S21.915 47.64 31.054 47.64c2.576 0 5.124-.61 7.425-1.761l3.711 4.264a21.431 21.431 0 0 1-6.421 2.504.998.998 0 0 0-.772.788l-.908 4.685H28.02l-.908-4.685a1 1 0 0 0-.772-.788 21.481 21.481 0 0 1-7.201-2.986 1.004 1.004 0 0 0-1.103.011l-3.97 2.682-4.3-4.299 2.683-3.97a1 1 0 0 0 .011-1.103 21.486 21.486 0 0 1-2.986-7.201.998.998 0 0 0-.787-.773l-4.686-.907v-6.07z" fill="#ed1a3b" opacity="1" data-original="#000000" class=""></path></g></svg>