<svg xmlns="http://www.w3.org/2000/svg" version="1.1" xmlns:xlink="http://www.w3.org/1999/xlink" width="512" height="512" x="0" y="0" viewBox="0 0 512 512" style="enable-background:new 0 0 512 512" xml:space="preserve" class=""><g><path d="M245.6 93.64a6 6 0 0 0 8.47-.55c20.76-23.63 50.69-37.19 82.12-37.19 60.24 0 109.25 49.01 109.25 109.25S396.43 274.4 336.19 274.4c-31.43 0-61.36-13.55-82.12-37.19-2.19-2.49-5.98-2.74-8.47-.55a6 6 0 0 0-.55 8.47c23.04 26.23 56.25 41.27 91.13 41.27 66.86 0 121.25-54.39 121.25-121.25 0-53.02-34.21-98.2-81.72-114.63C373.6 30.59 356.68 15 336.19 15c-20.5 0-37.42 15.6-39.53 35.55-19.7 6.8-37.55 18.63-51.6 34.63-2.19 2.49-1.95 6.28.54 8.46zM336.19 27c12.56 0 23.19 8.39 26.61 19.85a121.122 121.122 0 0 0-53.22.02C312.98 35.4 323.62 27 336.19 27zM151.9 165.16c0-3.31 2.69-6 6-6h121.2c3.31 0 6 2.69 6 6s-2.69 6-6 6H157.9c-3.31 0-6-2.69-6-6zm21.87-48.39c0-3.31 2.69-6 6-6h121.2c3.31 0 6 2.69 6 6s-2.69 6-6 6h-121.2c-3.31 0-6-2.69-6-6zm-43.74 96.78c0-3.31 2.69-6 6-6h121.2c3.31 0 6 2.69 6 6s-2.69 6-6 6h-121.2c-3.32 0-6-2.69-6-6zM342.19 93.36v69.32l26.93 26.93c2.34 2.34 2.34 6.14 0 8.49a5.991 5.991 0 0 1-8.48 0l-28.69-28.69a5.987 5.987 0 0 1-1.76-4.24v-71.8c0-3.31 2.69-6 6-6s6 2.67 6 5.99zM493.14 323.1c-7.84-14.39-25.29-19.74-42.44-13.02l-82.77 32.47C364.09 325.7 349 313.08 331 313.08h-81.16c-83.89-30.47-119.6-15.64-161 15.73v-7.91c0-7.29-5.93-13.22-13.22-13.22h-47.4c-7.29 0-13.22 5.93-13.22 13.22v162.87c0 7.29 5.93 13.22 13.22 13.22h47.39c7.29 0 13.22-5.93 13.22-13.22v-22.21c40.2-37.01 62.08-41.79 142.24-10.19l.33.12c39.83 13.09 69.08 12.69 94.85-1.27 34.37-18.63 69.25-37.67 102.99-56.08 17.06-9.31 34.13-18.63 51.2-27.93 7.43-4.05 12.85-10.77 15.25-18.94 2.41-8.15 1.5-16.74-2.55-24.17zM76.84 483.78c0 .66-.56 1.22-1.22 1.22h-47.4c-.66 0-1.22-.56-1.22-1.22V320.9c0-.66.56-1.22 1.22-1.22h47.39c.66 0 1.22.56 1.22 1.22v162.88zm407.34-139.89c-1.5 5.09-4.87 9.28-9.48 11.79-17.07 9.3-34.14 18.62-51.2 27.93-33.73 18.41-68.6 37.45-102.96 56.07-22.59 12.24-48.88 12.39-85.22.48-44.84-17.66-70.91-23.61-92.98-21.23-20.08 2.17-36.11 11.68-53.5 26.58V343.98c41.47-32.65 72.46-50.51 157.88-19.26.66.24 1.36.37 2.06.37H331c14.28 0 25.89 11.62 25.89 25.89s-11.62 25.89-25.89 25.89H228.54c-3.31 0-6 2.69-6 6s2.69 6 6 6H331c19.48 0 35.57-14.78 37.66-33.71l86.43-33.91c9.28-3.64 21.85-2.82 27.52 7.59 2.51 4.62 3.07 9.96 1.57 15.05z" fill="#ed1a3b" opacity="1" data-original="#000000" class=""></path></g></svg>