<svg xmlns="http://www.w3.org/2000/svg" version="1.1" xmlns:xlink="http://www.w3.org/1999/xlink" width="512" height="512" x="0" y="0" viewBox="0 0 512 512" style="enable-background:new 0 0 512 512" xml:space="preserve" class=""><g><path d="M419.485 11H92.515A25.544 25.544 0 0 0 67 36.515v438.97A25.544 25.544 0 0 0 92.515 501h326.97A25.544 25.544 0 0 0 445 475.485V36.515A25.544 25.544 0 0 0 419.485 11ZM435 475.485A15.533 15.533 0 0 1 419.485 491H92.515A15.533 15.533 0 0 1 77 475.485V36.515A15.533 15.533 0 0 1 92.515 21h326.97A15.533 15.533 0 0 1 435 36.515Z" fill="#ed1a3b" opacity="1" data-original="#000000" class=""></path><path d="M409.255 31.542h-306.51A15.275 15.275 0 0 0 87.488 46.8v418.4a15.275 15.275 0 0 0 15.257 15.258h306.51a15.275 15.275 0 0 0 15.257-15.258V46.8a15.275 15.275 0 0 0-15.257-15.258Zm-158.5 10h10.488v163.135h-10.487ZM97.488 46.8a5.264 5.264 0 0 1 5.257-5.258h138.011v163.135H97.488Zm317.024 418.4a5.263 5.263 0 0 1-5.257 5.258h-306.51a5.263 5.263 0 0 1-5.257-5.258V235.219h317.024Zm0-239.981H97.488v-10.542h317.024Zm0-20.542H271.244V41.542h138.011a5.264 5.264 0 0 1 5.257 5.258Z" fill="#ed1a3b" opacity="1" data-original="#000000" class=""></path></g></svg>