<svg xmlns="http://www.w3.org/2000/svg" version="1.1" xmlns:xlink="http://www.w3.org/1999/xlink" width="512" height="512" x="0" y="0" viewBox="0 0 500 500" style="enable-background:new 0 0 512 512" xml:space="preserve" class=""><g><path d="M391.718 425.313H108.282a7.126 7.126 0 0 1-7.127-7.126V32.126A7.125 7.125 0 0 1 108.282 25h283.436a7.126 7.126 0 0 1 7.127 7.126v386.061a7.126 7.126 0 0 1-7.127 7.126zM115.409 411.06h269.183V39.253H115.409z" fill="#ed1a3b" opacity="1" data-original="#000000" class=""></path><path d="M406.754 475H93.247c-6.681 0-12.116-5.434-12.116-12.116v-39.703c0-6.681 5.434-12.121 12.116-12.121h313.508c6.681 0 12.115 5.44 12.115 12.121v39.703c-.001 6.682-5.435 12.116-12.116 12.116zm-311.37-14.253h309.231v-35.433H95.384zM363.211 218.033H136.789a7.126 7.126 0 0 1-7.127-7.126V60.633a7.126 7.126 0 0 1 7.127-7.126h226.422a7.126 7.126 0 0 1 7.127 7.126v150.273a7.127 7.127 0 0 1-7.127 7.127zm-219.296-14.254h212.169V67.76H143.915zM363.211 396.813H136.789a7.127 7.127 0 0 1-7.127-7.127V239.413a7.127 7.127 0 0 1 7.127-7.127h226.422a7.127 7.127 0 0 1 7.127 7.127v150.273a7.127 7.127 0 0 1-7.127 7.127zm-219.296-14.254h212.169v-136.02H143.915z" fill="#ed1a3b" opacity="1" data-original="#000000" class=""></path><path d="M200.18 349.57a7.1 7.1 0 0 1-5.038-2.088 7.124 7.124 0 0 1 0-10.078l46.732-46.73c2.784-2.784 7.294-2.784 10.078 0s2.784 7.294 0 10.078l-46.733 46.73a7.1 7.1 0 0 1-5.039 2.088zM274.707 338.574a7.107 7.107 0 0 1-5.039-2.088 7.124 7.124 0 0 1 0-10.078l37.415-37.415a7.123 7.123 0 0 1 10.077 0 7.123 7.123 0 0 1 0 10.077l-37.415 37.415a7.098 7.098 0 0 1-5.038 2.089zM200.18 163.258a7.1 7.1 0 0 1-5.038-2.088 7.123 7.123 0 0 1 0-10.077l39.096-39.097c2.784-2.784 7.294-2.784 10.078 0s2.784 7.294 0 10.078l-39.097 39.096a7.105 7.105 0 0 1-5.039 2.088zM266.154 160.813a7.102 7.102 0 0 1-5.038-2.088 7.123 7.123 0 0 1 0-10.077l41.309-41.307c2.784-2.784 7.294-2.784 10.078 0s2.784 7.293 0 10.077l-41.31 41.307a7.101 7.101 0 0 1-5.039 2.088z" fill="#ed1a3b" opacity="1" data-original="#000000" class=""></path></g></svg>